<?xml version="1.0" encoding="UTF-8" standalone="no"?>
<!-- Created with Inkscape (http://www.inkscape.org/) -->

<svg
   xmlns:dc="http://purl.org/dc/elements/1.1/"
   xmlns:cc="http://creativecommons.org/ns#"
   xmlns:rdf="http://www.w3.org/1999/02/22-rdf-syntax-ns#"
   xmlns:svg="http://www.w3.org/2000/svg"
   xmlns="http://www.w3.org/2000/svg"
   xmlns:sodipodi="http://sodipodi.sourceforge.net/DTD/sodipodi-0.dtd"
   xmlns:inkscape="http://www.inkscape.org/namespaces/inkscape"
   width="210mm"
   height="297mm"
   viewBox="0 0 744.09448819 1052.3622047"
   id="svg2"
   version="1.1"
   inkscape:version="0.91 r13725"
   sodipodi:docname="drawing.svg">
  <defs
     id="defs4" />
  <sodipodi:namedview
     id="base"
     pagecolor="#ffffff"
     bordercolor="#666666"
     borderopacity="1.0"
     inkscape:pageopacity="0.0"
     inkscape:pageshadow="2"
     inkscape:zoom="1.4"
     inkscape:cx="380.71429"
     inkscape:cy="520"
     inkscape:document-units="px"
     inkscape:current-layer="layer1"
     showgrid="false"
     inkscape:window-width="3840"
     inkscape:window-height="2043"
     inkscape:window-x="0"
     inkscape:window-y="43"
     inkscape:window-maximized="1" />
  <metadata
     id="metadata7">
    <rdf:RDF>
      <cc:Work
         rdf:about="">
        <dc:format>image/svg+xml</dc:format>
        <dc:type
           rdf:resource="http://purl.org/dc/dcmitype/StillImage" />
        <dc:title></dc:title>
      </cc:Work>
    </rdf:RDF>
  </metadata>
  <g
     inkscape:label="Layer 1"
     inkscape:groupmode="layer"
     id="layer1">
    <rect
       style="fill:#0000ff;fill-rule:evenodd;stroke:#000000;stroke-width:1px;stroke-linecap:butt;stroke-linejoin:miter;stroke-opacity:1"
       id="rect3336"
       width="92.85714"
       height="107.85714"
       x="49.285713"
       y="65.219345" />
    <text
       xml:space="preserve"
       style="font-style:normal;font-weight:normal;font-size:40px;line-height:125%;font-family:sans-serif;letter-spacing:0px;word-spacing:0px;fill:#000000;fill-opacity:1;stroke:none;stroke-width:1px;stroke-linecap:butt;stroke-linejoin:miter;stroke-opacity:1"
       x="82.85714"
       y="126.64792"
       id="text3338"
       sodipodi:linespacing="125%"><tspan
         sodipodi:role="line"
         id="tspan3340"
         x="82.85714"
         y="126.64792">ttt</tspan></text>
    <path
       sodipodi:type="spiral"
       style="fill:none;fill-rule:evenodd;stroke:#000000;stroke-width:1px;stroke-linecap:butt;stroke-linejoin:miter;stroke-opacity:1"
       id="path3342"
       sodipodi:cx="252.85715"
       sodipodi:cy="153.07649"
       sodipodi:expansion="1"
       sodipodi:revolution="3"
       sodipodi:radius="91.796135"
       sodipodi:argument="-19.215612"
       sodipodi:t0="0"
       d="m 252.85715,153.07649 c 4.29758,-1.6474 4.34094,4.98028 2.73809,7.14286 -4.34361,5.86046 -13.14083,3.19218 -17.02381,-1.66667 -6.94573,-8.69134 -2.60005,-21.28326 6.07143,-26.90476 12.72575,-8.24978 29.55431,-2.04062 36.78572,10.47619 9.63832,16.68294 1.49813,37.87339 -14.88096,46.66667 -20.6114,11.06544 -46.21594,0.96502 -56.54762,-19.28572 -12.51303,-24.52635 -0.43745,-54.57184 23.69048,-66.42857 28.43394,-13.97274 62.93608,0.0866 76.30952,28.09524 15.44018,32.33707 -0.60834,71.30587 -32.5,86.19048 -36.23732,16.91283 -79.67956,-1.12846 -96.07142,-36.90477 -18.3892,-40.13561 1.64738,-88.056094 41.30952,-105.952376 44.0325,-19.868265 96.43477,2.165434 115.83333,45.714286" />
    <path
       sodipodi:type="spiral"
       style="fill:none;fill-rule:evenodd;stroke:#000000;stroke-width:1px;stroke-linecap:butt;stroke-linejoin:miter;stroke-opacity:1"
       id="path3344"
       sodipodi:cx="247.85715"
       sodipodi:cy="157.3622"
       sodipodi:expansion="1"
       sodipodi:revolution="3"
       sodipodi:radius="64.055145"
       sodipodi:argument="-18.972528"
       sodipodi:t0="0"
       d="m 247.85715,157.3622 c 3.18737,-0.39395 2.10357,4.10215 0.65476,5.29762 -3.92616,3.23964 -9.43621,-0.0451 -11.25,-3.98809 -3.24445,-7.05309 1.81372,-14.85149 8.63094,-17.20239 10.00455,-3.45004 20.35936,3.5818 23.15477,13.2738 3.72584,12.9179 -5.34647,25.90261 -17.91665,29.10715 -15.81827,4.03259 -31.46334,-7.10874 -35.05954,-22.5595 -4.35547,-18.71294 8.86949,-37.03404 27.20236,-41.01192 21.60465,-4.6878 42.61097,10.62927 46.96431,31.8452 5.0261,24.49464 -12.38841,48.19206 -36.48806,52.9167 -27.38357,5.36843 -53.77607,-14.14709 -58.86908,-41.13092 -5.71359,-30.27177 15.90546,-59.36219 45.77377,-64.82146 33.15948,-6.060828 64.9499,17.66359 70.77384,50.41662" />
    <path
       sodipodi:type="spiral"
       style="fill:none;fill-rule:evenodd;stroke:#000000;stroke-width:1px;stroke-linecap:butt;stroke-linejoin:miter;stroke-opacity:1"
       id="path3346"
       sodipodi:cx="234.28572"
       sodipodi:cy="153.07649"
       sodipodi:expansion="1"
       sodipodi:revolution="3"
       sodipodi:radius="62.290466"
       sodipodi:argument="-18.918413"
       sodipodi:t0="0"
       d="m 234.28572,153.07649 c 3.11574,-0.21488 1.82685,4.09395 0.35715,5.17857 -3.98282,2.93927 -9.16045,-0.54012 -10.71429,-4.46427 -2.77946,-7.0194 2.54234,-14.3258 9.2857,-16.25001 9.89615,-2.82386 19.58109,4.5489 21.78573,14.10713 2.93842,12.7396 -6.55402,24.87092 -18.92856,27.32144 -15.57208,3.08373 -30.17785,-8.55771 -32.85716,-23.74998 -3.245,-18.39986 10.56046,-35.49453 28.5714,-38.39288 21.22527,-3.41559 40.81733,12.5626 43.9286,33.39283 3.59209,24.04932 -14.56432,46.14418 -38.21425,49.46431 -26.87255,3.77255 -51.47389,-16.56576 -55.00003,-43.03567 -3.9558,-29.69524 18.56701,-56.805685 47.8571,-60.535752 32.51755,-4.14108 62.13903,20.568112 66.07147,52.678522" />
    <path
       sodipodi:type="spiral"
       style="fill:none;fill-rule:evenodd;stroke:#000000;stroke-width:1px;stroke-linecap:butt;stroke-linejoin:miter;stroke-opacity:1"
       id="path3348"
       sodipodi:cx="208.57143"
       sodipodi:cy="158.79077"
       sodipodi:expansion="1"
       sodipodi:revolution="3"
       sodipodi:radius="102.18281"
       sodipodi:argument="-18.877522"
       sodipodi:t0="0"
       d="m 208.57143,158.79077 c 5.12128,-0.14326 2.71976,6.83271 0.2381,8.51191 -6.72516,4.55052 -14.97824,-1.4996 -17.26191,-8.0357 -4.08496,-11.69156 5.12773,-23.31025 16.3095,-26.01192 16.40969,-3.96481 31.7894,8.76902 34.76192,24.5833 3.96191,21.07795 -12.41025,40.32525 -32.8571,43.51193 -25.73027,4.01012 -48.88922,-16.0503 -52.26194,-41.1309 -4.08482,-30.37597 19.68945,-57.46924 49.40471,-61.01195 35.0184,-4.174959 66.0593,23.32801 69.76195,57.67851 4.27486,39.65901 -26.96617,74.65607 -65.95231,78.51196 -44.29854,4.38131 -83.25754,-30.60406 -87.26197,-74.22611 -4.49237,-48.93736 34.24176,-91.862422 82.49992,-96.011977 53.5757,-4.606793 100.46987,37.879327 104.76198,90.773717" />
    <path
       style="fill:none;fill-rule:evenodd;stroke:#000000;stroke-width:1px;stroke-linecap:butt;stroke-linejoin:miter;stroke-opacity:1"
       d="m 407.14286,93.076489 c 1.19047,0 2.40015,-0.212958 3.57143,0 1.48155,0.269374 2.81329,1.113053 4.28571,1.428572 1.87698,0.402209 3.83198,0.337824 5.71429,0.714286 3.8773,0.775461 6.72844,2.358912 10.71428,2.857142 3.54385,0.442982 7.17419,-0.472013 10.71429,0 15.27144,2.036191 -5.05779,1.199967 12.85714,2.142861 2.1399,0.11262 4.28571,0 6.42857,0 2.85714,0 5.71429,0 8.57143,0 5.71429,0 11.42857,0 17.14286,0 2.85714,0 5.72415,-0.237276 8.57143,0 2.88654,0.24054 5.68792,1.15395 8.57142,1.42857 2.13321,0.20316 4.28572,0 6.42858,0 1.42857,0 2.85714,0 4.28571,0 1.42857,0 2.88489,-0.28017 4.28571,0 1.04412,0.20882 1.82415,1.17032 2.85715,1.42857 0.92394,0.23099 1.91772,-0.15657 2.85714,0 0.52515,0.0875 0.91207,0.58516 1.42857,0.71429 0.46197,0.11549 0.97682,-0.15059 1.42857,0 0.0887,0.0296 2.08159,2.02031 2.14286,2.14285 0.10648,0.21296 -0.10648,0.50133 0,0.71429 0.15059,0.30117 0.47619,0.47619 0.71429,0.71428 0.23809,0.2381 0.41311,0.5637 0.71428,0.71429 0.21296,0.10648 0.60781,-0.21296 0.71429,0 0.21296,0.42592 -0.1155,0.9666 0,1.42857 0.12912,0.5165 0.54592,0.9235 0.71428,1.42857 0.12886,0.38658 0,2.61381 0,2.85715 0,0.47619 0.15059,0.97681 0,1.42857 -1.72462,5.17387 0.20593,-1.12615 -1.42857,2.14285 -0.10648,0.21296 0,0.47619 0,0.71429 -0.23809,0.47619 -0.39485,1.00265 -0.71428,1.42857 -0.40406,0.53875 -1.0821,0.85111 -1.42858,1.42857 -0.38737,0.64563 -0.29663,1.51639 -0.71428,2.14286 -0.56033,0.8405 -1.42857,1.42857 -2.14286,2.14286 -0.71428,0.71428 -1.42857,1.42857 -2.14286,2.14285 -0.71428,0.71429 -1.55571,1.32087 -2.14285,2.14286 -0.6189,0.86646 -0.83793,1.97118 -1.42857,2.85714 -0.37356,0.56034 -1.00788,0.90271 -1.42858,1.42858 -0.53627,0.67034 -0.89229,1.4725 -1.42857,2.14285 -0.42069,0.52587 -1.00788,0.90271 -1.42857,1.42857 -0.53628,0.67035 -0.89229,1.47251 -1.42857,2.14286 -0.42069,0.52587 -1.00788,0.90271 -1.42857,1.42857 -0.53628,0.67035 -0.879,1.48337 -1.42857,2.14286 -1.50893,1.81071 -3.44789,3.22616 -5,5 -0.78394,0.89592 -1.35893,1.96122 -2.14286,2.85714 -0.88692,1.01363 -2.04902,1.77965 -2.85714,2.85715 -0.63888,0.85183 -0.7634,2.02567 -1.42857,2.85714 -0.33259,0.41573 -0.97205,0.44037 -1.42858,0.71428 -0.73612,0.44168 -1.45608,0.9135 -2.14285,1.42858 -0.26938,0.20203 -0.41312,0.5637 -0.71429,0.71428 -0.75287,0.37644 -3.37136,-0.68094 -3.57143,-0.71428 -0.70456,-0.11743 -1.42857,0 -2.14285,0 -1.90477,0 -3.80953,0 -5.71429,0 -1.66667,0 -3.34795,0.22027 -5,0 -14.31688,-1.90892 3.93659,-1.17777 -12.85714,-2.85715 -2.36914,-0.23691 -4.76191,0 -7.14286,0 -4.52381,0 -9.04762,0 -13.57143,0 -1.66666,0 -3.33333,0 -5,0 -1.42857,0 -2.8715,0.20203 -4.28571,0 -0.33334,-0.0476 -0.41312,-0.5637 -0.71429,-0.71428 -0.42592,-0.21296 -0.9666,0.11549 -1.42857,0 -0.73044,-0.18261 -1.39575,-0.6209 -2.14286,-0.71429 -1.18128,-0.14766 -2.38095,0 -3.57143,0 -0.95238,0 -1.90476,0 -2.85714,0 -2.85714,0 -5.71428,0 -8.57143,0 -2.61904,0 -5.23809,0 -7.85714,0 -3.93954,0 -4.21082,-0.28016 -7.85714,0.71429 -1.45279,0.39621 -2.82483,1.06335 -4.28572,1.42857 -0.12933,0.0323 -3.52696,-0.0445 -3.57143,0 -0.16835,0.16836 0.16836,0.54593 0,0.71428 -1.01233,1.01234 -2.22801,-3.42716 0,2.14286 1.29475,3.23687 0.0659,0.0989 1.42858,2.14286 0.29532,0.44298 0.41896,0.98559 0.71428,1.42857 0.18678,0.28017 0.47619,0.47619 0.71429,0.71429 0.23809,0.47619 0.41896,0.98559 0.71428,1.42857 0.18678,0.28016 0.52751,0.43412 0.71429,0.71428 0.29532,0.44298 0.39485,1.00266 0.71428,1.42857 0.40407,0.53875 1.02452,0.88983 1.42858,1.42858 0.31943,0.42591 0.39484,1.00265 0.71428,1.42857 0.60609,0.80812 1.42857,1.42857 2.14286,2.14285 0.47619,0.47619 0.95238,0.95238 1.42857,1.42858 0.2381,0.23809 0.43412,0.5275 0.71429,0.71428 0.44298,0.29532 1.05211,0.33783 1.42857,0.71429 0.37646,0.37646 0.41896,0.98559 0.71428,1.42857 0.18678,0.28016 0.5637,0.41311 0.71429,0.71428 0.33672,0.67344 0.26253,1.54052 0.71428,2.14286 0.31944,0.42592 0.98559,0.41897 1.42858,0.71429 0.28016,0.18677 0.43412,0.52751 0.71428,0.71428 0.44298,0.29532 0.95238,0.47619 1.42857,0.71429 1.42857,0.71428 2.85715,1.42857 4.28572,2.14286 1.16582,0.58291 2.24746,1.20791 3.57143,1.42857 0.70456,0.11742 1.42857,0 2.14285,0 2.61905,0 5.2381,0 7.85715,0 0.71428,0 1.43829,-0.11743 2.14285,0 4.85772,0.80962 -0.65046,0.49746 4.28572,2.14285 1.78571,0.59524 1.98412,-0.39682 3.57143,0 0.5165,0.12913 0.90651,0.60988 1.42857,0.71429 0.93388,0.18678 1.90476,0 2.85714,0 0.2381,0 0.47619,0 0.71429,0 0.23809,0 0.50132,0.10648 0.71428,0 0.30117,-0.15059 0.41312,-0.5637 0.71429,-0.71429 0.21296,-0.10648 0.48841,0.0753 0.71428,0 1.30039,-0.43346 2.43038,-1.49082 3.57143,-2.14285 0.0679,-0.0388 5.69146,-2.84084 5.71429,-2.85715 0.82199,-0.58714 1.32086,-1.55571 2.14285,-2.14285 0.86646,-0.6189 1.93265,-0.90029 2.85715,-1.42857 1.49071,-0.85184 2.795,-2.00531 4.28571,-2.85715 1.38675,-0.79243 2.91614,-1.32111 4.28572,-2.14285 0.36061,-0.21637 2.75505,-1.97959 3.57142,-2.14286 0.70042,-0.14008 1.4499,0.17324 2.14286,0 0.32667,-0.0817 0.39485,-0.60781 0.71429,-0.71429 0.45175,-0.15058 0.9666,0.1155 1.42857,0 0.5165,-0.12912 0.93425,-0.51656 1.42857,-0.71428 0.69907,-0.27963 1.4189,-0.50745 2.14286,-0.71429 1.88784,-0.53938 3.80952,-0.95238 5.71428,-1.42857 0.95238,-0.2381 1.88304,-0.59252 2.85715,-0.71429 0.94502,-0.11812 1.90476,0 2.85714,0 1.19048,0 2.38095,0 3.57143,0 2.85714,0 5.71428,0 8.57143,0 1.19047,0 2.40407,0.23348 3.57142,0 1.25729,-0.25145 2.30993,-1.1992 3.57143,-1.42857 1.40553,-0.25555 2.85715,0 4.28572,0 1.66666,0 3.33757,0.11875 5,0 1.67931,-0.11995 3.32069,-0.59433 5,-0.71428 1.66243,-0.11875 3.33333,0 5,0 3.80952,0 7.61905,0 11.42857,0 8.09524,0 16.19048,0 24.28571,0 10.47619,0 20.95238,0 31.42857,0 1.90477,0 3.80953,0 5.71429,0 1.66667,0 3.37602,0.37476 5,0 1.55629,-0.35915 2.75588,-1.68391 4.28571,-2.14286 7.11893,0 0.79599,0.67343 3.57143,-0.71429 0.21296,-0.10648 0.60781,0.21296 0.71429,0 0.11174,-0.22348 0,-3.8431 0,-4.28571 0,-4.28571 0,-8.57143 0,-12.85714 0,-2.61905 0,-5.2381 0,-7.85715 0,-0.71428 0,-1.42857 0,-2.14285 0,-0.71429 0.14008,-1.44245 0,-2.14286 -0.10441,-0.52206 -0.51656,-0.93425 -0.71429,-1.42857 -0.27963,-0.69907 -0.47619,-1.42857 -0.71428,-2.14286 -0.2381,-0.71428 -0.29664,-1.51639 -0.71429,-2.14286 -0.56033,-0.84049 -1.47766,-1.38264 -2.14286,-2.14285 -1.00392,-1.14735 -1.83161,-2.44335 -2.85714,-3.57143 -1.84737,-2.03212 -7.08763,-7.10604 -9.28571,-8.57143 -0.0335,-0.0223 -11.33967,-5.66428 -11.42857,-5.71429 -1.95772,-1.10121 -3.65643,-2.67111 -5.71429,-3.57142 -3.74911,-1.64024 -6.26363,-1.20877 -10,-2.14286 -3.53058,-0.88265 -4.18709,-1.37926 -7.14286,-2.857145 -0.95238,-0.47619 -1.84699,-1.091854 -2.85714,-1.428571 -2.56311,-0.854369 -3.36271,-0.714286 -5.71429,-0.714286 -0.47619,0 -0.95716,0.06734 -1.42857,0 -1.20185,-0.171693 -2.38095,-0.47619 -3.57143,-0.714286 -2.85714,0 -5.72105,0.196578 -8.57142,0 -27.57176,-1.9015 3.26353,-1.428571 -24.28572,-1.428571"
       id="path3350"
       inkscape:connector-curvature="0" />
  </g>
</svg>
