<?xml version="1.0" encoding="UTF-8"?>
<!DOCTYPE svg PUBLIC "-//W3C//DTD SVG 1.1//EN" "http://www.w3.org/Graphics/SVG/1.1/DTD/svg11.dtd">
<svg version="1.1" xmlns="http://www.w3.org/2000/svg" xmlns:xlink="http://www.w3.org/1999/xlink" x="0" y="0" width="860" height="680" viewBox="0, 0, 860, 680">
  <g id="Background">
    <rect x="0" y="0" width="860" height="680" fill="#FFFFFF"/>
  </g>
  <g id="Layer_1">
    <g>
      <g>
        <g>
          <path d="M189.703,99.229 C196.33,99.229 201.703,104.601 201.703,111.229 L201.703,208.729 C201.703,215.356 196.33,220.729 189.703,220.729 L50.703,220.729 C44.075,220.729 38.703,215.356 38.703,208.729 L38.703,111.229 C38.703,104.601 44.075,99.229 50.703,99.229 L189.703,99.229 z" fill="#000000"/>
          <path d="M189.703,99.229 C196.33,99.229 201.703,104.601 201.703,111.229 L201.703,208.729 C201.703,215.356 196.33,220.729 189.703,220.729 L50.703,220.729 C44.075,220.729 38.703,215.356 38.703,208.729 L38.703,111.229 C38.703,104.601 44.075,99.229 50.703,99.229 L189.703,99.229 z" fill-opacity="0" stroke="#000000" stroke-width="5"/>
        </g>
        <g>
          <path d="M66.953,118.729 L173.453,118.729 C180.08,118.729 185.453,124.101 185.453,130.729 L185.453,189.229 C185.453,195.856 180.08,201.229 173.453,201.229 L66.953,201.229 C60.325,201.229 54.953,195.856 54.953,189.229 L54.953,130.729 C54.953,124.101 60.325,118.729 66.953,118.729 z" fill="#FFFFFF"/>
          <path d="M66.953,118.729 L173.453,118.729 C180.08,118.729 185.453,124.101 185.453,130.729 L185.453,189.229 C185.453,195.856 180.08,201.229 173.453,201.229 L66.953,201.229 C60.325,201.229 54.953,195.856 54.953,189.229 L54.953,130.729 C54.953,124.101 60.325,118.729 66.953,118.729 z" fill-opacity="0" stroke="#000000" stroke-width="5"/>
        </g>
      </g>
      <g>
        <g>
          <path d="M65.703,280.229 L105.203,280.229 C111.83,280.229 117.203,285.601 117.203,292.229 L117.203,398.729 C117.203,405.356 111.83,410.729 105.203,410.729 L65.703,410.729 C59.075,410.729 53.703,405.356 53.703,398.729 L53.703,292.229 C53.703,285.601 59.075,280.229 65.703,280.229 z" fill="#000000"/>
          <path d="M65.703,280.229 L105.203,280.229 C111.83,280.229 117.203,285.601 117.203,292.229 L117.203,398.729 C117.203,405.356 111.83,410.729 105.203,410.729 L65.703,410.729 C59.075,410.729 53.703,405.356 53.703,398.729 L53.703,292.229 C53.703,285.601 59.075,280.229 65.703,280.229 z" fill-opacity="0" stroke="#000000" stroke-width="5"/>
        </g>
        <g>
          <path d="M65.703,294.979 L105.203,294.979 L105.203,395.979 L65.703,395.979 z" fill="#FFFFFF"/>
          <path d="M65.703,294.979 L105.203,294.979 L105.203,395.979 L65.703,395.979 z" fill-opacity="0" stroke="#000000" stroke-width="5"/>
        </g>
      </g>
      <g>
        <g>
          <path d="M95.407,310.397 L134.907,310.397 C141.534,310.397 146.907,315.77 146.907,322.397 L146.907,428.897 C146.907,435.524 141.534,440.897 134.907,440.897 L95.407,440.897 C88.779,440.897 83.407,435.524 83.407,428.897 L83.407,322.397 C83.407,315.77 88.779,310.397 95.407,310.397 z" fill="#000000"/>
          <path d="M95.407,310.397 L134.907,310.397 C141.534,310.397 146.907,315.77 146.907,322.397 L146.907,428.897 C146.907,435.524 141.534,440.897 134.907,440.897 L95.407,440.897 C88.779,440.897 83.407,435.524 83.407,428.897 L83.407,322.397 C83.407,315.77 88.779,310.397 95.407,310.397 z" fill-opacity="0" stroke="#000000" stroke-width="5"/>
        </g>
        <g>
          <path d="M95.407,325.147 L134.907,325.147 L134.907,426.147 L95.407,426.147 z" fill="#FFFFFF"/>
          <path d="M95.407,325.147 L134.907,325.147 L134.907,426.147 L95.407,426.147 z" fill-opacity="0" stroke="#000000" stroke-width="5"/>
        </g>
      </g>
      <g>
        <g>
          <path d="M123.266,338.837 L162.766,338.837 C169.394,338.837 174.766,344.21 174.766,350.837 L174.766,457.337 C174.766,463.964 169.394,469.337 162.766,469.337 L123.266,469.337 C116.639,469.337 111.266,463.964 111.266,457.337 L111.266,350.837 C111.266,344.21 116.639,338.837 123.266,338.837 z" fill="#000000"/>
          <path d="M123.266,338.837 L162.766,338.837 C169.394,338.837 174.766,344.21 174.766,350.837 L174.766,457.337 C174.766,463.964 169.394,469.337 162.766,469.337 L123.266,469.337 C116.639,469.337 111.266,463.964 111.266,457.337 L111.266,350.837 C111.266,344.21 116.639,338.837 123.266,338.837 z" fill-opacity="0" stroke="#000000" stroke-width="5"/>
        </g>
        <g>
          <path d="M123.266,353.587 L162.766,353.587 L162.766,454.587 L123.266,454.587 z" fill="#FFFFFF"/>
          <path d="M123.266,353.587 L162.766,353.587 L162.766,454.587 L123.266,454.587 z" fill-opacity="0" stroke="#000000" stroke-width="5"/>
        </g>
      </g>
      <g>
        <g>
          <path d="M225.535,133.89 C232.163,133.89 237.535,139.263 237.535,145.89 L237.535,243.39 C237.535,250.018 232.163,255.39 225.535,255.39 L86.535,255.39 C79.908,255.39 74.535,250.018 74.535,243.39 L74.535,145.89 C74.535,139.263 79.908,133.89 86.535,133.89 L225.535,133.89 z" fill="#000000"/>
          <path d="M225.535,133.89 C232.163,133.89 237.535,139.263 237.535,145.89 L237.535,243.39 C237.535,250.018 232.163,255.39 225.535,255.39 L86.535,255.39 C79.908,255.39 74.535,250.018 74.535,243.39 L74.535,145.89 C74.535,139.263 79.908,133.89 86.535,133.89 L225.535,133.89 z" fill-opacity="0" stroke="#000000" stroke-width="5"/>
        </g>
        <g>
          <path d="M102.785,153.39 L209.285,153.39 C215.913,153.39 221.285,158.763 221.285,165.39 L221.285,223.89 C221.285,230.518 215.913,235.89 209.285,235.89 L102.785,235.89 C96.158,235.89 90.785,230.518 90.785,223.89 L90.785,165.39 C90.785,158.763 96.158,153.39 102.785,153.39 z" fill="#FFFFFF"/>
          <path d="M102.785,153.39 L209.285,153.39 C215.913,153.39 221.285,158.763 221.285,165.39 L221.285,223.89 C221.285,230.518 215.913,235.89 209.285,235.89 L102.785,235.89 C96.158,235.89 90.785,230.518 90.785,223.89 L90.785,165.39 C90.785,158.763 96.158,153.39 102.785,153.39 z" fill-opacity="0" stroke="#000000" stroke-width="5"/>
        </g>
      </g>
      <g>
        <g>
          <path d="M260.783,623.988 C231.293,623.988 207.386,600.601 207.386,571.751 C207.386,542.902 231.293,519.515 260.783,519.515 C290.274,519.515 314.181,542.902 314.181,571.751 C314.181,600.601 290.274,623.988 260.783,623.988 z" fill="#0000FF"/>
          <path d="M260.783,623.988 C231.293,623.988 207.386,600.601 207.386,571.751 C207.386,542.902 231.293,519.515 260.783,519.515 C290.274,519.515 314.181,542.902 314.181,571.751 C314.181,600.601 290.274,623.988 260.783,623.988 z" fill-opacity="0" stroke="#000000" stroke-width="5"/>
        </g>
        <g>
          <g>
            <path d="M260.783,612.09 C237.511,612.089 218.645,594.029 218.645,571.751 C218.645,549.473 237.511,531.413 260.783,531.413 C284.055,531.413 302.921,549.473 302.921,571.751 C302.921,594.029 284.055,612.089 260.783,612.089 z" fill="#FFFFFF"/>
            <path d="M260.783,612.09 C237.511,612.089 218.645,594.029 218.645,571.751 C218.645,549.473 237.511,531.413 260.783,531.413 C284.055,531.413 302.921,549.473 302.921,571.751 C302.921,594.029 284.055,612.089 260.783,612.089 z" fill-opacity="0" stroke="#000000" stroke-width="5"/>
          </g>
          <text fill="#000000" transform="matrix(1, 0, -0, 1, 259.229, 574.523)">
            <tspan x="-22.165" y="9.854" font-family="HelveticaNeue-Bold" font-size="26">70F</tspan>
          </text>
        </g>
      </g>
      <g>
        <g>
          <path d="M343.141,668.439 C313.651,668.439 289.744,645.052 289.744,616.202 C289.744,587.353 313.651,563.966 343.141,563.966 C372.632,563.966 396.538,587.353 396.538,616.202 C396.538,645.052 372.632,668.439 343.141,668.439 z" fill="#0000FF"/>
          <path d="M343.141,668.439 C313.651,668.439 289.744,645.052 289.744,616.202 C289.744,587.353 313.651,563.966 343.141,563.966 C372.632,563.966 396.538,587.353 396.538,616.202 C396.538,645.052 372.632,668.439 343.141,668.439 z" fill-opacity="0" stroke="#000000" stroke-width="5"/>
        </g>
        <g>
          <g>
            <path d="M343.141,656.541 C319.869,656.541 301.003,638.481 301.003,616.202 C301.003,593.924 319.869,575.864 343.141,575.864 C366.413,575.864 385.279,593.924 385.279,616.202 C385.279,638.481 366.413,656.541 343.141,656.541 z" fill="#FFFFFF"/>
            <path d="M343.141,656.541 C319.869,656.541 301.003,638.481 301.003,616.202 C301.003,593.924 319.869,575.864 343.141,575.864 C366.413,575.864 385.279,593.924 385.279,616.202 C385.279,638.481 366.413,656.541 343.141,656.541 z" fill-opacity="0" stroke="#000000" stroke-width="5"/>
          </g>
          <text fill="#000000" transform="matrix(1, 0, -0, 1, 341.587, 618.974)">
            <tspan x="-22.165" y="9.854" font-family="HelveticaNeue-Bold" font-size="26">70F</tspan>
          </text>
        </g>
      </g>
      <g>
        <path d="M468.353,616.55 L598.364,617.711" fill-opacity="0" stroke="#000000" stroke-width="5"/>
        <path d="M465.623,602.087 L477.671,618.382" fill-opacity="0" stroke="#80FF80" stroke-width="5"/>
        <path d="M515.575,603.247 L527.623,619.543" fill-opacity="0" stroke="#80FF80" stroke-width="5"/>
        <path d="M506.573,602.087 L518.621,618.382" fill-opacity="0" stroke="#80FF80" stroke-width="5"/>
        <path d="M498.272,600.885 L510.32,617.181" fill-opacity="0" stroke="#80FF80" stroke-width="5"/>
        <path d="M489.701,600.885 L501.749,617.181" fill-opacity="0" stroke="#80FF80" stroke-width="5"/>
        <path d="M481.356,600.885 L493.404,617.181" fill-opacity="0" stroke="#80FF80" stroke-width="5"/>
        <path d="M473.011,600.885 L485.059,617.181" fill-opacity="0" stroke="#80FF80" stroke-width="5"/>
        <path d="M588.162,603.247 L600.21,619.543" fill-opacity="0" stroke="#80FF80" stroke-width="5"/>
        <path d="M580.188,603.247 L592.236,619.543" fill-opacity="0" stroke="#80FF80" stroke-width="5"/>
        <path d="M570.532,603.247 L582.58,619.543" fill-opacity="0" stroke="#80FF80" stroke-width="5"/>
        <path d="M561.23,602.087 L573.278,618.382" fill-opacity="0" stroke="#80FF80" stroke-width="5"/>
        <path d="M552.568,602.087 L564.616,618.382" fill-opacity="0" stroke="#80FF80" stroke-width="5"/>
        <path d="M543.55,600.885 L555.598,617.181" fill-opacity="0" stroke="#80FF80" stroke-width="5"/>
        <path d="M534.533,602.087 L546.581,618.382" fill-opacity="0" stroke="#80FF80" stroke-width="5"/>
        <path d="M523.172,601.649 L535.22,617.945" fill-opacity="0" stroke="#80FF80" stroke-width="5"/>
        <g>
          <path d="M575.537,579.626 L582.58,579.626 L582.58,617.711 L575.537,617.711 z" fill="#000000"/>
          <path d="M575.537,579.626 L582.58,579.626 L582.58,617.711 L575.537,617.711 z" fill-opacity="0" stroke="#000000" stroke-width="5"/>
        </g>
        <path d="M485.059,546.198 C535.029,546.198 575.537,559.344 575.537,575.561" fill-opacity="0" stroke="#000000" stroke-width="1.5" stroke-dasharray="4.5,3"/>
        <path d="M499.791,562.475 C541.624,562.475 575.537,568.963 575.537,576.966" fill-opacity="0" stroke="#000000" stroke-width="1.5" stroke-dasharray="4.5,3"/>
        <path d="M476.352,553.294 C531.859,553.294 576.856,563.263 576.856,575.561" fill-opacity="0" stroke="#000000" stroke-width="1.5" stroke-dasharray="4.5,3"/>
      </g>
      <g>
        <g>
          <path d="M494.791,487.457 C440.527,487.457 396.539,390.352 396.539,270.567 C396.539,150.781 440.527,53.676 494.791,53.676 C549.054,53.676 593.043,150.781 593.043,270.567 C593.043,390.352 549.054,487.457 494.791,487.457 z" fill="#FFFFFF"/>
          <path d="M494.791,487.457 C440.527,487.457 396.539,390.352 396.539,270.567 C396.539,150.781 440.527,53.676 494.791,53.676 C549.054,53.676 593.043,150.781 593.043,270.567 C593.043,390.352 549.054,487.457 494.791,487.457 z" fill-opacity="0" stroke="#000000" stroke-width="1.5"/>
        </g>
        <text fill="#000000" transform="matrix(1, 0, -0, 1, 494.291, 27.025)">
          <tspan x="-36.315" y="14.023" font-family="HelveticaNeue-Bold" font-size="37">CAs</tspan>
        </text>
      </g>
      <g>
        <g>
          <g>
            <path d="M486.493,190.369 C470.344,190.369 457.253,171.789 457.253,148.868 C457.253,125.947 470.344,107.366 486.493,107.366 C502.641,107.366 515.732,125.947 515.732,148.868 C515.732,171.789 502.641,190.369 486.493,190.369 z" fill="#FF8080"/>
            <path d="M486.493,190.369 C470.344,190.369 457.253,171.789 457.253,148.868 C457.253,125.947 470.344,107.366 486.493,107.366 C502.641,107.366 515.732,125.947 515.732,148.868 C515.732,171.789 502.641,190.369 486.493,190.369 z" fill-opacity="0" stroke="#000000" stroke-width="5"/>
          </g>
          <path d="M478.75,131.84 L478.995,131.818 L479.523,131.77 L480.369,131.693 L481.561,131.592 L482.773,131.506 L483.953,131.447 L484.769,131.429 L485.261,131.432 L485.721,131.447 L486.128,131.475 L486.47,131.516 L486.732,131.566 L486.782,131.583 L486.656,131.548 L486.871,131.614 L487.016,131.7 L487.035,131.757 L487.027,131.803 L487.006,131.841 L486.983,131.878 L486.962,131.928 L486.94,132.003 L486.911,132.113 L486.868,132.269 L486.806,132.47 L486.718,132.72 L486.604,133.015 L486.462,133.351 L486.177,133.968 L485.724,134.854 L485.22,135.77 L484.668,136.727 L484.096,137.694 L483.669,138.41 L483.382,138.895 L483.1,139.379 L482.823,139.865 L482.55,140.364 L482.278,140.888 L482.003,141.473 L481.724,142.171 L481.535,142.777 L481.535,142.777 C481.512,142.861 481.492,142.944 481.475,143.027 L481.475,143.027 L481.422,143.273 L481.31,143.879 L481.219,144.504 L481.16,145.102 L481.131,145.675 L481.131,146.223 L481.16,146.741 L481.217,147.235 L481.342,147.89 L481.586,148.689 L481.915,149.422 L482.307,150.059 L482.742,150.612 L483.205,151.09 L483.898,151.681 L484.814,152.345 L485.631,152.923 L486.103,153.31 L486.325,153.539 L486.503,153.771 L486.621,153.99 L486.684,154.192 L486.702,154.376 L486.686,154.549 L486.659,154.625 L486.643,154.658 L486.617,154.759 L486.581,154.876 L486.533,155.014 L486.47,155.177 L486.389,155.367 L486.286,155.591 L486.16,155.849 L486.005,156.144 L485.819,156.478 L485.601,156.851 L485.347,157.266 L485.057,157.722 L484.727,158.22 L484.357,158.762 L483.945,159.346 L483.491,159.971 L483.267,160.275 L483.267,160.275 C481.362,162.857 481.276,165.31 483.075,165.754 C484.874,166.199 487.876,164.466 489.781,161.884 C489.781,161.884 489.781,161.884 489.781,161.884 L490.124,161.419 L490.746,160.557 L491.332,159.72 L491.886,158.906 L492.406,158.111 L492.895,157.336 L493.351,156.578 L493.776,155.836 L494.169,155.11 L494.53,154.399 L494.857,153.702 L495.151,153.021 L495.409,152.354 L495.631,151.705 L495.815,151.076 L495.96,150.467 L496.066,149.883 L496.137,149.268 L496.158,148.44 L496.062,147.524 L495.851,146.738 L495.553,146.073 L495.194,145.513 L494.795,145.038 L494.358,144.618 L493.723,144.106 L492.926,143.543 L492.192,143.021 L491.704,142.619 L491.437,142.359 L491.207,142.092 L491.015,141.815 L490.859,141.523 L490.732,141.172 L490.664,140.872 L490.635,140.682 L490.618,140.477 L490.611,140.259 L490.617,140.023 L490.637,139.766 L490.672,139.488 L490.733,139.142 L490.786,138.893 L490.726,139.143 L490.588,139.558 L490.478,139.799 L490.455,139.832 L490.51,139.716 L490.63,139.492 L490.806,139.181 L491.028,138.8 L491.289,138.36 L491.749,137.588 L492.438,136.419 L493.182,135.119 L493.944,133.711 L494.667,132.26 L495.165,131.15 L495.484,130.358 L495.773,129.553 L496.023,128.737 L496.224,127.913 L496.363,127.093 L496.427,126.282 L496.4,125.497 L496.27,124.755 L496.025,124.076 L495.662,123.479 L495.182,122.98 L494.595,122.588 L493.989,122.326 L493.772,122.259 L493.772,122.259 C493.73,122.247 493.688,122.235 493.645,122.225 L493.645,122.225 L493.329,122.154 L492.773,122.062 L492.196,122.001 L491.595,121.963 L490.973,121.945 L490.319,121.944 L489.329,121.968 L488.005,122.036 L486.7,122.129 L485.464,122.234 L484.613,122.311 L484.093,122.359 L483.843,122.381 C483.843,122.381 483.843,122.381 483.843,122.381 C481.633,122.582 478.701,124.862 477.295,127.474 C475.888,130.086 476.54,132.041 478.75,131.84 L478.75,131.84" fill="#000000"/>
          <g>
            <path d="M486.351,188.908 L484.579,188.912 C479.883,188.923 476.071,186.417 476.064,183.316 L476.056,179.105 C476.049,176.003 479.852,173.481 484.548,173.47 L486.32,173.466 C491.016,173.456 494.828,175.961 494.835,179.062 L494.843,183.274 C494.849,186.375 491.047,188.898 486.351,188.908 z" fill="#808080"/>
            <path d="M486.351,188.908 L484.579,188.912 C479.883,188.923 476.071,186.417 476.064,183.316 L476.056,179.105 C476.049,176.003 479.852,173.481 484.548,173.47 L486.32,173.466 C491.016,173.456 494.828,175.961 494.835,179.062 L494.843,183.274 C494.849,186.375 491.047,188.898 486.351,188.908 z" fill-opacity="0" stroke="#000000" stroke-width="5"/>
          </g>
          <g>
            <g>
              <path d="M457.253,134.252 L457.253,163.484" fill="#8080FF"/>
              <path d="M457.253,134.252 L457.253,163.484" fill-opacity="0" stroke="#000000" stroke-width="5"/>
            </g>
            <g>
              <path d="M457.253,163.484 C457.253,165.96 450.671,167.967 442.551,167.967" fill="#8080FF"/>
              <path d="M457.253,163.484 C457.253,165.96 450.671,167.967 442.551,167.967" fill-opacity="0" stroke="#000000" stroke-width="5"/>
            </g>
            <g>
              <path d="M442.551,167.967 C434.431,167.967 427.849,165.96 427.849,163.484" fill="#8080FF"/>
              <path d="M442.551,167.967 C434.431,167.967 427.849,165.96 427.849,163.484" fill-opacity="0" stroke="#000000" stroke-width="5"/>
            </g>
            <g>
              <path d="M427.849,163.484 L427.849,133.284" fill="#8080FF"/>
              <path d="M427.849,163.484 L427.849,133.284" fill-opacity="0" stroke="#000000" stroke-width="5"/>
            </g>
            <g>
              <path d="M442.551,138.736 C434.431,138.736 427.849,136.728 427.849,134.252" fill="#8080FF"/>
              <path d="M442.551,138.736 C434.431,138.736 427.849,136.728 427.849,134.252" fill-opacity="0" stroke="#000000" stroke-width="5"/>
            </g>
            <g>
              <path d="M427.849,134.252 C427.849,131.776 434.431,129.768 442.551,129.768" fill="#8080FF"/>
              <path d="M427.849,134.252 C427.849,131.776 434.431,129.768 442.551,129.768" fill-opacity="0" stroke="#000000" stroke-width="5"/>
            </g>
            <g>
              <path d="M442.551,129.768 C450.671,129.768 457.253,131.776 457.253,134.252" fill="#8080FF"/>
              <path d="M442.551,129.768 C450.671,129.768 457.253,131.776 457.253,134.252" fill-opacity="0" stroke="#000000" stroke-width="5"/>
            </g>
            <g>
              <path d="M457.253,134.252 C457.253,136.728 450.671,138.736 442.551,138.736" fill="#8080FF"/>
              <path d="M457.253,134.252 C457.253,136.728 450.671,138.736 442.551,138.736" fill-opacity="0" stroke="#000000" stroke-width="5"/>
            </g>
          </g>
        </g>
        <g>
          <g>
            <path d="M502.493,205.369 C486.344,205.369 473.253,186.789 473.253,163.868 C473.253,140.947 486.344,122.366 502.493,122.366 C518.641,122.366 531.732,140.947 531.732,163.868 C531.732,186.789 518.641,205.369 502.493,205.369 z" fill="#FF8080"/>
            <path d="M502.493,205.369 C486.344,205.369 473.253,186.789 473.253,163.868 C473.253,140.947 486.344,122.366 502.493,122.366 C518.641,122.366 531.732,140.947 531.732,163.868 C531.732,186.789 518.641,205.369 502.493,205.369 z" fill-opacity="0" stroke="#000000" stroke-width="5"/>
          </g>
          <path d="M494.75,146.84 L494.995,146.818 L495.524,146.77 L496.369,146.693 L497.56,146.592 L498.773,146.506 L499.953,146.447 L500.769,146.429 L501.26,146.432 L501.722,146.447 L502.128,146.475 L502.469,146.516 L502.732,146.566 L502.783,146.583 L502.656,146.548 L502.871,146.614 L503.016,146.7 L503.035,146.757 L503.027,146.803 L503.006,146.841 L502.983,146.878 L502.962,146.928 L502.94,147.003 L502.911,147.113 L502.868,147.269 L502.806,147.471 L502.718,147.72 L502.604,148.015 L502.462,148.351 L502.177,148.968 L501.724,149.854 L501.22,150.77 L500.668,151.727 L500.096,152.694 L499.669,153.41 L499.382,153.895 L499.1,154.379 L498.823,154.865 L498.55,155.364 L498.278,155.888 L498.003,156.473 L497.724,157.171 L497.535,157.777 L497.535,157.777 C497.512,157.861 497.492,157.944 497.475,158.027 L497.475,158.027 L497.422,158.273 L497.31,158.879 L497.219,159.504 L497.16,160.102 L497.131,160.675 L497.131,161.223 L497.16,161.741 L497.217,162.235 L497.342,162.89 L497.586,163.689 L497.915,164.422 L498.307,165.059 L498.742,165.612 L499.205,166.09 L499.898,166.681 L500.814,167.345 L501.631,167.923 L502.103,168.31 L502.325,168.539 L502.503,168.771 L502.621,168.99 L502.684,169.192 L502.702,169.376 L502.686,169.549 L502.659,169.625 L502.643,169.658 L502.616,169.759 L502.581,169.876 L502.533,170.014 L502.47,170.177 L502.389,170.367 L502.286,170.591 L502.159,170.849 L502.004,171.144 L501.819,171.478 L501.601,171.851 L501.347,172.266 L501.056,172.722 L500.727,173.22 L500.357,173.762 L499.945,174.346 L499.491,174.971 L499.267,175.275 L499.267,175.275 C497.362,177.857 497.276,180.31 499.075,180.754 C500.874,181.199 503.876,179.466 505.781,176.884 C505.781,176.884 505.781,176.884 505.781,176.884 L506.124,176.419 L506.746,175.557 L507.332,174.72 L507.885,173.906 L508.406,173.111 L508.895,172.336 L509.351,171.578 L509.776,170.836 L510.169,170.11 L510.529,169.399 L510.857,168.702 L511.151,168.021 L511.409,167.354 L511.631,166.705 L511.815,166.076 L511.96,165.467 L512.066,164.883 L512.137,164.268 L512.158,163.44 L512.062,162.524 L511.851,161.738 L511.553,161.073 L511.194,160.513 L510.795,160.038 L510.358,159.618 L509.722,159.106 L508.926,158.543 L508.192,158.021 L507.704,157.619 L507.437,157.359 L507.207,157.092 L507.015,156.815 L506.859,156.523 L506.732,156.172 L506.663,155.872 L506.635,155.682 L506.618,155.477 L506.611,155.259 L506.617,155.023 L506.637,154.766 L506.672,154.488 L506.733,154.142 L506.786,153.893 L506.726,154.143 L506.588,154.558 L506.478,154.799 L506.454,154.832 L506.51,154.716 L506.63,154.492 L506.806,154.181 L507.028,153.8 L507.289,153.36 L507.749,152.588 L508.438,151.419 L509.182,150.119 L509.944,148.711 L510.667,147.26 L511.165,146.15 L511.484,145.358 L511.773,144.553 L512.023,143.737 L512.224,142.913 L512.363,142.093 L512.427,141.282 L512.4,140.497 L512.27,139.755 L512.025,139.075 L511.662,138.479 L511.182,137.98 L510.594,137.587 L509.989,137.326 L509.771,137.259 L509.771,137.259 C509.73,137.247 509.687,137.235 509.644,137.225 L509.644,137.225 L509.328,137.154 L508.774,137.062 L508.196,137.001 L507.594,136.963 L506.973,136.945 L506.319,136.944 L505.329,136.968 L504.005,137.036 L502.7,137.129 L501.464,137.234 L500.612,137.311 L500.092,137.359 L499.843,137.381 C499.843,137.381 499.843,137.381 499.843,137.381 C497.633,137.582 494.701,139.863 493.295,142.475 C491.888,145.087 492.54,147.041 494.75,146.84 L494.75,146.84" fill="#000000"/>
          <g>
            <path d="M502.351,203.908 L500.579,203.912 C495.883,203.923 492.071,201.417 492.064,198.316 L492.056,194.105 C492.05,191.003 495.852,188.481 500.548,188.47 L502.32,188.466 C507.016,188.456 510.828,190.961 510.835,194.062 L510.843,198.274 C510.85,201.375 507.047,203.898 502.351,203.908 z" fill="#808080"/>
            <path d="M502.351,203.908 L500.579,203.912 C495.883,203.923 492.071,201.417 492.064,198.316 L492.056,194.105 C492.05,191.003 495.852,188.481 500.548,188.47 L502.32,188.466 C507.016,188.456 510.828,190.961 510.835,194.062 L510.843,198.274 C510.85,201.375 507.047,203.898 502.351,203.908 z" fill-opacity="0" stroke="#000000" stroke-width="5"/>
          </g>
          <g>
            <g>
              <path d="M473.253,149.252 L473.253,178.484" fill="#8080FF"/>
              <path d="M473.253,149.252 L473.253,178.484" fill-opacity="0" stroke="#000000" stroke-width="5"/>
            </g>
            <g>
              <path d="M473.253,178.484 C473.253,180.96 466.671,182.967 458.551,182.967" fill="#8080FF"/>
              <path d="M473.253,178.484 C473.253,180.96 466.671,182.967 458.551,182.967" fill-opacity="0" stroke="#000000" stroke-width="5"/>
            </g>
            <g>
              <path d="M458.551,182.967 C450.431,182.967 443.849,180.96 443.849,178.484" fill="#8080FF"/>
              <path d="M458.551,182.967 C450.431,182.967 443.849,180.96 443.849,178.484" fill-opacity="0" stroke="#000000" stroke-width="5"/>
            </g>
            <g>
              <path d="M443.849,178.484 L443.849,148.284" fill="#8080FF"/>
              <path d="M443.849,178.484 L443.849,148.284" fill-opacity="0" stroke="#000000" stroke-width="5"/>
            </g>
            <g>
              <path d="M458.551,153.736 C450.431,153.736 443.849,151.728 443.849,149.252" fill="#8080FF"/>
              <path d="M458.551,153.736 C450.431,153.736 443.849,151.728 443.849,149.252" fill-opacity="0" stroke="#000000" stroke-width="5"/>
            </g>
            <g>
              <path d="M443.849,149.252 C443.849,146.776 450.431,144.768 458.551,144.768" fill="#8080FF"/>
              <path d="M443.849,149.252 C443.849,146.776 450.431,144.768 458.551,144.768" fill-opacity="0" stroke="#000000" stroke-width="5"/>
            </g>
            <g>
              <path d="M458.551,144.768 C466.671,144.768 473.253,146.776 473.253,149.252" fill="#8080FF"/>
              <path d="M458.551,144.768 C466.671,144.768 473.253,146.776 473.253,149.252" fill-opacity="0" stroke="#000000" stroke-width="5"/>
            </g>
            <g>
              <path d="M473.253,149.252 C473.253,151.728 466.671,153.736 458.551,153.736" fill="#8080FF"/>
              <path d="M473.253,149.252 C473.253,151.728 466.671,153.736 458.551,153.736" fill-opacity="0" stroke="#000000" stroke-width="5"/>
            </g>
          </g>
        </g>
        <g>
          <g>
            <path d="M517.493,221.369 C501.344,221.369 488.253,202.789 488.253,179.868 C488.253,156.947 501.344,138.366 517.493,138.366 C533.641,138.366 546.732,156.947 546.732,179.868 C546.732,202.789 533.641,221.369 517.493,221.369 z" fill="#FF8080"/>
            <path d="M517.493,221.369 C501.344,221.369 488.253,202.789 488.253,179.868 C488.253,156.947 501.344,138.366 517.493,138.366 C533.641,138.366 546.732,156.947 546.732,179.868 C546.732,202.789 533.641,221.369 517.493,221.369 z" fill-opacity="0" stroke="#000000" stroke-width="5"/>
          </g>
          <path d="M509.75,162.84 L509.995,162.818 L510.524,162.77 L511.369,162.693 L512.56,162.592 L513.774,162.506 L514.954,162.447 L515.769,162.429 L516.261,162.432 L516.722,162.447 L517.128,162.475 L517.469,162.516 L517.732,162.566 L517.783,162.583 L517.656,162.548 L517.871,162.614 L518.016,162.7 L518.035,162.757 L518.027,162.803 L518.006,162.841 L517.984,162.879 L517.962,162.927 L517.94,163.003 L517.911,163.114 L517.868,163.268 L517.806,163.471 L517.718,163.72 L517.604,164.015 L517.462,164.35 L517.177,164.968 L516.724,165.854 L516.22,166.77 L515.668,167.727 L515.097,168.693 L514.669,169.41 L514.381,169.897 L514.1,170.379 L513.823,170.865 L513.55,171.362 L513.278,171.888 L513.003,172.474 L512.724,173.171 L512.535,173.776 L512.535,173.776 C512.512,173.861 512.492,173.946 512.474,174.029 L512.474,174.029 L512.422,174.274 L512.31,174.879 L512.219,175.504 L512.16,176.102 L512.131,176.676 L512.131,177.222 L512.16,177.741 L512.217,178.235 L512.342,178.89 L512.586,179.689 L512.915,180.422 L513.307,181.059 L513.742,181.612 L514.205,182.09 L514.898,182.681 L515.814,183.345 L516.63,183.922 L517.103,184.31 L517.325,184.539 L517.503,184.771 L517.621,184.99 L517.684,185.192 L517.702,185.377 L517.686,185.549 L517.659,185.625 L517.643,185.658 L517.617,185.759 L517.581,185.876 L517.532,186.015 L517.47,186.176 L517.389,186.368 L517.286,186.591 L517.159,186.85 L517.005,187.144 L516.819,187.478 L516.601,187.851 L516.347,188.266 L516.056,188.723 L515.727,189.22 L515.357,189.762 L514.945,190.346 L514.491,190.972 L514.267,191.275 L514.267,191.275 C512.362,193.857 512.277,196.31 514.075,196.754 C515.874,197.199 518.876,195.466 520.781,192.884 C520.781,192.884 520.781,192.884 520.781,192.884 L521.124,192.418 L521.746,191.557 L522.333,190.72 L522.885,189.906 L523.407,189.11 L523.895,188.336 L524.351,187.579 L524.776,186.836 L525.169,186.11 L525.53,185.398 L525.857,184.702 L526.151,184.02 L526.409,183.355 L526.631,182.704 L526.815,182.076 L526.96,181.467 L527.066,180.883 L527.137,180.268 L527.158,179.44 L527.062,178.524 L526.851,177.738 L526.553,177.073 L526.194,176.513 L525.795,176.038 L525.358,175.618 L524.723,175.106 L523.926,174.543 L523.192,174.021 L522.704,173.619 L522.437,173.359 L522.207,173.092 L522.015,172.815 L521.859,172.523 L521.732,172.172 L521.664,171.872 L521.635,171.682 L521.618,171.478 L521.612,171.258 L521.617,171.023 L521.637,170.766 L521.672,170.489 L521.733,170.141 L521.786,169.891 L521.725,170.144 L521.588,170.558 L521.478,170.798 L521.455,170.832 L521.509,170.717 L521.63,170.492 L521.806,170.181 L522.029,169.799 L522.289,169.36 L522.749,168.588 L523.438,167.419 L524.182,166.119 L524.944,164.711 L525.667,163.26 L526.165,162.15 L526.484,161.358 L526.773,160.553 L527.023,159.737 L527.224,158.915 L527.363,158.092 L527.427,157.281 L527.4,156.497 L527.27,155.754 L527.025,155.076 L526.662,154.479 L526.183,153.98 L525.595,153.587 L524.989,153.326 L524.772,153.259 L524.772,153.259 C524.73,153.247 524.688,153.235 524.644,153.225 L524.644,153.225 L524.329,153.154 L523.774,153.062 L523.196,153.001 L522.595,152.963 L521.972,152.945 L521.319,152.944 L520.329,152.968 L519.005,153.036 L517.7,153.129 L516.465,153.234 L515.613,153.311 L515.093,153.359 L514.844,153.381 C512.634,153.582 509.702,155.862 508.295,158.474 C506.888,161.086 507.54,163.041 509.75,162.84 L509.75,162.84" fill="#000000"/>
          <g>
            <path d="M517.351,219.908 L515.579,219.912 C510.883,219.923 507.071,217.417 507.064,214.316 L507.056,210.105 C507.049,207.003 510.852,204.481 515.548,204.47 L517.32,204.466 C522.016,204.456 525.828,206.961 525.835,210.062 L525.843,214.274 C525.849,217.375 522.047,219.898 517.351,219.908 z" fill="#808080"/>
            <path d="M517.351,219.908 L515.579,219.912 C510.883,219.923 507.071,217.417 507.064,214.316 L507.056,210.105 C507.049,207.003 510.852,204.481 515.548,204.47 L517.32,204.466 C522.016,204.456 525.828,206.961 525.835,210.062 L525.843,214.274 C525.849,217.375 522.047,219.898 517.351,219.908 z" fill-opacity="0" stroke="#000000" stroke-width="5"/>
          </g>
          <g>
            <g>
              <path d="M488.253,165.252 L488.253,194.484" fill="#8080FF"/>
              <path d="M488.253,165.252 L488.253,194.484" fill-opacity="0" stroke="#000000" stroke-width="5"/>
            </g>
            <g>
              <path d="M488.253,194.484 C488.253,196.96 481.671,198.967 473.551,198.967" fill="#8080FF"/>
              <path d="M488.253,194.484 C488.253,196.96 481.671,198.967 473.551,198.967" fill-opacity="0" stroke="#000000" stroke-width="5"/>
            </g>
            <g>
              <path d="M473.551,198.967 C465.431,198.967 458.849,196.96 458.849,194.484" fill="#8080FF"/>
              <path d="M473.551,198.967 C465.431,198.967 458.849,196.96 458.849,194.484" fill-opacity="0" stroke="#000000" stroke-width="5"/>
            </g>
            <g>
              <path d="M458.849,194.484 L458.849,164.284" fill="#8080FF"/>
              <path d="M458.849,194.484 L458.849,164.284" fill-opacity="0" stroke="#000000" stroke-width="5"/>
            </g>
            <g>
              <path d="M473.551,169.736 C465.431,169.736 458.849,167.728 458.849,165.252" fill="#8080FF"/>
              <path d="M473.551,169.736 C465.431,169.736 458.849,167.728 458.849,165.252" fill-opacity="0" stroke="#000000" stroke-width="5"/>
            </g>
            <g>
              <path d="M458.849,165.252 C458.849,162.776 465.431,160.768 473.551,160.768" fill="#8080FF"/>
              <path d="M458.849,165.252 C458.849,162.776 465.431,160.768 473.551,160.768" fill-opacity="0" stroke="#000000" stroke-width="5"/>
            </g>
            <g>
              <path d="M473.551,160.768 C481.671,160.768 488.253,162.776 488.253,165.252" fill="#8080FF"/>
              <path d="M473.551,160.768 C481.671,160.768 488.253,162.776 488.253,165.252" fill-opacity="0" stroke="#000000" stroke-width="5"/>
            </g>
            <g>
              <path d="M488.253,165.252 C488.253,167.728 481.671,169.736 473.551,169.736" fill="#8080FF"/>
              <path d="M488.253,165.252 C488.253,167.728 481.671,169.736 473.551,169.736" fill-opacity="0" stroke="#000000" stroke-width="5"/>
            </g>
          </g>
        </g>
        <g>
          <g>
            <path d="M532.493,236.369 C516.344,236.369 503.253,217.789 503.253,194.868 C503.253,171.947 516.344,153.366 532.493,153.366 C548.641,153.366 561.732,171.947 561.732,194.868 C561.732,217.789 548.641,236.369 532.493,236.369 z" fill="#FF8080"/>
            <path d="M532.493,236.369 C516.344,236.369 503.253,217.789 503.253,194.868 C503.253,171.947 516.344,153.366 532.493,153.366 C548.641,153.366 561.732,171.947 561.732,194.868 C561.732,217.789 548.641,236.369 532.493,236.369 z" fill-opacity="0" stroke="#000000" stroke-width="5"/>
          </g>
          <path d="M524.75,177.84 L524.995,177.818 L525.524,177.77 L526.369,177.693 L527.56,177.592 L528.774,177.506 L529.954,177.447 L530.769,177.429 L531.261,177.432 L531.722,177.447 L532.128,177.475 L532.469,177.516 L532.732,177.566 L532.782,177.583 L532.656,177.548 L532.871,177.614 L533.017,177.7 L533.035,177.757 L533.027,177.803 L533.006,177.841 L532.984,177.879 L532.962,177.927 L532.94,178.003 L532.911,178.114 L532.868,178.268 L532.806,178.471 L532.718,178.72 L532.604,179.015 L532.462,179.35 L532.177,179.968 L531.724,180.854 L531.22,181.77 L530.668,182.727 L530.097,183.693 L529.669,184.41 L529.381,184.897 L529.1,185.379 L528.823,185.865 L528.55,186.362 L528.278,186.888 L528.002,187.475 L527.724,188.171 L527.535,188.776 L527.535,188.776 C527.512,188.861 527.492,188.946 527.474,189.029 L527.474,189.029 L527.422,189.275 L527.31,189.879 L527.219,190.504 L527.16,191.102 L527.131,191.676 L527.131,192.222 L527.16,192.741 L527.217,193.235 L527.342,193.89 L527.586,194.689 L527.915,195.422 L528.307,196.059 L528.742,196.612 L529.205,197.09 L529.898,197.681 L530.814,198.345 L531.63,198.922 L532.103,199.31 L532.325,199.539 L532.503,199.771 L532.621,199.99 L532.684,200.192 L532.702,200.377 L532.686,200.549 L532.659,200.625 L532.643,200.658 L532.616,200.759 L532.581,200.876 L532.532,201.015 L532.47,201.176 L532.389,201.368 L532.287,201.59 L532.159,201.849 L532.004,202.145 L531.819,202.478 L531.601,202.851 L531.347,203.266 L531.056,203.723 L530.727,204.22 L530.357,204.762 L529.945,205.346 L529.49,205.973 L529.267,206.275 L529.267,206.275 C527.362,208.856 527.276,211.31 529.075,211.754 C530.874,212.199 533.876,210.466 535.78,207.885 C535.78,207.885 535.78,207.885 535.78,207.885 L536.125,207.417 L536.746,206.557 L537.333,205.72 L537.885,204.906 L538.407,204.11 L538.895,203.336 L539.351,202.579 L539.776,201.836 L540.169,201.11 L540.53,200.399 L540.857,199.703 L541.151,199.02 L541.409,198.355 L541.631,197.704 L541.815,197.076 L541.96,196.467 L542.066,195.883 L542.137,195.268 L542.158,194.44 L542.062,193.524 L541.851,192.738 L541.553,192.073 L541.194,191.513 L540.795,191.038 L540.358,190.618 L539.723,190.106 L538.926,189.543 L538.192,189.021 L537.704,188.619 L537.437,188.359 L537.207,188.092 L537.015,187.815 L536.859,187.523 L536.732,187.172 L536.664,186.872 L536.635,186.682 L536.618,186.478 L536.612,186.258 L536.617,186.023 L536.637,185.766 L536.672,185.489 L536.733,185.14 L536.786,184.89 L536.725,185.144 L536.588,185.558 L536.479,185.797 L536.455,185.832 L536.509,185.717 L536.63,185.492 L536.806,185.182 L537.029,184.799 L537.289,184.36 L537.749,183.588 L538.438,182.419 L539.182,181.119 L539.944,179.711 L540.667,178.26 L541.165,177.15 L541.484,176.358 L541.773,175.553 L542.023,174.737 L542.224,173.915 L542.363,173.092 L542.427,172.281 L542.4,171.497 L542.27,170.754 L542.025,170.076 L541.662,169.479 L541.183,168.98 L540.594,168.587 L539.989,168.326 L539.772,168.259 L539.772,168.259 C539.73,168.247 539.688,168.235 539.645,168.225 L539.645,168.225 L539.329,168.154 L538.774,168.062 L538.196,168.001 L537.595,167.963 L536.972,167.945 L536.319,167.944 L535.329,167.968 L534.005,168.036 L532.7,168.129 L531.465,168.234 L530.613,168.311 L530.093,168.359 L529.844,168.381 C527.634,168.582 524.702,170.862 523.295,173.474 C521.888,176.086 522.54,178.041 524.75,177.84 L524.75,177.84" fill="#000000"/>
          <g>
            <path d="M532.351,234.908 L530.579,234.912 C525.883,234.923 522.071,232.417 522.064,229.316 L522.056,225.105 C522.049,222.003 525.852,219.481 530.548,219.47 L532.32,219.466 C537.016,219.456 540.828,221.961 540.835,225.062 L540.843,229.274 C540.849,232.375 537.047,234.898 532.351,234.908 z" fill="#808080"/>
            <path d="M532.351,234.908 L530.579,234.912 C525.883,234.923 522.071,232.417 522.064,229.316 L522.056,225.105 C522.049,222.003 525.852,219.481 530.548,219.47 L532.32,219.466 C537.016,219.456 540.828,221.961 540.835,225.062 L540.843,229.274 C540.849,232.375 537.047,234.898 532.351,234.908 z" fill-opacity="0" stroke="#000000" stroke-width="5"/>
          </g>
          <g>
            <g>
              <path d="M503.253,180.252 L503.253,209.484" fill="#8080FF"/>
              <path d="M503.253,180.252 L503.253,209.484" fill-opacity="0" stroke="#000000" stroke-width="5"/>
            </g>
            <g>
              <path d="M503.253,209.484 C503.253,211.96 496.671,213.967 488.551,213.967" fill="#8080FF"/>
              <path d="M503.253,209.484 C503.253,211.96 496.671,213.967 488.551,213.967" fill-opacity="0" stroke="#000000" stroke-width="5"/>
            </g>
            <g>
              <path d="M488.551,213.967 C480.431,213.967 473.849,211.96 473.849,209.484" fill="#8080FF"/>
              <path d="M488.551,213.967 C480.431,213.967 473.849,211.96 473.849,209.484" fill-opacity="0" stroke="#000000" stroke-width="5"/>
            </g>
            <g>
              <path d="M473.849,209.484 L473.849,179.285" fill="#8080FF"/>
              <path d="M473.849,209.484 L473.849,179.285" fill-opacity="0" stroke="#000000" stroke-width="5"/>
            </g>
            <g>
              <path d="M488.551,184.736 C480.431,184.736 473.849,182.728 473.849,180.252" fill="#8080FF"/>
              <path d="M488.551,184.736 C480.431,184.736 473.849,182.728 473.849,180.252" fill-opacity="0" stroke="#000000" stroke-width="5"/>
            </g>
            <g>
              <path d="M473.849,180.252 C473.849,177.776 480.431,175.768 488.551,175.768" fill="#8080FF"/>
              <path d="M473.849,180.252 C473.849,177.776 480.431,175.768 488.551,175.768" fill-opacity="0" stroke="#000000" stroke-width="5"/>
            </g>
            <g>
              <path d="M488.551,175.768 C496.671,175.768 503.253,177.776 503.253,180.252" fill="#8080FF"/>
              <path d="M488.551,175.768 C496.671,175.768 503.253,177.776 503.253,180.252" fill-opacity="0" stroke="#000000" stroke-width="5"/>
            </g>
            <g>
              <path d="M503.253,180.252 C503.253,182.728 496.671,184.736 488.551,184.736" fill="#8080FF"/>
              <path d="M503.253,180.252 C503.253,182.728 496.671,184.736 488.551,184.736" fill-opacity="0" stroke="#000000" stroke-width="5"/>
            </g>
          </g>
        </g>
      </g>
      <g>
        <g>
          <g>
            <path d="M477.185,368.23 C461.037,368.23 447.946,349.649 447.946,326.729 C447.946,303.808 461.037,285.227 477.185,285.227 C493.334,285.227 506.425,303.808 506.425,326.729 C506.425,349.649 493.334,368.23 477.185,368.23 z" fill="#FF8080"/>
            <path d="M477.185,368.23 C461.037,368.23 447.946,349.649 447.946,326.729 C447.946,303.808 461.037,285.227 477.185,285.227 C493.334,285.227 506.425,303.808 506.425,326.729 C506.425,349.649 493.334,368.23 477.185,368.23 z" fill-opacity="0" stroke="#000000" stroke-width="5"/>
          </g>
          <path d="M469.442,309.701 L469.687,309.679 L470.216,309.631 L471.062,309.554 L472.253,309.453 L473.466,309.367 L474.646,309.308 L475.461,309.29 L475.953,309.293 L476.414,309.308 L476.82,309.336 L477.162,309.377 L477.424,309.427 L477.475,309.443 L477.348,309.409 L477.563,309.475 L477.709,309.561 L477.728,309.618 L477.719,309.664 L477.699,309.702 L477.676,309.739 L477.655,309.789 L477.633,309.864 L477.604,309.974 L477.561,310.129 L477.498,310.331 L477.411,310.581 L477.297,310.876 L477.155,311.212 L476.869,311.829 L476.417,312.715 L475.912,313.631 L475.361,314.588 L474.789,315.554 L474.362,316.271 L474.074,316.757 L473.793,317.24 L473.516,317.725 L473.243,318.223 L472.97,318.75 L472.696,319.334 L472.416,320.032 L472.227,320.638 L472.227,320.638 C472.205,320.723 472.184,320.806 472.167,320.888 L472.167,320.888 L472.115,321.134 L472.002,321.74 L471.912,322.365 L471.852,322.963 L471.823,323.536 L471.824,324.083 L471.853,324.603 L471.909,325.096 L472.034,325.75 L472.278,326.55 L472.608,327.283 L472.999,327.92 L473.435,328.473 L473.897,328.951 L474.591,329.542 L475.506,330.206 L476.323,330.784 L476.796,331.172 L477.018,331.4 L477.195,331.631 L477.313,331.851 L477.376,332.053 L477.394,332.237 L477.378,332.41 L477.352,332.486 L477.336,332.519 L477.309,332.62 L477.273,332.737 L477.225,332.875 L477.162,333.037 L477.081,333.229 L476.979,333.451 L476.852,333.71 L476.697,334.005 L476.511,334.34 L476.293,334.713 L476.04,335.127 L475.749,335.584 L475.42,336.081 L475.049,336.623 L474.638,337.206 L474.184,337.833 L473.959,338.137 L473.959,338.137 C472.055,340.718 471.969,343.171 473.768,343.615 C475.567,344.059 478.569,342.326 480.474,339.745 L480.816,339.279 L481.438,338.419 L482.025,337.581 L482.578,336.767 L483.099,335.972 L483.588,335.196 L484.044,334.438 L484.469,333.696 L484.862,332.971 L485.222,332.26 L485.55,331.564 L485.843,330.881 L486.101,330.215 L486.323,329.566 L486.507,328.937 L486.653,328.328 L486.759,327.743 L486.83,327.129 L486.85,326.301 L486.754,325.385 L486.543,324.599 L486.245,323.934 L485.886,323.374 L485.488,322.899 L485.051,322.478 L484.415,321.967 L483.619,321.404 L482.885,320.882 L482.397,320.48 L482.129,320.22 L481.9,319.953 L481.707,319.676 L481.551,319.384 L481.424,319.033 L481.356,318.733 L481.328,318.543 L481.31,318.339 L481.304,318.12 L481.31,317.884 L481.33,317.627 L481.364,317.349 L481.425,317.003 L481.479,316.753 L481.418,317.003 L481.28,317.419 L481.17,317.66 L481.148,317.692 L481.202,317.578 L481.322,317.354 L481.499,317.043 L481.721,316.661 L481.982,316.221 L482.441,315.449 L483.131,314.28 L483.875,312.98 L484.637,311.572 L485.359,310.121 L485.857,309.011 L486.176,308.219 L486.465,307.414 L486.715,306.598 L486.916,305.775 L487.056,304.954 L487.119,304.143 L487.093,303.358 L486.963,302.616 L486.718,301.937 L486.355,301.34 L485.875,300.841 L485.287,300.448 L484.681,300.187 L484.464,300.12 L484.464,300.12 C484.423,300.108 484.381,300.096 484.337,300.086 L484.337,300.086 L484.022,300.015 L483.466,299.923 L482.889,299.862 L482.288,299.824 L481.665,299.806 L481.012,299.805 L480.021,299.829 L478.698,299.897 L477.393,299.99 L476.157,300.095 L475.306,300.172 L474.786,300.22 L474.537,300.242 C472.327,300.443 469.395,302.722 467.988,305.334 C466.581,307.947 467.232,309.902 469.442,309.701 L469.442,309.701" fill="#000000"/>
          <g>
            <path d="M477.044,366.769 L475.272,366.773 C470.576,366.784 466.763,364.278 466.757,361.177 L466.748,356.966 C466.742,353.864 470.544,351.342 475.241,351.331 L477.012,351.327 C481.709,351.317 485.521,353.822 485.527,356.923 L485.536,361.135 C485.542,364.236 481.74,366.759 477.044,366.769 z" fill="#808080"/>
            <path d="M477.044,366.769 L475.272,366.773 C470.576,366.784 466.763,364.278 466.757,361.177 L466.748,356.966 C466.742,353.864 470.544,351.342 475.241,351.331 L477.012,351.327 C481.709,351.317 485.521,353.822 485.527,356.923 L485.536,361.135 C485.542,364.236 481.74,366.759 477.044,366.769 z" fill-opacity="0" stroke="#000000" stroke-width="5"/>
          </g>
          <g>
            <g>
              <path d="M447.946,312.113 L447.946,341.345" fill="#8080FF"/>
              <path d="M447.946,312.113 L447.946,341.345" fill-opacity="0" stroke="#000000" stroke-width="5"/>
            </g>
            <g>
              <path d="M447.946,341.345 C447.946,343.821 441.363,345.828 433.244,345.828" fill="#8080FF"/>
              <path d="M447.946,341.345 C447.946,343.821 441.363,345.828 433.244,345.828" fill-opacity="0" stroke="#000000" stroke-width="5"/>
            </g>
            <g>
              <path d="M433.244,345.828 C425.124,345.828 418.542,343.821 418.542,341.345" fill="#8080FF"/>
              <path d="M433.244,345.828 C425.124,345.828 418.542,343.821 418.542,341.345" fill-opacity="0" stroke="#000000" stroke-width="5"/>
            </g>
            <g>
              <path d="M418.542,341.345 L418.542,311.145" fill="#8080FF"/>
              <path d="M418.542,341.345 L418.542,311.145" fill-opacity="0" stroke="#000000" stroke-width="5"/>
            </g>
            <g>
              <path d="M433.244,316.597 C425.124,316.597 418.542,314.589 418.542,312.113" fill="#8080FF"/>
              <path d="M433.244,316.597 C425.124,316.597 418.542,314.589 418.542,312.113" fill-opacity="0" stroke="#000000" stroke-width="5"/>
            </g>
            <g>
              <path d="M418.542,312.113 C418.542,309.637 425.124,307.629 433.244,307.629" fill="#8080FF"/>
              <path d="M418.542,312.113 C418.542,309.637 425.124,307.629 433.244,307.629" fill-opacity="0" stroke="#000000" stroke-width="5"/>
            </g>
            <g>
              <path d="M433.244,307.629 C441.363,307.629 447.946,309.637 447.946,312.113" fill="#8080FF"/>
              <path d="M433.244,307.629 C441.363,307.629 447.946,309.637 447.946,312.113" fill-opacity="0" stroke="#000000" stroke-width="5"/>
            </g>
            <g>
              <path d="M447.946,312.113 C447.946,314.589 441.363,316.597 433.244,316.597" fill="#8080FF"/>
              <path d="M447.946,312.113 C447.946,314.589 441.363,316.597 433.244,316.597" fill-opacity="0" stroke="#000000" stroke-width="5"/>
            </g>
          </g>
        </g>
        <g>
          <g>
            <path d="M493.185,383.23 C477.037,383.23 463.946,364.649 463.946,341.729 C463.946,318.808 477.037,300.227 493.185,300.227 C509.334,300.227 522.425,318.808 522.425,341.729 C522.425,364.649 509.334,383.23 493.185,383.23 z" fill="#FF8080"/>
            <path d="M493.185,383.23 C477.037,383.23 463.946,364.649 463.946,341.729 C463.946,318.808 477.037,300.227 493.185,300.227 C509.334,300.227 522.425,318.808 522.425,341.729 C522.425,364.649 509.334,383.23 493.185,383.23 z" fill-opacity="0" stroke="#000000" stroke-width="5"/>
          </g>
          <path d="M485.442,324.701 L485.687,324.679 L486.216,324.631 L487.062,324.554 L488.253,324.453 L489.466,324.367 L490.646,324.308 L491.461,324.29 L491.953,324.293 L492.414,324.308 L492.82,324.336 L493.162,324.377 L493.424,324.427 L493.475,324.443 L493.348,324.409 L493.563,324.475 L493.709,324.561 L493.728,324.618 L493.719,324.664 L493.699,324.702 L493.676,324.739 L493.655,324.789 L493.633,324.864 L493.604,324.974 L493.561,325.129 L493.498,325.331 L493.411,325.581 L493.297,325.876 L493.155,326.212 L492.869,326.829 L492.417,327.715 L491.912,328.631 L491.361,329.588 L490.789,330.554 L490.362,331.271 L490.074,331.757 L489.793,332.24 L489.516,332.725 L489.243,333.223 L488.97,333.75 L488.696,334.334 L488.416,335.032 L488.227,335.638 L488.227,335.638 C488.205,335.723 488.184,335.806 488.167,335.888 L488.167,335.888 L488.115,336.134 L488.002,336.74 L487.912,337.365 L487.852,337.963 L487.823,338.536 L487.824,339.083 L487.853,339.603 L487.909,340.096 L488.034,340.75 L488.278,341.55 L488.608,342.283 L488.999,342.92 L489.435,343.473 L489.897,343.951 L490.591,344.542 L491.506,345.206 L492.323,345.784 L492.796,346.172 L493.018,346.4 L493.195,346.631 L493.313,346.851 L493.376,347.053 L493.394,347.237 L493.378,347.41 L493.352,347.486 L493.336,347.519 L493.309,347.62 L493.273,347.737 L493.225,347.875 L493.162,348.037 L493.081,348.229 L492.979,348.451 L492.852,348.71 L492.697,349.005 L492.511,349.34 L492.293,349.713 L492.04,350.127 L491.749,350.584 L491.42,351.081 L491.049,351.623 L490.638,352.206 L490.184,352.833 L489.959,353.137 L489.959,353.137 C488.055,355.718 487.969,358.171 489.768,358.615 C491.567,359.059 494.569,357.326 496.474,354.745 L496.816,354.279 L497.438,353.419 L498.025,352.581 L498.578,351.767 L499.099,350.972 L499.588,350.196 L500.044,349.438 L500.469,348.696 L500.862,347.971 L501.222,347.26 L501.55,346.564 L501.843,345.881 L502.101,345.215 L502.323,344.566 L502.507,343.937 L502.653,343.328 L502.759,342.743 L502.83,342.129 L502.85,341.301 L502.754,340.385 L502.543,339.599 L502.245,338.934 L501.886,338.374 L501.488,337.899 L501.051,337.478 L500.415,336.967 L499.619,336.404 L498.885,335.882 L498.397,335.48 L498.129,335.22 L497.9,334.953 L497.707,334.676 L497.551,334.384 L497.424,334.033 L497.356,333.733 L497.328,333.543 L497.31,333.339 L497.304,333.12 L497.31,332.884 L497.33,332.627 L497.364,332.349 L497.425,332.003 L497.479,331.753 L497.418,332.003 L497.28,332.419 L497.17,332.66 L497.148,332.692 L497.202,332.578 L497.322,332.354 L497.499,332.043 L497.721,331.661 L497.982,331.221 L498.441,330.449 L499.131,329.28 L499.875,327.98 L500.637,326.572 L501.359,325.121 L501.857,324.011 L502.176,323.219 L502.465,322.414 L502.715,321.598 L502.916,320.775 L503.056,319.954 L503.119,319.143 L503.093,318.358 L502.963,317.616 L502.718,316.937 L502.355,316.34 L501.875,315.841 L501.287,315.448 L500.681,315.187 L500.464,315.12 L500.464,315.12 C500.423,315.108 500.381,315.096 500.337,315.086 L500.337,315.086 L500.022,315.015 L499.466,314.923 L498.889,314.862 L498.288,314.824 L497.665,314.806 L497.012,314.805 L496.021,314.829 L494.698,314.897 L493.393,314.99 L492.157,315.095 L491.306,315.172 L490.786,315.22 L490.537,315.242 C488.327,315.443 485.395,317.722 483.988,320.334 C482.581,322.947 483.232,324.902 485.442,324.701 L485.442,324.701" fill="#000000"/>
          <g>
            <path d="M493.044,381.769 L491.272,381.773 C486.576,381.784 482.763,379.278 482.757,376.177 L482.748,371.966 C482.742,368.864 486.544,366.342 491.241,366.331 L493.012,366.327 C497.709,366.317 501.521,368.822 501.527,371.923 L501.536,376.135 C501.542,379.236 497.74,381.758 493.044,381.769 z" fill="#808080"/>
            <path d="M493.044,381.769 L491.272,381.773 C486.576,381.784 482.763,379.278 482.757,376.177 L482.748,371.966 C482.742,368.864 486.544,366.342 491.241,366.331 L493.012,366.327 C497.709,366.317 501.521,368.822 501.527,371.923 L501.536,376.135 C501.542,379.236 497.74,381.758 493.044,381.769 z" fill-opacity="0" stroke="#000000" stroke-width="5"/>
          </g>
          <g>
            <g>
              <path d="M463.946,327.113 L463.946,356.345" fill="#8080FF"/>
              <path d="M463.946,327.113 L463.946,356.345" fill-opacity="0" stroke="#000000" stroke-width="5"/>
            </g>
            <g>
              <path d="M463.946,356.345 C463.946,358.821 457.363,360.828 449.244,360.828" fill="#8080FF"/>
              <path d="M463.946,356.345 C463.946,358.821 457.363,360.828 449.244,360.828" fill-opacity="0" stroke="#000000" stroke-width="5"/>
            </g>
            <g>
              <path d="M449.244,360.828 C441.124,360.828 434.542,358.821 434.542,356.345" fill="#8080FF"/>
              <path d="M449.244,360.828 C441.124,360.828 434.542,358.821 434.542,356.345" fill-opacity="0" stroke="#000000" stroke-width="5"/>
            </g>
            <g>
              <path d="M434.542,356.345 L434.542,326.145" fill="#8080FF"/>
              <path d="M434.542,356.345 L434.542,326.145" fill-opacity="0" stroke="#000000" stroke-width="5"/>
            </g>
            <g>
              <path d="M449.244,331.597 C441.124,331.597 434.542,329.589 434.542,327.113" fill="#8080FF"/>
              <path d="M449.244,331.597 C441.124,331.597 434.542,329.589 434.542,327.113" fill-opacity="0" stroke="#000000" stroke-width="5"/>
            </g>
            <g>
              <path d="M434.542,327.113 C434.542,324.637 441.124,322.629 449.244,322.629" fill="#8080FF"/>
              <path d="M434.542,327.113 C434.542,324.637 441.124,322.629 449.244,322.629" fill-opacity="0" stroke="#000000" stroke-width="5"/>
            </g>
            <g>
              <path d="M449.244,322.629 C457.363,322.629 463.946,324.637 463.946,327.113" fill="#8080FF"/>
              <path d="M449.244,322.629 C457.363,322.629 463.946,324.637 463.946,327.113" fill-opacity="0" stroke="#000000" stroke-width="5"/>
            </g>
            <g>
              <path d="M463.946,327.113 C463.946,329.589 457.363,331.597 449.244,331.597" fill="#8080FF"/>
              <path d="M463.946,327.113 C463.946,329.589 457.363,331.597 449.244,331.597" fill-opacity="0" stroke="#000000" stroke-width="5"/>
            </g>
          </g>
        </g>
        <g>
          <g>
            <path d="M508.185,399.23 C492.037,399.23 478.946,380.649 478.946,357.729 C478.946,334.808 492.037,316.227 508.185,316.227 C524.334,316.227 537.425,334.808 537.425,357.729 C537.425,380.649 524.334,399.23 508.185,399.23 z" fill="#FF8080"/>
            <path d="M508.185,399.23 C492.037,399.23 478.946,380.649 478.946,357.729 C478.946,334.808 492.037,316.227 508.185,316.227 C524.334,316.227 537.425,334.808 537.425,357.729 C537.425,380.649 524.334,399.23 508.185,399.23 z" fill-opacity="0" stroke="#000000" stroke-width="5"/>
          </g>
          <path d="M500.441,340.701 L500.687,340.679 L501.216,340.631 L502.062,340.554 L503.253,340.453 L504.466,340.367 L505.646,340.308 L506.461,340.29 L506.953,340.293 L507.414,340.308 L507.82,340.336 L508.162,340.377 L508.424,340.427 L508.475,340.443 L508.348,340.409 L508.563,340.475 L508.709,340.561 L508.728,340.618 L508.719,340.664 L508.699,340.702 L508.676,340.74 L508.655,340.788 L508.633,340.864 L508.604,340.975 L508.561,341.129 L508.498,341.331 L508.411,341.581 L508.297,341.876 L508.154,342.212 L507.869,342.829 L507.417,343.715 L506.912,344.631 L506.361,345.588 L505.789,346.554 L505.362,347.271 L505.074,347.757 L504.793,348.24 L504.516,348.725 L504.243,349.223 L503.97,349.75 L503.696,350.334 L503.416,351.032 L503.227,351.638 L503.227,351.638 C503.204,351.723 503.184,351.806 503.167,351.888 L503.167,351.888 L503.115,352.134 L503.002,352.74 L502.912,353.365 L502.852,353.963 L502.823,354.536 L502.824,355.083 L502.853,355.603 L502.909,356.096 L503.034,356.75 L503.278,357.55 L503.608,358.283 L503.999,358.92 L504.435,359.473 L504.897,359.951 L505.591,360.542 L506.506,361.206 L507.323,361.784 L507.796,362.171 L508.018,362.4 L508.195,362.631 L508.313,362.851 L508.376,363.053 L508.394,363.237 L508.378,363.41 L508.352,363.485 L508.336,363.519 L508.309,363.62 L508.273,363.737 L508.225,363.876 L508.163,364.037 L508.081,364.229 L507.98,364.45 L507.852,364.711 L507.697,365.005 L507.511,365.34 L507.293,365.713 L507.04,366.127 L506.749,366.584 L506.42,367.081 L506.049,367.623 L505.638,368.206 L505.184,368.833 L504.959,369.137 L504.959,369.137 C503.055,371.718 502.969,374.171 504.768,374.615 C506.567,375.059 509.569,373.326 511.474,370.745 L511.816,370.279 L512.438,369.419 L513.025,368.581 L513.578,367.767 L514.099,366.972 L514.587,366.196 L515.044,365.438 L515.469,364.696 L515.862,363.971 L516.223,363.259 L516.549,362.565 L516.844,361.881 L517.101,361.216 L517.324,360.565 L517.507,359.937 L517.653,359.328 L517.759,358.743 L517.829,358.129 L517.85,357.301 L517.754,356.385 L517.543,355.599 L517.245,354.934 L516.886,354.374 L516.488,353.899 L516.051,353.478 L515.415,352.967 L514.619,352.404 L513.885,351.882 L513.397,351.48 L513.129,351.22 L512.9,350.953 L512.707,350.676 L512.551,350.384 L512.424,350.033 L512.356,349.733 L512.328,349.543 L512.31,349.339 L512.304,349.12 L512.31,348.884 L512.33,348.627 L512.364,348.349 L512.425,348.003 L512.479,347.753 L512.418,348.003 L512.28,348.419 L512.17,348.66 L512.148,348.692 L512.202,348.578 L512.322,348.354 L512.499,348.043 L512.721,347.661 L512.982,347.221 L513.441,346.449 L514.131,345.28 L514.875,343.98 L515.637,342.572 L516.359,341.121 L516.857,340.011 L517.176,339.219 L517.465,338.414 L517.715,337.598 L517.916,336.775 L518.056,335.953 L518.119,335.143 L518.093,334.358 L517.962,333.615 L517.718,332.937 L517.355,332.34 L516.875,331.841 L516.287,331.448 L515.681,331.187 L515.464,331.12 L515.464,331.12 C515.423,331.108 515.38,331.096 515.337,331.086 L515.337,331.086 L515.022,331.015 L514.466,330.923 L513.888,330.862 L513.288,330.824 L512.665,330.806 L512.012,330.805 L511.021,330.829 L509.697,330.897 L508.393,330.99 L507.157,331.095 L506.306,331.172 L505.786,331.22 L505.537,331.242 C503.327,331.443 500.395,333.722 498.988,336.334 C497.581,338.947 498.232,340.902 500.441,340.701 L500.441,340.701" fill="#000000"/>
          <g>
            <path d="M508.044,397.769 L506.272,397.773 C501.576,397.784 497.763,395.278 497.757,392.177 L497.748,387.966 C497.742,384.864 501.544,382.342 506.241,382.331 L508.012,382.327 C512.709,382.317 516.521,384.822 516.527,387.923 L516.536,392.135 C516.542,395.236 512.74,397.758 508.044,397.769 z" fill="#808080"/>
            <path d="M508.044,397.769 L506.272,397.773 C501.576,397.784 497.763,395.278 497.757,392.177 L497.748,387.966 C497.742,384.864 501.544,382.342 506.241,382.331 L508.012,382.327 C512.709,382.317 516.521,384.822 516.527,387.923 L516.536,392.135 C516.542,395.236 512.74,397.758 508.044,397.769 z" fill-opacity="0" stroke="#000000" stroke-width="5"/>
          </g>
          <g>
            <g>
              <path d="M478.946,343.113 L478.946,372.345" fill="#8080FF"/>
              <path d="M478.946,343.113 L478.946,372.345" fill-opacity="0" stroke="#000000" stroke-width="5"/>
            </g>
            <g>
              <path d="M478.946,372.345 C478.946,374.821 472.363,376.828 464.244,376.828" fill="#8080FF"/>
              <path d="M478.946,372.345 C478.946,374.821 472.363,376.828 464.244,376.828" fill-opacity="0" stroke="#000000" stroke-width="5"/>
            </g>
            <g>
              <path d="M464.244,376.828 C456.124,376.828 449.542,374.821 449.542,372.345" fill="#8080FF"/>
              <path d="M464.244,376.828 C456.124,376.828 449.542,374.821 449.542,372.345" fill-opacity="0" stroke="#000000" stroke-width="5"/>
            </g>
            <g>
              <path d="M449.542,372.345 L449.542,342.145" fill="#8080FF"/>
              <path d="M449.542,372.345 L449.542,342.145" fill-opacity="0" stroke="#000000" stroke-width="5"/>
            </g>
            <g>
              <path d="M464.244,347.597 C456.124,347.597 449.542,345.589 449.542,343.113" fill="#8080FF"/>
              <path d="M464.244,347.597 C456.124,347.597 449.542,345.589 449.542,343.113" fill-opacity="0" stroke="#000000" stroke-width="5"/>
            </g>
            <g>
              <path d="M449.542,343.113 C449.542,340.637 456.124,338.629 464.244,338.629" fill="#8080FF"/>
              <path d="M449.542,343.113 C449.542,340.637 456.124,338.629 464.244,338.629" fill-opacity="0" stroke="#000000" stroke-width="5"/>
            </g>
            <g>
              <path d="M464.244,338.629 C472.363,338.629 478.946,340.637 478.946,343.113" fill="#8080FF"/>
              <path d="M464.244,338.629 C472.363,338.629 478.946,340.637 478.946,343.113" fill-opacity="0" stroke="#000000" stroke-width="5"/>
            </g>
            <g>
              <path d="M478.946,343.113 C478.946,345.589 472.363,347.597 464.244,347.597" fill="#8080FF"/>
              <path d="M478.946,343.113 C478.946,345.589 472.363,347.597 464.244,347.597" fill-opacity="0" stroke="#000000" stroke-width="5"/>
            </g>
          </g>
        </g>
        <g>
          <g>
            <path d="M523.185,414.23 C507.037,414.23 493.946,395.65 493.946,372.729 C493.946,349.808 507.037,331.227 523.185,331.227 C539.334,331.227 552.425,349.808 552.425,372.729 C552.425,395.65 539.334,414.23 523.185,414.23 z" fill="#FF8080"/>
            <path d="M523.185,414.23 C507.037,414.23 493.946,395.65 493.946,372.729 C493.946,349.808 507.037,331.227 523.185,331.227 C539.334,331.227 552.425,349.808 552.425,372.729 C552.425,395.65 539.334,414.23 523.185,414.23 z" fill-opacity="0" stroke="#000000" stroke-width="5"/>
          </g>
          <path d="M515.442,355.701 L515.687,355.679 L516.216,355.631 L517.062,355.554 L518.253,355.453 L519.466,355.367 L520.646,355.308 L521.461,355.29 L521.953,355.293 L522.414,355.308 L522.82,355.336 L523.162,355.377 L523.424,355.427 L523.476,355.444 L523.348,355.409 L523.563,355.475 L523.708,355.561 L523.728,355.618 L523.719,355.664 L523.699,355.702 L523.676,355.739 L523.655,355.789 L523.633,355.863 L523.604,355.975 L523.561,356.129 L523.498,356.332 L523.411,356.581 L523.297,356.876 L523.154,357.212 L522.869,357.829 L522.417,358.714 L521.913,359.631 L521.361,360.588 L520.789,361.554 L520.362,362.271 L520.074,362.757 L519.792,363.24 L519.515,363.726 L519.244,364.221 L518.97,364.751 L518.696,365.334 L518.416,366.032 L518.227,366.64 L518.227,366.64 C518.204,366.724 518.184,366.807 518.167,366.888 L518.167,366.888 L518.115,367.134 L518.002,367.74 L517.912,368.365 L517.852,368.963 L517.823,369.536 L517.824,370.082 L517.853,370.603 L517.909,371.096 L518.035,371.751 L518.278,372.55 L518.608,373.283 L518.999,373.92 L519.435,374.473 L519.897,374.951 L520.591,375.543 L521.506,376.206 L522.323,376.784 L522.796,377.172 L523.018,377.4 L523.195,377.632 L523.313,377.851 L523.376,378.053 L523.394,378.238 L523.378,378.41 L523.352,378.486 L523.336,378.519 L523.309,378.62 L523.273,378.736 L523.225,378.875 L523.163,379.037 L523.081,379.229 L522.98,379.45 L522.852,379.711 L522.697,380.005 L522.511,380.34 L522.293,380.713 L522.04,381.127 L521.749,381.584 L521.42,382.081 L521.049,382.623 L520.638,383.206 L520.184,383.833 L519.96,384.136 L519.96,384.136 C518.055,386.717 517.969,389.171 519.768,389.615 C521.566,390.06 524.568,388.327 526.473,385.746 C526.473,385.746 526.473,385.746 526.473,385.746 L526.817,385.279 L527.438,384.419 L528.025,383.581 L528.578,382.767 L529.099,381.972 L529.588,381.196 L530.044,380.438 L530.469,379.696 L530.862,378.971 L531.223,378.259 L531.549,377.565 L531.844,376.881 L532.101,376.216 L532.323,375.566 L532.507,374.937 L532.653,374.328 L532.759,373.744 L532.83,373.129 L532.85,372.301 L532.754,371.385 L532.543,370.599 L532.245,369.934 L531.886,369.374 L531.488,368.899 L531.051,368.478 L530.415,367.967 L529.618,367.404 L528.884,366.881 L528.397,366.48 L528.129,366.22 L527.9,365.953 L527.707,365.676 L527.551,365.384 L527.424,365.033 L527.356,364.733 L527.328,364.543 L527.31,364.34 L527.304,364.12 L527.31,363.884 L527.33,363.627 L527.364,363.35 L527.426,363.003 L527.479,362.753 L527.419,363.002 L527.28,363.419 L527.17,363.66 L527.148,363.691 L527.201,363.58 L527.323,363.353 L527.499,363.042 L527.721,362.661 L527.982,362.221 L528.441,361.449 L529.131,360.28 L529.874,358.98 L530.636,357.573 L531.359,356.121 L531.858,355.011 L532.177,354.219 L532.465,353.414 L532.715,352.597 L532.916,351.775 L533.056,350.953 L533.119,350.143 L533.093,349.357 L532.963,348.616 L532.718,347.937 L532.355,347.34 L531.875,346.841 L531.287,346.449 L530.681,346.187 L530.464,346.12 L530.464,346.12 C530.422,346.107 530.38,346.096 530.337,346.086 L530.337,346.086 L530.021,346.015 L529.467,345.923 L528.889,345.862 L528.288,345.824 L527.666,345.806 L527.012,345.805 L526.021,345.829 L524.697,345.897 L523.393,345.99 L522.157,346.095 L521.306,346.172 L520.786,346.22 L520.537,346.242 C518.327,346.443 515.395,348.722 513.988,351.335 C512.581,353.947 513.232,355.902 515.442,355.701 L515.442,355.701" fill="#000000"/>
          <g>
            <path d="M523.044,412.769 L521.272,412.773 C516.576,412.784 512.763,410.278 512.757,407.177 L512.748,402.966 C512.742,399.864 516.544,397.342 521.241,397.331 L523.012,397.327 C527.709,397.317 531.521,399.822 531.527,402.923 L531.536,407.135 C531.542,410.236 527.74,412.758 523.044,412.769 z" fill="#808080"/>
            <path d="M523.044,412.769 L521.272,412.773 C516.576,412.784 512.763,410.278 512.757,407.177 L512.748,402.966 C512.742,399.864 516.544,397.342 521.241,397.331 L523.012,397.327 C527.709,397.317 531.521,399.822 531.527,402.923 L531.536,407.135 C531.542,410.236 527.74,412.758 523.044,412.769 z" fill-opacity="0" stroke="#000000" stroke-width="5"/>
          </g>
          <g>
            <g>
              <path d="M493.946,358.113 L493.946,387.345" fill="#8080FF"/>
              <path d="M493.946,358.113 L493.946,387.345" fill-opacity="0" stroke="#000000" stroke-width="5"/>
            </g>
            <g>
              <path d="M493.946,387.345 C493.946,389.821 487.363,391.828 479.244,391.828" fill="#8080FF"/>
              <path d="M493.946,387.345 C493.946,389.821 487.363,391.828 479.244,391.828" fill-opacity="0" stroke="#000000" stroke-width="5"/>
            </g>
            <g>
              <path d="M479.244,391.828 C471.124,391.828 464.542,389.821 464.542,387.345" fill="#8080FF"/>
              <path d="M479.244,391.828 C471.124,391.828 464.542,389.821 464.542,387.345" fill-opacity="0" stroke="#000000" stroke-width="5"/>
            </g>
            <g>
              <path d="M464.542,387.345 L464.542,357.145" fill="#8080FF"/>
              <path d="M464.542,387.345 L464.542,357.145" fill-opacity="0" stroke="#000000" stroke-width="5"/>
            </g>
            <g>
              <path d="M479.244,362.597 C471.124,362.597 464.542,360.589 464.542,358.113" fill="#8080FF"/>
              <path d="M479.244,362.597 C471.124,362.597 464.542,360.589 464.542,358.113" fill-opacity="0" stroke="#000000" stroke-width="5"/>
            </g>
            <g>
              <path d="M464.542,358.113 C464.542,355.637 471.124,353.629 479.244,353.629" fill="#8080FF"/>
              <path d="M464.542,358.113 C464.542,355.637 471.124,353.629 479.244,353.629" fill-opacity="0" stroke="#000000" stroke-width="5"/>
            </g>
            <g>
              <path d="M479.244,353.629 C487.363,353.629 493.946,355.637 493.946,358.113" fill="#8080FF"/>
              <path d="M479.244,353.629 C487.363,353.629 493.946,355.637 493.946,358.113" fill-opacity="0" stroke="#000000" stroke-width="5"/>
            </g>
            <g>
              <path d="M493.946,358.113 C493.946,360.589 487.363,362.597 479.244,362.597" fill="#8080FF"/>
              <path d="M493.946,358.113 C493.946,360.589 487.363,362.597 479.244,362.597" fill-opacity="0" stroke="#000000" stroke-width="5"/>
            </g>
          </g>
        </g>
      </g>
      <g>
        <path d="M576.762,567.348 L489.934,395.831" fill-opacity="0" stroke="#000000" stroke-width="1.5"/>
        <path d="M573.818,568.839 L580.736,575.2 L579.706,565.858 z" fill="#000000" fill-opacity="1" stroke="#000000" stroke-width="1.5" stroke-opacity="1"/>
        <path d="M492.878,394.34 L485.96,387.979 L486.99,397.321 z" fill="#000000" fill-opacity="1" stroke="#000000" stroke-width="1.5" stroke-opacity="1"/>
      </g>
      <g>
        <path d="M217.268,120.699 L430.607,133.306" fill-opacity="0" stroke="#000000" stroke-width="1.5"/>
        <path d="M217.463,117.404 L208.484,120.179 L217.074,123.993 z" fill="#000000" fill-opacity="1" stroke="#000000" stroke-width="1.5" stroke-opacity="1"/>
        <path d="M430.412,136.601 L439.391,133.825 L430.801,130.012 z" fill="#000000" fill-opacity="1" stroke="#000000" stroke-width="1.5" stroke-opacity="1"/>
      </g>
      <g>
        <path d="M247.315,189.732 L442.094,159.126" fill-opacity="0" stroke="#000000" stroke-width="1.5"/>
        <path d="M246.803,186.472 L238.622,191.098 L247.828,192.992 z" fill="#000000" fill-opacity="1" stroke="#000000" stroke-width="1.5" stroke-opacity="1"/>
        <path d="M442.606,162.386 L450.787,157.76 L441.582,155.866 z" fill="#000000" fill-opacity="1" stroke="#000000" stroke-width="1.5" stroke-opacity="1"/>
      </g>
      <g>
        <path d="M132.007,287.911 L463.074,215.675" fill-opacity="0" stroke="#000000" stroke-width="1.5"/>
        <path d="M131.304,284.687 L123.409,289.787 L132.711,291.135 z" fill="#000000" fill-opacity="1" stroke="#000000" stroke-width="1.5" stroke-opacity="1"/>
        <path d="M463.777,218.899 L471.671,213.799 L462.37,212.45 z" fill="#000000" fill-opacity="1" stroke="#000000" stroke-width="1.5" stroke-opacity="1"/>
      </g>
      <g>
        <path d="M163.399,318.268 L404.303,318.268" fill-opacity="0" stroke="#000000" stroke-width="1.5"/>
        <path d="M163.399,314.968 L154.599,318.268 L163.399,321.568 z" fill="#000000" fill-opacity="1" stroke="#000000" stroke-width="1.5" stroke-opacity="1"/>
        <path d="M404.303,321.568 L413.103,318.268 L404.303,314.968 z" fill="#000000" fill-opacity="1" stroke="#000000" stroke-width="1.5" stroke-opacity="1"/>
      </g>
      <g>
        <path d="M184.421,412.041 L430.834,356.165" fill-opacity="0" stroke="#000000" stroke-width="1.5"/>
        <path d="M183.691,408.823 L175.839,413.987 L185.151,415.259 z" fill="#000000" fill-opacity="1" stroke="#000000" stroke-width="1.5" stroke-opacity="1"/>
        <path d="M431.564,359.383 L439.417,354.219 L430.105,352.947 z" fill="#000000" fill-opacity="1" stroke="#000000" stroke-width="1.5" stroke-opacity="1"/>
      </g>
      <g>
        <path d="M369.103,558.419 L452.284,387.544" fill-opacity="0" stroke="#000000" stroke-width="1.5"/>
        <path d="M366.136,556.974 L365.251,566.331 L372.07,559.863 z" fill="#000000" fill-opacity="1" stroke="#000000" stroke-width="1.5" stroke-opacity="1"/>
        <path d="M455.252,388.988 L456.136,379.632 L449.317,386.099 z" fill="#000000" fill-opacity="1" stroke="#000000" stroke-width="1.5" stroke-opacity="1"/>
      </g>
      <g>
        <path d="M276.274,510.963 L467.757,182.743" fill-opacity="0" stroke="#000000" stroke-width="1.5"/>
        <path d="M273.423,509.301 L271.839,518.564 L279.124,512.626 z" fill="#000000" fill-opacity="1" stroke="#000000" stroke-width="1.5" stroke-opacity="1"/>
        <path d="M470.608,184.406 L472.192,175.142 L464.907,181.08 z" fill="#000000" fill-opacity="1" stroke="#000000" stroke-width="1.5" stroke-opacity="1"/>
      </g>
      <g>
        <path d="M514.145,105.666 C538.968,96.816 549.511,121.181 541.784,139.363" fill-opacity="0" stroke="#000000" stroke-width="3" stroke-linecap="round" stroke-linejoin="round"/>
        <path d="M512.198,101.945 L504.221,110.858 L516.092,109.387 z" fill="#000000" fill-opacity="1" stroke="#000000" stroke-width="3" stroke-opacity="1"/>
        <path d="M538.403,136.872 L535.141,148.38 L545.165,141.854 z" fill="#000000" fill-opacity="1" stroke="#000000" stroke-width="3" stroke-opacity="1"/>
      </g>
      <g>
        <path d="M532.63,125.099 C563.287,110.172 575.717,147.159 564.434,172.039" fill-opacity="0" stroke="#000000" stroke-width="3" stroke-linecap="round" stroke-linejoin="round"/>
        <path d="M530.346,121.575 L523.233,131.192 L534.915,128.623 z" fill="#000000" fill-opacity="1" stroke="#000000" stroke-width="3" stroke-opacity="1"/>
        <path d="M560.972,169.661 L558.092,181.271 L567.896,174.417 z" fill="#000000" fill-opacity="1" stroke="#000000" stroke-width="3" stroke-opacity="1"/>
      </g>
      <g>
        <path d="M551.101,336.278 C658.92,252.58 637.738,174.028 573.665,204.131" fill-opacity="0" stroke="#000000" stroke-width="3" stroke-linecap="round" stroke-linejoin="round"/>
        <path d="M548.585,332.915 L542.133,342.988 L553.617,339.641 z" fill="#000000" fill-opacity="1" stroke="#000000" stroke-width="3" stroke-opacity="1"/>
        <path d="M571.636,200.454 L563.858,209.542 L575.693,207.809 z" fill="#000000" fill-opacity="1" stroke="#000000" stroke-width="3" stroke-opacity="1"/>
      </g>
      <g>
        <path d="M516.982,295.904 C639.505,194.948 621.977,109.075 550.525,149.045" fill-opacity="0" stroke="#000000" stroke-width="3" stroke-linecap="round" stroke-linejoin="round"/>
        <path d="M514.355,292.626 L508.242,302.908 L519.608,299.181 z" fill="#000000" fill-opacity="1" stroke="#000000" stroke-width="3" stroke-opacity="1"/>
        <path d="M548.291,145.488 L541.041,155.002 L552.759,152.601 z" fill="#000000" fill-opacity="1" stroke="#000000" stroke-width="3" stroke-opacity="1"/>
      </g>
      <g>
        <path d="M506.648,280.974 C531.471,272.124 542.014,296.489 534.287,314.671" fill-opacity="0" stroke="#000000" stroke-width="3" stroke-linecap="round" stroke-linejoin="round"/>
        <path d="M504.701,277.253 L496.725,286.166 L508.595,284.695 z" fill="#000000" fill-opacity="1" stroke="#000000" stroke-width="3" stroke-opacity="1"/>
        <path d="M530.906,312.18 L527.644,323.688 L537.668,317.162 z" fill="#000000" fill-opacity="1" stroke="#000000" stroke-width="3" stroke-opacity="1"/>
      </g>
      <g>
        <g>
          <g>
            <path d="M692.982,195.532 L759.353,195.532 C765.981,195.532 771.353,200.904 771.353,207.532 L771.353,297.867 C771.353,304.495 765.981,309.867 759.353,309.867 L692.982,309.867 C686.354,309.867 680.982,304.495 680.982,297.867 L680.982,207.532 C680.982,200.904 686.354,195.532 692.982,195.532 z" fill="#8080FF"/>
            <path d="M692.982,195.532 L759.353,195.532 C765.981,195.532 771.353,200.904 771.353,207.532 L771.353,297.867 C771.353,304.495 765.981,309.867 759.353,309.867 L692.982,309.867 C686.354,309.867 680.982,304.495 680.982,297.867 L680.982,207.532 C680.982,200.904 686.354,195.532 692.982,195.532 z" fill-opacity="0" stroke="#000000" stroke-width="1.5"/>
          </g>
          <text fill="#000000" transform="matrix(1, 0, -0, 1, 722.219, 122.98)">
            <tspan x="-91.834" y="14.023" font-family="HelveticaNeue-Bold" font-size="37">SERVICES</tspan>
          </text>
        </g>
        <g>
          <path d="M709.882,211.518 L776.253,211.518 C782.881,211.518 788.253,216.735 788.253,223.171 L788.253,310.899 C788.253,317.336 782.881,322.553 776.253,322.553 L709.882,322.553 C703.254,322.553 697.882,317.336 697.882,310.899 L697.882,223.171 C697.882,216.735 703.254,211.518 709.882,211.518 z" fill="#8080FF"/>
          <path d="M709.882,211.518 L776.253,211.518 C782.881,211.518 788.253,216.735 788.253,223.171 L788.253,310.899 C788.253,317.336 782.881,322.553 776.253,322.553 L709.882,322.553 C703.254,322.553 697.882,317.336 697.882,310.899 L697.882,223.171 C697.882,216.735 703.254,211.518 709.882,211.518 z" fill-opacity="0" stroke="#000000" stroke-width="1.5"/>
        </g>
        <g>
          <path d="M725.129,232.127 L791.5,232.127 C798.128,232.127 803.5,237.499 803.5,244.127 L803.5,334.462 C803.5,341.089 798.128,346.462 791.5,346.462 L725.129,346.462 C718.501,346.462 713.129,341.089 713.129,334.462 L713.129,244.127 C713.129,237.499 718.501,232.127 725.129,232.127 z" fill="#8080FF"/>
          <path d="M725.129,232.127 L791.5,232.127 C798.128,232.127 803.5,237.499 803.5,244.127 L803.5,334.462 C803.5,341.089 798.128,346.462 791.5,346.462 L725.129,346.462 C718.501,346.462 713.129,341.089 713.129,334.462 L713.129,244.127 C713.129,237.499 718.501,232.127 725.129,232.127 z" fill-opacity="0" stroke="#000000" stroke-width="1.5"/>
        </g>
      </g>
      <g>
        <path d="M574.911,186.547 L667.803,210.207" fill-opacity="0" stroke="#000000" stroke-width="3"/>
        <path d="M575.948,182.477 L564.058,183.783 L573.875,190.617 z" fill="#000000" fill-opacity="1" stroke="#000000" stroke-width="3" stroke-opacity="1"/>
        <path d="M666.766,214.277 L678.656,212.972 L668.839,206.137 z" fill="#000000" fill-opacity="1" stroke="#000000" stroke-width="3" stroke-opacity="1"/>
      </g>
      <g>
        <path d="M529.821,305.544 L668.277,252.657" fill-opacity="0" stroke="#000000" stroke-width="3"/>
        <path d="M528.322,301.621 L519.358,309.541 L531.319,309.468 z" fill="#000000" fill-opacity="1" stroke="#000000" stroke-width="3" stroke-opacity="1"/>
        <path d="M669.776,256.581 L678.74,248.661 L666.778,248.734 z" fill="#000000" fill-opacity="1" stroke="#000000" stroke-width="3" stroke-opacity="1"/>
      </g>
      <g>
        <path d="M561.635,346.414 L669.678,274.14" fill-opacity="0" stroke="#000000" stroke-width="3"/>
        <path d="M559.3,342.923 L552.326,352.641 L563.97,349.905 z" fill="#000000" fill-opacity="1" stroke="#000000" stroke-width="3" stroke-opacity="1"/>
        <path d="M672.013,277.631 L678.987,267.912 L667.342,270.649 z" fill="#000000" fill-opacity="1" stroke="#000000" stroke-width="3" stroke-opacity="1"/>
      </g>
      <g>
        <path d="M540.017,139.101 L668.42,192.359" fill-opacity="0" stroke="#000000" stroke-width="3"/>
        <path d="M541.626,135.221 L529.671,134.81 L538.407,142.98 z" fill="#000000" fill-opacity="1" stroke="#000000" stroke-width="3" stroke-opacity="1"/>
        <path d="M666.81,196.239 L678.765,196.65 L670.029,188.48 z" fill="#000000" fill-opacity="1" stroke="#000000" stroke-width="3" stroke-opacity="1"/>
      </g>
    </g>
  </g>
</svg>
