<?xml version="1.0" encoding="UTF-8"?>
<!DOCTYPE svg PUBLIC "-//W3C//DTD SVG 1.1//EN" "http://www.w3.org/Graphics/SVG/1.1/DTD/svg11.dtd">
<svg version="1.1" xmlns="http://www.w3.org/2000/svg" xmlns:xlink="http://www.w3.org/1999/xlink" x="0" y="0" width="250" height="410" viewBox="0, 0, 250, 410">
  <g id="Background">
    <rect x="0" y="0" width="250" height="410" fill="#FFFFFF"/>
  </g>
  <g id="Layer_1">
    <g>
      <g>
        <path d="M70.6,88.545 C55.176,88.545 42.672,70.798 42.672,48.905 C42.672,27.013 55.176,9.266 70.6,9.266 C86.024,9.266 98.528,27.013 98.528,48.905 C98.528,70.798 86.024,88.545 70.6,88.545 z" fill="#FF8080"/>
        <path d="M70.6,88.545 C55.176,88.545 42.672,70.798 42.672,48.905 C42.672,27.013 55.176,9.266 70.6,9.266 C86.024,9.266 98.528,27.013 98.528,48.905 C98.528,70.798 86.024,88.545 70.6,88.545 z" fill-opacity="0" stroke="#000000" stroke-width="5"/>
      </g>
      <path d="M63.09,32.854 L63.325,32.833 L63.829,32.787 L64.636,32.713 L65.774,32.617 L66.93,32.535 L68.054,32.479 L68.829,32.462 L69.295,32.465 L69.732,32.479 L70.116,32.506 L70.437,32.544 L70.68,32.591 L70.723,32.606 L70.596,32.571 L70.801,32.634 L70.93,32.712 L70.936,32.759 L70.916,32.793 L70.888,32.816 L70.86,32.838 L70.837,32.87 L70.814,32.925 L70.788,33.015 L70.749,33.149 L70.692,33.327 L70.612,33.553 L70.422,34.033 L70.086,34.761 L69.682,35.546 L69.206,36.41 L68.683,37.316 L68.139,38.235 L67.733,38.918 L67.457,39.384 L67.187,39.846 L66.92,40.315 L66.656,40.796 L66.391,41.308 L66.121,41.881 L65.846,42.568 L65.659,43.168 L65.659,43.168 C65.636,43.253 65.616,43.337 65.598,43.42 L65.598,43.42 L65.548,43.654 L65.44,44.239 L65.352,44.844 L65.294,45.422 L65.266,45.978 L65.266,46.507 L65.315,47.215 L65.463,48.087 L65.705,48.896 L66.024,49.605 L66.402,50.222 L66.823,50.756 L67.269,51.218 L67.936,51.787 L68.814,52.424 L69.596,52.976 L70.043,53.344 L70.25,53.557 L70.415,53.774 L70.522,53.975 L70.577,54.158 L70.59,54.32 L70.572,54.469 L70.546,54.524 L70.533,54.542 L70.509,54.629 L70.477,54.729 L70.434,54.85 L70.378,54.994 L70.304,55.166 L70.211,55.369 L70.094,55.605 L69.951,55.878 L69.778,56.188 L69.574,56.537 L69.336,56.926 L69.064,57.354 L68.752,57.824 L68.404,58.334 L68.014,58.886 L67.584,59.478 L67.373,59.764 L67.373,59.764 C65.468,62.346 65.382,64.799 67.181,65.244 C68.979,65.688 71.981,63.956 73.886,61.374 L74.217,60.925 L74.815,60.097 L75.379,59.293 L75.912,58.507 L76.413,57.743 L76.885,56.994 L77.325,56.263 L77.735,55.547 L78.115,54.845 L78.464,54.156 L78.782,53.48 L79.066,52.819 L79.317,52.172 L79.532,51.541 L79.711,50.929 L79.852,50.336 L79.955,49.768 L80.024,49.168 L80.044,48.36 L79.95,47.468 L79.744,46.704 L79.454,46.059 L79.105,45.515 L78.72,45.057 L78.298,44.651 L77.687,44.159 L76.927,43.622 L76.23,43.126 L75.768,42.747 L75.517,42.503 L75.302,42.255 L75.123,41.998 L74.978,41.729 L74.866,41.439 L74.785,41.077 L74.753,40.763 L74.747,40.561 L74.752,40.344 L74.77,40.106 L74.802,39.848 L74.859,39.524 L74.91,39.284 L74.849,39.537 L74.71,39.954 L74.597,40.205 L74.568,40.251 L74.615,40.151 L74.727,39.943 L74.893,39.65 L75.104,39.286 L75.352,38.868 L75.792,38.129 L76.453,37.009 L77.168,35.759 L77.901,34.403 L78.619,32.956 L79.258,31.493 L79.667,30.386 L79.909,29.594 L80.104,28.794 L80.239,27.995 L80.301,27.205 L80.275,26.439 L80.147,25.714 L79.907,25.052 L79.552,24.469 L79.082,23.982 L78.508,23.6 L77.92,23.346 L77.712,23.282 L77.712,23.282 C77.671,23.27 77.628,23.258 77.585,23.248 L77.585,23.248 L77.278,23.179 L76.74,23.09 L76.183,23.031 L75.605,22.995 L75.008,22.978 L74.379,22.977 L73.429,23 L72.161,23.065 L70.913,23.154 L69.733,23.254 L68.919,23.328 L68.422,23.374 L68.184,23.395 C65.974,23.596 63.042,25.876 61.635,28.488 C60.229,31.1 60.88,33.055 63.09,32.854 L63.09,32.854" fill="#000000"/>
      <g>
        <path d="M70.465,87.149 L68.773,87.153 C64.287,87.163 60.646,84.77 60.64,81.808 L60.631,77.785 C60.625,74.823 64.257,72.414 68.743,72.404 L70.435,72.4 C74.92,72.39 78.562,74.783 78.568,77.745 L78.576,81.767 C78.582,84.729 74.95,87.139 70.465,87.149 z" fill="#808080"/>
        <path d="M70.465,87.149 L68.773,87.153 C64.287,87.163 60.646,84.77 60.64,81.808 L60.631,77.785 C60.625,74.823 64.257,72.414 68.743,72.404 L70.435,72.4 C74.92,72.39 78.562,74.783 78.568,77.745 L78.576,81.767 C78.582,84.729 74.95,87.139 70.465,87.149 z" fill-opacity="0" stroke="#000000" stroke-width="5"/>
      </g>
      <g>
        <g>
          <path d="M42.672,34.945 L42.672,62.865" fill="#8080FF"/>
          <path d="M42.672,34.945 L42.672,62.865" fill-opacity="0" stroke="#000000" stroke-width="5"/>
        </g>
        <g>
          <path d="M42.672,62.865 C42.672,65.231 36.385,67.148 28.63,67.148" fill="#8080FF"/>
          <path d="M42.672,62.865 C42.672,65.231 36.385,67.148 28.63,67.148" fill-opacity="0" stroke="#000000" stroke-width="5"/>
        </g>
        <g>
          <path d="M28.63,67.148 C20.875,67.148 14.588,65.231 14.588,62.865" fill="#8080FF"/>
          <path d="M28.63,67.148 C20.875,67.148 14.588,65.231 14.588,62.865" fill-opacity="0" stroke="#000000" stroke-width="5"/>
        </g>
        <g>
          <path d="M14.588,62.865 L14.588,34.021" fill="#8080FF"/>
          <path d="M14.588,62.865 L14.588,34.021" fill-opacity="0" stroke="#000000" stroke-width="5"/>
        </g>
        <g>
          <path d="M28.63,39.228 C20.875,39.228 14.588,37.31 14.588,34.945" fill="#8080FF"/>
          <path d="M28.63,39.228 C20.875,39.228 14.588,37.31 14.588,34.945" fill-opacity="0" stroke="#000000" stroke-width="5"/>
        </g>
        <g>
          <path d="M14.588,34.945 C14.588,32.58 20.875,30.663 28.63,30.663" fill="#8080FF"/>
          <path d="M14.588,34.945 C14.588,32.58 20.875,30.663 28.63,30.663" fill-opacity="0" stroke="#000000" stroke-width="5"/>
        </g>
        <g>
          <path d="M28.63,30.663 C36.385,30.663 42.672,32.58 42.672,34.945" fill="#8080FF"/>
          <path d="M28.63,30.663 C36.385,30.663 42.672,32.58 42.672,34.945" fill-opacity="0" stroke="#000000" stroke-width="5"/>
        </g>
        <g>
          <path d="M42.672,34.945 C42.672,37.31 36.385,39.228 28.63,39.228" fill="#8080FF"/>
          <path d="M42.672,34.945 C42.672,37.31 36.385,39.228 28.63,39.228" fill-opacity="0" stroke="#000000" stroke-width="5"/>
        </g>
      </g>
    </g>
    <g>
      <path d="M31.201,392.877 L161.212,393.904" fill-opacity="0" stroke="#000000" stroke-width="5"/>
      <path d="M28.471,380.074 L40.519,394.499" fill-opacity="0" stroke="#80FF80" stroke-width="5"/>
      <path d="M78.423,381.102 L90.471,395.526" fill-opacity="0" stroke="#80FF80" stroke-width="5"/>
      <path d="M69.421,380.074 L81.469,394.499" fill-opacity="0" stroke="#80FF80" stroke-width="5"/>
      <path d="M61.12,379.011 L73.168,393.435" fill-opacity="0" stroke="#80FF80" stroke-width="5"/>
      <path d="M52.549,379.011 L64.597,393.435" fill-opacity="0" stroke="#80FF80" stroke-width="5"/>
      <path d="M44.204,379.011 L56.251,393.435" fill-opacity="0" stroke="#80FF80" stroke-width="5"/>
      <path d="M35.859,379.011 L47.906,393.435" fill-opacity="0" stroke="#80FF80" stroke-width="5"/>
      <path d="M151.01,381.102 L163.058,395.526" fill-opacity="0" stroke="#80FF80" stroke-width="5"/>
      <path d="M143.036,381.102 L155.084,395.526" fill-opacity="0" stroke="#80FF80" stroke-width="5"/>
      <path d="M133.38,381.102 L145.428,395.526" fill-opacity="0" stroke="#80FF80" stroke-width="5"/>
      <path d="M124.078,380.074 L136.126,394.499" fill-opacity="0" stroke="#80FF80" stroke-width="5"/>
      <path d="M115.416,380.074 L127.464,394.499" fill-opacity="0" stroke="#80FF80" stroke-width="5"/>
      <path d="M106.398,379.011 L118.446,393.435" fill-opacity="0" stroke="#80FF80" stroke-width="5"/>
      <path d="M97.381,380.074 L109.429,394.499" fill-opacity="0" stroke="#80FF80" stroke-width="5"/>
      <path d="M86.02,379.688 L98.068,394.112" fill-opacity="0" stroke="#80FF80" stroke-width="5"/>
      <g>
        <path d="M138.385,360.193 L145.428,360.193 L145.428,393.904 L138.385,393.904 z" fill="#000000"/>
        <path d="M138.385,360.193 L145.428,360.193 L145.428,393.904 L138.385,393.904 z" fill-opacity="0" stroke="#000000" stroke-width="5"/>
      </g>
      <path d="M47.906,330.605 C97.876,330.605 138.385,342.241 138.385,356.596" fill-opacity="0" stroke="#000000" stroke-width="1.5" stroke-dasharray="4.5,3"/>
      <path d="M62.639,345.012 C104.472,345.012 138.385,350.755 138.385,357.839" fill-opacity="0" stroke="#000000" stroke-width="1.5" stroke-dasharray="4.5,3"/>
      <path d="M39.2,336.885 C94.707,336.885 139.704,345.71 139.704,356.596" fill-opacity="0" stroke="#000000" stroke-width="1.5" stroke-dasharray="4.5,3"/>
    </g>
    <g>
      <path d="M203.184,248.08 C191.118,265.882 112.781,243.979 101.717,242.94" fill-opacity="0" stroke="#000000" stroke-width="5" stroke-linecap="round" stroke-linejoin="round"/>
      <path d="M101.717,242.94 C91.976,247.587 74.017,258.701 61.653,259.929" fill-opacity="0" stroke="#000000" stroke-width="5" stroke-linecap="round" stroke-linejoin="round"/>
      <path d="M61.653,259.929 C30.713,265.602 -0.15,244.052 12.444,207.172" fill-opacity="0" stroke="#000000" stroke-width="5" stroke-linecap="round" stroke-linejoin="round"/>
      <path d="M12.444,207.172 L7.218,201.36" fill-opacity="0" stroke="#000000" stroke-width="5" stroke-linecap="round" stroke-linejoin="round"/>
      <path d="M7.218,201.36 C-4.375,138.996 67.414,93.599 107.814,141.002" fill-opacity="0" stroke="#000000" stroke-width="5" stroke-linecap="round" stroke-linejoin="round"/>
      <path d="M107.814,141.001 L115.653,138.766" fill-opacity="0" stroke="#000000" stroke-width="5" stroke-linecap="round" stroke-linejoin="round"/>
      <path d="M115.653,138.766 C142.859,125.23 175.058,105.4 201.007,129.377" fill-opacity="0" stroke="#000000" stroke-width="5" stroke-linecap="round" stroke-linejoin="round"/>
      <path d="M201.007,129.377 C210.707,138.34 215.813,145.898 215.813,158.885" fill-opacity="0" stroke="#000000" stroke-width="5" stroke-linecap="round" stroke-linejoin="round"/>
      <path d="M215.813,158.885 L226.265,169.169" fill-opacity="0" stroke="#000000" stroke-width="5" stroke-linecap="round" stroke-linejoin="round"/>
      <path d="M226.265,169.169 C237.549,191.079 253.116,232.656 218.426,232.656" fill-opacity="0" stroke="#000000" stroke-width="5" stroke-linecap="round" stroke-linejoin="round"/>
      <path d="M218.426,232.657 L204.891,246.015" fill-opacity="0" stroke="#000000" stroke-width="5" stroke-linecap="round" stroke-linejoin="round"/>
      <path d="M46.688,206.589 C58.998,218.531 78.262,222.402 93.3,214.683" fill-opacity="0" stroke="#000000" stroke-width="5" stroke-linecap="round" stroke-linejoin="round"/>
    </g>
    <g>
      <g>
        <path d="M166.425,16.957 L190.052,16.957 C199.998,16.957 208.06,22.133 208.06,28.517 L208.06,69.839 C208.06,76.223 199.998,81.398 190.052,81.398 L166.425,81.398 C156.479,81.398 148.417,76.223 148.417,69.839 L148.417,28.517 C148.417,22.133 156.479,16.957 166.425,16.957 z" fill="#8080FF"/>
        <path d="M166.425,16.957 L190.052,16.957 C199.998,16.957 208.06,22.133 208.06,28.517 L208.06,69.839 C208.06,76.223 199.998,81.398 190.052,81.398 L166.425,81.398 C156.479,81.398 148.417,76.223 148.417,69.839 L148.417,28.517 C148.417,22.133 156.479,16.957 166.425,16.957 z" fill-opacity="0" stroke="#000000" stroke-width="2"/>
      </g>
      <text fill="#000000" transform="matrix(1, 0, -0, 1, 174.103, 42.4)">
        <tspan x="-25.108" y="3.032" font-family="HelveticaNeue-Bold" font-size="8">function() {...}</tspan>
      </text>
    </g>
    <g>
      <path d="M184.643,80.541 L181.882,318.805" fill-opacity="0" stroke="#000000" stroke-width="2"/>
      <path d="M178.283,318.764 L181.771,328.405 L185.482,318.847 z" fill="#000000" fill-opacity="1" stroke="#000000" stroke-width="2" stroke-opacity="1"/>
    </g>
    <g>
      <path d="M100.277,45.667 L133.595,45.392" fill-opacity="0" stroke="#000000" stroke-width="2"/>
      <path d="M133.625,48.992 L143.195,45.313 L133.566,41.792 z" fill="#000000" fill-opacity="1" stroke="#000000" stroke-width="2" stroke-opacity="1"/>
    </g>
    <g>
      <g>
        <path d="M170.997,334.293 L194.625,334.293 C204.57,334.293 212.633,339.468 212.633,345.852 L212.633,387.174 C212.633,393.558 204.57,398.734 194.625,398.734 L170.997,398.734 C161.052,398.734 152.989,393.558 152.989,387.174 L152.989,345.852 C152.989,339.468 161.052,334.293 170.997,334.293 z" fill="#8080FF"/>
        <path d="M170.997,334.293 L194.625,334.293 C204.57,334.293 212.633,339.468 212.633,345.852 L212.633,387.174 C212.633,393.558 204.57,398.734 194.625,398.734 L170.997,398.734 C161.052,398.734 152.989,393.558 152.989,387.174 L152.989,345.852 C152.989,339.468 161.052,334.293 170.997,334.293 z" fill-opacity="0" stroke="#000000" stroke-width="2"/>
      </g>
      <text fill="#000000" transform="matrix(1, 0, -0, 1, 178.676, 359.735)">
        <tspan x="-25.108" y="3.032" font-family="HelveticaNeue-Bold" font-size="8">function() {...}</tspan>
      </text>
    </g>
  </g>
</svg>
