<?xml version="1.0" encoding="UTF-8"?>
<!DOCTYPE svg PUBLIC "-//W3C//DTD SVG 1.1//EN" "http://www.w3.org/Graphics/SVG/1.1/DTD/svg11.dtd">
<svg version="1.1" xmlns="http://www.w3.org/2000/svg" xmlns:xlink="http://www.w3.org/1999/xlink" x="0" y="0" width="710" height="704" viewBox="0, 0, 710, 704">
  <g id="Background">
    <rect x="0" y="0" width="710" height="704" fill="#FFFFFF"/>
  </g>
  <g id="Layer_1">
    <g>
      <g>
        <path d="M169.397,637.973 C139.907,637.973 116,614.586 116,585.737 C116,556.887 139.907,533.5 169.397,533.5 C198.888,533.5 222.795,556.887 222.795,585.737 C222.795,614.586 198.888,637.973 169.397,637.973 z" fill="#0000FF"/>
        <path d="M169.397,637.973 C139.907,637.973 116,614.586 116,585.737 C116,556.887 139.907,533.5 169.397,533.5 C198.888,533.5 222.795,556.887 222.795,585.737 C222.795,614.586 198.888,637.973 169.397,637.973 z" fill-opacity="0" stroke="#000000" stroke-width="5"/>
      </g>
      <g>
        <g>
          <path d="M169.397,626.075 C146.125,626.075 127.26,608.015 127.26,585.737 C127.26,563.458 146.125,545.398 169.397,545.398 C192.67,545.398 211.535,563.458 211.535,585.737 C211.535,608.015 192.67,626.075 169.397,626.075 z" fill="#FFFFFF"/>
          <path d="M169.397,626.075 C146.125,626.075 127.26,608.015 127.26,585.737 C127.26,563.458 146.125,545.398 169.397,545.398 C192.67,545.398 211.535,563.458 211.535,585.737 C211.535,608.015 192.67,626.075 169.397,626.075 z" fill-opacity="0" stroke="#000000" stroke-width="5"/>
        </g>
        <text fill="#000000" transform="matrix(1, 0, -0, 1, 167.842, 588.509)">
          <tspan x="-22.165" y="9.854" font-family="HelveticaNeue-Bold" font-size="26">70F</tspan>
        </text>
      </g>
    </g>
    <g>
      <g>
        <path d="M257.281,237.738 C227.79,237.738 203.883,214.351 203.883,185.502 C203.883,156.652 227.79,133.265 257.281,133.265 C286.771,133.265 310.678,156.652 310.678,185.502 C310.678,214.351 286.771,237.738 257.281,237.738 z" fill="#808080"/>
        <path d="M257.281,237.738 C227.79,237.738 203.883,214.351 203.883,185.502 C203.883,156.652 227.79,133.265 257.281,133.265 C286.771,133.265 310.678,156.652 310.678,185.502 C310.678,214.351 286.771,237.738 257.281,237.738 z" fill-opacity="0" stroke="#000000" stroke-width="5"/>
      </g>
      <g>
        <g>
          <path d="M257.281,225.84 C234.009,225.84 215.143,207.78 215.143,185.502 C215.143,163.223 234.009,145.163 257.281,145.163 C280.553,145.163 299.419,163.223 299.419,185.502 C299.419,207.78 280.553,225.84 257.281,225.84 z" fill="#808080"/>
          <path d="M257.281,225.84 C234.009,225.84 215.143,207.78 215.143,185.502 C215.143,163.223 234.009,145.163 257.281,145.163 C280.553,145.163 299.419,163.223 299.419,185.502 C299.419,207.78 280.553,225.84 257.281,225.84 z" fill-opacity="0" stroke="#000000" stroke-width="5"/>
        </g>
        <text fill="#000000" transform="matrix(1, 0, -0, 1, 255.725, 188.274)">
          <tspan x="-22.165" y="9.854" font-family="HelveticaNeue-Bold" font-size="26">70F</tspan>
        </text>
      </g>
    </g>
    <g>
      <g>
        <path d="M174.644,227.003 C158.495,227.003 145.404,208.422 145.404,185.502 C145.404,162.581 158.495,144 174.644,144 C190.792,144 203.883,162.581 203.883,185.502 C203.883,208.422 190.792,227.003 174.644,227.003 z" fill="#FF8080"/>
        <path d="M174.644,227.003 C158.495,227.003 145.404,208.422 145.404,185.502 C145.404,162.581 158.495,144 174.644,144 C190.792,144 203.883,162.581 203.883,185.502 C203.883,208.422 190.792,227.003 174.644,227.003 z" fill-opacity="0" stroke="#000000" stroke-width="5"/>
      </g>
      <path d="M166.901,168.474 L167.146,168.452 L167.675,168.403 L168.52,168.327 L169.711,168.226 L170.924,168.14 L172.105,168.081 L172.921,168.063 L173.411,168.066 L173.873,168.081 L174.279,168.109 L174.621,168.15 L174.883,168.2 L174.934,168.216 L174.807,168.182 L175.022,168.248 L175.167,168.334 L175.186,168.39 L175.178,168.437 L175.157,168.475 L175.135,168.512 L175.113,168.562 L175.091,168.636 L175.062,168.747 L175.019,168.902 L174.957,169.105 L174.869,169.354 L174.755,169.649 L174.613,169.985 L174.327,170.602 L173.876,171.487 L173.371,172.403 L172.82,173.361 L172.247,174.328 L171.82,175.044 L171.533,175.53 L171.251,176.013 L170.974,176.499 L170.701,176.996 L170.429,177.522 L170.154,178.108 L169.875,178.806 L169.687,179.407 L169.687,179.407 C169.664,179.493 169.643,179.578 169.625,179.661 L169.625,179.661 L169.573,179.907 L169.461,180.513 L169.37,181.137 L169.311,181.736 L169.282,182.309 L169.282,182.856 L169.311,183.376 L169.368,183.869 L169.493,184.523 L169.737,185.323 L170.066,186.055 L170.458,186.693 L170.893,187.245 L171.356,187.724 L172.049,188.315 L172.965,188.979 L173.782,189.557 L174.254,189.944 L174.476,190.173 L174.654,190.405 L174.772,190.624 L174.835,190.825 L174.853,191.01 L174.837,191.183 L174.81,191.259 L174.794,191.292 L174.768,191.393 L174.732,191.509 L174.684,191.648 L174.621,191.81 L174.54,192.001 L174.437,192.225 L174.31,192.483 L174.156,192.778 L173.97,193.112 L173.752,193.485 L173.498,193.9 L173.207,194.356 L172.878,194.855 L172.508,195.396 L172.096,195.98 L171.642,196.605 L171.418,196.909 L171.418,196.909 C169.513,199.491 169.428,201.944 171.226,202.388 C173.025,202.832 176.027,201.1 177.932,198.518 C177.932,198.518 177.932,198.518 177.932,198.518 L178.275,198.052 L178.897,197.191 L179.484,196.354 L180.037,195.539 L180.558,194.745 L181.046,193.97 L181.502,193.212 L181.927,192.47 L182.32,191.744 L182.681,191.032 L183.008,190.336 L183.302,189.655 L183.56,188.988 L183.782,188.339 L183.966,187.71 L184.111,187.101 L184.217,186.516 L184.288,185.902 L184.309,185.074 L184.213,184.158 L184.002,183.372 L183.704,182.707 L183.344,182.146 L182.946,181.672 L182.509,181.251 L181.874,180.74 L181.077,180.177 L180.343,179.655 L179.855,179.253 L179.588,178.993 L179.358,178.726 L179.166,178.449 L179.01,178.157 L178.883,177.806 L178.815,177.506 L178.786,177.316 L178.769,177.111 L178.762,176.893 L178.768,176.657 L178.788,176.401 L178.823,176.122 L178.884,175.776 L178.937,175.526 L178.876,175.78 L178.739,176.19 L178.629,176.432 L178.606,176.465 L178.66,176.351 L178.781,176.126 L178.957,175.815 L179.18,175.434 L179.441,174.993 L179.9,174.221 L180.589,173.053 L181.333,171.753 L182.095,170.345 L182.818,168.894 L183.316,167.784 L183.635,166.992 L183.924,166.187 L184.174,165.37 L184.375,164.548 L184.514,163.727 L184.578,162.916 L184.551,162.131 L184.421,161.388 L184.176,160.709 L183.813,160.113 L183.334,159.614 L182.746,159.221 L182.14,158.96 L181.922,158.893 L181.922,158.893 C181.881,158.88 181.839,158.869 181.796,158.859 L181.796,158.859 L181.48,158.788 L180.925,158.696 L180.347,158.634 L179.746,158.597 L179.124,158.579 L178.469,158.578 L177.48,158.602 L176.156,158.669 L174.851,158.763 L173.615,158.868 L172.763,158.945 L172.244,158.993 L171.994,159.015 C171.994,159.015 171.994,159.015 171.994,159.015 C169.784,159.216 166.852,161.496 165.446,164.108 C164.039,166.72 164.691,168.675 166.901,168.474 L166.901,168.474" fill="#000000"/>
      <g>
        <path d="M174.502,225.542 L172.73,225.546 C168.034,225.557 164.222,223.051 164.215,219.95 L164.207,215.738 C164.201,212.637 168.003,210.115 172.699,210.104 L174.471,210.1 C179.167,210.089 182.979,212.595 182.986,215.696 L182.994,219.908 C183.001,223.009 179.198,225.531 174.502,225.542 z" fill="#808080"/>
        <path d="M174.502,225.542 L172.73,225.546 C168.034,225.557 164.222,223.051 164.215,219.95 L164.207,215.738 C164.201,212.637 168.003,210.115 172.699,210.104 L174.471,210.1 C179.167,210.089 182.979,212.595 182.986,215.696 L182.994,219.908 C183.001,223.009 179.198,225.531 174.502,225.542 z" fill-opacity="0" stroke="#000000" stroke-width="5"/>
      </g>
      <g>
        <g>
          <path d="M145.404,170.886 L145.404,200.118" fill="#8080FF"/>
          <path d="M145.404,170.886 L145.404,200.118" fill-opacity="0" stroke="#000000" stroke-width="5"/>
        </g>
        <g>
          <path d="M145.404,200.118 C145.404,202.594 138.822,204.601 130.702,204.601" fill="#8080FF"/>
          <path d="M145.404,200.118 C145.404,202.594 138.822,204.601 130.702,204.601" fill-opacity="0" stroke="#000000" stroke-width="5"/>
        </g>
        <g>
          <path d="M130.702,204.601 C122.582,204.601 116,202.594 116,200.117" fill="#8080FF"/>
          <path d="M130.702,204.601 C122.582,204.601 116,202.594 116,200.117" fill-opacity="0" stroke="#000000" stroke-width="5"/>
        </g>
        <g>
          <path d="M116,200.117 L116,169.918" fill="#8080FF"/>
          <path d="M116,200.117 L116,169.918" fill-opacity="0" stroke="#000000" stroke-width="5"/>
        </g>
        <g>
          <path d="M130.702,175.369 C122.582,175.369 116,173.362 116,170.886" fill="#8080FF"/>
          <path d="M130.702,175.369 C122.582,175.369 116,173.362 116,170.886" fill-opacity="0" stroke="#000000" stroke-width="5"/>
        </g>
        <g>
          <path d="M116,170.886 C116,168.409 122.582,166.402 130.702,166.402" fill="#8080FF"/>
          <path d="M116,170.886 C116,168.409 122.582,166.402 130.702,166.402" fill-opacity="0" stroke="#000000" stroke-width="5"/>
        </g>
        <g>
          <path d="M130.702,166.402 C138.822,166.402 145.404,168.409 145.404,170.886" fill="#8080FF"/>
          <path d="M130.702,166.402 C138.822,166.402 145.404,168.409 145.404,170.886" fill-opacity="0" stroke="#000000" stroke-width="5"/>
        </g>
        <g>
          <path d="M145.404,170.886 C145.404,173.362 138.822,175.369 130.702,175.369" fill="#8080FF"/>
          <path d="M145.404,170.886 C145.404,173.362 138.822,175.369 130.702,175.369" fill-opacity="0" stroke="#000000" stroke-width="5"/>
        </g>
      </g>
    </g>
    <g>
      <g>
        <path d="M635.5,56.5 C642.127,56.5 647.5,61.873 647.5,68.5 L647.5,166 C647.5,172.627 642.127,178 635.5,178 L496.5,178 C489.873,178 484.5,172.627 484.5,166 L484.5,68.5 C484.5,61.873 489.873,56.5 496.5,56.5 L635.5,56.5 z" fill="#000000"/>
        <path d="M635.5,56.5 C642.127,56.5 647.5,61.873 647.5,68.5 L647.5,166 C647.5,172.627 642.127,178 635.5,178 L496.5,178 C489.873,178 484.5,172.627 484.5,166 L484.5,68.5 C484.5,61.873 489.873,56.5 496.5,56.5 L635.5,56.5 z" fill-opacity="0" stroke="#000000" stroke-width="5"/>
      </g>
      <g>
        <path d="M512.75,76 L619.25,76 C625.877,76 631.25,81.373 631.25,88 L631.25,146.5 C631.25,153.127 625.877,158.5 619.25,158.5 L512.75,158.5 C506.123,158.5 500.75,153.127 500.75,146.5 L500.75,88 C500.75,81.373 506.123,76 512.75,76 z" fill="#FFFFFF"/>
        <path d="M512.75,76 L619.25,76 C625.877,76 631.25,81.373 631.25,88 L631.25,146.5 C631.25,153.127 625.877,158.5 619.25,158.5 L512.75,158.5 C506.123,158.5 500.75,153.127 500.75,146.5 L500.75,88 C500.75,81.373 506.123,76 512.75,76 z" fill-opacity="0" stroke="#000000" stroke-width="5"/>
      </g>
    </g>
    <path d="M96,516.5 L249.5,637.973" fill-opacity="0" stroke="#FF0000" stroke-width="8"/>
    <path d="M96,644 L243,516.5" fill-opacity="0" stroke="#FF0000" stroke-width="8"/>
    <g>
      <g>
        <path d="M566,343.503 C532.034,343.503 504.5,317.424 504.5,285.253 C504.5,253.083 532.034,227.003 566,227.003 C599.966,227.003 627.5,253.083 627.5,285.253 C627.5,317.424 599.966,343.503 566,343.503 z" fill="#FF8080"/>
        <path d="M566,343.503 C532.034,343.503 504.5,317.424 504.5,285.253 C504.5,253.083 532.034,227.003 566,227.003 C599.966,227.003 627.5,253.083 627.5,285.253 C627.5,317.424 599.966,343.503 566,343.503 z" fill-opacity="0" stroke="#000000" stroke-width="8"/>
      </g>
      <text fill="#000000" transform="matrix(1, 0, -0, 1, 568.253, 278.869)">
        <tspan x="-40.687" y="8.717" font-family="HelveticaNeue-Bold" font-size="23">Service</tspan>
      </text>
    </g>
    <g>
      <g>
        <path d="M573,505.988 C539.034,505.988 511.5,479.909 511.5,447.738 C511.5,415.567 539.034,389.488 573,389.488 C606.966,389.488 634.5,415.568 634.5,447.738 C634.5,479.909 606.966,505.988 573,505.988 z" fill="#FF8080"/>
        <path d="M573,505.988 C539.034,505.988 511.5,479.909 511.5,447.738 C511.5,415.567 539.034,389.488 573,389.488 C606.966,389.488 634.5,415.568 634.5,447.738 C634.5,479.909 606.966,505.988 573,505.988 z" fill-opacity="0" stroke="#000000" stroke-width="8"/>
      </g>
      <text fill="#000000" transform="matrix(1, 0, -0, 1, 575.253, 441.354)">
        <tspan x="-40.687" y="8.717" font-family="HelveticaNeue-Bold" font-size="23">Service</tspan>
      </text>
    </g>
    <g>
      <path d="M303.755,247.764 L498.026,401.454" fill-opacity="0" stroke="#000000" stroke-width="8"/>
      <path d="M308.222,242.117 L288.697,235.851 L299.288,253.41 z" fill="#000000" fill-opacity="1" stroke="#000000" stroke-width="8" stroke-opacity="1"/>
      <path d="M493.559,407.101 L513.084,413.366 L502.493,395.807 z" fill="#000000" fill-opacity="1" stroke="#000000" stroke-width="8" stroke-opacity="1"/>
    </g>
    <g>
      <path d="M334.542,216.137 L480.636,272.87" fill-opacity="0" stroke="#000000" stroke-width="8"/>
      <path d="M337.148,209.425 L316.644,209.187 L331.936,222.849 z" fill="#000000" fill-opacity="1" stroke="#000000" stroke-width="8" stroke-opacity="1"/>
      <path d="M478.03,279.582 L498.534,279.82 L483.243,266.158 z" fill="#000000" fill-opacity="1" stroke="#000000" stroke-width="8" stroke-opacity="1"/>
    </g>
    <g>
      <path d="M334.185,175.363 L457.262,122.279" fill-opacity="0" stroke="#000000" stroke-width="8"/>
      <path d="M331.333,168.752 L316.555,182.967 L337.036,181.974 z" fill="#000000" fill-opacity="1" stroke="#000000" stroke-width="8" stroke-opacity="1"/>
      <path d="M460.114,128.89 L474.892,114.675 L454.411,115.667 z" fill="#000000" fill-opacity="1" stroke="#000000" stroke-width="8" stroke-opacity="1"/>
    </g>
    <g>
      <path d="M174.215,251.14 L171.399,502.041" fill-opacity="0" stroke="#000000" stroke-width="8" stroke-dasharray="24,16"/>
      <path d="M181.414,251.221 L174.43,231.942 L167.015,251.06 z" fill="#000000" fill-opacity="1" stroke="#000000" stroke-width="8" stroke-opacity="1"/>
      <path d="M164.199,501.96 L171.184,521.24 L178.599,502.122 z" fill="#000000" fill-opacity="1" stroke="#000000" stroke-width="8" stroke-opacity="1"/>
    </g>
    <path d="M75.728,357.198 C76.677,325.058 135.944,290.399 149.688,331.629" fill-opacity="0" stroke="#000000" stroke-width="5" stroke-linecap="round" stroke-linejoin="round"/>
    <path d="M153.069,330.995 C162.666,293.467 217.483,304.846 220.901,339.025" fill-opacity="0" stroke="#000000" stroke-width="5" stroke-linecap="round" stroke-linejoin="round"/>
    <path d="M224.916,343.463 C259.243,346.186 258.035,399.08 222.802,400.518 C217.134,400.749 212.968,399.197 209.701,395.657" fill-opacity="0" stroke="#000000" stroke-width="5" stroke-linecap="round" stroke-linejoin="round"/>
    <path d="M206.32,393.967 C212.25,421.149 156.167,429.062 153.069,402.208" fill-opacity="0" stroke="#000000" stroke-width="5" stroke-linecap="round" stroke-linejoin="round"/>
    <path d="M148.631,399.884 C138.867,405.7 82.321,423.582 90.731,393.544" fill-opacity="0" stroke="#000000" stroke-width="5" stroke-linecap="round" stroke-linejoin="round"/>
    <path d="M89.252,389.529 C68.079,392.515 50.529,363.402 73.403,353.395" fill-opacity="0" stroke="#000000" stroke-width="5" stroke-linecap="round" stroke-linejoin="round"/>
    <path d="M835.5,437 L835.5,437" fill-opacity="0" stroke="#000000" stroke-width="5" stroke-linecap="round" stroke-linejoin="round"/>
  </g>
</svg>
