<?xml version="1.0" encoding="UTF-8"?>
<!DOCTYPE svg PUBLIC "-//W3C//DTD SVG 1.1//EN" "http://www.w3.org/Graphics/SVG/1.1/DTD/svg11.dtd">
<svg version="1.1" xmlns="http://www.w3.org/2000/svg" xmlns:xlink="http://www.w3.org/1999/xlink" x="0" y="0" width="730" height="570" viewBox="0, 0, 730, 570">
  <g id="Background">
    <rect x="0" y="0" width="730" height="570" fill="#FFFFFF"/>
  </g>
  <g id="Layer_1">
    <g>
      <g>
        <path d="M61.863,469 L195.363,469 L146,547.952 L12.5,547.952 z" fill="#FFFFFF"/>
        <path d="M61.863,469 L195.363,469 L146,547.952 L12.5,547.952 z" fill-opacity="0" stroke="#000000" stroke-width="3.5"/>
      </g>
      <g>
        <g>
          <path d="M61.863,360.5 L195.363,360.5 L195.363,469 L61.863,469 z" fill="#FFFFFF"/>
          <path d="M61.863,360.5 L195.363,360.5 L195.363,469 L61.863,469 z" fill-opacity="0" stroke="#000000" stroke-width="3.5"/>
        </g>
        <text fill="#000000" transform="matrix(1, 0, -0, 1, 128.743, 417.36)">
          <tspan x="-58.719" y="8.717" font-family="HelveticaNeue-Bold" font-size="23">git commit</tspan>
        </text>
      </g>
    </g>
    <g>
      <path d="M532.526,538.852 L662.537,540.013" fill-opacity="0" stroke="#000000" stroke-width="5"/>
      <path d="M529.796,524.389 L541.844,540.685" fill-opacity="0" stroke="#80FF80" stroke-width="5"/>
      <path d="M579.748,525.549 L591.796,541.845" fill-opacity="0" stroke="#80FF80" stroke-width="5"/>
      <path d="M570.746,524.389 L582.794,540.685" fill-opacity="0" stroke="#80FF80" stroke-width="5"/>
      <path d="M562.445,523.187 L574.493,539.483" fill-opacity="0" stroke="#80FF80" stroke-width="5"/>
      <path d="M553.874,523.187 L565.922,539.483" fill-opacity="0" stroke="#80FF80" stroke-width="5"/>
      <path d="M545.529,523.187 L557.577,539.483" fill-opacity="0" stroke="#80FF80" stroke-width="5"/>
      <path d="M537.184,523.187 L549.232,539.483" fill-opacity="0" stroke="#80FF80" stroke-width="5"/>
      <path d="M652.335,525.549 L664.383,541.845" fill-opacity="0" stroke="#80FF80" stroke-width="5"/>
      <path d="M644.362,525.549 L656.409,541.845" fill-opacity="0" stroke="#80FF80" stroke-width="5"/>
      <path d="M634.705,525.549 L646.753,541.845" fill-opacity="0" stroke="#80FF80" stroke-width="5"/>
      <path d="M625.404,524.389 L637.451,540.685" fill-opacity="0" stroke="#80FF80" stroke-width="5"/>
      <path d="M616.741,524.389 L628.789,540.685" fill-opacity="0" stroke="#80FF80" stroke-width="5"/>
      <path d="M607.724,523.187 L619.771,539.483" fill-opacity="0" stroke="#80FF80" stroke-width="5"/>
      <path d="M598.706,524.389 L610.754,540.685" fill-opacity="0" stroke="#80FF80" stroke-width="5"/>
      <path d="M587.345,523.951 L599.393,540.247" fill-opacity="0" stroke="#80FF80" stroke-width="5"/>
      <g>
        <path d="M639.71,501.928 L646.753,501.928 L646.753,540.013 L639.71,540.013 z" fill="#000000"/>
        <path d="M639.71,501.928 L646.753,501.928 L646.753,540.013 L639.71,540.013 z" fill-opacity="0" stroke="#000000" stroke-width="5"/>
      </g>
      <path d="M549.232,468.5 C599.202,468.5 639.71,481.646 639.71,497.863" fill-opacity="0" stroke="#000000" stroke-width="1.5" stroke-dasharray="4.5,3"/>
      <path d="M563.964,484.777 C605.798,484.777 639.71,491.265 639.71,499.267" fill-opacity="0" stroke="#000000" stroke-width="1.5" stroke-dasharray="4.5,3"/>
      <path d="M540.525,475.596 C596.032,475.596 641.029,485.565 641.029,497.863" fill-opacity="0" stroke="#000000" stroke-width="1.5" stroke-dasharray="4.5,3"/>
    </g>
    <g>
      <g>
        <path d="M635.144,215.669 C618.995,215.669 605.904,197.088 605.904,174.167 C605.904,151.247 618.995,132.666 635.144,132.666 C651.292,132.666 664.383,151.247 664.383,174.167 C664.383,197.088 651.292,215.669 635.144,215.669 z" fill="#FF8080"/>
        <path d="M635.144,215.669 C618.995,215.669 605.904,197.088 605.904,174.167 C605.904,151.247 618.995,132.666 635.144,132.666 C651.292,132.666 664.383,151.247 664.383,174.167 C664.383,197.088 651.292,215.669 635.144,215.669 z" fill-opacity="0" stroke="#000000" stroke-width="5"/>
      </g>
      <path d="M627.401,157.14 L627.646,157.118 L628.175,157.069 L629.02,156.992 L630.211,156.892 L631.425,156.805 L632.605,156.747 L633.42,156.729 L633.912,156.732 L634.373,156.747 L634.779,156.775 L635.12,156.816 L635.383,156.866 L635.433,156.882 L635.307,156.848 L635.522,156.914 L635.667,156.999 L635.686,157.056 L635.678,157.103 L635.657,157.14 L635.634,157.177 L635.613,157.228 L635.591,157.302 L635.562,157.414 L635.519,157.568 L635.456,157.771 L635.369,158.02 L635.255,158.316 L635.113,158.65 L634.828,159.268 L634.375,160.153 L633.871,161.069 L633.32,162.026 L632.747,162.993 L632.32,163.71 L632.033,164.195 L631.751,164.679 L631.474,165.165 L631.202,165.66 L630.929,166.189 L630.654,166.773 L630.375,167.471 L630.185,168.078 L630.185,168.078 C630.163,168.163 630.143,168.246 630.125,168.328 L630.125,168.328 L630.073,168.573 L629.961,169.178 L629.87,169.804 L629.811,170.402 L629.782,170.975 L629.782,171.521 L629.811,172.041 L629.868,172.535 L629.993,173.189 L630.237,173.989 L630.566,174.721 L630.958,175.359 L631.393,175.911 L631.856,176.39 L632.549,176.981 L633.465,177.644 L634.282,178.222 L634.754,178.61 L634.976,178.838 L635.154,179.07 L635.272,179.289 L635.335,179.491 L635.353,179.676 L635.337,179.849 L635.31,179.924 L635.294,179.957 L635.268,180.059 L635.232,180.175 L635.184,180.314 L635.121,180.475 L635.04,180.667 L634.938,180.89 L634.81,181.149 L634.655,181.444 L634.47,181.778 L634.252,182.151 L633.998,182.566 L633.707,183.023 L633.378,183.52 L633.008,184.061 L632.596,184.645 L632.142,185.272 L631.918,185.574 L631.918,185.574 C630.013,188.156 629.927,190.609 631.726,191.054 C633.525,191.498 636.527,189.766 638.432,187.184 C638.432,187.184 638.432,187.184 638.432,187.184 L638.776,186.717 L639.397,185.856 L639.984,185.02 L640.536,184.206 L641.058,183.41 L641.546,182.635 L642.002,181.877 L642.427,181.136 L642.82,180.409 L643.181,179.698 L643.508,179.003 L643.802,178.32 L644.06,177.655 L644.282,177.005 L644.466,176.376 L644.611,175.766 L644.717,175.182 L644.788,174.568 L644.809,173.74 L644.713,172.823 L644.502,172.038 L644.204,171.373 L643.845,170.812 L643.446,170.338 L643.009,169.917 L642.374,169.405 L641.577,168.843 L640.843,168.32 L640.355,167.919 L640.088,167.658 L639.858,167.392 L639.666,167.115 L639.51,166.822 L639.383,166.472 L639.315,166.171 L639.286,165.982 L639.269,165.778 L639.262,165.559 L639.268,165.322 L639.288,165.065 L639.323,164.788 L639.384,164.441 L639.437,164.191 L639.377,164.44 L639.239,164.857 L639.129,165.098 L639.106,165.13 L639.159,165.019 L639.282,164.792 L639.458,164.48 L639.679,164.1 L639.94,163.659 L640.4,162.887 L641.089,161.719 L641.833,160.419 L642.595,159.011 L643.318,157.56 L643.816,156.45 L644.135,155.657 L644.424,154.853 L644.674,154.036 L644.875,153.214 L645.014,152.392 L645.078,151.582 L645.051,150.796 L644.921,150.055 L644.676,149.375 L644.313,148.779 L643.834,148.28 L643.246,147.887 L642.64,147.626 L642.423,147.559 L642.423,147.559 C642.381,147.546 642.339,147.535 642.296,147.524 L642.296,147.524 L641.98,147.454 L641.425,147.362 L640.847,147.3 L640.246,147.263 L639.623,147.245 L638.97,147.244 L637.98,147.268 L636.656,147.335 L635.351,147.429 L634.116,147.533 L633.264,147.611 L632.744,147.658 L632.494,147.681 C632.494,147.681 632.494,147.681 632.494,147.681 C630.284,147.882 627.352,150.162 625.946,152.774 C624.539,155.386 625.191,157.341 627.401,157.14 L627.401,157.14" fill="#000000"/>
      <g>
        <path d="M635.002,214.208 L633.23,214.212 C628.534,214.222 624.722,211.717 624.715,208.616 L624.707,204.404 C624.701,201.303 628.503,198.78 633.199,198.77 L634.971,198.766 C639.667,198.755 643.479,201.261 643.486,204.362 L643.494,208.573 C643.501,211.675 639.698,214.197 635.002,214.208 z" fill="#808080"/>
        <path d="M635.002,214.208 L633.23,214.212 C628.534,214.222 624.722,211.717 624.715,208.616 L624.707,204.404 C624.701,201.303 628.503,198.78 633.199,198.77 L634.971,198.766 C639.667,198.755 643.479,201.261 643.486,204.362 L643.494,208.573 C643.501,211.675 639.698,214.197 635.002,214.208 z" fill-opacity="0" stroke="#000000" stroke-width="5"/>
      </g>
      <g>
        <g>
          <path d="M605.904,159.552 L605.904,188.783" fill="#8080FF"/>
          <path d="M605.904,159.552 L605.904,188.783" fill-opacity="0" stroke="#000000" stroke-width="5"/>
        </g>
        <g>
          <path d="M605.904,188.783 C605.904,191.26 599.322,193.267 591.202,193.267" fill="#8080FF"/>
          <path d="M605.904,188.783 C605.904,191.26 599.322,193.267 591.202,193.267" fill-opacity="0" stroke="#000000" stroke-width="5"/>
        </g>
        <g>
          <path d="M591.202,193.267 C583.082,193.267 576.5,191.26 576.5,188.783" fill="#8080FF"/>
          <path d="M591.202,193.267 C583.082,193.267 576.5,191.26 576.5,188.783" fill-opacity="0" stroke="#000000" stroke-width="5"/>
        </g>
        <g>
          <path d="M576.5,188.783 L576.5,158.584" fill="#8080FF"/>
          <path d="M576.5,188.783 L576.5,158.584" fill-opacity="0" stroke="#000000" stroke-width="5"/>
        </g>
        <g>
          <path d="M591.202,164.035 C583.082,164.035 576.5,162.028 576.5,159.551" fill="#8080FF"/>
          <path d="M591.202,164.035 C583.082,164.035 576.5,162.028 576.5,159.551" fill-opacity="0" stroke="#000000" stroke-width="5"/>
        </g>
        <g>
          <path d="M576.5,159.552 C576.5,157.075 583.082,155.068 591.202,155.068" fill="#8080FF"/>
          <path d="M576.5,159.552 C576.5,157.075 583.082,155.068 591.202,155.068" fill-opacity="0" stroke="#000000" stroke-width="5"/>
        </g>
        <g>
          <path d="M591.202,155.068 C599.322,155.068 605.904,157.075 605.904,159.552" fill="#8080FF"/>
          <path d="M591.202,155.068 C599.322,155.068 605.904,157.075 605.904,159.552" fill-opacity="0" stroke="#000000" stroke-width="5"/>
        </g>
        <g>
          <path d="M605.904,159.551 C605.904,162.028 599.322,164.035 591.202,164.035" fill="#8080FF"/>
          <path d="M605.904,159.551 C605.904,162.028 599.322,164.035 591.202,164.035" fill-opacity="0" stroke="#000000" stroke-width="5"/>
        </g>
      </g>
    </g>
    <g>
      <g>
        <path d="M71.143,132.004 L167.894,132.004 C174.856,132.004 180.5,137.293 180.5,143.818 L180.5,204.517 C180.5,211.042 174.856,216.331 167.894,216.331 L71.143,216.331 C64.181,216.331 58.538,211.042 58.538,204.517 L58.538,143.818 C58.538,137.293 64.181,132.004 71.143,132.004 z" fill="#80FF80"/>
        <path d="M71.143,132.004 L167.894,132.004 C174.856,132.004 180.5,137.293 180.5,143.818 L180.5,204.517 C180.5,211.042 174.856,216.331 167.894,216.331 L71.143,216.331 C64.181,216.331 58.538,211.042 58.538,204.517 L58.538,143.818 C58.538,137.293 64.181,132.004 71.143,132.004 z" fill-opacity="0" stroke="#000000" stroke-width="3.5"/>
      </g>
      <text fill="#000000" transform="matrix(1, 0, -0, 1, 113.906, 164.691)">
        <tspan x="-13.858" y="8.717" font-family="HelveticaNeue-Bold" font-size="23">S3</tspan>
      </text>
    </g>
    <g>
      <path d="M120.5,360.5 L120.5,230.831" fill-opacity="0" stroke="#000000" stroke-width="3.5"/>
      <path d="M125,230.831 L120.5,218.831 L116,230.831 z" fill="#000000" fill-opacity="1" stroke="#000000" stroke-width="3.5" stroke-opacity="1"/>
    </g>
    <g>
      <g>
        <path d="M286.11,228.5 L251.802,168.5 L286.11,108.5 L354.726,108.5 L389.034,168.5 L354.726,228.5 z" fill="#EAEAEA"/>
        <path d="M286.11,228.5 L251.802,168.5 L286.11,108.5 L354.726,108.5 L389.034,168.5 L354.726,228.5 z" fill-opacity="0" stroke="#000000" stroke-width="3.5"/>
      </g>
      <text fill="#000000" transform="matrix(1, 0, -0, 1, 319.137, 168.428)">
        <tspan x="-44.493" y="8.717" font-family="HelveticaNeue-Bold" font-size="23">Lambda</tspan>
      </text>
    </g>
    <g>
      <path d="M19.219,43.042 L417.982,43.042 L417.982,286.951 L19.219,286.951 z" fill-opacity="0" stroke="#000000" stroke-width="3.5" stroke-dasharray="10.5,7"/>
      <text fill="#000000" transform="matrix(1, 0, -0, 1, 99.492, 75.103)">
        <tspan x="-25.921" y="8.717" font-family="HelveticaNeue-Bold" font-size="23">AWS</tspan>
      </text>
    </g>
    <g>
      <path d="M180.5,168.5 L237.302,168.5" fill-opacity="0" stroke="#000000" stroke-width="3.5"/>
      <path d="M237.302,173 L249.302,168.5 L237.302,164 z" fill="#000000" fill-opacity="1" stroke="#000000" stroke-width="3.5" stroke-opacity="1"/>
    </g>
    <g>
      <path d="M384.5,168.5 L562,168.5" fill-opacity="0" stroke="#000000" stroke-width="3.5"/>
      <path d="M562,173 L574,168.5 L562,164 z" fill="#000000" fill-opacity="1" stroke="#000000" stroke-width="3.5" stroke-opacity="1"/>
    </g>
    <g>
      <path d="M503.298,43.042 L708.5,43.042 L708.5,286.951 L503.298,286.951 z" fill-opacity="0" stroke="#000000" stroke-width="3.5" stroke-dasharray="10.5,7"/>
      <text fill="#000000" transform="matrix(1, 0, -0, 1, 559.243, 75.103)">
        <tspan x="-39.376" y="8.717" font-family="HelveticaNeue-Bold" font-size="23">Google</tspan>
      </text>
    </g>
    <g>
      <path d="M636.5,216.331 L638.65,477.789" fill-opacity="0" stroke="#000000" stroke-width="3.5"/>
      <path d="M634.15,477.826 L638.748,489.789 L643.15,477.752 z" fill="#000000" fill-opacity="1" stroke="#000000" stroke-width="3.5" stroke-opacity="1"/>
    </g>
    <text transform="matrix(1, 0, 0, 1, 266.868, 353.81)">
      <tspan x="-134.868" y="-12.106" font-family="Helvetica" font-size="33" fill="#000000">Cloud File System</tspan>
      <tspan x="-30.261" y="27.894" font-family="Helvetica" font-size="33" fill="#000000">s3fs</tspan>
    </text>
  </g>
</svg>
