<?xml version="1.0" encoding="UTF-8"?>
<!DOCTYPE svg PUBLIC "-//W3C//DTD SVG 1.1//EN" "http://www.w3.org/Graphics/SVG/1.1/DTD/svg11.dtd">
<svg version="1.1" xmlns="http://www.w3.org/2000/svg" xmlns:xlink="http://www.w3.org/1999/xlink" x="0" y="0" width="500" height="704" viewBox="0, 0, 500, 704">
  <g id="Background">
    <rect x="0" y="0" width="500" height="704" fill="#FFFFFF"/>
  </g>
  <g id="Layer_1">
    <path d="M283.408,419.907 C342.58,447.446 393.185,457.069 447.276,410.127" fill-opacity="0" stroke="#000000" stroke-width="5" stroke-linecap="round" stroke-linejoin="round"/>
    <path d="M448.485,407.734 C456.684,388.467 447.58,324.28 428.887,315.833" fill-opacity="0" stroke="#000000" stroke-width="5" stroke-linecap="round" stroke-linejoin="round"/>
    <path d="M428.887,315.833 C407.632,306.228 402.971,306.497 388.539,306.628" fill-opacity="0" stroke="#000000" stroke-width="5" stroke-linecap="round" stroke-linejoin="round"/>
    <path d="M388.54,306.628 L379.839,305.796" fill-opacity="0" stroke="#000000" stroke-width="5" stroke-linecap="round" stroke-linejoin="round"/>
    <path d="M379.839,305.796 C390.079,293.92 393.532,281.056 382.687,267.023" fill-opacity="0" stroke="#000000" stroke-width="5" stroke-linecap="round" stroke-linejoin="round"/>
    <path d="M382.687,267.023 C349.682,224.317 254.031,229.434 213.275,253.527" fill-opacity="0" stroke="#000000" stroke-width="5" stroke-linecap="round" stroke-linejoin="round"/>
    <path d="M213.275,253.527 L205.061,255.881" fill-opacity="0" stroke="#000000" stroke-width="5" stroke-linecap="round" stroke-linejoin="round"/>
    <path d="M75.114,355.529 L75.223,367.38" fill-opacity="0" stroke="#000000" stroke-width="5" stroke-linecap="round" stroke-linejoin="round"/>
    <path d="M75.223,367.38 C44.756,426.002 94.478,446.276 137.992,426.978" fill-opacity="0" stroke="#000000" stroke-width="5" stroke-linecap="round" stroke-linejoin="round"/>
    <path d="M137.992,426.978 C152.409,420.585 164.009,408.683 178.023,401.542" fill-opacity="0" stroke="#000000" stroke-width="5" stroke-linecap="round" stroke-linejoin="round"/>
    <path d="M178.023,401.542 L159.81,411.28" fill-opacity="0" stroke="#000000" stroke-width="5" stroke-linecap="round" stroke-linejoin="round"/>
    <path d="M159.81,411.28 C204.93,457.986 251.674,442.109 293.384,408.238" fill-opacity="0" stroke="#000000" stroke-width="5" stroke-linecap="round" stroke-linejoin="round"/>
    <g>
      <path d="M133.9,516.919 L383.444,516.919 C390.071,516.919 395.444,522.291 395.444,528.919 L395.444,661.88 C395.444,668.507 390.071,673.88 383.444,673.88 L133.9,673.88 C127.272,673.88 121.9,668.507 121.9,661.88 L121.9,528.919 C121.9,522.291 127.272,516.919 133.9,516.919 z" fill="#000000"/>
      <path d="M133.9,516.919 L383.444,516.919 C390.071,516.919 395.444,522.291 395.444,528.919 L395.444,661.88 C395.444,668.507 390.071,673.88 383.444,673.88 L133.9,673.88 C127.272,673.88 121.9,668.507 121.9,661.88 L121.9,528.919 C121.9,522.291 127.272,516.919 133.9,516.919 z" fill-opacity="0" stroke="#000000" stroke-width="3"/>
    </g>
    <g>
      <path d="M178.881,533.959 L338.463,533.959 C346.847,533.959 353.645,539.357 353.645,546.015 L353.645,645.352 C353.645,652.01 346.847,657.407 338.463,657.407 L178.881,657.407 C170.496,657.407 163.699,652.01 163.699,645.352 L163.699,546.015 C163.699,539.357 170.496,533.959 178.881,533.959 z" fill="#FFFFFF"/>
      <path d="M178.881,533.959 L338.463,533.959 C346.847,533.959 353.645,539.357 353.645,546.015 L353.645,645.352 C353.645,652.01 346.847,657.407 338.463,657.407 L178.881,657.407 C170.496,657.407 163.699,652.01 163.699,645.352 L163.699,546.015 C163.699,539.357 170.496,533.959 178.881,533.959 z" fill-opacity="0" stroke="#000000" stroke-width="3"/>
    </g>
    <path d="M62.48,65.186 L142.666,65.186 C148.406,65.186 153.059,69.902 153.059,75.72 L153.059,201.414 C153.059,207.232 148.406,211.947 142.666,211.947 L62.48,211.947 C56.74,211.947 52.087,207.232 52.087,201.414 L52.087,75.72 C52.087,69.902 56.74,65.186 62.48,65.186 z" fill-opacity="0" stroke="#000000" stroke-width="3"/>
    <g>
      <path d="M373.058,86.011 L435.742,86.011 L435.742,169.518 L373.058,169.518 z" fill="#808080"/>
      <path d="M373.058,86.011 L435.742,86.011 L435.742,169.518 L373.058,169.518 z" fill-opacity="0" stroke="#000000" stroke-width="3"/>
    </g>
    <path d="M87.959,144.87 L90.614,129.388 L79.366,118.424 L94.91,116.165 L101.862,102.079 L108.814,116.165 L124.358,118.424 L113.11,129.388 L115.766,144.87 L101.862,137.56 z" fill-opacity="0" stroke="#000000" stroke-width="3"/>
    <g>
      <path d="M209.437,18.916 L289.623,18.916 C295.363,18.916 300.016,23.632 300.016,29.45 L300.016,155.144 C300.016,160.962 295.363,165.677 289.623,165.677 L209.437,165.677 C203.697,165.677 199.044,160.962 199.044,155.144 L199.044,29.45 C199.044,23.632 203.697,18.916 209.437,18.916 z" fill-opacity="0" stroke="#000000" stroke-width="3"/>
      <path d="M222.594,119.574 L227.711,89.738 L206.034,68.608 L235.991,64.255 L249.388,37.11 L262.785,64.255 L292.741,68.608 L271.065,89.738 L276.182,119.574 L249.388,105.487 z" fill-opacity="0" stroke="#000000" stroke-width="3"/>
      <path d="M234.916,98.6 L237.571,83.118 L226.323,72.154 L241.867,69.895 L248.819,55.809 L255.771,69.895 L271.315,72.154 L260.067,83.118 L262.723,98.6 L248.819,91.29 z" fill-opacity="0" stroke="#000000" stroke-width="3"/>
    </g>
    <path d="M364.038,65.186 L444.224,65.186 C449.964,65.186 454.617,69.902 454.617,75.72 L454.617,201.414 C454.617,207.232 449.964,211.947 444.224,211.947 L364.038,211.947 C358.298,211.947 353.645,207.232 353.645,201.414 L353.645,75.72 C353.645,69.902 358.298,65.186 364.038,65.186 z" fill-opacity="0" stroke="#000000" stroke-width="3"/>
    <g>
      <path d="M389.516,144.87 L392.172,129.388 L380.924,118.424 L396.468,116.165 L403.42,102.079 L410.372,116.165 L425.916,118.424 L414.668,129.388 L417.323,144.87 L403.42,137.56 z" fill="#FF8080"/>
      <path d="M389.516,144.87 L392.172,129.388 L380.924,118.424 L396.468,116.165 L403.42,102.079 L410.372,116.165 L425.916,118.424 L414.668,129.388 L417.323,144.87 L403.42,137.56 z" fill-opacity="0" stroke="#000000" stroke-width="3"/>
    </g>
    <g>
      <path d="M232.332,553.646 L295.016,553.646 L295.016,637.153 L232.332,637.153 z" fill="#808080"/>
      <path d="M232.332,553.646 L295.016,553.646 L295.016,637.153 L232.332,637.153 z" fill-opacity="0" stroke="#000000" stroke-width="3"/>
    </g>
    <path d="M80.943,160.938 L59.314,123.475 L80.943,86.011 L124.202,86.011 L145.832,123.475 L124.202,160.938 z" fill-opacity="0" stroke="#000000" stroke-width="3"/>
    <g>
      <path d="M249.77,610.246 L252.426,594.765 L241.177,583.8 L256.722,581.542 L263.674,567.456 L270.626,581.542 L286.17,583.8 L274.922,594.765 L277.577,610.246 L263.674,602.937 z" fill="#FF8080"/>
      <path d="M249.77,610.246 L252.426,594.765 L241.177,583.8 L256.722,581.542 L263.674,567.456 L270.626,581.542 L286.17,583.8 L274.922,594.765 L277.577,610.246 L263.674,602.937 z" fill-opacity="0" stroke="#000000" stroke-width="3"/>
    </g>
    <path d="M264.261,553.646 L373.058,169.518" fill-opacity="0" stroke="#000000" stroke-width="3"/>
    <path d="M264.261,553.646 L435.742,169.518" fill-opacity="0" stroke="#000000" stroke-width="3"/>
    <path d="M204.016,160.938 L264.261,553.646" fill-opacity="0" stroke="#000000" stroke-width="2" stroke-dasharray="6,4"/>
    <path d="M153.059,211.947 L264.261,553.646" fill-opacity="0" stroke="#000000" stroke-width="2" stroke-dasharray="6,4"/>
    <path d="M56.081,205.535 L262.649,550.479" fill-opacity="0" stroke="#000000" stroke-width="2" stroke-dasharray="6,4"/>
    <path d="M295.016,169.518 L264.261,542.677" fill-opacity="0" stroke="#000000" stroke-width="2" stroke-dasharray="6,4"/>
    <path d="M75.174,355.529 C53.859,316.515 128.532,239.39 157.813,267.604" fill-opacity="0" stroke="#000000" stroke-width="5" stroke-linecap="round" stroke-linejoin="round"/>
    <path d="M158.554,265.646 C171.737,255.505 192.631,242.788 208.434,255.43" fill-opacity="0" stroke="#000000" stroke-width="5" stroke-linecap="round" stroke-linejoin="round"/>
  </g>
</svg>
