<?xml version="1.0" encoding="UTF-8"?>
<!DOCTYPE svg PUBLIC "-//W3C//DTD SVG 1.1//EN" "http://www.w3.org/Graphics/SVG/1.1/DTD/svg11.dtd">
<svg version="1.1" xmlns="http://www.w3.org/2000/svg" xmlns:xlink="http://www.w3.org/1999/xlink" x="0" y="0" width="650" height="610" viewBox="0, 0, 650, 610">
  <g id="Background">
    <rect x="0" y="0" width="650" height="610" fill="#FFFFFF"/>
  </g>
  <g id="Layer_1">
    <g>
      <g>
        <g>
          <path d="M466.644,95.503 C450.495,95.503 437.404,76.922 437.404,54.002 C437.404,31.081 450.495,12.5 466.644,12.5 C482.792,12.5 495.883,31.081 495.883,54.002 C495.883,76.922 482.792,95.503 466.644,95.503 z" fill="#FF8080"/>
          <path d="M466.644,95.503 C450.495,95.503 437.404,76.922 437.404,54.002 C437.404,31.081 450.495,12.5 466.644,12.5 C482.792,12.5 495.883,31.081 495.883,54.002 C495.883,76.922 482.792,95.503 466.644,95.503 z" fill-opacity="0" stroke="#000000" stroke-width="5"/>
        </g>
        <path d="M458.9,36.974 L459.146,36.952 L459.674,36.903 L460.52,36.827 L461.712,36.726 L462.924,36.64 L464.104,36.581 L464.92,36.563 L465.411,36.566 L465.872,36.581 L466.279,36.609 L466.62,36.65 L466.882,36.7 L466.933,36.716 L466.806,36.682 L467.022,36.748 L467.167,36.834 L467.186,36.891 L467.177,36.937 L467.157,36.974 L467.134,37.012 L467.113,37.062 L467.091,37.136 L467.062,37.248 L467.019,37.403 L466.957,37.604 L466.869,37.854 L466.755,38.149 L466.613,38.485 L466.328,39.101 L465.875,39.988 L465.371,40.904 L464.82,41.86 L464.247,42.828 L463.821,43.544 L463.533,44.029 L463.251,44.513 L462.974,44.998 L462.701,45.497 L462.429,46.022 L462.154,46.608 L461.875,47.305 L461.686,47.909 L461.686,47.909 C461.663,47.995 461.643,48.079 461.625,48.162 L461.625,48.162 L461.573,48.407 L461.461,49.013 L461.37,49.638 L461.311,50.236 L461.282,50.809 L461.282,51.356 L461.311,51.875 L461.368,52.369 L461.493,53.023 L461.737,53.823 L462.066,54.556 L462.458,55.193 L462.893,55.745 L463.356,56.224 L464.049,56.815 L464.965,57.479 L465.782,58.056 L466.254,58.444 L466.477,58.673 L466.654,58.905 L466.772,59.123 L466.835,59.326 L466.853,59.51 L466.837,59.683 L466.81,59.759 L466.794,59.791 L466.768,59.893 L466.732,60.009 L466.684,60.147 L466.621,60.311 L466.54,60.501 L466.437,60.725 L466.311,60.983 L466.156,61.278 L465.97,61.612 L465.752,61.985 L465.498,62.4 L465.208,62.856 L464.878,63.354 L464.508,63.895 L464.096,64.479 L463.642,65.105 L463.418,65.408 L463.418,65.408 C461.514,67.99 461.427,70.443 463.226,70.888 C465.024,71.333 468.026,69.601 469.931,67.019 C469.931,67.019 469.931,67.019 469.931,67.019 L470.275,66.552 L470.896,65.691 L471.483,64.854 L472.037,64.04 L472.558,63.245 L473.046,62.47 L473.502,61.712 L473.928,60.97 L474.32,60.244 L474.681,59.533 L475.008,58.836 L475.302,58.154 L475.56,57.488 L475.781,56.84 L475.966,56.21 L476.111,55.601 L476.217,55.017 L476.288,54.402 L476.309,53.574 L476.213,52.658 L476.002,51.872 L475.704,51.207 L475.345,50.647 L474.946,50.172 L474.509,49.751 L473.874,49.24 L473.077,48.677 L472.343,48.154 L471.855,47.753 L471.588,47.493 L471.358,47.226 L471.166,46.949 L471.01,46.657 L470.883,46.306 L470.815,46.006 L470.786,45.816 L470.769,45.612 L470.762,45.393 L470.768,45.157 L470.788,44.9 L470.823,44.622 L470.884,44.275 L470.937,44.025 L470.876,44.278 L470.739,44.692 L470.629,44.932 L470.606,44.965 L470.661,44.85 L470.781,44.627 L470.957,44.315 L471.179,43.934 L471.44,43.494 L471.9,42.721 L472.589,41.553 L473.333,40.253 L474.095,38.845 L474.818,37.395 L475.316,36.283 L475.635,35.492 L475.924,34.686 L476.174,33.871 L476.375,33.047 L476.514,32.226 L476.578,31.416 L476.551,30.631 L476.421,29.889 L476.176,29.21 L475.813,28.613 L475.334,28.114 L474.745,27.721 L474.14,27.46 L473.923,27.393 L473.923,27.393 C473.881,27.381 473.839,27.369 473.796,27.359 L473.796,27.359 L473.48,27.288 L472.925,27.196 L472.347,27.134 L471.746,27.097 L471.124,27.079 L470.47,27.078 L469.48,27.102 L468.156,27.169 L466.85,27.263 L465.616,27.368 L464.764,27.445 L464.243,27.493 L463.995,27.515 C463.995,27.515 463.995,27.515 463.995,27.515 C461.785,27.716 458.853,29.996 457.446,32.608 C456.039,35.22 456.69,37.175 458.9,36.974 L458.9,36.974" fill="#000000"/>
        <g>
          <path d="M466.502,94.042 L464.73,94.046 C460.034,94.057 456.222,91.551 456.215,88.45 L456.207,84.238 C456.201,81.137 460.003,78.615 464.699,78.604 L466.471,78.6 C471.167,78.589 474.979,81.095 474.986,84.196 L474.994,88.408 C475,91.509 471.198,94.031 466.502,94.042 z" fill="#808080"/>
          <path d="M466.502,94.042 L464.73,94.046 C460.034,94.057 456.222,91.551 456.215,88.45 L456.207,84.238 C456.201,81.137 460.003,78.615 464.699,78.604 L466.471,78.6 C471.167,78.589 474.979,81.095 474.986,84.196 L474.994,88.408 C475,91.509 471.198,94.031 466.502,94.042 z" fill-opacity="0" stroke="#000000" stroke-width="5"/>
        </g>
        <g>
          <g>
            <path d="M437.404,39.386 L437.404,68.618" fill="#8080FF"/>
            <path d="M437.404,39.386 L437.404,68.618" fill-opacity="0" stroke="#000000" stroke-width="5"/>
          </g>
          <g>
            <path d="M437.404,68.618 C437.404,71.094 430.822,73.101 422.702,73.101" fill="#8080FF"/>
            <path d="M437.404,68.618 C437.404,71.094 430.822,73.101 422.702,73.101" fill-opacity="0" stroke="#000000" stroke-width="5"/>
          </g>
          <g>
            <path d="M422.702,73.101 C414.582,73.101 408,71.094 408,68.617" fill="#8080FF"/>
            <path d="M422.702,73.101 C414.582,73.101 408,71.094 408,68.617" fill-opacity="0" stroke="#000000" stroke-width="5"/>
          </g>
          <g>
            <path d="M408,68.618 L408,38.418" fill="#8080FF"/>
            <path d="M408,68.618 L408,38.418" fill-opacity="0" stroke="#000000" stroke-width="5"/>
          </g>
          <g>
            <path d="M422.702,43.87 C414.582,43.87 408,41.862 408,39.386" fill="#8080FF"/>
            <path d="M422.702,43.87 C414.582,43.87 408,41.862 408,39.386" fill-opacity="0" stroke="#000000" stroke-width="5"/>
          </g>
          <g>
            <path d="M408,39.386 C408,36.909 414.582,34.902 422.702,34.902" fill="#8080FF"/>
            <path d="M408,39.386 C408,36.909 414.582,34.902 422.702,34.902" fill-opacity="0" stroke="#000000" stroke-width="5"/>
          </g>
          <g>
            <path d="M422.702,34.902 C430.822,34.902 437.404,36.909 437.404,39.386" fill="#8080FF"/>
            <path d="M422.702,34.902 C430.822,34.902 437.404,36.909 437.404,39.386" fill-opacity="0" stroke="#000000" stroke-width="5"/>
          </g>
          <g>
            <path d="M437.404,39.386 C437.404,41.862 430.822,43.87 422.702,43.87" fill="#8080FF"/>
            <path d="M437.404,39.386 C437.404,41.862 430.822,43.87 422.702,43.87" fill-opacity="0" stroke="#000000" stroke-width="5"/>
          </g>
        </g>
      </g>
      <g>
        <g>
          <path d="M578.144,95.503 C561.995,95.503 548.904,76.922 548.904,54.002 C548.904,31.081 561.995,12.5 578.144,12.5 C594.292,12.5 607.383,31.081 607.383,54.002 C607.383,76.922 594.292,95.503 578.144,95.503 z" fill="#FF8080"/>
          <path d="M578.144,95.503 C561.995,95.503 548.904,76.922 548.904,54.002 C548.904,31.081 561.995,12.5 578.144,12.5 C594.292,12.5 607.383,31.081 607.383,54.002 C607.383,76.922 594.292,95.503 578.144,95.503 z" fill-opacity="0" stroke="#000000" stroke-width="5"/>
        </g>
        <path d="M570.4,36.974 L570.647,36.952 L571.174,36.903 L572.02,36.827 L573.212,36.726 L574.424,36.64 L575.604,36.581 L576.42,36.563 L576.911,36.566 L577.372,36.581 L577.779,36.609 L578.121,36.65 L578.383,36.7 L578.433,36.716 L578.306,36.682 L578.521,36.748 L578.667,36.834 L578.686,36.891 L578.678,36.937 L578.657,36.974 L578.634,37.012 L578.613,37.062 L578.591,37.136 L578.562,37.248 L578.519,37.402 L578.456,37.605 L578.369,37.854 L578.255,38.149 L578.113,38.484 L577.828,39.102 L577.376,39.987 L576.871,40.903 L576.319,41.861 L575.747,42.828 L575.32,43.544 L575.033,44.03 L574.751,44.513 L574.474,45 L574.202,45.494 L573.929,46.023 L573.654,46.608 L573.375,47.305 L573.185,47.912 L573.185,47.912 C573.163,47.997 573.143,48.08 573.125,48.162 L573.125,48.162 L573.073,48.407 L572.961,49.013 L572.87,49.638 L572.811,50.236 L572.782,50.809 L572.782,51.356 L572.811,51.875 L572.868,52.369 L572.993,53.023 L573.237,53.823 L573.566,54.556 L573.958,55.193 L574.393,55.746 L574.856,56.225 L575.549,56.815 L576.465,57.479 L577.282,58.056 L577.754,58.444 L577.977,58.673 L578.154,58.905 L578.272,59.123 L578.335,59.326 L578.353,59.511 L578.337,59.683 L578.31,59.758 L578.294,59.791 L578.268,59.893 L578.232,60.009 L578.184,60.148 L578.121,60.309 L578.04,60.502 L577.938,60.724 L577.81,60.983 L577.656,61.278 L577.47,61.612 L577.252,61.985 L576.998,62.401 L576.707,62.857 L576.378,63.354 L576.008,63.896 L575.596,64.479 L575.142,65.105 L574.918,65.408 L574.918,65.408 C573.014,67.99 572.927,70.443 574.726,70.888 C576.524,71.333 579.526,69.601 581.431,67.019 C581.431,67.019 581.431,67.019 581.431,67.019 L581.775,66.552 L582.396,65.691 L582.984,64.854 L583.536,64.04 L584.058,63.244 L584.546,62.469 L585.002,61.712 L585.427,60.97 L585.82,60.244 L586.181,59.532 L586.508,58.837 L586.802,58.154 L587.06,57.489 L587.282,56.839 L587.465,56.21 L587.611,55.601 L587.717,55.017 L587.788,54.402 L587.809,53.574 L587.713,52.657 L587.502,51.872 L587.204,51.207 L586.845,50.647 L586.446,50.172 L586.009,49.751 L585.374,49.24 L584.577,48.677 L583.843,48.154 L583.355,47.753 L583.088,47.493 L582.858,47.226 L582.666,46.949 L582.51,46.657 L582.383,46.306 L582.315,46.006 L582.286,45.816 L582.269,45.612 L582.262,45.393 L582.268,45.157 L582.288,44.9 L582.323,44.622 L582.384,44.275 L582.437,44.025 L582.377,44.275 L582.239,44.692 L582.129,44.932 L582.106,44.964 L582.159,44.853 L582.282,44.625 L582.458,44.315 L582.68,43.933 L582.94,43.493 L583.4,42.721 L584.09,41.553 L584.833,40.253 L585.595,38.846 L586.318,37.394 L586.816,36.284 L587.135,35.491 L587.424,34.687 L587.674,33.87 L587.875,33.048 L588.014,32.226 L588.078,31.416 L588.051,30.63 L587.921,29.889 L587.677,29.21 L587.313,28.613 L586.834,28.114 L586.246,27.721 L585.64,27.46 L585.423,27.393 L585.423,27.393 C585.381,27.38 585.339,27.369 585.296,27.359 L585.296,27.359 L584.98,27.288 L584.424,27.196 L583.847,27.134 L583.246,27.097 L582.624,27.079 L581.97,27.078 L580.98,27.102 L579.656,27.169 L578.35,27.263 L577.116,27.368 L576.264,27.445 L575.743,27.493 L575.495,27.515 C575.495,27.515 575.495,27.515 575.495,27.515 C573.285,27.716 570.353,29.996 568.946,32.608 C567.539,35.22 568.19,37.175 570.4,36.974 L570.4,36.974" fill="#000000"/>
        <g>
          <path d="M578.002,94.042 L576.23,94.046 C571.534,94.057 567.722,91.551 567.715,88.45 L567.707,84.238 C567.701,81.137 571.503,78.615 576.199,78.604 L577.971,78.6 C582.667,78.589 586.479,81.095 586.486,84.196 L586.494,88.408 C586.501,91.509 582.698,94.031 578.002,94.042 z" fill="#808080"/>
          <path d="M578.002,94.042 L576.23,94.046 C571.534,94.057 567.722,91.551 567.715,88.45 L567.707,84.238 C567.701,81.137 571.503,78.615 576.199,78.604 L577.971,78.6 C582.667,78.589 586.479,81.095 586.486,84.196 L586.494,88.408 C586.501,91.509 582.698,94.031 578.002,94.042 z" fill-opacity="0" stroke="#000000" stroke-width="5"/>
        </g>
        <g>
          <g>
            <path d="M548.904,39.386 L548.904,68.618" fill="#8080FF"/>
            <path d="M548.904,39.386 L548.904,68.618" fill-opacity="0" stroke="#000000" stroke-width="5"/>
          </g>
          <g>
            <path d="M548.904,68.618 C548.904,71.094 542.322,73.101 534.202,73.101" fill="#8080FF"/>
            <path d="M548.904,68.618 C548.904,71.094 542.322,73.101 534.202,73.101" fill-opacity="0" stroke="#000000" stroke-width="5"/>
          </g>
          <g>
            <path d="M534.202,73.101 C526.082,73.101 519.5,71.094 519.5,68.617" fill="#8080FF"/>
            <path d="M534.202,73.101 C526.082,73.101 519.5,71.094 519.5,68.617" fill-opacity="0" stroke="#000000" stroke-width="5"/>
          </g>
          <g>
            <path d="M519.5,68.618 L519.5,38.418" fill="#8080FF"/>
            <path d="M519.5,68.618 L519.5,38.418" fill-opacity="0" stroke="#000000" stroke-width="5"/>
          </g>
          <g>
            <path d="M534.202,43.87 C526.082,43.87 519.5,41.862 519.5,39.386" fill="#8080FF"/>
            <path d="M534.202,43.87 C526.082,43.87 519.5,41.862 519.5,39.386" fill-opacity="0" stroke="#000000" stroke-width="5"/>
          </g>
          <g>
            <path d="M519.5,39.386 C519.5,36.909 526.082,34.902 534.202,34.902" fill="#8080FF"/>
            <path d="M519.5,39.386 C519.5,36.909 526.082,34.902 534.202,34.902" fill-opacity="0" stroke="#000000" stroke-width="5"/>
          </g>
          <g>
            <path d="M534.202,34.902 C542.322,34.902 548.904,36.909 548.904,39.386" fill="#8080FF"/>
            <path d="M534.202,34.902 C542.322,34.902 548.904,36.909 548.904,39.386" fill-opacity="0" stroke="#000000" stroke-width="5"/>
          </g>
          <g>
            <path d="M548.904,39.386 C548.904,41.862 542.322,43.87 534.202,43.87" fill="#8080FF"/>
            <path d="M548.904,39.386 C548.904,41.862 542.322,43.87 534.202,43.87" fill-opacity="0" stroke="#000000" stroke-width="5"/>
          </g>
        </g>
      </g>
      <g>
        <g>
          <path d="M148.02,163.942 C125.79,163.942 107.77,154.652 107.77,143.192 C107.77,131.732 125.79,122.442 148.02,122.442 C170.249,122.442 188.27,131.732 188.27,143.192 C188.27,154.652 170.249,163.942 148.02,163.942 z" fill="#FFFFFF"/>
          <path d="M148.02,163.942 C125.79,163.942 107.77,154.652 107.77,143.192 C107.77,131.732 125.79,122.442 148.02,122.442 C170.249,122.442 188.27,131.732 188.27,143.192 C188.27,154.652 170.249,163.942 148.02,163.942 z" fill-opacity="0" stroke="#000000" stroke-width="7"/>
        </g>
        <g>
          <path d="M230.567,205.442 C208.338,205.442 190.317,196.152 190.317,184.692 C190.317,173.232 208.338,163.942 230.567,163.942 C252.797,163.942 270.817,173.232 270.817,184.692 C270.817,196.152 252.797,205.442 230.567,205.442 z" fill="#FFFFFF"/>
          <path d="M230.567,205.442 C208.338,205.442 190.317,196.152 190.317,184.692 C190.317,173.232 208.338,163.942 230.567,163.942 C252.797,163.942 270.817,173.232 270.817,184.692 C270.817,196.152 252.797,205.442 230.567,205.442 z" fill-opacity="0" stroke="#000000" stroke-width="7"/>
        </g>
        <g>
          <path d="M230.567,166.311 C208.338,166.311 190.317,157.021 190.317,145.561 C190.317,134.101 208.338,124.811 230.567,124.811 C252.797,124.811 270.817,134.101 270.817,145.561 C270.817,157.021 252.797,166.311 230.567,166.311 z" fill="#FFFFFF"/>
          <path d="M230.567,166.311 C208.338,166.311 190.317,157.021 190.317,145.561 C190.317,134.101 208.338,124.811 230.567,124.811 C252.797,124.811 270.817,134.101 270.817,145.561 C270.817,157.021 252.797,166.311 230.567,166.311 z" fill-opacity="0" stroke="#000000" stroke-width="7"/>
        </g>
        <g>
          <path d="M150.067,205.442 C127.838,205.442 109.817,196.152 109.817,184.692 C109.817,173.232 127.838,163.942 150.067,163.942 C172.297,163.942 190.317,173.232 190.317,184.692 C190.317,196.152 172.297,205.442 150.067,205.442 z" fill="#FFFFFF"/>
          <path d="M150.067,205.442 C127.838,205.442 109.817,196.152 109.817,184.692 C109.817,173.232 127.838,163.942 150.067,163.942 C172.297,163.942 190.317,173.232 190.317,184.692 C190.317,196.152 172.297,205.442 150.067,205.442 z" fill-opacity="0" stroke="#000000" stroke-width="7"/>
        </g>
        <g>
          <path d="M190.043,176.131 C183.621,176.131 178.415,171.325 178.415,165.397 C178.415,159.468 183.621,154.663 190.043,154.663 C196.465,154.663 201.671,159.468 201.671,165.397 C201.671,171.325 196.465,176.131 190.043,176.131 z" fill="#FFFFFF"/>
          <path d="M190.043,176.131 C183.621,176.131 178.415,171.325 178.415,165.397 C178.415,159.468 183.621,154.663 190.043,154.663 C196.465,154.663 201.671,159.468 201.671,165.397 C201.671,171.325 196.465,176.131 190.043,176.131 z" fill-opacity="0" stroke="#000000" stroke-width="7"/>
        </g>
        <path d="M127.556,132.684 L164.358,150.063" fill-opacity="0" stroke="#000000" stroke-width="7"/>
        <path d="M124.234,150.063 L164.358,132.684" fill-opacity="0" stroke="#000000" stroke-width="7"/>
        <path d="M131.026,191.801 L166.914,174.847" fill-opacity="0" stroke="#000000" stroke-width="7"/>
        <path d="M132.853,176.131 L166.914,191.801" fill-opacity="0" stroke="#000000" stroke-width="7"/>
        <path d="M214.374,154.663 L247.418,138.051" fill-opacity="0" stroke="#000000" stroke-width="7"/>
        <path d="M214.374,136.675 L248.384,154.663" fill-opacity="0" stroke="#000000" stroke-width="7"/>
        <path d="M213.172,194.237 L247.418,176.131" fill-opacity="0" stroke="#000000" stroke-width="7"/>
        <path d="M213.172,176.13 L247.418,194.237" fill-opacity="0" stroke="#000000" stroke-width="7"/>
      </g>
      <g>
        <g>
          <path d="M478.433,234.256 C456.204,234.256 438.183,224.966 438.183,213.506 C438.183,202.046 456.204,192.756 478.433,192.756 C500.663,192.756 518.683,202.046 518.683,213.506 C518.683,224.966 500.663,234.256 478.433,234.256 z" fill="#FFFFFF"/>
          <path d="M478.433,234.256 C456.204,234.256 438.183,224.966 438.183,213.506 C438.183,202.046 456.204,192.756 478.433,192.756 C500.663,192.756 518.683,202.046 518.683,213.506 C518.683,224.966 500.663,234.256 478.433,234.256 z" fill-opacity="0" stroke="#000000" stroke-width="7"/>
        </g>
        <g>
          <path d="M560.981,275.756 C538.751,275.756 520.731,266.466 520.731,255.006 C520.731,243.546 538.751,234.256 560.981,234.256 C583.21,234.256 601.231,243.546 601.231,255.006 C601.231,266.466 583.21,275.756 560.981,275.756 z" fill="#FFFFFF"/>
          <path d="M560.981,275.756 C538.751,275.756 520.731,266.466 520.731,255.006 C520.731,243.546 538.751,234.256 560.981,234.256 C583.21,234.256 601.231,243.546 601.231,255.006 C601.231,266.466 583.21,275.756 560.981,275.756 z" fill-opacity="0" stroke="#000000" stroke-width="7"/>
        </g>
        <g>
          <path d="M560.981,236.625 C538.751,236.625 520.731,227.335 520.731,215.875 C520.731,204.415 538.751,195.125 560.981,195.125 C583.21,195.125 601.231,204.415 601.231,215.875 C601.231,227.335 583.21,236.625 560.981,236.625 z" fill="#FFFFFF"/>
          <path d="M560.981,236.625 C538.751,236.625 520.731,227.335 520.731,215.875 C520.731,204.415 538.751,195.125 560.981,195.125 C583.21,195.125 601.231,204.415 601.231,215.875 C601.231,227.335 583.21,236.625 560.981,236.625 z" fill-opacity="0" stroke="#000000" stroke-width="7"/>
        </g>
        <g>
          <path d="M480.481,275.756 C458.251,275.756 440.231,266.466 440.231,255.006 C440.231,243.546 458.251,234.256 480.481,234.256 C502.71,234.256 520.731,243.546 520.731,255.006 C520.731,266.466 502.71,275.756 480.481,275.756 z" fill="#FFFFFF"/>
          <path d="M480.481,275.756 C458.251,275.756 440.231,266.466 440.231,255.006 C440.231,243.546 458.251,234.256 480.481,234.256 C502.71,234.256 520.731,243.546 520.731,255.006 C520.731,266.466 502.71,275.756 480.481,275.756 z" fill-opacity="0" stroke="#000000" stroke-width="7"/>
        </g>
        <g>
          <path d="M520.456,246.445 C514.034,246.445 508.828,241.639 508.828,235.711 C508.828,229.783 514.034,224.977 520.456,224.977 C526.879,224.977 532.085,229.783 532.085,235.711 C532.085,241.639 526.879,246.445 520.456,246.445 z" fill="#FFFFFF"/>
          <path d="M520.456,246.445 C514.034,246.445 508.828,241.639 508.828,235.711 C508.828,229.783 514.034,224.977 520.456,224.977 C526.879,224.977 532.085,229.783 532.085,235.711 C532.085,241.639 526.879,246.445 520.456,246.445 z" fill-opacity="0" stroke="#000000" stroke-width="7"/>
        </g>
        <path d="M457.97,202.998 L494.772,220.377" fill-opacity="0" stroke="#000000" stroke-width="7"/>
        <path d="M454.648,220.377 L494.772,202.998" fill-opacity="0" stroke="#000000" stroke-width="7"/>
        <path d="M461.439,262.115 L497.327,245.161" fill-opacity="0" stroke="#000000" stroke-width="7"/>
        <path d="M463.266,246.445 L497.327,262.115" fill-opacity="0" stroke="#000000" stroke-width="7"/>
        <path d="M544.788,224.977 L577.832,208.365" fill-opacity="0" stroke="#000000" stroke-width="7"/>
        <path d="M544.788,206.989 L578.797,224.977" fill-opacity="0" stroke="#000000" stroke-width="7"/>
        <path d="M543.585,264.552 L577.832,246.445" fill-opacity="0" stroke="#000000" stroke-width="7"/>
        <path d="M543.585,246.445 L577.832,264.552" fill-opacity="0" stroke="#000000" stroke-width="7"/>
      </g>
      <g>
        <path d="M292.41,126.418 L419.958,83.17" fill-opacity="0" stroke="#000000" stroke-width="7"/>
        <path d="M290.291,120.167 L275.742,132.069 L294.529,132.668 M292.41,126.418 L275.742,132.069" fill-opacity="0" stroke="#000000" stroke-width="7" stroke-opacity="1"/>
        <path d="M422.077,89.421 L436.626,77.519 L417.838,76.92 M419.958,83.17 L436.626,77.519" fill-opacity="0" stroke="#000000" stroke-width="7" stroke-opacity="1"/>
      </g>
      <g>
        <path d="M530.838,181.285 L554.457,110.011" fill-opacity="0" stroke="#000000" stroke-width="7"/>
        <path d="M524.573,179.209 L525.302,197.991 L537.103,183.361 M530.838,181.285 L525.302,197.991" fill-opacity="0" stroke="#000000" stroke-width="7" stroke-opacity="1"/>
        <path d="M560.722,112.087 L559.993,93.304 L548.192,107.935 M554.457,110.011 L559.993,93.304" fill-opacity="0" stroke="#000000" stroke-width="7" stroke-opacity="1"/>
      </g>
      <path d="M48.5,398.558 L143.77,396.314" fill-opacity="0" stroke="#000000" stroke-width="7" stroke-dasharray="21,14"/>
      <path d="M143.77,374.558 L143.77,398.558" fill-opacity="0" stroke="#000000" stroke-width="7"/>
      <path d="M143.77,398.558 L216.5,398.558" fill-opacity="0" stroke="#000000" stroke-width="7"/>
      <path d="M252.5,374.558 L252.5,398.558" fill-opacity="0" stroke="#000000" stroke-width="7"/>
      <path d="M216.5,398.558 L300.5,398.558" fill-opacity="0" stroke="#000000" stroke-width="7"/>
      <path d="M372.5,374.558 L372.5,398.558" fill-opacity="0" stroke="#000000" stroke-width="7"/>
      <path d="M300.5,398.558 L552.5,398.558" fill-opacity="0" stroke="#000000" stroke-width="7"/>
      <path d="M552.5,374.288 L552.5,398.558" fill-opacity="0" stroke="#000000" stroke-width="7"/>
      <path d="M168.5,554 L336.5,554" fill-opacity="0" stroke="#000000" stroke-width="7" stroke-dasharray="21,14"/>
      <path d="M336.5,530 L336.5,554" fill-opacity="0" stroke="#000000" stroke-width="7"/>
      <path d="M336.5,554 L408.5,554" fill-opacity="0" stroke="#000000" stroke-width="7"/>
      <path d="M408.5,530 L408.5,554" fill-opacity="0" stroke="#000000" stroke-width="7"/>
      <path d="M408.5,554 L528.5,554" fill-opacity="0" stroke="#000000" stroke-width="7"/>
      <text transform="matrix(1, 0, 0, 1, 138.636, 347.058)">
        <tspan x="-18.636" y="10.442" font-family="Helvetica" font-size="33" fill="#000000">up</tspan>
      </text>
      <text transform="matrix(1, 0, 0, 1, 246.155, 349.349)">
        <tspan x="-42.155" y="8.151" font-family="Helvetica" font-size="33" fill="#000000">down</tspan>
      </text>
      <text transform="matrix(1, 0, 0, 1, 378.155, 349.349)">
        <tspan x="-42.155" y="8.151" font-family="Helvetica" font-size="33" fill="#000000">hold</tspan>
      </text>
      <text transform="matrix(1, 0, 0, 1, 546.155, 349.349)">
        <tspan x="-42.155" y="8.151" font-family="Helvetica" font-size="33" fill="#000000">home</tspan>
      </text>
      <g>
        <path d="M142.248,578.541 L145.26,560.979 L132.5,548.541 L150.134,545.979 L158.02,530 L165.906,545.979 L183.539,548.541 L170.779,560.979 L173.791,578.541 L158.02,570.249 z" fill="#F30000"/>
        <path d="M142.248,578.541 L145.26,560.979 L132.5,548.541 L150.134,545.979 L158.02,530 L165.906,545.979 L183.539,548.541 L170.779,560.979 L173.791,578.541 L158.02,570.249 z" fill-opacity="0" stroke="#000000" stroke-width="7"/>
      </g>
      <g>
        <path d="M34.248,422.829 L37.26,405.266 L24.5,392.829 L42.134,390.266 L50.02,374.288 L57.905,390.266 L75.539,392.829 L62.779,405.266 L65.791,422.829 L50.02,414.537 z" fill="#F30000"/>
        <path d="M34.248,422.829 L37.26,405.266 L24.5,392.829 L42.134,390.266 L50.02,374.288 L57.905,390.266 L75.539,392.829 L62.779,405.266 L65.791,422.829 L50.02,414.537 z" fill-opacity="0" stroke="#000000" stroke-width="7"/>
      </g>
      <text transform="matrix(1, 0, 0, 1, 342.155, 503.849)">
        <tspan x="-30.155" y="9.651" font-family="Helvetica" font-size="33" fill="#000000">left</tspan>
      </text>
      <g>
        <path d="M336.5,530 L336.5,413.058" fill-opacity="0" stroke="#FA0000" stroke-width="3.5" stroke-dasharray="10.5,7"/>
        <path d="M341,413.058 L336.5,401.058 L332,413.058 z" fill="#FA0000" fill-opacity="1" stroke="#FA0000" stroke-width="3.5" stroke-opacity="1"/>
      </g>
      <path d="M450.655,422.829 C387.609,422.829 336.5,409.212 336.5,392.414 C336.5,375.617 387.609,362 450.655,362 C513.702,362 564.811,375.617 564.811,392.414 C564.811,409.212 513.702,422.829 450.655,422.829 z" fill-opacity="0" stroke="#FA0000" stroke-width="3.5"/>
      <path d="M456.5,458 z" fill-opacity="0" stroke="#FA0000" stroke-width="3.5"/>
      <path d="M360.5,374.288 L540.5,410" fill-opacity="0" stroke="#FA0000" stroke-width="3.5"/>
      <path d="M360.5,410 L540.5,374.288" fill-opacity="0" stroke="#FA0000" stroke-width="3.5"/>
    </g>
  </g>
</svg>
