<?xml version="1.0" encoding="UTF-8"?>
<!DOCTYPE svg PUBLIC "-//W3C//DTD SVG 1.1//EN" "http://www.w3.org/Graphics/SVG/1.1/DTD/svg11.dtd">
<svg version="1.1" xmlns="http://www.w3.org/2000/svg" xmlns:xlink="http://www.w3.org/1999/xlink" x="0" y="0" width="650" height="640" viewBox="0, 0, 650, 640">
  <g id="Background">
    <rect x="0" y="0" width="650" height="640" fill="#FFFFFF"/>
  </g>
  <g id="Layer_1">
    <g>
      <g>
        <path d="M296.724,207.079 C266.624,207.079 242.224,167.088 242.224,117.755 C242.224,68.423 266.624,28.431 296.724,28.431 C326.823,28.431 351.224,68.423 351.224,117.755 C351.224,167.088 326.823,207.079 296.724,207.079 z" fill="#15FFFD"/>
        <path d="M296.724,207.079 C266.624,207.079 242.224,167.088 242.224,117.755 C242.224,68.423 266.624,28.431 296.724,28.431 C326.823,28.431 351.224,68.423 351.224,117.755 C351.224,167.088 326.823,207.079 296.724,207.079 z" fill-opacity="0" stroke="#000000" stroke-width="3.5"/>
      </g>
      <g>
        <path d="M15.724,387.931 L203.724,387.931 L203.724,619.931 L15.724,619.931 z" fill="#FFFFFF"/>
        <path d="M15.724,387.931 L203.724,387.931 L203.724,619.931 L15.724,619.931 z" fill-opacity="0" stroke="#000000" stroke-width="3.5"/>
      </g>
      <g>
        <path d="M499.474,351.931 C466.751,351.931 440.224,307.608 440.224,252.931 C440.224,198.255 466.751,153.931 499.474,153.931 C532.197,153.931 558.724,198.255 558.724,252.931 C558.724,307.608 532.197,351.931 499.474,351.931 z" fill="#FFF803"/>
        <path d="M499.474,351.931 C466.751,351.931 440.224,307.608 440.224,252.931 C440.224,198.255 466.751,153.931 499.474,153.931 C532.197,153.931 558.724,198.255 558.724,252.931 C558.724,307.608 532.197,351.931 499.474,351.931 z" fill-opacity="0" stroke="#000000" stroke-width="3.5"/>
      </g>
      <g>
        <g>
          <path d="M58.62,532.53 C41.361,532.53 27.37,504.212 27.37,469.28 C27.37,434.348 41.361,406.03 58.62,406.03 C75.879,406.03 89.87,434.348 89.87,469.28 C89.87,504.212 75.879,532.53 58.62,532.53 z" fill="#15FFFD"/>
          <path d="M58.62,532.53 C41.361,532.53 27.37,504.212 27.37,469.28 C27.37,434.348 41.361,406.03 58.62,406.03 C75.879,406.03 89.87,434.348 89.87,469.28 C89.87,504.212 75.879,532.53 58.62,532.53 z" fill-opacity="0" stroke="#000000" stroke-width="3.5"/>
        </g>
        <text fill="#000000" transform="matrix(1, 0, -0, 1, 61.006, 470.827)">
          <tspan x="-27.993" y="5.306" font-family="HelveticaNeue-Bold" font-size="14">Daemon</tspan>
        </text>
      </g>
      <g>
        <g>
          <path d="M170.138,575.894 C154.398,575.894 141.638,547.576 141.638,512.644 C141.638,477.712 154.398,449.394 170.138,449.394 C185.878,449.394 198.638,477.712 198.638,512.644 C198.638,547.576 185.878,575.894 170.138,575.894 z" fill="#FFF803"/>
          <path d="M170.138,575.894 C154.398,575.894 141.638,547.576 141.638,512.644 C141.638,477.712 154.398,449.394 170.138,449.394 C185.878,449.394 198.638,477.712 198.638,512.644 C198.638,547.576 185.878,575.894 170.138,575.894 z" fill-opacity="0" stroke="#000000" stroke-width="3.5"/>
        </g>
        <text fill="#000000" transform="matrix(1, 0, -0, 1, 175.027, 510.019)">
          <tspan x="-16.21" y="6.443" font-family="HelveticaNeue-Bold" font-size="17">App</tspan>
        </text>
      </g>
      <g>
        <path d="M95.441,612.811 L98.169,596.906 L86.613,585.643 L102.582,583.322 L109.724,568.852 L116.866,583.322 L132.835,585.643 L121.279,596.906 L124.007,612.811 L109.724,605.302 z" fill="#FF2123"/>
        <path d="M95.441,612.811 L98.169,596.906 L86.613,585.643 L102.582,583.322 L109.724,568.852 L116.866,583.322 L132.835,585.643 L121.279,596.906 L124.007,612.811 L109.724,605.302 z" fill-opacity="0" stroke="#000000" stroke-width="3.5"/>
      </g>
      <g>
        <path d="M70.391,529.669 L95.122,570.888" fill-opacity="0" stroke="#000000" stroke-width="3.5"/>
        <path d="M91.264,573.204 L101.296,581.178 L98.981,568.573 z" fill="#000000" fill-opacity="1" stroke="#000000" stroke-width="3.5" stroke-opacity="1"/>
      </g>
      <g>
        <path d="M117.449,580.638 L136.701,564.88" fill-opacity="0" stroke="#000000" stroke-width="3.5" stroke-dasharray="10.5,7"/>
        <path d="M139.551,568.362 L145.987,557.279 L133.851,561.398 z" fill="#000000" fill-opacity="1" stroke="#000000" stroke-width="3.5" stroke-opacity="1"/>
      </g>
      <g>
        <path d="M63.873,406.03 L149.932,442.426" fill-opacity="0" stroke="#000000" stroke-width="3.5" stroke-dasharray="10.5,7"/>
        <path d="M148.179,446.571 L160.984,447.1 L151.685,438.281 z" fill="#000000" fill-opacity="1" stroke="#000000" stroke-width="3.5" stroke-opacity="1"/>
      </g>
      <path d="M16.293,575.894 L72.099,575.894 L72.099,619.931 L16.293,619.931 z" fill-opacity="0" stroke="#000000" stroke-width="3.5"/>
      <path d="M16.863,591.871 L71.53,591.506" fill-opacity="0" stroke="#000000" stroke-width="3.5"/>
      <path d="M15.724,600.431 L70.391,600.067" fill-opacity="0" stroke="#000000" stroke-width="3.5"/>
      <path d="M16.863,610.253 L71.53,609.888" fill-opacity="0" stroke="#000000" stroke-width="3.5"/>
      <g>
        <path d="M51.07,529.669 L46.342,559.255" fill-opacity="0" stroke="#000000" stroke-width="3.5"/>
        <path d="M41.899,558.544 L44.449,571.104 L50.786,559.965 z" fill="#000000" fill-opacity="1" stroke="#000000" stroke-width="3.5" stroke-opacity="1"/>
      </g>
      <g>
        <path d="M44.055,573.573 L153.244,459.853" fill-opacity="0" stroke="#000000" stroke-width="3.5" stroke-dasharray="10.5,7"/>
        <path d="M156.49,462.97 L161.555,451.197 L149.998,456.737 z" fill="#000000" fill-opacity="1" stroke="#000000" stroke-width="3.5" stroke-opacity="1"/>
      </g>
      <path d="M626.423,406.03 C348.874,406.03 123.876,235.112 123.876,24.275" fill-opacity="0" stroke="#000000" stroke-width="3.5"/>
      <g>
        <g>
          <path d="M305.188,149.562 C289.039,149.562 275.948,130.981 275.948,108.061 C275.948,85.14 289.039,66.559 305.188,66.559 C321.337,66.559 334.428,85.14 334.428,108.061 C334.428,130.981 321.337,149.562 305.188,149.562 z" fill="#FF8080"/>
          <path d="M305.188,149.562 C289.039,149.562 275.948,130.981 275.948,108.061 C275.948,85.14 289.039,66.559 305.188,66.559 C321.337,66.559 334.428,85.14 334.428,108.061 C334.428,130.981 321.337,149.562 305.188,149.562 z" fill-opacity="0" stroke="#000000" stroke-width="5"/>
        </g>
        <path d="M297.445,91.033 L297.69,91.011 L298.219,90.962 L299.065,90.886 L300.256,90.785 L301.469,90.698 L302.649,90.64 L303.464,90.622 L303.956,90.625 L304.417,90.64 L304.823,90.668 L305.165,90.709 L305.427,90.759 L305.478,90.775 L305.351,90.741 L305.566,90.807 L305.711,90.893 L305.731,90.95 L305.722,90.996 L305.702,91.034 L305.679,91.071 L305.658,91.12 L305.635,91.195 L305.606,91.307 L305.564,91.462 L305.501,91.663 L305.414,91.913 L305.299,92.208 L305.157,92.543 L304.872,93.161 L304.42,94.047 L303.915,94.963 L303.364,95.92 L302.792,96.886 L302.365,97.603 L302.077,98.089 L301.796,98.571 L301.519,99.057 L301.245,99.556 L300.974,100.081 L300.698,100.666 L300.419,101.364 L300.23,101.97 L300.23,101.97 C300.207,102.054 300.187,102.137 300.17,102.219 L300.17,102.219 L300.118,102.465 L300.005,103.072 L299.915,103.696 L299.855,104.295 L299.826,104.869 L299.827,105.415 L299.855,105.934 L299.912,106.428 L300.037,107.082 L300.281,107.882 L300.611,108.614 L301.002,109.252 L301.438,109.805 L301.9,110.284 L302.593,110.874 L303.509,111.538 L304.326,112.115 L304.799,112.503 L305.021,112.731 L305.198,112.964 L305.316,113.182 L305.379,113.385 L305.397,113.569 L305.381,113.742 L305.355,113.818 L305.339,113.85 L305.312,113.952 L305.276,114.069 L305.228,114.206 L305.165,114.369 L305.084,114.56 L304.982,114.784 L304.855,115.042 L304.7,115.337 L304.514,115.671 L304.296,116.044 L304.042,116.459 L303.752,116.915 L303.423,117.413 L303.053,117.954 L302.641,118.538 L302.187,119.164 L301.962,119.468 L301.962,119.468 C300.058,122.05 299.972,124.503 301.771,124.947 C303.57,125.391 306.572,123.659 308.476,121.077 C308.476,121.077 308.476,121.077 308.476,121.077 L308.819,120.611 L309.441,119.75 L310.028,118.913 L310.581,118.099 L311.102,117.304 L311.59,116.528 L312.047,115.77 L312.472,115.029 L312.864,114.303 L313.225,113.592 L313.553,112.895 L313.846,112.214 L314.104,111.547 L314.326,110.899 L314.51,110.268 L314.655,109.66 L314.762,109.075 L314.832,108.461 L314.853,107.633 L314.757,106.717 L314.546,105.931 L314.248,105.266 L313.889,104.706 L313.491,104.231 L313.054,103.81 L312.418,103.299 L311.621,102.736 L310.888,102.214 L310.399,101.812 L310.132,101.551 L309.902,101.285 L309.71,101.008 L309.554,100.716 L309.427,100.365 L309.359,100.065 L309.331,99.875 L309.313,99.67 L309.307,99.451 L309.313,99.216 L309.332,98.959 L309.367,98.681 L309.428,98.335 L309.481,98.086 L309.421,98.335 L309.283,98.751 L309.173,98.991 L309.15,99.024 L309.205,98.909 L309.325,98.686 L309.501,98.375 L309.724,97.992 L309.985,97.552 L310.444,96.78 L311.134,95.612 L311.877,94.312 L312.64,92.904 L313.362,91.453 L313.86,90.342 L314.179,89.551 L314.468,88.745 L314.718,87.929 L314.919,87.106 L315.058,86.285 L315.122,85.475 L315.096,84.69 L314.965,83.947 L314.72,83.268 L314.357,82.672 L313.878,82.173 L313.29,81.78 L312.684,81.519 L312.467,81.452 L312.467,81.452 C312.426,81.439 312.383,81.428 312.34,81.418 L312.34,81.418 L312.024,81.347 L311.469,81.255 L310.891,81.193 L310.29,81.156 L309.668,81.138 L309.015,81.137 L308.024,81.161 L306.7,81.228 L305.395,81.322 L304.16,81.427 L303.309,81.504 L302.788,81.552 L302.539,81.574 C302.539,81.574 302.539,81.574 302.539,81.574 C300.329,81.775 297.397,84.055 295.99,86.667 C294.584,89.279 295.235,91.234 297.445,91.033 L297.445,91.033" fill="#000000"/>
        <g>
          <path d="M305.046,148.101 L303.275,148.105 C298.578,148.116 294.766,145.61 294.76,142.509 L294.751,138.297 C294.745,135.196 298.547,132.674 303.243,132.663 L305.015,132.659 C309.711,132.648 313.524,135.154 313.53,138.255 L313.539,142.467 C313.545,145.568 309.743,148.09 305.046,148.101 z" fill="#808080"/>
          <path d="M305.046,148.101 L303.275,148.105 C298.578,148.116 294.766,145.61 294.76,142.509 L294.751,138.297 C294.745,135.196 298.547,132.674 303.243,132.663 L305.015,132.659 C309.711,132.648 313.524,135.154 313.53,138.255 L313.539,142.467 C313.545,145.568 309.743,148.09 305.046,148.101 z" fill-opacity="0" stroke="#000000" stroke-width="5"/>
        </g>
        <g>
          <g>
            <path d="M275.948,93.445 L275.948,122.676" fill="#8080FF"/>
            <path d="M275.948,93.445 L275.948,122.676" fill-opacity="0" stroke="#000000" stroke-width="5"/>
          </g>
          <g>
            <path d="M275.948,122.676 C275.948,125.153 269.366,127.16 261.246,127.16" fill="#8080FF"/>
            <path d="M275.948,122.676 C275.948,125.153 269.366,127.16 261.246,127.16" fill-opacity="0" stroke="#000000" stroke-width="5"/>
          </g>
          <g>
            <path d="M261.246,127.16 C253.127,127.16 246.544,125.153 246.544,122.676" fill="#8080FF"/>
            <path d="M261.246,127.16 C253.127,127.16 246.544,125.153 246.544,122.676" fill-opacity="0" stroke="#000000" stroke-width="5"/>
          </g>
          <g>
            <path d="M246.544,122.676 L246.544,92.477" fill="#8080FF"/>
            <path d="M246.544,122.676 L246.544,92.477" fill-opacity="0" stroke="#000000" stroke-width="5"/>
          </g>
          <g>
            <path d="M261.246,97.928 C253.127,97.928 246.544,95.921 246.544,93.445" fill="#8080FF"/>
            <path d="M261.246,97.928 C253.127,97.928 246.544,95.921 246.544,93.445" fill-opacity="0" stroke="#000000" stroke-width="5"/>
          </g>
          <g>
            <path d="M246.544,93.445 C246.544,90.968 253.127,88.961 261.246,88.961" fill="#8080FF"/>
            <path d="M246.544,93.445 C246.544,90.968 253.127,88.961 261.246,88.961" fill-opacity="0" stroke="#000000" stroke-width="5"/>
          </g>
          <g>
            <path d="M261.246,88.961 C269.366,88.961 275.948,90.968 275.948,93.445" fill="#8080FF"/>
            <path d="M261.246,88.961 C269.366,88.961 275.948,90.968 275.948,93.445" fill-opacity="0" stroke="#000000" stroke-width="5"/>
          </g>
          <g>
            <path d="M275.948,93.445 C275.948,95.921 269.366,97.928 261.246,97.928" fill="#8080FF"/>
            <path d="M275.948,93.445 C275.948,95.921 269.366,97.928 261.246,97.928" fill-opacity="0" stroke="#000000" stroke-width="5"/>
          </g>
        </g>
      </g>
      <g>
        <g>
          <path d="M515.27,290.083 C499.121,290.083 486.03,271.502 486.03,248.581 C486.03,225.66 499.121,207.079 515.27,207.079 C531.418,207.079 544.509,225.66 544.509,248.581 C544.509,271.502 531.418,290.083 515.27,290.083 z" fill="#FF8080"/>
          <path d="M515.27,290.083 C499.121,290.083 486.03,271.502 486.03,248.581 C486.03,225.66 499.121,207.079 515.27,207.079 C531.418,207.079 544.509,225.66 544.509,248.581 C544.509,271.502 531.418,290.083 515.27,290.083 z" fill-opacity="0" stroke="#000000" stroke-width="5"/>
        </g>
        <path d="M507.527,231.553 L507.772,231.531 L508.301,231.483 L509.146,231.406 L510.337,231.305 L511.551,231.219 L512.731,231.16 L513.546,231.142 L514.038,231.145 L514.499,231.16 L514.905,231.188 L515.246,231.229 L515.509,231.279 L515.56,231.296 L515.433,231.261 L515.648,231.327 L515.793,231.413 L515.812,231.47 L515.804,231.516 L515.783,231.554 L515.761,231.592 L515.739,231.64 L515.717,231.716 L515.688,231.827 L515.645,231.981 L515.583,232.184 L515.495,232.433 L515.381,232.728 L515.239,233.063 L514.953,233.681 L514.501,234.567 L513.997,235.483 L513.445,236.44 L512.874,237.406 L512.446,238.123 L512.158,238.61 L511.877,239.092 L511.6,239.578 L511.327,240.075 L511.055,240.602 L510.779,241.187 L510.501,241.885 L510.312,242.489 L510.312,242.489 C510.289,242.574 510.269,242.659 510.251,242.742 L510.251,242.742 L510.199,242.987 L510.087,243.592 L509.996,244.217 L509.937,244.815 L509.908,245.389 L509.908,245.935 L509.937,246.454 L509.994,246.948 L510.119,247.603 L510.363,248.402 L510.692,249.135 L511.084,249.772 L511.519,250.325 L511.982,250.804 L512.675,251.394 L513.591,252.058 L514.407,252.635 L514.88,253.024 L515.102,253.252 L515.28,253.484 L515.398,253.703 L515.461,253.905 L515.479,254.09 L515.463,254.262 L515.436,254.338 L515.42,254.371 L515.393,254.472 L515.358,254.589 L515.309,254.728 L515.247,254.889 L515.166,255.081 L515.064,255.303 L514.936,255.563 L514.781,255.858 L514.596,256.191 L514.378,256.564 L514.124,256.98 L513.833,257.436 L513.504,257.933 L513.134,258.475 L512.723,259.058 L512.268,259.685 L512.044,259.988 L512.044,259.988 C510.139,262.57 510.053,265.023 511.852,265.467 C513.651,265.912 516.653,264.179 518.557,261.598 C518.557,261.598 518.557,261.598 518.557,261.598 L518.901,261.131 L519.522,260.271 L520.11,259.433 L520.662,258.619 L521.184,257.824 L521.672,257.048 L522.128,256.291 L522.553,255.549 L522.946,254.823 L523.307,254.112 L523.634,253.416 L523.928,252.733 L524.186,252.068 L524.408,251.417 L524.592,250.789 L524.737,250.18 L524.843,249.596 L524.914,248.981 L524.935,248.154 L524.839,247.237 L524.628,246.451 L524.33,245.787 L523.971,245.226 L523.572,244.751 L523.135,244.331 L522.5,243.819 L521.703,243.256 L520.969,242.734 L520.481,242.332 L520.214,242.072 L519.984,241.805 L519.792,241.529 L519.636,241.236 L519.509,240.885 L519.44,240.585 L519.412,240.395 L519.395,240.191 L519.388,239.971 L519.394,239.736 L519.414,239.479 L519.449,239.202 L519.51,238.854 L519.563,238.604 L519.502,238.857 L519.365,239.271 L519.255,239.511 L519.232,239.545 L519.286,239.43 L519.407,239.205 L519.583,238.894 L519.806,238.512 L520.066,238.073 L520.526,237.301 L521.215,236.132 L521.959,234.832 L522.721,233.424 L523.444,231.973 L523.942,230.863 L524.261,230.071 L524.55,229.266 L524.8,228.45 L525.001,227.628 L525.14,226.805 L525.204,225.994 L525.177,225.21 L525.047,224.467 L524.802,223.789 L524.439,223.192 L523.96,222.693 L523.372,222.301 L522.766,222.039 L522.549,221.972 L522.549,221.972 C522.507,221.96 522.465,221.948 522.421,221.938 L522.421,221.938 L522.106,221.867 L521.551,221.775 L520.973,221.714 L520.372,221.676 L519.749,221.658 L519.096,221.657 L518.106,221.681 L516.781,221.749 L515.477,221.842 L514.241,221.947 L513.389,222.024 L512.869,222.072 L512.62,222.094 C512.62,222.094 512.62,222.094 512.62,222.094 C510.41,222.295 507.478,224.576 506.072,227.188 C504.665,229.8 505.317,231.754 507.527,231.553 L507.527,231.553" fill="#000000"/>
        <g>
          <path d="M515.128,288.621 L513.356,288.625 C508.66,288.636 504.848,286.13 504.841,283.029 L504.833,278.818 C504.826,275.717 508.629,273.194 513.325,273.183 L515.097,273.179 C519.793,273.169 523.605,275.674 523.612,278.775 L523.62,282.987 C523.626,286.088 519.824,288.611 515.128,288.621 z" fill="#808080"/>
          <path d="M515.128,288.621 L513.356,288.625 C508.66,288.636 504.848,286.13 504.841,283.029 L504.833,278.818 C504.826,275.717 508.629,273.194 513.325,273.183 L515.097,273.179 C519.793,273.169 523.605,275.674 523.612,278.775 L523.62,282.987 C523.626,286.088 519.824,288.611 515.128,288.621 z" fill-opacity="0" stroke="#000000" stroke-width="5"/>
        </g>
        <g>
          <g>
            <path d="M486.03,233.965 L486.03,263.197" fill="#8080FF"/>
            <path d="M486.03,233.965 L486.03,263.197" fill-opacity="0" stroke="#000000" stroke-width="5"/>
          </g>
          <g>
            <path d="M486.03,263.197 C486.03,265.673 479.448,267.681 471.328,267.681" fill="#8080FF"/>
            <path d="M486.03,263.197 C486.03,265.673 479.448,267.681 471.328,267.681" fill-opacity="0" stroke="#000000" stroke-width="5"/>
          </g>
          <g>
            <path d="M471.328,267.681 C463.208,267.681 456.626,265.673 456.626,263.197" fill="#8080FF"/>
            <path d="M471.328,267.681 C463.208,267.681 456.626,265.673 456.626,263.197" fill-opacity="0" stroke="#000000" stroke-width="5"/>
          </g>
          <g>
            <path d="M456.626,263.197 L456.626,232.998" fill="#8080FF"/>
            <path d="M456.626,263.197 L456.626,232.998" fill-opacity="0" stroke="#000000" stroke-width="5"/>
          </g>
          <g>
            <path d="M471.328,238.449 C463.208,238.449 456.626,236.441 456.626,233.965" fill="#8080FF"/>
            <path d="M471.328,238.449 C463.208,238.449 456.626,236.441 456.626,233.965" fill-opacity="0" stroke="#000000" stroke-width="5"/>
          </g>
          <g>
            <path d="M456.626,233.965 C456.626,231.489 463.208,229.481 471.328,229.481" fill="#8080FF"/>
            <path d="M456.626,233.965 C456.626,231.489 463.208,229.481 471.328,229.481" fill-opacity="0" stroke="#000000" stroke-width="5"/>
          </g>
          <g>
            <path d="M471.328,229.481 C479.448,229.481 486.03,231.489 486.03,233.965" fill="#8080FF"/>
            <path d="M471.328,229.481 C479.448,229.481 486.03,231.489 486.03,233.965" fill-opacity="0" stroke="#000000" stroke-width="5"/>
          </g>
          <g>
            <path d="M486.03,233.965 C486.03,236.441 479.448,238.449 471.328,238.449" fill="#8080FF"/>
            <path d="M486.03,233.965 C486.03,236.441 479.448,238.449 471.328,238.449" fill-opacity="0" stroke="#000000" stroke-width="5"/>
          </g>
        </g>
      </g>
      <g>
        <path d="M71.73,393.843 L238.688,134.863" fill-opacity="0" stroke="#000000" stroke-width="3.5"/>
        <path d="M67.948,391.404 L65.228,403.928 L75.512,396.281 M71.73,393.843 L65.228,403.928" fill-opacity="0" stroke="#000000" stroke-width="3.5" stroke-opacity="1"/>
        <path d="M242.47,137.302 L245.19,124.778 L234.906,132.425 M238.688,134.863 L245.19,124.778" fill-opacity="0" stroke="#000000" stroke-width="3.5" stroke-opacity="1"/>
      </g>
      <g>
        <path d="M199.027,448.848 L445.323,250.919" fill-opacity="0" stroke="#000000" stroke-width="3.5"/>
        <path d="M196.208,445.341 L189.673,456.365 L201.845,452.356 M199.027,448.848 L189.673,456.365" fill-opacity="0" stroke="#000000" stroke-width="3.5" stroke-opacity="1"/>
        <path d="M448.142,254.427 L454.677,243.402 L442.504,247.411 M445.323,250.919 L454.677,243.402" fill-opacity="0" stroke="#000000" stroke-width="3.5" stroke-opacity="1"/>
      </g>
      <text transform="matrix(1, 0, 0, 1, 141.116, 405.401)">
        <tspan x="-50.435" y="10.478" font-family="Helvetica" font-size="33" fill="#000000">Device</tspan>
      </text>
      <text transform="matrix(1, 0, 0, 1, 525.357, 74.068)">
        <tspan x="-48.598" y="0.525" font-family="Helvetica" font-size="33" fill="#000000">Mesos</tspan>
      </text>
    </g>
  </g>
</svg>
