<?xml version="1.0" encoding="UTF-8"?>
<!DOCTYPE svg PUBLIC "-//W3C//DTD SVG 1.1//EN" "http://www.w3.org/Graphics/SVG/1.1/DTD/svg11.dtd">
<svg version="1.1" xmlns="http://www.w3.org/2000/svg" xmlns:xlink="http://www.w3.org/1999/xlink" x="0" y="0" width="140" height="130" viewBox="0, 0, 140, 130">
  <g id="Background">
    <rect x="0" y="0" width="140" height="130" fill="#FFFFFF"/>
  </g>
  <g id="Layer_1">
    <g>
      <g>
        <path d="M86.644,110.003 C70.495,110.003 57.404,91.422 57.404,68.502 C57.404,45.581 70.495,27 86.644,27 C102.792,27 115.883,45.581 115.883,68.502 C115.883,91.422 102.792,110.003 86.644,110.003 z" fill="#FF8080"/>
        <path d="M86.644,110.003 C70.495,110.003 57.404,91.422 57.404,68.502 C57.404,45.581 70.495,27 86.644,27 C102.792,27 115.883,45.581 115.883,68.502 C115.883,91.422 102.792,110.003 86.644,110.003 z" fill-opacity="0" stroke="#000000" stroke-width="5"/>
      </g>
      <path d="M78.9,51.474 L79.147,51.452 L79.674,51.403 L80.52,51.327 L81.712,51.226 L82.925,51.139 L84.104,51.081 L84.92,51.063 L85.411,51.066 L85.872,51.081 L86.28,51.109 L86.62,51.15 L86.883,51.2 L86.933,51.216 L86.807,51.182 L87.021,51.248 L87.167,51.334 L87.186,51.391 L87.178,51.437 L87.157,51.475 L87.135,51.512 L87.113,51.562 L87.091,51.636 L87.062,51.747 L87.019,51.902 L86.957,52.105 L86.869,52.354 L86.755,52.649 L86.613,52.984 L86.327,53.602 L85.875,54.488 L85.371,55.403 L84.82,56.36 L84.247,57.327 L83.821,58.044 L83.533,58.529 L83.251,59.013 L82.974,59.498 L82.701,59.996 L82.429,60.523 L82.154,61.108 L81.874,61.807 L81.686,62.409 L81.686,62.409 C81.663,62.494 81.643,62.579 81.625,62.662 L81.625,62.662 L81.573,62.906 L81.461,63.513 L81.37,64.138 L81.311,64.736 L81.282,65.309 L81.282,65.855 L81.311,66.376 L81.368,66.869 L81.493,67.523 L81.737,68.323 L82.066,69.056 L82.458,69.693 L82.893,70.246 L83.356,70.724 L84.049,71.315 L84.965,71.979 L85.782,72.556 L86.254,72.944 L86.476,73.173 L86.654,73.405 L86.772,73.623 L86.835,73.826 L86.853,74.01 L86.837,74.183 L86.81,74.259 L86.794,74.292 L86.768,74.393 L86.732,74.51 L86.684,74.648 L86.621,74.81 L86.54,75.001 L86.437,75.225 L86.31,75.483 L86.156,75.778 L85.97,76.112 L85.752,76.485 L85.498,76.901 L85.208,77.356 L84.878,77.854 L84.508,78.395 L84.097,78.979 L83.642,79.605 L83.418,79.908 L83.418,79.908 C81.514,82.49 81.427,84.943 83.226,85.388 C85.024,85.833 88.026,84.101 89.931,81.519 C89.931,81.519 89.931,81.519 89.931,81.519 L90.275,81.052 L90.896,80.191 L91.483,79.354 L92.037,78.539 L92.557,77.745 L93.046,76.969 L93.502,76.212 L93.928,75.47 L94.32,74.744 L94.681,74.033 L95.009,73.336 L95.302,72.654 L95.56,71.988 L95.782,71.339 L95.966,70.709 L96.111,70.101 L96.217,69.516 L96.288,68.902 L96.309,68.074 L96.213,67.158 L96.002,66.372 L95.704,65.707 L95.344,65.146 L94.946,64.672 L94.509,64.251 L93.874,63.74 L93.077,63.177 L92.343,62.654 L91.855,62.253 L91.588,61.992 L91.358,61.726 L91.166,61.449 L91.01,61.157 L90.883,60.806 L90.815,60.506 L90.786,60.316 L90.769,60.112 L90.762,59.893 L90.768,59.657 L90.788,59.4 L90.823,59.122 L90.884,58.776 L90.937,58.526 L90.876,58.778 L90.739,59.19 L90.629,59.432 L90.606,59.465 L90.66,59.351 L90.781,59.127 L90.957,58.816 L91.179,58.434 L91.44,57.994 L91.9,57.222 L92.589,56.054 L93.333,54.754 L94.095,53.345 L94.818,51.894 L95.316,50.784 L95.635,49.992 L95.924,49.187 L96.174,48.37 L96.375,47.548 L96.514,46.727 L96.578,45.916 L96.551,45.13 L96.421,44.388 L96.176,43.709 L95.813,43.113 L95.334,42.614 L94.746,42.221 L94.14,41.96 L93.922,41.893 L93.922,41.893 C93.881,41.88 93.839,41.869 93.796,41.859 L93.796,41.859 L93.48,41.788 L92.925,41.696 L92.346,41.634 L91.746,41.597 L91.124,41.579 L90.47,41.578 L89.48,41.602 L88.155,41.669 L86.85,41.763 L85.616,41.868 L84.764,41.945 L84.243,41.993 L83.995,42.015 C83.995,42.015 83.995,42.015 83.995,42.015 C81.785,42.215 78.853,44.495 77.446,47.107 C76.039,49.719 76.69,51.675 78.9,51.474 L78.9,51.474" fill="#000000"/>
      <g>
        <path d="M86.502,108.542 L84.73,108.546 C80.034,108.557 76.222,106.051 76.215,102.95 L76.207,98.738 C76.2,95.637 80.003,93.115 84.699,93.104 L86.471,93.1 C91.167,93.089 94.979,95.595 94.986,98.696 L94.994,102.908 C95.001,106.009 91.198,108.531 86.502,108.542 z" fill="#808080"/>
        <path d="M86.502,108.542 L84.73,108.546 C80.034,108.557 76.222,106.051 76.215,102.95 L76.207,98.738 C76.2,95.637 80.003,93.115 84.699,93.104 L86.471,93.1 C91.167,93.089 94.979,95.595 94.986,98.696 L94.994,102.908 C95.001,106.009 91.198,108.531 86.502,108.542 z" fill-opacity="0" stroke="#000000" stroke-width="5"/>
      </g>
      <g>
        <g>
          <path d="M57.404,53.886 L57.404,83.118" fill="#8080FF"/>
          <path d="M57.404,53.886 L57.404,83.118" fill-opacity="0" stroke="#000000" stroke-width="5"/>
        </g>
        <g>
          <path d="M57.404,83.118 C57.404,85.594 50.822,87.601 42.702,87.601" fill="#8080FF"/>
          <path d="M57.404,83.118 C57.404,85.594 50.822,87.601 42.702,87.601" fill-opacity="0" stroke="#000000" stroke-width="5"/>
        </g>
        <g>
          <path d="M42.702,87.601 C34.582,87.601 28,85.594 28,83.117" fill="#8080FF"/>
          <path d="M42.702,87.601 C34.582,87.601 28,85.594 28,83.117" fill-opacity="0" stroke="#000000" stroke-width="5"/>
        </g>
        <g>
          <path d="M28,83.118 L28,52.918" fill="#8080FF"/>
          <path d="M28,83.118 L28,52.918" fill-opacity="0" stroke="#000000" stroke-width="5"/>
        </g>
        <g>
          <path d="M42.702,58.37 C34.582,58.37 28,56.362 28,53.886" fill="#8080FF"/>
          <path d="M42.702,58.37 C34.582,58.37 28,56.362 28,53.886" fill-opacity="0" stroke="#000000" stroke-width="5"/>
        </g>
        <g>
          <path d="M28,53.886 C28,51.409 34.582,49.402 42.702,49.402" fill="#8080FF"/>
          <path d="M28,53.886 C28,51.409 34.582,49.402 42.702,49.402" fill-opacity="0" stroke="#000000" stroke-width="5"/>
        </g>
        <g>
          <path d="M42.702,49.402 C50.822,49.402 57.404,51.409 57.404,53.886" fill="#8080FF"/>
          <path d="M42.702,49.402 C50.822,49.402 57.404,51.409 57.404,53.886" fill-opacity="0" stroke="#000000" stroke-width="5"/>
        </g>
        <g>
          <path d="M57.404,53.886 C57.404,56.362 50.822,58.37 42.702,58.37" fill="#8080FF"/>
          <path d="M57.404,53.886 C57.404,56.362 50.822,58.37 42.702,58.37" fill-opacity="0" stroke="#000000" stroke-width="5"/>
        </g>
      </g>
    </g>
  </g>
</svg>
