<?xml version="1.0" encoding="UTF-8"?>
<!DOCTYPE svg PUBLIC "-//W3C//DTD SVG 1.1//EN" "http://www.w3.org/Graphics/SVG/1.1/DTD/svg11.dtd">
<svg version="1.1" xmlns="http://www.w3.org/2000/svg" xmlns:xlink="http://www.w3.org/1999/xlink" x="0" y="0" width="540" height="640" viewBox="0, 0, 540, 640">
  <g id="Background">
    <rect x="0" y="0" width="540" height="640" fill="#FFFFFF"/>
  </g>
  <g id="Layer_1">
    <g>
      <g>
        <path d="M84.02,587.973 C54.53,587.973 30.623,564.586 30.623,535.737 C30.623,506.887 54.53,483.5 84.02,483.5 C113.511,483.5 137.418,506.887 137.418,535.737 C137.418,564.586 113.511,587.973 84.02,587.973 z" fill="#0000FF"/>
        <path d="M84.02,587.973 C54.53,587.973 30.623,564.586 30.623,535.737 C30.623,506.887 54.53,483.5 84.02,483.5 C113.511,483.5 137.418,506.887 137.418,535.737 C137.418,564.586 113.511,587.973 84.02,587.973 z" fill-opacity="0" stroke="#000000" stroke-width="5"/>
      </g>
      <g>
        <g>
          <path d="M84.02,576.075 C60.748,576.075 41.883,558.015 41.883,535.737 C41.883,513.458 60.748,495.398 84.02,495.398 C107.293,495.398 126.158,513.458 126.158,535.737 C126.158,558.015 107.293,576.075 84.02,576.075 z" fill="#FFFFFF"/>
          <path d="M84.02,576.075 C60.748,576.075 41.883,558.015 41.883,535.737 C41.883,513.458 60.748,495.398 84.02,495.398 C107.293,495.398 126.158,513.458 126.158,535.737 C126.158,558.015 107.293,576.075 84.02,576.075 z" fill-opacity="0" stroke="#000000" stroke-width="5"/>
        </g>
        <text fill="#000000" transform="matrix(1, 0, -0, 1, 82.465, 538.509)">
          <tspan x="-22.165" y="9.854" font-family="HelveticaNeue-Bold" font-size="26">70F</tspan>
        </text>
      </g>
    </g>
    <g>
      <g>
        <path d="M418.603,483.5 L458.103,483.5 C464.73,483.5 470.103,488.873 470.103,495.5 L470.103,602 C470.103,608.628 464.73,614 458.103,614 L418.603,614 C411.975,614 406.603,608.628 406.603,602 L406.603,495.5 C406.603,488.873 411.975,483.5 418.603,483.5 z" fill="#000000"/>
        <path d="M418.603,483.5 L458.103,483.5 C464.73,483.5 470.103,488.873 470.103,495.5 L470.103,602 C470.103,608.628 464.73,614 458.103,614 L418.603,614 C411.975,614 406.603,608.628 406.603,602 L406.603,495.5 C406.603,488.873 411.975,483.5 418.603,483.5 z" fill-opacity="0" stroke="#000000" stroke-width="5"/>
      </g>
      <g>
        <path d="M418.603,498.25 L458.103,498.25 L458.103,599.25 L418.603,599.25 z" fill="#FFFFFF"/>
        <path d="M418.603,498.25 L458.103,498.25 L458.103,599.25 L418.603,599.25 z" fill-opacity="0" stroke="#000000" stroke-width="5"/>
      </g>
    </g>
    <g>
      <g>
        <path d="M438.952,239.503 C422.803,239.503 409.712,220.922 409.712,198.002 C409.712,175.081 422.803,156.5 438.952,156.5 C455.101,156.5 468.192,175.081 468.192,198.002 C468.192,220.922 455.101,239.503 438.952,239.503 z" fill="#FF8080"/>
        <path d="M438.952,239.503 C422.803,239.503 409.712,220.922 409.712,198.002 C409.712,175.081 422.803,156.5 438.952,156.5 C455.101,156.5 468.192,175.081 468.192,198.002 C468.192,220.922 455.101,239.503 438.952,239.503 z" fill-opacity="0" stroke="#000000" stroke-width="5"/>
      </g>
      <path d="M431.209,180.974 L431.454,180.952 L431.983,180.903 L432.829,180.827 L434.02,180.726 L435.232,180.64 L436.413,180.581 L437.229,180.563 L437.72,180.566 L438.181,180.581 L438.587,180.609 L438.929,180.65 L439.191,180.7 L439.242,180.717 L439.115,180.682 L439.33,180.748 L439.476,180.834 L439.495,180.891 L439.486,180.937 L439.466,180.975 L439.443,181.012 L439.422,181.062 L439.399,181.137 L439.37,181.247 L439.327,181.403 L439.265,181.604 L439.178,181.854 L439.063,182.149 L438.921,182.485 L438.636,183.102 L438.183,183.988 L437.679,184.904 L437.128,185.861 L436.556,186.827 L436.129,187.544 L435.842,188.029 L435.559,188.513 L435.282,188.999 L435.009,189.497 L434.738,190.022 L434.462,190.607 L434.183,191.305 L433.994,191.911 L433.994,191.911 C433.971,191.995 433.951,192.078 433.934,192.16 L433.934,192.16 L433.882,192.406 L433.769,193.013 L433.679,193.638 L433.619,194.236 L433.59,194.809 L433.591,195.356 L433.619,195.875 L433.676,196.369 L433.801,197.023 L434.045,197.823 L434.375,198.556 L434.766,199.193 L435.201,199.745 L435.664,200.224 L436.357,200.815 L437.273,201.479 L438.09,202.057 L438.563,202.444 L438.785,202.673 L438.962,202.905 L439.08,203.123 L439.143,203.326 L439.161,203.51 L439.145,203.683 L439.119,203.759 L439.103,203.792 L439.076,203.893 L439.04,204.01 L438.992,204.148 L438.929,204.311 L438.848,204.501 L438.746,204.725 L438.619,204.983 L438.464,205.278 L438.279,205.612 L438.06,205.985 L437.807,206.4 L437.516,206.856 L437.187,207.354 L436.816,207.896 L436.404,208.48 L435.951,209.105 L435.726,209.409 L435.726,209.409 C433.822,211.99 433.736,214.444 435.535,214.888 C437.333,215.333 440.335,213.6 442.24,211.018 C442.24,211.018 442.24,211.018 442.24,211.018 L442.583,210.552 L443.205,209.691 L443.792,208.854 L444.345,208.04 L444.866,207.245 L445.354,206.47 L445.811,205.712 L446.236,204.97 L446.629,204.244 L446.989,203.533 L447.317,202.836 L447.61,202.154 L447.868,201.488 L448.09,200.839 L448.274,200.21 L448.419,199.601 L448.526,199.016 L448.596,198.402 L448.617,197.574 L448.521,196.658 L448.31,195.872 L448.012,195.207 L447.653,194.647 L447.255,194.172 L446.818,193.751 L446.182,193.24 L445.385,192.677 L444.651,192.155 L444.163,191.753 L443.896,191.493 L443.666,191.226 L443.474,190.949 L443.318,190.657 L443.191,190.306 L443.123,190.006 L443.095,189.816 L443.077,189.611 L443.071,189.393 L443.077,189.157 L443.097,188.9 L443.131,188.622 L443.192,188.276 L443.245,188.027 L443.185,188.276 L443.047,188.691 L442.937,188.933 L442.914,188.965 L442.969,188.85 L443.09,188.626 L443.266,188.315 L443.488,187.934 L443.749,187.493 L444.208,186.721 L444.898,185.553 L445.641,184.253 L446.404,182.845 L447.126,181.394 L447.624,180.284 L447.943,179.491 L448.232,178.687 L448.482,177.871 L448.683,177.047 L448.822,176.227 L448.886,175.415 L448.86,174.631 L448.729,173.889 L448.484,173.209 L448.121,172.613 L447.642,172.114 L447.054,171.721 L446.448,171.46 L446.231,171.393 L446.231,171.393 C446.189,171.38 446.147,171.369 446.104,171.359 L446.104,171.359 L445.788,171.288 L445.233,171.196 L444.655,171.134 L444.054,171.097 L443.432,171.079 L442.778,171.078 L441.788,171.102 L440.464,171.169 L439.159,171.263 L437.924,171.368 L437.072,171.445 L436.552,171.493 L436.303,171.515 C436.303,171.515 436.303,171.515 436.303,171.515 C434.092,171.716 431.161,173.996 429.754,176.608 C428.348,179.22 428.999,181.175 431.209,180.974 L431.209,180.974" fill="#000000"/>
      <g>
        <path d="M438.81,238.042 L437.039,238.046 C432.342,238.057 428.53,235.551 428.524,232.45 L428.515,228.238 C428.509,225.137 432.311,222.615 437.007,222.604 L438.779,222.6 C443.475,222.589 447.288,225.095 447.294,228.196 L447.303,232.408 C447.309,235.509 443.507,238.031 438.81,238.042 z" fill="#808080"/>
        <path d="M438.81,238.042 L437.039,238.046 C432.342,238.057 428.53,235.551 428.524,232.45 L428.515,228.238 C428.509,225.137 432.311,222.615 437.007,222.604 L438.779,222.6 C443.475,222.589 447.288,225.095 447.294,228.196 L447.303,232.408 C447.309,235.509 443.507,238.031 438.81,238.042 z" fill-opacity="0" stroke="#000000" stroke-width="5"/>
      </g>
      <g>
        <g>
          <path d="M409.713,183.386 L409.713,212.618" fill="#8080FF"/>
          <path d="M409.713,183.386 L409.713,212.618" fill-opacity="0" stroke="#000000" stroke-width="5"/>
        </g>
        <g>
          <path d="M409.712,212.618 C409.712,215.094 403.13,217.101 395.01,217.101" fill="#8080FF"/>
          <path d="M409.712,212.618 C409.712,215.094 403.13,217.101 395.01,217.101" fill-opacity="0" stroke="#000000" stroke-width="5"/>
        </g>
        <g>
          <path d="M395.01,217.101 C386.891,217.101 380.308,215.094 380.308,212.617" fill="#8080FF"/>
          <path d="M395.01,217.101 C386.891,217.101 380.308,215.094 380.308,212.617" fill-opacity="0" stroke="#000000" stroke-width="5"/>
        </g>
        <g>
          <path d="M380.308,212.618 L380.308,182.418" fill="#8080FF"/>
          <path d="M380.308,212.618 L380.308,182.418" fill-opacity="0" stroke="#000000" stroke-width="5"/>
        </g>
        <g>
          <path d="M395.01,187.87 C386.891,187.87 380.308,185.862 380.308,183.386" fill="#8080FF"/>
          <path d="M395.01,187.87 C386.891,187.87 380.308,185.862 380.308,183.386" fill-opacity="0" stroke="#000000" stroke-width="5"/>
        </g>
        <g>
          <path d="M380.308,183.386 C380.308,180.909 386.891,178.902 395.01,178.902" fill="#8080FF"/>
          <path d="M380.308,183.386 C380.308,180.909 386.891,178.902 395.01,178.902" fill-opacity="0" stroke="#000000" stroke-width="5"/>
        </g>
        <g>
          <path d="M395.01,178.902 C403.13,178.902 409.713,180.909 409.713,183.386" fill="#8080FF"/>
          <path d="M395.01,178.902 C403.13,178.902 409.713,180.909 409.713,183.386" fill-opacity="0" stroke="#000000" stroke-width="5"/>
        </g>
        <g>
          <path d="M409.712,183.386 C409.712,185.862 403.13,187.87 395.01,187.87" fill="#8080FF"/>
          <path d="M409.712,183.386 C409.712,185.862 403.13,187.87 395.01,187.87" fill-opacity="0" stroke="#000000" stroke-width="5"/>
        </g>
      </g>
    </g>
    <g>
      <g>
        <path d="M85.144,232.003 C68.995,232.003 55.904,213.422 55.904,190.502 C55.904,167.581 68.995,149 85.144,149 C101.292,149 114.383,167.581 114.383,190.502 C114.383,213.422 101.292,232.003 85.144,232.003 z" fill="#FF8080"/>
        <path d="M85.144,232.003 C68.995,232.003 55.904,213.422 55.904,190.502 C55.904,167.581 68.995,149 85.144,149 C101.292,149 114.383,167.581 114.383,190.502 C114.383,213.422 101.292,232.003 85.144,232.003 z" fill-opacity="0" stroke="#000000" stroke-width="5"/>
      </g>
      <path d="M77.4,173.474 L77.646,173.452 L78.175,173.403 L79.02,173.327 L80.212,173.226 L81.424,173.14 L82.605,173.081 L83.421,173.063 L83.911,173.066 L84.373,173.081 L84.779,173.109 L85.121,173.15 L85.383,173.2 L85.434,173.216 L85.306,173.182 L85.521,173.248 L85.667,173.334 L85.686,173.391 L85.678,173.437 L85.657,173.475 L85.635,173.512 L85.613,173.562 L85.591,173.636 L85.562,173.747 L85.519,173.902 L85.457,174.105 L85.369,174.354 L85.255,174.649 L85.113,174.985 L84.828,175.602 L84.375,176.488 L83.871,177.403 L83.319,178.361 L82.747,179.327 L82.32,180.044 L82.033,180.529 L81.751,181.012 L81.474,181.499 L81.201,181.996 L80.929,182.522 L80.654,183.107 L80.374,183.806 L80.186,184.409 L80.186,184.409 C80.163,184.494 80.143,184.579 80.125,184.662 L80.125,184.662 L80.073,184.907 L79.961,185.513 L79.87,186.138 L79.811,186.736 L79.782,187.309 L79.782,187.856 L79.811,188.376 L79.868,188.869 L79.993,189.523 L80.237,190.323 L80.566,191.056 L80.958,191.693 L81.393,192.245 L81.856,192.725 L82.549,193.315 L83.465,193.979 L84.282,194.556 L84.754,194.944 L84.976,195.173 L85.154,195.405 L85.272,195.623 L85.334,195.825 L85.353,196.01 L85.337,196.183 L85.31,196.259 L85.294,196.292 L85.268,196.393 L85.232,196.509 L85.184,196.648 L85.121,196.81 L85.04,197.001 L84.938,197.225 L84.81,197.483 L84.656,197.778 L84.47,198.112 L84.252,198.485 L83.998,198.9 L83.707,199.357 L83.378,199.855 L83.008,200.396 L82.596,200.979 L82.142,201.605 L81.918,201.909 L81.918,201.909 C80.013,204.491 79.928,206.944 81.726,207.388 C83.525,207.832 86.527,206.1 88.432,203.518 C88.432,203.518 88.432,203.518 88.432,203.518 L88.775,203.052 L89.397,202.191 L89.984,201.354 L90.537,200.539 L91.058,199.744 L91.546,198.97 L92.002,198.212 L92.427,197.47 L92.82,196.744 L93.181,196.032 L93.508,195.336 L93.802,194.655 L94.06,193.988 L94.282,193.339 L94.466,192.71 L94.611,192.101 L94.717,191.516 L94.788,190.902 L94.809,190.074 L94.713,189.158 L94.502,188.373 L94.204,187.707 L93.844,187.146 L93.446,186.672 L93.009,186.251 L92.374,185.74 L91.577,185.177 L90.843,184.654 L90.355,184.253 L90.088,183.993 L89.858,183.726 L89.666,183.449 L89.51,183.157 L89.383,182.806 L89.315,182.506 L89.286,182.315 L89.269,182.112 L89.262,181.893 L89.268,181.657 L89.288,181.4 L89.323,181.122 L89.384,180.775 L89.437,180.526 L89.376,180.778 L89.239,181.19 L89.129,181.432 L89.106,181.465 L89.16,181.351 L89.281,181.126 L89.457,180.816 L89.679,180.434 L89.94,179.993 L90.4,179.222 L91.089,178.053 L91.833,176.753 L92.595,175.345 L93.318,173.894 L93.816,172.783 L94.135,171.992 L94.424,171.187 L94.674,170.37 L94.875,169.548 L95.014,168.727 L95.078,167.916 L95.051,167.13 L94.921,166.388 L94.676,165.709 L94.313,165.113 L93.833,164.614 L93.246,164.221 L92.64,163.96 L92.423,163.893 L92.423,163.893 C92.381,163.88 92.339,163.869 92.296,163.859 L92.296,163.859 L91.98,163.788 L91.424,163.696 L90.847,163.634 L90.246,163.597 L89.624,163.579 L88.969,163.578 L87.979,163.602 L86.656,163.669 L85.35,163.763 L84.115,163.868 L83.263,163.945 L82.744,163.993 L82.495,164.015 C82.495,164.015 82.495,164.015 82.495,164.015 C80.285,164.216 77.353,166.496 75.946,169.108 C74.539,171.72 75.19,173.675 77.4,173.474 L77.4,173.474" fill="#000000"/>
      <g>
        <path d="M85.002,230.542 L83.23,230.546 C78.534,230.557 74.722,228.051 74.715,224.95 L74.707,220.738 C74.7,217.637 78.503,215.115 83.199,215.104 L84.971,215.1 C89.667,215.089 93.479,217.595 93.486,220.696 L93.494,224.908 C93.501,228.009 89.698,230.531 85.002,230.542 z" fill="#808080"/>
        <path d="M85.002,230.542 L83.23,230.546 C78.534,230.557 74.722,228.051 74.715,224.95 L74.707,220.738 C74.7,217.637 78.503,215.115 83.199,215.104 L84.971,215.1 C89.667,215.089 93.479,217.595 93.486,220.696 L93.494,224.908 C93.501,228.009 89.698,230.531 85.002,230.542 z" fill-opacity="0" stroke="#000000" stroke-width="5"/>
      </g>
      <g>
        <g>
          <path d="M55.904,175.886 L55.904,205.118" fill="#8080FF"/>
          <path d="M55.904,175.886 L55.904,205.118" fill-opacity="0" stroke="#000000" stroke-width="5"/>
        </g>
        <g>
          <path d="M55.904,205.118 C55.904,207.594 49.322,209.601 41.202,209.601" fill="#8080FF"/>
          <path d="M55.904,205.118 C55.904,207.594 49.322,209.601 41.202,209.601" fill-opacity="0" stroke="#000000" stroke-width="5"/>
        </g>
        <g>
          <path d="M41.202,209.601 C33.082,209.601 26.5,207.594 26.5,205.117" fill="#8080FF"/>
          <path d="M41.202,209.601 C33.082,209.601 26.5,207.594 26.5,205.117" fill-opacity="0" stroke="#000000" stroke-width="5"/>
        </g>
        <g>
          <path d="M26.5,205.118 L26.5,174.918" fill="#8080FF"/>
          <path d="M26.5,205.118 L26.5,174.918" fill-opacity="0" stroke="#000000" stroke-width="5"/>
        </g>
        <g>
          <path d="M41.202,180.37 C33.082,180.37 26.5,178.362 26.5,175.886" fill="#8080FF"/>
          <path d="M41.202,180.37 C33.082,180.37 26.5,178.362 26.5,175.886" fill-opacity="0" stroke="#000000" stroke-width="5"/>
        </g>
        <g>
          <path d="M26.5,175.886 C26.5,173.409 33.082,171.402 41.202,171.402" fill="#8080FF"/>
          <path d="M26.5,175.886 C26.5,173.409 33.082,171.402 41.202,171.402" fill-opacity="0" stroke="#000000" stroke-width="5"/>
        </g>
        <g>
          <path d="M41.202,171.402 C49.322,171.402 55.904,173.409 55.904,175.886" fill="#8080FF"/>
          <path d="M41.202,171.402 C49.322,171.402 55.904,173.409 55.904,175.886" fill-opacity="0" stroke="#000000" stroke-width="5"/>
        </g>
        <g>
          <path d="M55.904,175.886 C55.904,178.362 49.322,180.37 41.202,180.37" fill="#8080FF"/>
          <path d="M55.904,175.886 C55.904,178.362 49.322,180.37 41.202,180.37" fill-opacity="0" stroke="#000000" stroke-width="5"/>
        </g>
      </g>
    </g>
    <g>
      <g>
        <path d="M247,269.5 C187.353,269.5 139,239.503 139,202.5 C139,165.497 187.353,135.5 247,135.5 C306.647,135.5 355,165.497 355,202.5 C355,239.503 306.647,269.5 247,269.5 z" fill="#FFF803"/>
        <path d="M247,269.5 C187.353,269.5 139,239.503 139,202.5 C139,165.497 187.353,135.5 247,135.5 C306.647,135.5 355,165.497 355,202.5 C355,239.503 306.647,269.5 247,269.5 z" fill-opacity="0" stroke="#000000" stroke-width="8"/>
      </g>
      <text fill="#000000" transform="matrix(1, 0, -0, 1, 251.233, 198.814)">
        <tspan x="-79.618" y="10.612" font-family="HelveticaNeue-Bold" font-size="28">Trusted Bus</tspan>
      </text>
    </g>
    <g>
      <path d="M112.396,211.193 L114.966,194.857 L104.079,183.288 L119.124,180.905 L125.853,166.043 L132.581,180.905 L147.626,183.288 L136.74,194.857 L139.31,211.193 L125.853,203.48 z" fill="#FF0000"/>
      <path d="M112.396,211.193 L114.966,194.857 L104.079,183.288 L119.124,180.905 L125.853,166.043 L132.581,180.905 L147.626,183.288 L136.74,194.857 L139.31,211.193 L125.853,203.48 z" fill-opacity="0" stroke="#000000" stroke-width="8"/>
    </g>
    <g>
      <path d="M351.347,220.577 L353.917,204.241 L343.03,192.672 L358.076,190.289 L364.804,175.427 L371.533,190.289 L386.578,192.672 L375.691,204.241 L378.261,220.577 L364.804,212.864 z" fill="#FF0000"/>
      <path d="M351.347,220.577 L353.917,204.241 L343.03,192.672 L358.076,190.289 L364.804,175.427 L371.533,190.289 L386.578,192.672 L375.691,204.241 L378.261,220.577 L364.804,212.864 z" fill-opacity="0" stroke="#000000" stroke-width="8"/>
    </g>
    <g>
      <g>
        <path d="M246.406,89.838 C220.426,89.405 199.631,73.083 199.959,53.381 C200.287,33.678 221.614,18.057 247.594,18.49 C273.574,18.922 294.369,35.245 294.041,54.947 C293.713,74.649 272.386,90.27 246.406,89.838 z" fill="#808080"/>
        <path d="M246.406,89.838 C220.426,89.405 199.631,73.083 199.959,53.381 C200.287,33.678 221.614,18.057 247.594,18.49 C273.574,18.922 294.369,35.245 294.041,54.947 C293.713,74.649 272.386,90.27 246.406,89.838 z" fill-opacity="0" stroke="#000000" stroke-width="8"/>
      </g>
      <text fill="#000000" transform="matrix(1, 0, -0, 1, 248.249, 51.515)">
        <tspan x="-33.201" y="8.717" font-family="HelveticaNeue-Bold" font-size="23">Policy</tspan>
      </text>
    </g>
    <g>
      <path d="M199.956,70.965 L141.59,145.851" fill-opacity="0" stroke="#000000" stroke-width="8" stroke-dasharray="24,16"/>
      <path d="M135.911,141.425 L129.787,160.995 L147.269,150.277 z" fill="#000000" fill-opacity="1" stroke="#000000" stroke-width="8" stroke-opacity="1"/>
    </g>
    <g>
      <path d="M294.044,70.965 L351.644,150.908" fill-opacity="0" stroke="#000000" stroke-width="8" stroke-dasharray="24,16"/>
      <path d="M345.802,155.117 L362.867,166.485 L357.485,146.699 z" fill="#000000" fill-opacity="1" stroke="#000000" stroke-width="8" stroke-opacity="1"/>
    </g>
    <g>
      <path d="M78.041,232.003 L90,232.003 L90,483.5 L78.041,483.5 z" fill="#80FF80"/>
      <path d="M78.041,232.003 L90,232.003 L90,483.5 L78.041,483.5 z" fill-opacity="0" stroke="#000000" stroke-width="3.5"/>
    </g>
    <g>
      <g>
        <path d="M263.245,421.182 C219.181,421.182 183.459,396.385 183.459,365.796 C183.459,335.208 219.181,310.411 263.245,310.411 C307.309,310.411 343.03,335.208 343.03,365.796 C343.03,396.385 307.309,421.182 263.245,421.182 z" fill="#0000FD"/>
        <path d="M263.245,421.182 C219.181,421.182 183.459,396.385 183.459,365.796 C183.459,335.208 219.181,310.411 263.245,310.411 C307.309,310.411 343.03,335.208 343.03,365.796 C343.03,396.385 307.309,421.182 263.245,421.182 z" fill-opacity="0" stroke="#000000" stroke-width="9"/>
      </g>
      <text fill="#000000" transform="matrix(1, 0, -0, 1, 261.795, 364.038)">
        <tspan x="-63.266" y="10.612" font-family="HelveticaNeue-Bold" font-size="28">Accounts</tspan>
      </text>
    </g>
    <g>
      <path d="M432.747,239.503 L443.958,239.503 L443.958,480.777 L432.747,480.777 z" fill="#80FF80"/>
      <path d="M432.747,239.503 L443.958,239.503 L443.958,480.777 L432.747,480.777 z" fill-opacity="0" stroke="#000000" stroke-width="3.5"/>
    </g>
    <g>
      <path d="M129.366,485.652 L195.818,416.28" fill-opacity="0" stroke="#000000" stroke-width="3.5" stroke-dasharray="10.5,7"/>
      <path d="M126.116,482.54 L121.065,494.318 L132.615,488.765 M129.366,485.652 L121.065,494.318" fill-opacity="0" stroke="#000000" stroke-width="3.5" stroke-opacity="1"/>
      <path d="M199.067,419.392 L204.118,407.614 L192.568,413.167 z" fill="#000000" fill-opacity="1" stroke="#000000" stroke-width="3.5" stroke-opacity="1"/>
    </g>
    <g>
      <path d="M421.469,468.947 L343.25,405.733" fill-opacity="0" stroke="#000000" stroke-width="3.5" stroke-dasharray="10.5,7"/>
      <path d="M418.641,472.446 L430.803,476.489 L424.298,465.447 M421.469,468.947 L430.803,476.489" fill-opacity="0" stroke="#000000" stroke-width="3.5" stroke-opacity="1"/>
      <path d="M346.078,402.233 L333.916,398.19 L340.421,409.233 z" fill="#000000" fill-opacity="1" stroke="#000000" stroke-width="3.5" stroke-opacity="1"/>
    </g>
    <text transform="matrix(-0, 1, -1, -0, 494.556, 338.913)">
      <tspan x="-111.907" y="7.076" font-family="Helvetica" font-size="33" fill="#000000">secure channel</tspan>
    </text>
    <g>
      <path d="M160.639,489.078 L154.278,478.061 L160.639,467.043 L173.361,467.043 L179.722,478.061 L173.361,489.078 z" fill="#000000"/>
      <path d="M160.639,489.078 L154.278,478.061 L160.639,467.043 L173.361,467.043 L179.722,478.061 L173.361,489.078 z" fill-opacity="0" stroke="#000000" stroke-width="9"/>
    </g>
    <g>
      <path d="M382.64,489.078 L376.279,478.061 L382.64,467.043 L395.362,467.043 L401.723,478.061 L395.362,489.078 z" fill="#000000"/>
      <path d="M382.64,489.078 L376.279,478.061 L382.64,467.043 L395.362,467.043 L401.723,478.061 L395.362,489.078 z" fill-opacity="0" stroke="#000000" stroke-width="9"/>
    </g>
    <g>
      <path d="M50.617,259.929 L44.256,248.912 L50.617,237.895 L63.338,237.895 L69.699,248.912 L63.338,259.929 z" fill="#000000"/>
      <path d="M50.617,259.929 L44.256,248.912 L50.617,237.895 L63.338,237.895 L69.699,248.912 L63.338,259.929 z" fill-opacity="0" stroke="#000000" stroke-width="9"/>
    </g>
    <g>
      <path d="M400.382,269.5 L394.022,258.483 L400.382,247.466 L413.104,247.466 L419.465,258.483 L413.104,269.5 z" fill="#000000"/>
      <path d="M400.382,269.5 L394.022,258.483 L400.382,247.466 L413.104,247.466 L419.465,258.483 L413.104,269.5 z" fill-opacity="0" stroke="#000000" stroke-width="9"/>
    </g>
    <text transform="matrix(1, 0, 0, 1, 271.524, 479.681)">
      <tspan x="-48.614" y="3.735" font-family="Helvetica" font-size="33" fill="#000000">tokens</tspan>
    </text>
  </g>
</svg>
