<?xml version="1.0" encoding="UTF-8"?>
<!DOCTYPE svg PUBLIC "-//W3C//DTD SVG 1.1//EN" "http://www.w3.org/Graphics/SVG/1.1/DTD/svg11.dtd">
<svg version="1.1" xmlns="http://www.w3.org/2000/svg" xmlns:xlink="http://www.w3.org/1999/xlink" x="0" y="0" width="100" height="100" viewBox="0, 0, 100, 100">
  <g id="Layer_3">
    <path d="M43.946,66.4 C43.312,60.413 41.86,54.536 38.052,49.68 C48.655,49.453 59.237,48.911 69.859,48.911 C68.376,53.42 68.409,58.25 68.193,62.94 L67.361,64.061 C59.677,66.289 52.113,68.732 43.946,67.905 L43.946,66.4 z" fill="#FF8080" opacity="0.51"/>
  </g>
  <g id="Layer_1">
    <g>
      <path d="M39.968,34.021 L38.658,35.688 C37.808,36.771 35.575,37.321 33.414,37.853 C30.536,38.562 27.559,39.295 26.675,41.54 L28.386,42.214 C28.922,40.854 31.429,40.236 33.855,39.639 C35.57,39.217 37.326,38.785 38.653,38.027 C38.906,41.399 38.675,46.946 35.73,48.296 L36.496,49.968 C41.97,47.459 40.362,36.58 40.292,36.118 L39.968,34.021 z" fill="#000000"/>
      <path d="M95.865,26.993 C95.719,26.276 95.137,25.009 92.893,24.575 C91.765,24.357 90.688,24.51 89.689,24.89 C89.692,23.095 90.081,21.203 90.365,20.214 L88.597,19.705 C88.452,20.209 87.664,23.103 87.879,25.856 C86.025,27.129 84.587,28.988 83.807,30.132 C78.434,24.692 68.122,21.061 48.68,21.061 C24.975,21.061 14.494,35.917 12.722,48.64 C12.238,52.123 6.522,52.299 5.38,52.299 C5.173,52.299 5.051,52.294 5.04,52.294 L3.936,52.245 L4.856,58.839 L5.149,59.068 C8.744,61.877 15.72,63.76 21.511,64.915 C20.605,72.431 16.847,79.532 16.807,79.606 L16.082,80.96 L22.936,80.96 L23.21,80.65 C26.208,77.26 29.451,69.338 30.544,66.535 C31.197,68.444 30.268,74.605 28.888,79.805 L28.581,80.96 L34.954,80.96 L35.228,80.568 C39.888,73.911 43.078,69.685 44.066,68.393 C46.43,68.721 48.479,68.88 50.314,68.88 C54.162,68.88 56.617,68.177 59.072,67.268 C61.463,70.093 61.4,77.247 61.148,79.955 L61.053,80.96 L66.739,80.96 L67.003,80.491 C69.882,75.374 70.528,70.052 70.64,67.067 C73.111,70.568 74.327,77.082 74.636,80.133 L74.72,80.96 L81.392,80.96 L81.62,80.373 C81.935,79.56 89.346,60.311 89.346,46.561 C89.346,41.132 88.513,35.871 85.075,31.551 C85.603,30.735 86.763,29.093 88.256,27.862 C88.589,28.886 89.155,29.783 90.066,30.383 C91.398,31.262 92.974,31.261 94.279,30.378 C95.477,29.568 96.114,28.208 95.865,26.993 z M22.099,79.121 L19.102,79.121 C20.269,76.655 22.595,71.16 23.325,65.261 C25.477,65.654 27.372,65.937 28.731,66.122 C27.616,68.943 24.718,75.918 22.099,79.121 z M65.658,79.121 L63.051,79.121 C63.184,76.611 63.263,70.093 60.861,66.588 C62.374,66.003 63.955,65.403 65.981,64.865 C66.333,64.772 66.677,64.724 67.005,64.724 C67.652,64.724 68.252,64.915 68.808,65.252 C68.859,66.915 68.818,73.186 65.658,79.121 z M80.128,79.121 L76.368,79.121 C75.912,75.67 73.764,62.886 67.005,62.886 C66.517,62.886 66.014,62.954 65.508,63.088 C63.262,63.685 61.487,64.373 59.92,64.98 C56.949,66.131 54.603,67.041 50.316,67.041 C48.434,67.041 46.302,66.863 43.798,66.497 L43.268,66.419 L42.94,66.842 C42.906,66.886 39.507,71.267 33.999,79.121 L30.964,79.121 C31.922,75.267 33.661,67.037 31.685,64.862 L31.45,64.604 L31.103,64.566 C30.921,64.546 13.09,62.568 6.575,57.838 L6.056,54.124 C8.539,54.026 13.931,53.299 14.545,48.894 C16.215,36.902 26.157,22.9 48.681,22.9 C84.507,22.9 87.507,35.113 87.507,46.561 C87.507,58.656 81.38,75.754 80.128,79.121 z M93.249,28.855 C92.929,29.071 92.077,29.506 91.078,28.848 C90.441,28.428 90.068,27.689 89.871,26.803 C90.718,26.397 91.619,26.2 92.544,26.38 C93.057,26.479 93.937,26.739 94.064,27.361 C94.162,27.841 93.819,28.469 93.249,28.855 z" fill="#000000"/>
      <path d="M22.829,51.01 C22.829,52.026 22.006,52.849 20.99,52.849 C19.974,52.849 19.151,52.026 19.151,51.01 C19.151,49.994 19.974,49.171 20.99,49.171 C22.006,49.171 22.829,49.994 22.829,51.01 z" fill="#000000"/>
    </g>
  </g>
  <g id="Layer_2">
    <path d="M16.698,39.437 C31.62,39.437 43.717,51.985 43.717,67.463" fill-opacity="0" stroke="#000000" stroke-width="1" stroke-dasharray="3,2"/>
    <path d="M68.099,62.799 C68.099,45.08 75.013,30.716 83.542,30.716" fill-opacity="0" stroke="#000000" stroke-width="1" stroke-dasharray="3,2"/>
    <path d="M38.01,49.293 C38.01,49.073 51.966,48.895 69.182,48.895" fill-opacity="0" stroke="#000000" stroke-width="1" stroke-dasharray="3,2"/>
    <path d="M31.97,24.474 C41.505,24.474 49.234,35.407 49.234,48.895" fill-opacity="0" stroke="#000000" stroke-width="1" stroke-dasharray="3,2"/>
    <text transform="matrix(1, 0, 0, 1, 54.137, -0.991)">
      <tspan x="-50.59" y="-2" font-family="Helvetica" font-size="12" fill="#000000">Double-Tap To Edit</tspan>
    </text>
    <text transform="matrix(1, 0, 0, 1, 54.137, -0.991)">
      <tspan x="-50.59" y="-2" font-family="Helvetica" font-size="12" fill="#000000">Double-Tap To Edit</tspan>
    </text>
    <text transform="matrix(1, 0, 0, 1, 54.137, -0.991)">
      <tspan x="-50.59" y="-2" font-family="Helvetica" font-size="12" fill="#000000">Double-Tap To Edit</tspan>
    </text>
    <text transform="matrix(1, 0, 0, 1, 54.137, 10.007)">
      <tspan x="-50.59" y="-12.998" font-family="Helvetica" font-size="12" fill="#000000">Double-Tap To Edit</tspan>
    </text>
    <text transform="matrix(1, 0, 0, 1, 54.137, -0.991)">
      <tspan x="-50.59" y="-2" font-family="Helvetica" font-size="12" fill="#000000">Double-Tap To Edit</tspan>
    </text>
    <text transform="matrix(1, 0, 0, 1, 54.137, -0.991)">
      <tspan x="-50.59" y="-2" font-family="Helvetica" font-size="12" fill="#000000">Double-Tap To Edit</tspan>
    </text>
    <text transform="matrix(1, 0, 0, 1, 54.137, -0.991)">
      <tspan x="-50.59" y="-2" font-family="Helvetica" font-size="12" fill="#000000">Double-Tap To Edit</tspan>
    </text>
    <text transform="matrix(1, 0, 0, 1, 54.137, -0.991)">
      <tspan x="-50.59" y="-2" font-family="Helvetica" font-size="12" fill="#000000">Double-Tap To Edit</tspan>
    </text>
    <text transform="matrix(1, -0.003, 0.003, 1, 55, 57)">
      <tspan x="-9.004" y="1.025" font-family="Helvetica" font-size="4" fill="#000000">ACTORS</tspan>
    </text>
    <text transform="matrix(1, 0, 0, 1, 25, 57)">
      <tspan x="-15" y="1" font-family="Helvetica" font-size="4" fill="#000000">COMPONENTS</tspan>
    </text>
    <text transform="matrix(-0, 1, -1, -0, 78.5, 52.937)">
      <tspan x="-13.5" y="-1.5" font-family="Helvetica" font-size="4" fill="#000000">PERSISTENT</tspan>
      <tspan x="-13.5" y="3.5" font-family="Helvetica" font-size="4" fill="#000000">SESSIONS</tspan>
    </text>
    <text transform="matrix(1, 0, 0, 1, 33.5, 32.5)">
      <tspan x="-9.5" y="1.5" font-family="Helvetica" font-size="4" fill="#000000">SHARING</tspan>
    </text>
    <text transform="matrix(1, 0, 0, 1, 60.575, 36.217)">
      <tspan x="-8.575" y="-6.217" font-family="Helvetica" font-size="4" fill="#000000">LINKED</tspan>
      <tspan x="-8.575" y="-1.217" font-family="Helvetica" font-size="4" fill="#000000">LOCAL</tspan>
      <tspan x="-8.575" y="3.783" font-family="Helvetica" font-size="4" fill="#000000">NAME</tspan>
      <tspan x="-8.575" y="8.783" font-family="Helvetica" font-size="4" fill="#000000">SPACES</tspan>
    </text>
  </g>
</svg>
