<?xml version="1.0" encoding="UTF-8"?>
<!DOCTYPE svg PUBLIC "-//W3C//DTD SVG 1.1//EN" "http://www.w3.org/Graphics/SVG/1.1/DTD/svg11.dtd">
<svg version="1.1" xmlns="http://www.w3.org/2000/svg" xmlns:xlink="http://www.w3.org/1999/xlink" x="0" y="0" width="880" height="530" viewBox="0, 0, 880, 530">
  <g id="Layer_1">
    <g>
      <path d="M84.5,120.5 L84.5,480.5" fill-opacity="0" stroke="#000000" stroke-width="5.5"/>
      <g>
        <path d="M84.5,108.5 C57.99,108.5 36.5,95.069 36.5,78.5 C36.5,61.931 57.99,48.5 84.5,48.5 C111.01,48.5 132.5,61.931 132.5,78.5 C132.5,95.069 111.01,108.5 84.5,108.5 z" fill-opacity="0" stroke="#000000" stroke-width="5.5"/>
        <text fill="#000000" transform="matrix(1, 0, -0, 1, 86.96, 72.77)">
          <tspan x="-38.864" y="10.612" font-family="HelveticaNeue-Bold" font-size="28">Client</tspan>
        </text>
      </g>
      <g>
        <g>
          <path d="M347.144,120.002 C330.995,120.002 317.904,101.421 317.904,78.5 C317.904,55.579 330.995,36.998 347.144,36.998 C363.292,36.998 376.383,55.579 376.383,78.5 C376.383,101.421 363.292,120.002 347.144,120.002 z" fill="#FF8080"/>
          <path d="M347.144,120.002 C330.995,120.002 317.904,101.421 317.904,78.5 C317.904,55.579 330.995,36.998 347.144,36.998 C363.292,36.998 376.383,55.579 376.383,78.5 C376.383,101.421 363.292,120.002 347.144,120.002 z" fill-opacity="0" stroke="#000000" stroke-width="5"/>
        </g>
        <path d="M339.4,61.473 L339.647,61.45 L340.174,61.402 L341.02,61.325 L342.211,61.224 L343.424,61.138 L344.605,61.079 L345.42,61.062 L345.911,61.064 L346.373,61.079 L346.78,61.108 L347.12,61.148 L347.383,61.198 L347.433,61.215 L347.306,61.18 L347.522,61.246 L347.667,61.332 L347.686,61.389 L347.678,61.435 L347.657,61.473 L347.635,61.51 L347.613,61.56 L347.591,61.634 L347.562,61.746 L347.519,61.902 L347.457,62.103 L347.369,62.352 L347.255,62.647 L347.113,62.984 L346.827,63.601 L346.375,64.486 L345.871,65.402 L345.319,66.359 L344.747,67.326 L344.32,68.042 L344.033,68.528 L343.751,69.011 L343.475,69.496 L343.201,69.996 L342.929,70.521 L342.654,71.106 L342.375,71.803 L342.186,72.409 L342.186,72.409 C342.163,72.493 342.143,72.577 342.126,72.659 L342.126,72.659 L342.073,72.905 L341.961,73.511 L341.87,74.136 L341.811,74.734 L341.782,75.308 L341.782,75.855 L341.811,76.374 L341.868,76.867 L341.993,77.522 L342.237,78.322 L342.566,79.054 L342.958,79.691 L343.393,80.244 L343.856,80.723 L344.549,81.314 L345.465,81.977 L346.282,82.555 L346.754,82.943 L346.976,83.171 L347.154,83.403 L347.272,83.622 L347.335,83.824 L347.353,84.008 L347.337,84.181 L347.31,84.257 L347.294,84.289 L347.268,84.391 L347.232,84.508 L347.184,84.646 L347.121,84.809 L347.04,85 L346.937,85.224 L346.811,85.481 L346.656,85.776 L346.47,86.11 L346.252,86.484 L345.998,86.898 L345.707,87.356 L345.378,87.853 L345.008,88.394 L344.596,88.977 L344.142,89.604 L343.918,89.907 L343.918,89.907 C342.013,92.489 341.928,94.942 343.726,95.387 C345.525,95.831 348.527,94.098 350.432,91.516 C350.432,91.516 350.432,91.516 350.432,91.516 L350.775,91.051 L351.396,90.189 L351.983,89.353 L352.537,88.538 L353.058,87.742 L353.546,86.968 L354.003,86.21 L354.428,85.468 L354.82,84.743 L355.181,84.031 L355.508,83.334 L355.802,82.653 L356.06,81.986 L356.282,81.338 L356.466,80.708 L356.611,80.099 L356.717,79.516 L356.788,78.9 L356.809,78.073 L356.713,77.157 L356.502,76.37 L356.204,75.706 L355.845,75.145 L355.446,74.671 L355.009,74.25 L354.374,73.738 L353.577,73.175 L352.843,72.653 L352.355,72.251 L352.088,71.991 L351.858,71.724 L351.666,71.448 L351.51,71.155 L351.383,70.804 L351.315,70.504 L351.286,70.314 L351.269,70.11 L351.262,69.891 L351.268,69.655 L351.288,69.399 L351.323,69.121 L351.384,68.775 L351.437,68.525 L351.377,68.775 L351.239,69.19 L351.129,69.431 L351.106,69.464 L351.161,69.348 L351.281,69.125 L351.457,68.814 L351.679,68.433 L351.94,67.992 L352.4,67.22 L353.089,66.051 L353.833,64.751 L354.595,63.343 L355.318,61.892 L355.816,60.781 L356.135,59.99 L356.424,59.185 L356.674,58.369 L356.875,57.545 L357.014,56.724 L357.078,55.915 L357.051,55.129 L356.921,54.387 L356.676,53.708 L356.313,53.112 L355.834,52.613 L355.245,52.22 L354.64,51.958 L354.423,51.892 L354.423,51.892 C354.382,51.879 354.339,51.867 354.296,51.857 L354.296,51.857 L353.98,51.786 L353.425,51.694 L352.846,51.633 L352.246,51.595 L351.624,51.577 L350.97,51.576 L349.979,51.601 L348.656,51.668 L347.351,51.761 L346.116,51.866 L345.264,51.943 L344.743,51.991 L344.495,52.014 C344.495,52.014 344.495,52.014 344.495,52.014 C342.285,52.214 339.353,54.494 337.946,57.106 C336.539,59.718 337.191,61.673 339.4,61.473 L339.4,61.473" fill="#000000"/>
        <g>
          <path d="M347.002,118.54 L345.23,118.544 C340.534,118.555 336.722,116.049 336.715,112.948 L336.707,108.737 C336.701,105.636 340.503,103.113 345.199,103.102 L346.971,103.098 C351.667,103.088 355.479,105.593 355.486,108.694 L355.494,112.906 C355.501,116.007 351.698,118.53 347.002,118.54 z" fill="#808080"/>
          <path d="M347.002,118.54 L345.23,118.544 C340.534,118.555 336.722,116.049 336.715,112.948 L336.707,108.737 C336.701,105.636 340.503,103.113 345.199,103.102 L346.971,103.098 C351.667,103.088 355.479,105.593 355.486,108.694 L355.494,112.906 C355.501,116.007 351.698,118.53 347.002,118.54 z" fill-opacity="0" stroke="#000000" stroke-width="5"/>
        </g>
        <g>
          <g>
            <path d="M317.904,63.884 L317.904,93.116" fill="#8080FF"/>
            <path d="M317.904,63.884 L317.904,93.116" fill-opacity="0" stroke="#000000" stroke-width="5"/>
          </g>
          <g>
            <path d="M317.904,93.116 C317.904,95.592 311.322,97.6 303.202,97.6" fill="#8080FF"/>
            <path d="M317.904,93.116 C317.904,95.592 311.322,97.6 303.202,97.6" fill-opacity="0" stroke="#000000" stroke-width="5"/>
          </g>
          <g>
            <path d="M303.202,97.6 C295.082,97.6 288.5,95.592 288.5,93.116" fill="#8080FF"/>
            <path d="M303.202,97.6 C295.082,97.6 288.5,95.592 288.5,93.116" fill-opacity="0" stroke="#000000" stroke-width="5"/>
          </g>
          <g>
            <path d="M288.5,93.116 L288.5,62.917" fill="#8080FF"/>
            <path d="M288.5,93.116 L288.5,62.917" fill-opacity="0" stroke="#000000" stroke-width="5"/>
          </g>
          <g>
            <path d="M303.202,68.368 C295.082,68.368 288.5,66.36 288.5,63.884" fill="#8080FF"/>
            <path d="M303.202,68.368 C295.082,68.368 288.5,66.36 288.5,63.884" fill-opacity="0" stroke="#000000" stroke-width="5"/>
          </g>
          <g>
            <path d="M288.5,63.884 C288.5,61.408 295.082,59.4 303.202,59.4" fill="#8080FF"/>
            <path d="M288.5,63.884 C288.5,61.408 295.082,59.4 303.202,59.4" fill-opacity="0" stroke="#000000" stroke-width="5"/>
          </g>
          <g>
            <path d="M303.202,59.4 C311.322,59.4 317.904,61.408 317.904,63.884" fill="#8080FF"/>
            <path d="M303.202,59.4 C311.322,59.4 317.904,61.408 317.904,63.884" fill-opacity="0" stroke="#000000" stroke-width="5"/>
          </g>
          <g>
            <path d="M317.904,63.884 C317.904,66.36 311.322,68.368 303.202,68.368" fill="#8080FF"/>
            <path d="M317.904,63.884 C317.904,66.36 311.322,68.368 303.202,68.368" fill-opacity="0" stroke="#000000" stroke-width="5"/>
          </g>
        </g>
      </g>
      <path d="M348.5,132.5 L348.5,480.5" fill-opacity="0" stroke="#000000" stroke-width="5.5"/>
      <g>
        <g>
          <path d="M84.5,144.5 L329.478,166.771" fill-opacity="0" stroke="#000000" stroke-width="5.5"/>
          <path d="M328.962,172.447 L344.616,168.147 L329.994,161.094 z" fill="#000000" fill-opacity="1" stroke="#000000" stroke-width="5.5" stroke-opacity="1"/>
        </g>
        <text fill="#000000" transform="matrix(1, 0, -0, 1, 223.14, 133.456)">
          <tspan x="-38.36" y="10.612" font-family="HelveticaNeue-Bold" font-size="28">Begin</tspan>
        </text>
      </g>
      <g>
        <g>
          <path d="M348.5,204.5 L103.522,226.771" fill-opacity="0" stroke="#000000" stroke-width="5.5"/>
          <path d="M103.006,221.094 L88.384,228.147 L104.038,232.447 z" fill="#000000" fill-opacity="1" stroke="#000000" stroke-width="5.5" stroke-opacity="1"/>
        </g>
        <text fill="#000000" transform="matrix(1, 0, -0, 1, 209.291, 198.201)">
          <tspan x="-18.928" y="10.612" font-family="HelveticaNeue-Bold" font-size="28">Ok</tspan>
        </text>
      </g>
      <g>
        <g>
          <path d="M84.5,288.5 L329.478,310.771" fill-opacity="0" stroke="#000000" stroke-width="5.5"/>
          <path d="M328.962,316.447 L344.616,312.147 L329.994,305.094 z" fill="#000000" fill-opacity="1" stroke="#000000" stroke-width="5.5" stroke-opacity="1"/>
        </g>
        <text fill="#000000" transform="matrix(1, 0, -0, 1, 223.145, 277.403)">
          <tspan x="-108.162" y="9.475" font-family="HelveticaNeue-Bold" font-size="25">Toaster+memento</tspan>
        </text>
      </g>
      <g>
        <g>
          <path d="M84.5,348.5 L329.478,370.771" fill-opacity="0" stroke="#000000" stroke-width="5.5"/>
          <path d="M328.962,376.447 L344.616,372.147 L329.994,365.094 z" fill="#000000" fill-opacity="1" stroke="#000000" stroke-width="5.5" stroke-opacity="1"/>
        </g>
        <text fill="#000000" transform="matrix(1, 0, -0, 1, 223.038, 338.577)">
          <tspan x="-25.928" y="10.612" font-family="HelveticaNeue-Bold" font-size="28">End</tspan>
        </text>
      </g>
      <g>
        <g>
          <path d="M84.5,396.5 L329.478,418.771" fill-opacity="0" stroke="#000000" stroke-width="5.5"/>
          <path d="M328.962,424.447 L344.616,420.147 L329.994,413.094 z" fill="#000000" fill-opacity="1" stroke="#000000" stroke-width="5.5" stroke-opacity="1"/>
        </g>
        <text fill="#000000" transform="matrix(1, 0, -0, 1, 223.14, 385.456)">
          <tspan x="-38.36" y="10.612" font-family="HelveticaNeue-Bold" font-size="28">Begin</tspan>
        </text>
      </g>
      <g>
        <g>
          <path d="M348.5,444.5 L103.58,455.633" fill-opacity="0" stroke="#000000" stroke-width="5.5"/>
          <path d="M103.321,449.939 L88.396,456.323 L103.839,461.327 z" fill="#000000" fill-opacity="1" stroke="#000000" stroke-width="5.5" stroke-opacity="1"/>
        </g>
        <text fill="#000000" transform="matrix(1, 0, -0, 1, 210.155, 432.717)">
          <tspan x="-18.928" y="10.612" font-family="HelveticaNeue-Bold" font-size="28">Ok</tspan>
        </text>
      </g>
    </g>
    <path d="M540.5,120.5 L540.5,324.5" fill-opacity="0" stroke="#000000" stroke-width="5.5"/>
    <g>
      <path d="M540.5,108.5 C513.99,108.5 492.5,95.069 492.5,78.5 C492.5,61.931 513.99,48.5 540.5,48.5 C567.01,48.5 588.5,61.931 588.5,78.5 C588.5,95.069 567.01,108.5 540.5,108.5 z" fill-opacity="0" stroke="#000000" stroke-width="5.5"/>
      <text fill="#000000" transform="matrix(1, 0, -0, 1, 542.96, 72.77)">
        <tspan x="-38.864" y="10.612" font-family="HelveticaNeue-Bold" font-size="28">Client</tspan>
      </text>
    </g>
    <g>
      <g>
        <path d="M803.144,120.002 C786.995,120.002 773.904,101.421 773.904,78.5 C773.904,55.579 786.995,36.998 803.144,36.998 C819.292,36.998 832.383,55.579 832.383,78.5 C832.383,101.421 819.292,120.002 803.144,120.002 z" fill="#FF8080"/>
        <path d="M803.144,120.002 C786.995,120.002 773.904,101.421 773.904,78.5 C773.904,55.579 786.995,36.998 803.144,36.998 C819.292,36.998 832.383,55.579 832.383,78.5 C832.383,101.421 819.292,120.002 803.144,120.002 z" fill-opacity="0" stroke="#000000" stroke-width="5"/>
      </g>
      <path d="M795.4,61.473 L795.647,61.45 L796.174,61.402 L797.02,61.325 L798.211,61.224 L799.425,61.138 L800.605,61.079 L801.42,61.062 L801.911,61.064 L802.372,61.079 L802.78,61.108 L803.12,61.148 L803.383,61.198 L803.433,61.215 L803.306,61.18 L803.521,61.246 L803.667,61.332 L803.686,61.389 L803.678,61.435 L803.657,61.473 L803.634,61.51 L803.613,61.561 L803.591,61.634 L803.562,61.746 L803.519,61.9 L803.456,62.103 L803.369,62.352 L803.255,62.648 L803.113,62.982 L802.828,63.601 L802.375,64.486 L801.871,65.402 L801.32,66.359 L800.747,67.326 L800.32,68.042 L800.033,68.528 L799.751,69.012 L799.474,69.497 L799.202,69.992 L798.929,70.521 L798.654,71.106 L798.375,71.803 L798.185,72.411 L798.185,72.411 C798.163,72.495 798.143,72.578 798.125,72.66 L798.125,72.66 L798.073,72.905 L797.961,73.511 L797.87,74.135 L797.811,74.734 L797.782,75.308 L797.782,75.854 L797.811,76.374 L797.868,76.867 L797.993,77.522 L798.237,78.321 L798.566,79.054 L798.958,79.691 L799.393,80.244 L799.856,80.723 L800.549,81.314 L801.465,81.977 L802.282,82.555 L802.754,82.943 L802.976,83.171 L803.154,83.403 L803.272,83.622 L803.335,83.824 L803.353,84.009 L803.337,84.181 L803.31,84.257 L803.294,84.29 L803.268,84.391 L803.232,84.508 L803.184,84.646 L803.121,84.808 L803.04,85 L802.938,85.222 L802.81,85.482 L802.656,85.776 L802.47,86.11 L802.252,86.484 L801.998,86.899 L801.707,87.355 L801.378,87.852 L801.008,88.394 L800.596,88.977 L800.142,89.604 L799.918,89.906 L799.918,89.906 C798.014,92.488 797.927,94.942 799.726,95.386 C801.524,95.831 804.526,94.099 806.431,91.517 C806.431,91.517 806.431,91.517 806.431,91.517 L806.775,91.051 L807.396,90.189 L807.984,89.352 L808.536,88.538 L809.058,87.742 L809.546,86.967 L810.002,86.21 L810.427,85.468 L810.82,84.743 L811.181,84.031 L811.508,83.335 L811.802,82.653 L812.06,81.987 L812.282,81.338 L812.466,80.708 L812.611,80.099 L812.717,79.515 L812.788,78.901 L812.809,78.073 L812.713,77.156 L812.502,76.37 L812.204,75.706 L811.845,75.145 L811.446,74.671 L811.009,74.25 L810.374,73.738 L809.577,73.175 L808.843,72.653 L808.355,72.252 L808.088,71.991 L807.858,71.724 L807.666,71.448 L807.51,71.155 L807.383,70.804 L807.315,70.504 L807.286,70.314 L807.269,70.111 L807.263,69.891 L807.268,69.655 L807.288,69.399 L807.323,69.12 L807.384,68.774 L807.437,68.524 L807.377,68.773 L807.239,69.19 L807.129,69.431 L807.106,69.463 L807.159,69.351 L807.282,69.124 L807.458,68.813 L807.68,68.432 L807.94,67.992 L808.4,67.22 L809.089,66.052 L809.833,64.751 L810.595,63.344 L811.318,61.892 L811.816,60.783 L812.135,59.99 L812.424,59.185 L812.674,58.368 L812.875,57.547 L813.014,56.725 L813.078,55.915 L813.051,55.128 L812.921,54.387 L812.677,53.708 L812.313,53.111 L811.834,52.612 L811.246,52.22 L810.64,51.958 L810.423,51.892 L810.423,51.892 C810.381,51.879 810.339,51.867 810.296,51.857 L810.296,51.857 L809.98,51.786 L809.425,51.694 L808.846,51.633 L808.246,51.595 L807.624,51.577 L806.97,51.576 L805.979,51.601 L804.656,51.668 L803.351,51.761 L802.116,51.866 L801.264,51.943 L800.743,51.991 L800.495,52.014 C800.495,52.014 800.495,52.014 800.495,52.014 C798.285,52.214 795.353,54.494 793.946,57.106 C792.539,59.718 793.19,61.673 795.4,61.473 L795.4,61.473" fill="#000000"/>
      <g>
        <path d="M803.002,118.54 L801.23,118.544 C796.534,118.555 792.722,116.049 792.715,112.948 L792.707,108.737 C792.701,105.636 796.503,103.113 801.199,103.102 L802.971,103.098 C807.667,103.088 811.479,105.593 811.486,108.694 L811.494,112.906 C811.501,116.007 807.698,118.53 803.002,118.54 z" fill="#808080"/>
        <path d="M803.002,118.54 L801.23,118.544 C796.534,118.555 792.722,116.049 792.715,112.948 L792.707,108.737 C792.701,105.636 796.503,103.113 801.199,103.102 L802.971,103.098 C807.667,103.088 811.479,105.593 811.486,108.694 L811.494,112.906 C811.501,116.007 807.698,118.53 803.002,118.54 z" fill-opacity="0" stroke="#000000" stroke-width="5"/>
      </g>
      <g>
        <g>
          <path d="M773.904,63.884 L773.904,93.116" fill="#8080FF"/>
          <path d="M773.904,63.884 L773.904,93.116" fill-opacity="0" stroke="#000000" stroke-width="5"/>
        </g>
        <g>
          <path d="M773.904,93.116 C773.904,95.592 767.322,97.6 759.202,97.6" fill="#8080FF"/>
          <path d="M773.904,93.116 C773.904,95.592 767.322,97.6 759.202,97.6" fill-opacity="0" stroke="#000000" stroke-width="5"/>
        </g>
        <g>
          <path d="M759.202,97.6 C751.082,97.6 744.5,95.592 744.5,93.116" fill="#8080FF"/>
          <path d="M759.202,97.6 C751.082,97.6 744.5,95.592 744.5,93.116" fill-opacity="0" stroke="#000000" stroke-width="5"/>
        </g>
        <g>
          <path d="M744.5,93.116 L744.5,62.917" fill="#8080FF"/>
          <path d="M744.5,93.116 L744.5,62.917" fill-opacity="0" stroke="#000000" stroke-width="5"/>
        </g>
        <g>
          <path d="M759.202,68.368 C751.082,68.368 744.5,66.36 744.5,63.884" fill="#8080FF"/>
          <path d="M759.202,68.368 C751.082,68.368 744.5,66.36 744.5,63.884" fill-opacity="0" stroke="#000000" stroke-width="5"/>
        </g>
        <g>
          <path d="M744.5,63.884 C744.5,61.408 751.082,59.4 759.202,59.4" fill="#8080FF"/>
          <path d="M744.5,63.884 C744.5,61.408 751.082,59.4 759.202,59.4" fill-opacity="0" stroke="#000000" stroke-width="5"/>
        </g>
        <g>
          <path d="M759.202,59.4 C767.322,59.4 773.904,61.408 773.904,63.884" fill="#8080FF"/>
          <path d="M759.202,59.4 C767.322,59.4 773.904,61.408 773.904,63.884" fill-opacity="0" stroke="#000000" stroke-width="5"/>
        </g>
        <g>
          <path d="M773.904,63.884 C773.904,66.36 767.322,68.368 759.202,68.368" fill="#8080FF"/>
          <path d="M773.904,63.884 C773.904,66.36 767.322,68.368 759.202,68.368" fill-opacity="0" stroke="#000000" stroke-width="5"/>
        </g>
      </g>
    </g>
    <path d="M804.5,132.5 L804.5,480.5" fill-opacity="0" stroke="#000000" stroke-width="5.5"/>
    <g>
      <g>
        <path d="M540.5,144.5 L785.478,166.771" fill-opacity="0" stroke="#000000" stroke-width="5.5"/>
        <path d="M784.962,172.447 L800.616,168.147 L785.995,161.094 z" fill="#000000" fill-opacity="1" stroke="#000000" stroke-width="5.5" stroke-opacity="1"/>
      </g>
      <text fill="#000000" transform="matrix(1, 0, -0, 1, 679.14, 133.456)">
        <tspan x="-38.36" y="10.612" font-family="HelveticaNeue-Bold" font-size="28">Begin</tspan>
      </text>
    </g>
    <g>
      <g>
        <path d="M804.5,204.5 L559.522,226.771" fill-opacity="0" stroke="#000000" stroke-width="5.5"/>
        <path d="M559.005,221.094 L544.384,228.147 L560.038,232.447 z" fill="#000000" fill-opacity="1" stroke="#000000" stroke-width="5.5" stroke-opacity="1"/>
      </g>
      <text fill="#000000" transform="matrix(1, 0, -0, 1, 665.291, 198.201)">
        <tspan x="-18.928" y="10.612" font-family="HelveticaNeue-Bold" font-size="28">Ok</tspan>
      </text>
    </g>
    <g>
      <g>
        <path d="M540.5,288.5 L785.478,310.771" fill-opacity="0" stroke="#000000" stroke-width="5.5"/>
        <path d="M784.962,316.447 L800.616,312.147 L785.995,305.094 z" fill="#000000" fill-opacity="1" stroke="#000000" stroke-width="5.5" stroke-opacity="1"/>
      </g>
      <text fill="#000000" transform="matrix(1, 0, -0, 1, 679.145, 277.404)">
        <tspan x="-108.162" y="9.475" font-family="HelveticaNeue-Bold" font-size="25">Toaster+memento</tspan>
      </text>
    </g>
    <g>
      <g>
        <path d="M540.5,396.5 L785.478,418.771" fill-opacity="0" stroke="#000000" stroke-width="5.5"/>
        <path d="M784.962,424.447 L800.616,420.147 L785.995,413.094 z" fill="#000000" fill-opacity="1" stroke="#000000" stroke-width="5.5" stroke-opacity="1"/>
      </g>
      <text fill="#000000" transform="matrix(1, 0, -0, 1, 679.14, 385.456)">
        <tspan x="-38.36" y="10.612" font-family="HelveticaNeue-Bold" font-size="28">Begin</tspan>
      </text>
    </g>
    <g>
      <g>
        <path d="M804.5,444.5 L559.58,455.633" fill-opacity="0" stroke="#000000" stroke-width="5.5"/>
        <path d="M559.321,449.939 L544.396,456.323 L559.839,461.327 z" fill="#000000" fill-opacity="1" stroke="#000000" stroke-width="5.5" stroke-opacity="1"/>
      </g>
      <text fill="#000000" transform="matrix(1, 0, -0, 1, 666.063, 430.708)">
        <tspan x="-63.224" y="10.612" font-family="HelveticaNeue-Bold" font-size="28">memento</tspan>
      </text>
    </g>
    <path d="M516.5,300.5 L564.5,336.5" fill-opacity="0" stroke="#FF0000" stroke-width="5.5"/>
    <path d="M516.5,336.5 L564.5,300.5" fill-opacity="0" stroke="#FF0000" stroke-width="5.5"/>
    <path d="M540.5,372.5 L540.5,480.5" fill-opacity="0" stroke="#000000" stroke-width="5.5"/>
  </g>
</svg>
