<?xml version="1.0" encoding="UTF-8"?>
<!DOCTYPE svg PUBLIC "-//W3C//DTD SVG 1.1//EN" "http://www.w3.org/Graphics/SVG/1.1/DTD/svg11.dtd">
<svg version="1.1" xmlns="http://www.w3.org/2000/svg" xmlns:xlink="http://www.w3.org/1999/xlink" x="0" y="0" width="510" height="170" viewBox="0, 0, 510, 170">
  <g id="Background">
    <rect x="0" y="0" width="510" height="170" fill="#FFFFFF"/>
  </g>
  <g id="Layer_1">
    <g>
      <g>
        <path d="M279.823,112.212 C263.675,112.212 250.584,93.631 250.584,70.711 C250.584,47.79 263.675,29.209 279.823,29.209 C295.972,29.209 309.063,47.79 309.063,70.711 C309.063,93.631 295.972,112.212 279.823,112.212 z" fill="#FF8080"/>
        <path d="M279.823,112.212 C263.675,112.212 250.584,93.631 250.584,70.711 C250.584,47.79 263.675,29.209 279.823,29.209 C295.972,29.209 309.063,47.79 309.063,70.711 C309.063,93.631 295.972,112.212 279.823,112.212 z" fill-opacity="0" stroke="#000000" stroke-width="5"/>
      </g>
      <path d="M272.08,53.683 L272.327,53.661 L272.854,53.613 L273.7,53.536 L274.891,53.435 L276.104,53.349 L277.285,53.29 L278.1,53.272 L278.591,53.275 L279.052,53.29 L279.459,53.318 L279.8,53.359 L280.063,53.409 L280.113,53.425 L279.986,53.391 L280.201,53.457 L280.347,53.543 L280.366,53.6 L280.357,53.646 L280.337,53.684 L280.314,53.721 L280.293,53.771 L280.271,53.845 L280.242,53.957 L280.199,54.112 L280.136,54.313 L280.049,54.563 L279.935,54.858 L279.792,55.194 L279.507,55.812 L279.055,56.697 L278.551,57.613 L277.999,58.569 L277.427,59.537 L277,60.253 L276.713,60.739 L276.431,61.222 L276.154,61.707 L275.881,62.206 L275.609,62.731 L275.334,63.317 L275.055,64.014 L274.865,64.62 L274.865,64.62 C274.843,64.704 274.823,64.787 274.805,64.869 L274.805,64.869 L274.753,65.115 L274.641,65.722 L274.55,66.347 L274.491,66.945 L274.461,67.519 L274.462,68.065 L274.491,68.584 L274.547,69.078 L274.673,69.733 L274.917,70.532 L275.246,71.264 L275.637,71.902 L276.073,72.455 L276.536,72.934 L277.229,73.524 L278.145,74.188 L278.962,74.766 L279.434,75.153 L279.656,75.382 L279.834,75.614 L279.951,75.832 L280.014,76.035 L280.032,76.219 L280.017,76.392 L279.99,76.468 L279.974,76.5 L279.947,76.602 L279.911,76.719 L279.863,76.857 L279.8,77.02 L279.72,77.21 L279.617,77.434 L279.49,77.692 L279.335,77.987 L279.15,78.321 L278.931,78.695 L278.678,79.109 L278.387,79.566 L278.058,80.063 L277.688,80.604 L277.276,81.188 L276.822,81.814 L276.598,82.118 L276.598,82.118 C274.693,84.7 274.607,87.153 276.406,87.597 C278.205,88.042 281.207,86.309 283.112,83.727 C283.112,83.727 283.112,83.727 283.112,83.727 L283.454,83.261 L284.076,82.4 L284.663,81.563 L285.216,80.749 L285.738,79.953 L286.226,79.179 L286.682,78.42 L287.107,77.679 L287.5,76.953 L287.86,76.242 L288.188,75.545 L288.481,74.864 L288.74,74.197 L288.961,73.548 L289.145,72.919 L289.291,72.31 L289.397,71.726 L289.468,71.111 L289.489,70.283 L289.393,69.367 L289.182,68.581 L288.884,67.916 L288.524,67.356 L288.126,66.881 L287.689,66.46 L287.054,65.949 L286.257,65.386 L285.523,64.864 L285.035,64.462 L284.767,64.201 L284.538,63.935 L284.346,63.658 L284.19,63.366 L284.062,63.015 L283.994,62.715 L283.966,62.525 L283.949,62.32 L283.942,62.101 L283.948,61.866 L283.968,61.609 L284.003,61.331 L284.064,60.985 L284.117,60.736 L284.057,60.986 L283.918,61.401 L283.809,61.641 L283.785,61.675 L283.841,61.559 L283.961,61.336 L284.137,61.025 L284.36,60.643 L284.62,60.202 L285.08,59.43 L285.769,58.263 L286.513,56.962 L287.275,55.554 L287.998,54.103 L288.496,52.992 L288.815,52.201 L289.104,51.396 L289.354,50.58 L289.555,49.756 L289.694,48.935 L289.758,48.125 L289.731,47.34 L289.601,46.598 L289.356,45.919 L288.993,45.322 L288.513,44.823 L287.925,44.43 L287.319,44.169 L287.103,44.102 L287.103,44.102 C287.061,44.09 287.019,44.078 286.976,44.068 L286.976,44.068 L286.66,43.997 L286.105,43.905 L285.526,43.843 L284.925,43.806 L284.304,43.788 L283.65,43.787 L282.659,43.811 L281.336,43.878 L280.031,43.972 L278.796,44.077 L277.944,44.154 L277.423,44.202 L277.175,44.224 C277.175,44.224 277.175,44.224 277.175,44.224 C274.965,44.425 272.033,46.705 270.626,49.317 C269.219,51.929 269.87,53.884 272.08,53.683 L272.08,53.683" fill="#000000"/>
      <g>
        <path d="M279.682,110.751 L277.91,110.755 C273.214,110.766 269.401,108.26 269.395,105.159 L269.387,100.948 C269.38,97.846 273.182,95.324 277.879,95.313 L279.65,95.309 C284.347,95.299 288.159,97.804 288.165,100.905 L288.174,105.117 C288.18,108.218 284.378,110.74 279.682,110.751 z" fill="#808080"/>
        <path d="M279.682,110.751 L277.91,110.755 C273.214,110.766 269.401,108.26 269.395,105.159 L269.387,100.948 C269.38,97.846 273.182,95.324 277.879,95.313 L279.65,95.309 C284.347,95.299 288.159,97.804 288.165,100.905 L288.174,105.117 C288.18,108.218 284.378,110.74 279.682,110.751 z" fill-opacity="0" stroke="#000000" stroke-width="5"/>
      </g>
      <g>
        <g>
          <path d="M250.584,56.095 L250.584,85.327" fill="#8080FF"/>
          <path d="M250.584,56.095 L250.584,85.327" fill-opacity="0" stroke="#000000" stroke-width="5"/>
        </g>
        <g>
          <path d="M250.584,85.327 C250.584,87.803 244.002,89.81 235.882,89.81" fill="#8080FF"/>
          <path d="M250.584,85.327 C250.584,87.803 244.002,89.81 235.882,89.81" fill-opacity="0" stroke="#000000" stroke-width="5"/>
        </g>
        <g>
          <path d="M235.882,89.81 C227.762,89.81 221.18,87.803 221.18,85.327" fill="#8080FF"/>
          <path d="M235.882,89.81 C227.762,89.81 221.18,87.803 221.18,85.327" fill-opacity="0" stroke="#000000" stroke-width="5"/>
        </g>
        <g>
          <path d="M221.18,85.327 L221.18,55.127" fill="#8080FF"/>
          <path d="M221.18,85.327 L221.18,55.127" fill-opacity="0" stroke="#000000" stroke-width="5"/>
        </g>
        <g>
          <path d="M235.882,60.579 C227.762,60.579 221.18,58.571 221.18,56.095" fill="#8080FF"/>
          <path d="M235.882,60.579 C227.762,60.579 221.18,58.571 221.18,56.095" fill-opacity="0" stroke="#000000" stroke-width="5"/>
        </g>
        <g>
          <path d="M221.18,56.095 C221.18,53.619 227.762,51.611 235.882,51.611" fill="#8080FF"/>
          <path d="M221.18,56.095 C221.18,53.619 227.762,51.611 235.882,51.611" fill-opacity="0" stroke="#000000" stroke-width="5"/>
        </g>
        <g>
          <path d="M235.882,51.611 C244.002,51.611 250.584,53.619 250.584,56.095" fill="#8080FF"/>
          <path d="M235.882,51.611 C244.002,51.611 250.584,53.619 250.584,56.095" fill-opacity="0" stroke="#000000" stroke-width="5"/>
        </g>
        <g>
          <path d="M250.584,56.095 C250.584,58.571 244.002,60.579 235.882,60.579" fill="#8080FF"/>
          <path d="M250.584,56.095 C250.584,58.571 244.002,60.579 235.882,60.579" fill-opacity="0" stroke="#000000" stroke-width="5"/>
        </g>
      </g>
    </g>
    <path d="M186.866,104.418 L178.69,96.23 L186.866,88.041 L186.866,104.418 z M161.323,105.973 L169.514,97.793 L169.866,98.129 C171.804,99.973 174.88,99.973 176.727,98.129 L177.079,97.777 L185.319,105.972 L161.323,105.972 z M159.851,88.042 L168.019,96.231 L159.835,104.419 L159.851,88.042 z M185.3,86.481 L175.239,96.534 C174.212,97.567 172.384,97.542 171.335,96.499 L161.335,86.481 L185.3,86.481 z M157.632,108.178 L189.171,108.178 L189.171,84.25 L157.632,84.25 L157.632,108.178 z" fill="#000000"/>
    <g>
      <path d="M431.134,104.643 L409.213,66.676 L431.134,28.709 L474.974,28.709 L496.895,66.676 L474.974,104.643 z" fill="#FFF803"/>
      <text fill="#000000" transform="matrix(1, 0, -0, 1, 455.456, 60.725)">
        <tspan x="-27.02" y="7.58" font-family="HelveticaNeue-Bold" font-size="20">Redis</tspan>
      </text>
    </g>
    <path d="M186.866,28.211 L178.69,20.023 L186.866,11.834 L186.866,28.211 z M161.323,29.766 L169.514,21.586 L169.866,21.922 C171.804,23.766 174.88,23.766 176.727,21.922 L177.079,21.57 L185.319,29.765 L161.323,29.765 z M159.851,11.835 L168.019,20.024 L159.835,28.212 L159.851,11.835 z M185.3,10.274 L175.239,20.327 C174.212,21.36 172.384,21.335 171.335,20.292 L161.335,10.274 L185.3,10.274 z M157.632,31.971 L189.171,31.971 L189.171,8.043 L157.632,8.043 L157.632,31.971 z" fill="#000000"/>
    <g>
      <g>
        <path d="M86.727,35.947 C143.335,35.947 192.036,40.137 213.683,46.146" fill-opacity="0" stroke="#000000" stroke-width="3.5"/>
        <path d="M211.414,50.032 L224.045,52.198 L215.953,42.26 z" fill="#000000" fill-opacity="1" stroke="#000000" stroke-width="3.5" stroke-opacity="1"/>
      </g>
      <text fill="#000000" transform="matrix(1, 0, -0, 1, 122.972, 49.414)">
        <tspan x="-6.116" y="8.338" font-family="HelveticaNeue-Bold" font-size="22">1</tspan>
      </text>
    </g>
    <g>
      <g>
        <path d="M259.623,101.779 C259.602,110.158 191.572,116.867 104.944,117.351" fill-opacity="0" stroke="#000000" stroke-width="3.5"/>
        <path d="M104.937,112.851 L92.944,117.37 L104.951,121.851 z" fill="#000000" fill-opacity="1" stroke="#000000" stroke-width="3.5" stroke-opacity="1"/>
      </g>
      <text fill="#000000" transform="matrix(1, 0, -0, 1, 200.397, 99.667)">
        <tspan x="-6.116" y="8.338" font-family="HelveticaNeue-Bold" font-size="22">4</tspan>
      </text>
    </g>
    <g>
      <g>
        <path d="M305.624,53.137 C346.588,53.137 382.299,54.221 401.083,55.827" fill-opacity="0" stroke="#000000" stroke-width="3.5"/>
        <path d="M400.268,60.253 L412.884,58.001 L401.898,51.402 z" fill="#000000" fill-opacity="1" stroke="#000000" stroke-width="3.5" stroke-opacity="1"/>
      </g>
      <text fill="#000000" transform="matrix(1, 0, -0, 1, 354.748, 40.304)">
        <tspan x="-6.116" y="8.338" font-family="HelveticaNeue-Bold" font-size="22">2</tspan>
      </text>
    </g>
    <g>
      <g>
        <path d="M420.984,84.75 C420.984,86.822 378.523,88.533 323.558,88.792" fill-opacity="0" stroke="#000000" stroke-width="3.5"/>
        <path d="M323.548,84.292 L311.558,88.82 L323.569,93.291 z" fill="#000000" fill-opacity="1" stroke="#000000" stroke-width="3.5" stroke-opacity="1"/>
      </g>
      <text fill="#000000" transform="matrix(1, 0, -0, 1, 370.81, 100.532)">
        <tspan x="-6.116" y="8.338" font-family="HelveticaNeue-Bold" font-size="22">3</tspan>
      </text>
    </g>
    <g>
      <g>
        <path d="M274.507,108.678 C274.507,127.238 268.102,143.327 258.743,151.25" fill-opacity="0" stroke="#000000" stroke-width="3.5"/>
        <path d="M257.082,147.068 L247.59,155.679 L260.404,155.432 z" fill="#000000" fill-opacity="1" stroke="#000000" stroke-width="3.5" stroke-opacity="1"/>
      </g>
      <text fill="#000000" transform="matrix(1, 0, -0, 1, 278.565, 138.877)">
        <tspan x="-6.116" y="8.338" font-family="HelveticaNeue-Bold" font-size="22">4</tspan>
      </text>
    </g>
    <g>
      <g>
        <path d="M314.396,144.339 C304.481,137.156 297.672,122.302 297.672,105.143" fill-opacity="0" stroke="#000000" stroke-width="3.5"/>
        <path d="M312.945,148.598 L325.755,148.209 L315.848,140.079 z" fill="#000000" fill-opacity="1" stroke="#000000" stroke-width="3.5" stroke-opacity="1"/>
      </g>
      <text fill="#000000" transform="matrix(1, 0, -0, 1, 315.858, 128.419)">
        <tspan x="-6.116" y="8.338" font-family="HelveticaNeue-Bold" font-size="22">4</tspan>
      </text>
    </g>
    <g>
      <path d="M26.411,28.709 L74.79,28.709 C83.178,28.709 89.978,34.409 89.978,41.439 L89.978,109.694 C89.978,116.724 83.178,122.424 74.79,122.424 L26.411,122.424 C18.023,122.424 11.223,116.724 11.223,109.694 L11.223,41.439 C11.223,34.409 18.023,28.709 26.411,28.709 z" fill="#15FFFD"/>
      <text fill="#000000" transform="matrix(1, 0, -0, 1, 49.376, 68.481)">
        <tspan x="-27.76" y="7.58" font-family="HelveticaNeue-Bold" font-size="20">Client</tspan>
      </text>
    </g>
  </g>
</svg>
