<?xml version="1.0" encoding="UTF-8"?>
<!DOCTYPE svg PUBLIC "-//W3C//DTD SVG 1.1//EN" "http://www.w3.org/Graphics/SVG/1.1/DTD/svg11.dtd">
<svg version="1.1" xmlns="http://www.w3.org/2000/svg" xmlns:xlink="http://www.w3.org/1999/xlink" x="0" y="0" width="1670" height="980" viewBox="0, 0, 1670, 980">
  <g id="Background">
    <rect x="0" y="0" width="1670" height="980" fill="#FFFFFF"/>
  </g>
  <g id="Layer_1">
    <g>
      <g>
        <g>
          <path d="M1113.159,405.046 C1066.652,405.046 1028.949,351.533 1028.949,285.522 C1028.949,219.51 1066.652,165.997 1113.159,165.997 C1159.667,165.997 1197.369,219.51 1197.369,285.522 C1197.369,351.533 1159.667,405.046 1113.159,405.046 z" fill="#FF8080"/>
          <path d="M1113.159,405.046 C1066.652,405.046 1028.949,351.533 1028.949,285.522 C1028.949,219.51 1066.652,165.997 1113.159,165.997 C1159.667,165.997 1197.369,219.51 1197.369,285.522 C1197.369,351.533 1159.667,405.046 1113.159,405.046 z" fill-opacity="0" stroke="#000000" stroke-width="14.4"/>
        </g>
        <path d="M1090.859,236.482 L1091.567,236.418 L1093.089,236.279 L1094.695,236.132 L1096.359,235.984 L1098.066,235.839 L1099.8,235.702 L1101.54,235.578 L1103.266,235.471 L1104.958,235.386 L1106.595,235.327 L1108.154,235.3 L1109.611,235.306 L1110.589,235.335 L1111.181,235.364 L1111.759,235.403 L1112.292,235.451 L1112.775,235.507 L1113.203,235.569 L1113.569,235.637 L1113.87,235.706 L1113.924,235.723 L1113.742,235.675 L1114.057,235.764 L1114.312,235.867 L1114.416,235.939 L1114.48,236.004 L1114.521,236.066 L1114.539,236.118 L1114.545,236.166 L1114.54,236.206 L1114.53,236.242 L1114.52,236.28 L1114.508,236.322 L1114.497,236.372 L1114.487,236.437 L1114.475,236.526 L1114.46,236.63 L1114.439,236.762 L1114.411,236.927 L1114.371,237.125 L1114.318,237.356 L1114.251,237.621 L1114.167,237.918 L1114.064,238.255 L1113.841,238.919 L1113.479,239.868 L1113.072,240.83 L1112.582,241.906 L1112.021,243.068 L1111.39,244.31 L1110.699,245.614 L1109.537,247.721 L1108.345,249.802 L1107.547,251.164 L1106.708,252.583 L1105.865,254 L1105.027,255.407 L1104.401,256.464 L1103.978,257.182 L1103.568,257.884 L1103.156,258.597 L1102.748,259.314 L1102.343,260.038 L1101.943,260.768 L1101.539,261.527 L1101.129,262.323 L1100.721,263.153 L1100.31,264.037 L1099.895,264.999 L1099.474,266.085 L1099.072,267.297 L1098.805,268.273 L1098.805,268.273 C1098.77,268.417 1098.737,268.56 1098.707,268.702 L1098.707,268.702 L1098.556,269.412 L1098.233,271.155 L1097.972,272.953 L1097.801,274.677 L1097.717,276.33 L1097.718,277.902 L1097.802,279.399 L1097.964,280.82 L1098.201,282.162 L1098.508,283.425 L1098.879,284.614 L1099.308,285.727 L1099.788,286.765 L1100.316,287.736 L1100.883,288.641 L1101.484,289.482 L1102.11,290.263 L1102.758,290.99 L1103.423,291.669 L1104.097,292.301 L1105.086,293.149 L1106.418,294.182 L1107.737,295.129 L1108.983,295.992 L1110.12,296.791 L1111.132,297.55 L1111.764,298.077 L1112.115,298.398 L1112.452,298.735 L1112.745,299.063 L1112.997,299.383 L1113.204,299.688 L1113.374,299.985 L1113.502,300.265 L1113.597,300.532 L1113.662,300.787 L1113.698,301.024 L1113.713,301.256 L1113.708,301.479 L1113.687,301.704 L1113.649,301.942 L1113.593,302.198 L1113.516,302.488 L1113.413,302.825 L1113.275,303.222 L1113.094,303.69 L1112.957,304.011 L1112.863,304.223 L1112.715,304.553 L1112.552,304.904 L1112.372,305.274 L1112.169,305.68 L1111.946,306.111 L1111.704,306.564 L1111.439,307.044 L1111.146,307.564 L1110.83,308.108 L1110.491,308.678 L1110.125,309.279 L1109.732,309.912 L1109.315,310.569 L1108.866,311.262 L1108.388,311.988 L1107.886,312.735 L1107.351,313.52 L1106.789,314.329 L1106.194,315.174 L1105.567,316.053 L1104.915,316.953 L1104.225,317.894 L1103.899,318.334 L1103.899,318.334 C1098.398,325.766 1098.125,332.846 1103.289,334.148 C1108.453,335.45 1117.099,330.481 1122.599,323.049 C1122.599,323.049 1122.599,323.049 1122.599,323.049 L1123.098,322.375 L1124.013,321.125 L1124.91,319.883 L1125.775,318.669 L1126.618,317.469 L1127.441,316.28 L1128.235,315.112 L1129.01,313.952 L1129.755,312.817 L1130.48,311.693 L1131.184,310.576 L1131.863,309.479 L1132.519,308.392 L1133.154,307.315 L1133.765,306.253 L1134.35,305.208 L1134.918,304.161 L1135.463,303.127 L1135.982,302.109 L1136.476,301.104 L1136.951,300.1 L1137.4,299.111 L1137.822,298.138 L1138.257,297.082 L1138.838,295.563 L1139.477,293.694 L1140.007,291.88 L1140.426,290.127 L1140.732,288.443 L1140.925,286.835 L1141.009,285.313 L1140.987,283.877 L1140.866,282.532 L1140.655,281.286 L1140.361,280.126 L1139.997,279.061 L1139.572,278.081 L1139.093,277.178 L1138.575,276.354 L1138.02,275.592 L1137.442,274.896 L1136.842,274.25 L1136.229,273.653 L1135.579,273.074 L1134.629,272.299 L1133.407,271.387 L1132.215,270.549 L1131.082,269.765 L1130.019,269.01 L1129.016,268.243 L1128.311,267.649 L1127.895,267.266 L1127.508,266.882 L1127.147,266.49 L1126.815,266.093 L1126.513,265.689 L1126.239,265.278 L1125.994,264.856 L1125.774,264.419 L1125.583,263.969 L1125.419,263.502 L1125.281,263.011 L1125.172,262.494 L1125.09,261.945 L1125.04,261.359 L1125.021,260.726 L1125.039,260.048 L1125.095,259.309 L1125.196,258.508 L1125.372,257.508 L1125.525,256.791 L1125.426,257.22 L1125.225,257.931 L1125.003,258.557 L1124.825,258.985 L1124.716,259.219 L1124.668,259.308 L1124.678,259.278 L1124.739,259.151 L1124.856,258.927 L1125.023,258.617 L1125.23,258.246 L1125.474,257.815 L1125.753,257.33 L1126.07,256.787 L1126.407,256.214 L1126.975,255.255 L1127.818,253.839 L1128.737,252.296 L1129.717,250.638 L1130.775,248.825 L1132.382,246.005 L1133.973,243.101 L1135.054,241.037 L1136.118,238.912 L1137.151,236.727 L1138.135,234.495 L1139.055,232.211 L1139.855,229.992 L1140.379,228.343 L1140.71,227.174 L1141.006,225.996 L1141.262,224.818 L1141.471,223.643 L1141.632,222.472 L1141.737,221.31 L1141.782,220.158 L1141.761,219.023 L1141.669,217.921 L1141.502,216.846 L1141.254,215.809 L1140.923,214.819 L1140.508,213.883 L1140.005,213.006 L1139.416,212.195 L1138.744,211.456 L1137.988,210.791 L1137.154,210.205 L1136.242,209.695 L1135.264,209.267 L1134.33,208.947 L1134.009,208.855 L1134.009,208.855 C1133.949,208.838 1133.888,208.822 1133.827,208.807 L1133.827,208.807 L1133.364,208.695 L1132.567,208.529 L1131.755,208.392 L1130.93,208.279 L1130.089,208.188 L1129.232,208.116 L1128.358,208.06 L1127.442,208.019 L1126.062,207.984 L1124.22,207.981 L1122.339,208.017 L1120.433,208.087 L1118.514,208.185 L1116.601,208.304 L1114.711,208.44 L1112.862,208.586 L1111.07,208.739 L1109.357,208.891 L1107.745,209.038 L1106.247,209.176 L1105.53,209.241 C1105.53,209.241 1105.53,209.241 1105.53,209.241 C1099.165,209.819 1090.721,216.385 1086.67,223.908 C1082.619,231.431 1084.495,237.06 1090.859,236.482 L1090.859,236.482" fill="#000000"/>
        <g>
          <path d="M1112.751,400.838 L1107.649,400.849 C1094.123,400.88 1083.144,393.664 1083.126,384.733 L1083.101,372.604 C1083.083,363.672 1094.033,356.407 1107.559,356.377 L1112.661,356.365 C1126.187,356.335 1137.166,363.55 1137.184,372.482 L1137.209,384.611 C1137.227,393.542 1126.277,400.807 1112.751,400.838 z" fill="#808080"/>
          <path d="M1112.751,400.838 L1107.649,400.849 C1094.123,400.88 1083.144,393.664 1083.126,384.733 L1083.101,372.604 C1083.083,363.672 1094.033,356.407 1107.559,356.377 L1112.661,356.365 C1126.187,356.335 1137.166,363.55 1137.184,372.482 L1137.209,384.611 C1137.227,393.542 1126.277,400.807 1112.751,400.838 z" fill-opacity="0" stroke="#000000" stroke-width="14.4"/>
        </g>
        <g>
          <g>
            <path d="M1028.949,243.428 L1028.949,327.615" fill="#8080FF"/>
            <path d="M1028.949,243.428 L1028.949,327.615" fill-opacity="0" stroke="#000000" stroke-width="14.4"/>
          </g>
          <g>
            <path d="M1028.949,327.615 C1028.949,334.747 1009.992,340.529 986.607,340.529" fill="#8080FF"/>
            <path d="M1028.949,327.615 C1028.949,334.747 1009.992,340.529 986.607,340.529" fill-opacity="0" stroke="#000000" stroke-width="14.4"/>
          </g>
          <g>
            <path d="M986.607,340.529 C963.223,340.529 944.266,334.747 944.266,327.615" fill="#8080FF"/>
            <path d="M986.607,340.529 C963.223,340.529 944.266,334.747 944.266,327.615" fill-opacity="0" stroke="#000000" stroke-width="14.4"/>
          </g>
          <g>
            <path d="M944.265,327.615 L944.265,240.642" fill="#8080FF"/>
            <path d="M944.265,327.615 L944.265,240.642" fill-opacity="0" stroke="#000000" stroke-width="14.4"/>
          </g>
          <g>
            <path d="M986.607,256.341 C963.223,256.341 944.266,250.56 944.266,243.428" fill="#8080FF"/>
            <path d="M986.607,256.341 C963.223,256.341 944.266,250.56 944.266,243.428" fill-opacity="0" stroke="#000000" stroke-width="14.4"/>
          </g>
          <g>
            <path d="M944.266,243.428 C944.266,236.296 963.222,230.515 986.607,230.515" fill="#8080FF"/>
            <path d="M944.266,243.428 C944.266,236.296 963.222,230.515 986.607,230.515" fill-opacity="0" stroke="#000000" stroke-width="14.4"/>
          </g>
          <g>
            <path d="M986.608,230.515 C1009.992,230.515 1028.95,236.296 1028.95,243.428" fill="#8080FF"/>
            <path d="M986.608,230.515 C1009.992,230.515 1028.95,236.296 1028.95,243.428" fill-opacity="0" stroke="#000000" stroke-width="14.4"/>
          </g>
          <g>
            <path d="M1028.949,243.428 C1028.949,250.56 1009.992,256.341 986.607,256.341" fill="#8080FF"/>
            <path d="M1028.949,243.428 C1028.949,250.56 1009.992,256.341 986.607,256.341" fill-opacity="0" stroke="#000000" stroke-width="14.4"/>
          </g>
        </g>
      </g>
      <g>
        <g>
          <path d="M379.999,405.046 C426.507,405.046 464.209,351.533 464.209,285.522 C464.209,219.51 426.507,165.997 379.999,165.997 C333.491,165.997 295.789,219.51 295.789,285.522 C295.789,351.533 333.491,405.046 379.999,405.046 z" fill="#FF8080"/>
          <path d="M379.999,405.046 C426.507,405.046 464.209,351.533 464.209,285.522 C464.209,219.51 426.507,165.997 379.999,165.997 C333.491,165.997 295.789,219.51 295.789,285.522 C295.789,351.533 333.491,405.046 379.999,405.046 z" fill-opacity="0" stroke="#000000" stroke-width="14.4"/>
        </g>
        <path d="M403.888,209.232 L403.18,209.168 L401.679,209.031 L400.066,208.883 L398.362,208.732 L396.582,208.58 L394.747,208.435 L392.873,208.3 L390.982,208.182 L389.083,208.086 L387.196,208.017 L385.33,207.981 L383.494,207.984 L382.104,208.019 L381.162,208.061 L380.258,208.118 L379.349,208.194 L378.433,208.293 L377.495,208.42 L376.519,208.582 L375.478,208.795 L374.758,208.967 L374.758,208.967 C374.6,209.007 374.441,209.049 374.281,209.095 L374.281,209.095 L373.969,209.184 L372.368,209.718 L370.146,210.657 L367.532,212.063 L364.537,214.085 L361.354,216.767 L358.355,219.915 L355.904,223.135 L354.127,226.086 L352.948,228.616 L352.207,230.729 L351.765,232.495 L351.518,234.012 L351.401,235.344 L351.377,236.546 L351.42,237.656 L351.516,238.7 L351.654,239.698 L351.829,240.665 L352.036,241.607 L352.271,242.533 L352.533,243.45 L352.959,244.779 L353.608,246.56 L354.342,248.366 L355.141,250.164 L355.992,251.954 L356.885,253.731 L357.81,255.493 L359.228,258.074 L360.666,260.593 L361.616,262.22 L362.538,263.779 L363.425,265.27 L364.266,266.682 L364.859,267.682 L365.232,268.316 L365.586,268.923 L365.92,269.501 L366.233,270.052 L366.52,270.568 L366.782,271.047 L367.014,271.486 L367.215,271.881 L367.383,272.228 L367.513,272.516 L367.602,272.735 L367.644,272.861 L367.635,272.861 L367.579,272.675 L367.536,272.485 L367.687,273.194 L367.9,274.379 L368.035,275.399 L368.111,276.302 L368.136,277.089 L368.119,277.746 L368.071,278.269 L368.008,278.642 L367.946,278.857 L367.908,278.897 L367.92,278.756 L368.009,278.431 L368.201,277.926 L368.515,277.264 L368.946,276.496 L369.481,275.673 L370.082,274.856 L370.69,274.119 L371.259,273.491 L371.739,273.003 L372.023,272.718 L372.091,272.617 L371.813,272.79 L370.994,273.353 L369.659,274.29 L367.793,275.669 L365.834,277.236 L364.185,278.675 L362.608,280.18 L360.942,281.927 L359.244,283.917 L357.614,286.083 L356.132,288.359 L354.877,290.637 L353.883,292.837 L353.147,294.9 L352.642,296.804 L352.331,298.556 L352.176,300.18 L352.15,301.701 L352.23,303.15 L352.401,304.552 L352.657,305.929 L352.99,307.299 L353.399,308.677 L353.883,310.076 L354.307,311.171 L354.616,311.915 L354.935,312.648 L355.275,313.393 L355.635,314.151 L356.016,314.923 L356.417,315.707 L356.84,316.508 L357.286,317.324 L357.752,318.157 L358.243,319.008 L358.756,319.875 L359.292,320.761 L359.851,321.665 L360.436,322.589 L361.045,323.533 L361.677,324.495 L362.336,325.48 L363.02,326.484 L363.731,327.512 L364.469,328.561 L365.233,329.633 L366.025,330.728 L366.844,331.846 L367.269,332.421 L367.269,332.421 C370.131,336.289 378.11,334.173 385.091,327.695 C392.072,321.217 395.412,312.83 392.55,308.962 L392.151,308.423 L391.364,307.35 L390.607,306.304 L389.879,305.282 L389.178,304.286 L388.506,303.315 L387.86,302.367 L387.243,301.445 L386.651,300.546 L386.088,299.673 L385.55,298.824 L385.038,297.997 L384.551,297.194 L384.09,296.416 L383.654,295.661 L383.242,294.927 L382.855,294.218 L382.491,293.531 L382.15,292.867 L381.833,292.227 L381.539,291.61 L381.267,291.016 L381.016,290.446 L380.796,289.922 L380.502,289.177 L380.167,288.238 L379.909,287.406 L379.719,286.686 L379.591,286.089 L379.514,285.627 L379.472,285.315 L379.446,285.176 L379.407,285.233 L379.322,285.506 L379.148,286.013 L378.84,286.756 L378.366,287.708 L377.719,288.804 L376.924,289.959 L376.056,291.059 L375.188,292.031 L374.415,292.806 L373.788,293.377 L373.139,293.915 L372.763,294.18 L373.131,293.888 L374.126,293.188 L375.686,292.104 L377.789,290.575 L380.193,288.673 L382.17,286.947 L383.741,285.445 L385.362,283.753 L386.978,281.897 L388.538,279.901 L389.975,277.834 L391.247,275.75 L392.334,273.695 L393.226,271.715 L393.936,269.827 L394.483,268.03 L394.889,266.315 L395.174,264.671 L395.354,263.076 L395.441,261.514 L395.443,259.967 L395.367,258.423 L395.215,256.864 L394.99,255.283 L394.704,253.726 L394.551,253.008 L394.551,253.008 C394.537,252.944 394.523,252.881 394.507,252.818 L394.507,252.818 L394.386,252.367 L394.197,251.781 L393.995,251.249 L393.779,250.74 L393.546,250.232 L393.295,249.719 L393.026,249.191 L392.737,248.648 L392.431,248.087 L392.107,247.508 L391.768,246.911 L391.41,246.291 L391.038,245.653 L390.651,244.996 L390.049,243.98 L389.209,242.569 L388.335,241.099 L387.437,239.582 L386.532,238.034 L385.171,235.652 L383.835,233.223 L382.989,231.616 L382.188,230.026 L381.444,228.469 L380.769,226.96 L380.175,225.519 L379.663,224.132 L379.342,223.149 L379.169,222.559 L379.024,222.009 L378.908,221.509 L378.821,221.069 L378.759,220.699 L378.721,220.416 L378.699,220.241 L378.68,220.204 L378.644,220.346 L378.553,220.723 L378.348,221.402 L377.927,222.483 L377.152,224.038 L375.869,226.076 L374.001,228.446 L371.681,230.807 L369.272,232.771 L367.151,234.147 L365.513,234.978 L364.373,235.416 L363.961,235.527 L364.285,235.435 L363.808,235.563 L363.606,235.605 L363.662,235.583 L363.864,235.541 L364.18,235.493 L364.588,235.444 L365.069,235.4 L365.617,235.363 L366.182,235.335 L367.151,235.306 L368.613,235.3 L370.187,235.328 L371.844,235.387 L373.556,235.473 L375.303,235.581 L377.06,235.707 L378.808,235.845 L380.527,235.991 L382.2,236.14 L383.805,236.287 L385.324,236.426 L386.04,236.491 C386.04,236.491 386.04,236.491 386.04,236.491 C391.752,237.006 400.379,231.322 405.307,223.795 C410.236,216.268 409.601,209.748 403.888,209.232 L403.888,209.232" fill="#000000"/>
        <g>
          <path d="M380.407,400.838 L385.51,400.849 C399.035,400.88 410.015,393.664 410.033,384.733 L410.058,372.604 C410.076,363.672 399.126,356.407 385.6,356.377 L380.498,356.365 C366.972,356.335 355.993,363.55 355.975,372.482 L355.95,384.611 C355.932,393.542 366.882,400.807 380.407,400.838 z" fill="#808080"/>
          <path d="M380.407,400.838 L385.51,400.849 C399.035,400.88 410.015,393.664 410.033,384.733 L410.058,372.604 C410.076,363.672 399.126,356.407 385.6,356.377 L380.498,356.365 C366.972,356.335 355.993,363.55 355.975,372.482 L355.95,384.611 C355.932,393.542 366.882,400.807 380.407,400.838 z" fill-opacity="0" stroke="#000000" stroke-width="14.4"/>
        </g>
        <g>
          <g>
            <path d="M464.209,243.428 L464.209,327.615" fill="#8080FF"/>
            <path d="M464.209,243.428 L464.209,327.615" fill-opacity="0" stroke="#000000" stroke-width="14.4"/>
          </g>
          <g>
            <path d="M464.21,327.615 C464.21,334.747 483.167,340.529 506.551,340.529" fill="#8080FF"/>
            <path d="M464.21,327.615 C464.21,334.747 483.167,340.529 506.551,340.529" fill-opacity="0" stroke="#000000" stroke-width="14.4"/>
          </g>
          <g>
            <path d="M506.551,340.529 C529.936,340.529 548.893,334.747 548.893,327.615" fill="#8080FF"/>
            <path d="M506.551,340.529 C529.936,340.529 548.893,334.747 548.893,327.615" fill-opacity="0" stroke="#000000" stroke-width="14.4"/>
          </g>
          <g>
            <path d="M548.893,327.615 L548.893,240.642" fill="#8080FF"/>
            <path d="M548.893,327.615 L548.893,240.642" fill-opacity="0" stroke="#000000" stroke-width="14.4"/>
          </g>
          <g>
            <path d="M506.551,256.341 C529.936,256.341 548.893,250.56 548.893,243.428" fill="#8080FF"/>
            <path d="M506.551,256.341 C529.936,256.341 548.893,250.56 548.893,243.428" fill-opacity="0" stroke="#000000" stroke-width="14.4"/>
          </g>
          <g>
            <path d="M548.893,243.428 C548.893,236.296 529.936,230.515 506.551,230.515" fill="#8080FF"/>
            <path d="M548.893,243.428 C548.893,236.296 529.936,230.515 506.551,230.515" fill-opacity="0" stroke="#000000" stroke-width="14.4"/>
          </g>
          <g>
            <path d="M506.551,230.515 C483.166,230.515 464.209,236.296 464.209,243.428" fill="#8080FF"/>
            <path d="M506.551,230.515 C483.166,230.515 464.209,236.296 464.209,243.428" fill-opacity="0" stroke="#000000" stroke-width="14.4"/>
          </g>
          <g>
            <path d="M464.21,243.428 C464.21,250.56 483.167,256.341 506.551,256.341" fill="#8080FF"/>
            <path d="M464.21,243.428 C464.21,250.56 483.167,256.341 506.551,256.341" fill-opacity="0" stroke="#000000" stroke-width="14.4"/>
          </g>
        </g>
      </g>
      <g>
        <g>
          <path d="M1482.689,924.604 C1436.182,924.604 1398.479,871.091 1398.479,805.079 C1398.479,739.067 1436.182,685.554 1482.689,685.554 C1529.197,685.554 1566.899,739.067 1566.899,805.079 C1566.899,871.091 1529.197,924.604 1482.689,924.604 z" fill="#FF8080"/>
          <path d="M1482.689,924.604 C1436.182,924.604 1398.479,871.091 1398.479,805.079 C1398.479,739.067 1436.182,685.554 1482.689,685.554 C1529.197,685.554 1566.899,739.067 1566.899,805.079 C1566.899,871.091 1529.197,924.604 1482.689,924.604 z" fill-opacity="0" stroke="#000000" stroke-width="14.4"/>
        </g>
        <path d="M1460.387,756.04 L1461.096,755.976 L1462.619,755.836 L1464.224,755.69 L1465.889,755.541 L1467.596,755.396 L1469.331,755.259 L1471.07,755.135 L1472.796,755.028 L1474.489,754.943 L1476.125,754.885 L1477.684,754.857 L1479.142,754.864 L1480.12,754.892 L1480.71,754.921 L1481.29,754.96 L1481.822,755.008 L1482.305,755.064 L1482.734,755.127 L1483.1,755.194 L1483.401,755.263 L1483.454,755.281 L1483.271,755.232 L1483.586,755.321 L1483.844,755.425 L1483.944,755.496 L1484.011,755.562 L1484.051,755.623 L1484.07,755.677 L1484.074,755.722 L1484.07,755.763 L1484.06,755.799 L1484.05,755.838 L1484.038,755.878 L1484.027,755.93 L1484.017,755.994 L1484.005,756.081 L1483.99,756.187 L1483.969,756.319 L1483.941,756.485 L1483.901,756.683 L1483.848,756.914 L1483.781,757.178 L1483.697,757.477 L1483.594,757.813 L1483.37,758.477 L1483.01,759.422 L1482.6,760.392 L1482.112,761.463 L1481.549,762.628 L1480.92,763.867 L1480.231,765.169 L1479.066,767.28 L1477.876,769.357 L1477.076,770.723 L1476.237,772.141 L1475.394,773.557 L1474.557,774.963 L1473.93,776.022 L1473.505,776.744 L1473.099,777.438 L1472.686,778.155 L1472.276,778.875 L1471.871,779.599 L1471.473,780.326 L1471.068,781.086 L1470.661,781.878 L1470.25,782.711 L1469.84,783.594 L1469.425,784.557 L1469.004,785.642 L1468.602,786.854 L1468.338,787.82 L1468.338,787.82 C1468.302,787.966 1468.268,788.111 1468.237,788.255 L1468.237,788.255 L1468.086,788.965 L1467.762,790.713 L1467.502,792.509 L1467.331,794.235 L1467.247,795.887 L1467.248,797.459 L1467.332,798.956 L1467.494,800.378 L1467.731,801.719 L1468.038,802.984 L1468.409,804.171 L1468.838,805.285 L1469.318,806.323 L1469.847,807.294 L1470.413,808.198 L1471.013,809.038 L1471.641,809.821 L1472.289,810.549 L1472.953,811.226 L1473.625,811.857 L1474.617,812.707 L1475.948,813.74 L1477.267,814.686 L1478.512,815.549 L1479.652,816.35 L1480.661,817.107 L1481.295,817.634 L1481.645,817.956 L1481.982,818.293 L1482.275,818.62 L1482.528,818.94 L1482.734,819.246 L1482.903,819.542 L1483.032,819.822 L1483.127,820.089 L1483.192,820.345 L1483.229,820.582 L1483.243,820.814 L1483.239,821.037 L1483.217,821.261 L1483.179,821.499 L1483.123,821.753 L1483.046,822.047 L1482.943,822.382 L1482.804,822.781 L1482.624,823.248 L1482.487,823.568 L1482.393,823.779 L1482.245,824.11 L1482.082,824.461 L1481.903,824.831 L1481.699,825.238 L1481.476,825.669 L1481.234,826.12 L1480.969,826.603 L1480.675,827.122 L1480.36,827.665 L1480.02,828.237 L1479.654,828.839 L1479.262,829.469 L1478.843,830.129 L1478.396,830.82 L1477.921,831.54 L1477.415,832.294 L1476.881,833.076 L1476.317,833.89 L1475.726,834.73 L1475.097,835.61 L1474.445,836.51 L1473.756,837.449 L1473.425,837.896 L1473.425,837.896 C1467.926,845.328 1467.656,852.406 1472.822,853.706 C1477.988,855.005 1486.634,850.034 1492.132,842.602 C1492.132,842.602 1492.132,842.602 1492.132,842.602 L1492.626,841.935 L1493.543,840.683 L1494.44,839.441 L1495.304,838.228 L1496.151,837.022 L1496.97,835.837 L1497.766,834.667 L1498.536,833.515 L1499.286,832.374 L1500.011,831.248 L1500.714,830.135 L1501.394,829.034 L1502.05,827.947 L1502.684,826.872 L1503.295,825.81 L1503.88,824.764 L1504.448,823.72 L1504.994,822.684 L1505.512,821.667 L1506.006,820.661 L1506.481,819.657 L1506.93,818.669 L1507.352,817.696 L1507.787,816.639 L1508.368,815.12 L1509.008,813.249 L1509.537,811.438 L1509.956,809.683 L1510.261,808.003 L1510.455,806.392 L1510.539,804.87 L1510.517,803.434 L1510.396,802.09 L1510.184,800.842 L1509.891,799.683 L1509.527,798.618 L1509.102,797.638 L1508.624,796.736 L1508.105,795.911 L1507.55,795.15 L1506.972,794.453 L1506.372,793.808 L1505.759,793.211 L1505.109,792.631 L1504.16,791.857 L1502.936,790.943 L1501.745,790.107 L1500.611,789.322 L1499.549,788.567 L1498.545,787.799 L1497.843,787.207 L1497.425,786.824 L1497.037,786.438 L1496.677,786.047 L1496.346,785.651 L1496.043,785.247 L1495.769,784.834 L1495.523,784.413 L1495.304,783.976 L1495.113,783.527 L1494.948,783.058 L1494.811,782.568 L1494.701,782.05 L1494.62,781.503 L1494.57,780.916 L1494.552,780.283 L1494.569,779.605 L1494.625,778.868 L1494.726,778.064 L1494.901,777.069 L1495.054,776.352 L1494.953,776.788 L1494.755,777.489 L1494.533,778.115 L1494.356,778.541 L1494.246,778.776 L1494.198,778.864 L1494.207,778.837 L1494.27,778.707 L1494.386,778.484 L1494.556,778.171 L1494.762,777.799 L1495.004,777.372 L1495.281,776.891 L1495.603,776.339 L1495.937,775.771 L1496.505,774.813 L1497.348,773.396 L1498.267,771.852 L1499.247,770.194 L1500.303,768.385 L1501.913,765.56 L1503.501,762.661 L1504.583,760.595 L1505.649,758.467 L1506.681,756.285 L1507.666,754.049 L1508.584,751.772 L1509.385,749.548 L1509.909,747.9 L1510.241,746.73 L1510.536,745.553 L1510.792,744.375 L1511.002,743.2 L1511.162,742.029 L1511.267,740.867 L1511.312,739.715 L1511.291,738.582 L1511.199,737.479 L1511.032,736.403 L1510.784,735.367 L1510.453,734.376 L1510.038,733.44 L1509.535,732.563 L1508.947,731.753 L1508.273,731.013 L1507.518,730.349 L1506.683,729.762 L1505.774,729.253 L1504.793,728.824 L1503.862,728.505 L1503.54,728.413 L1503.54,728.413 C1503.48,728.396 1503.419,728.38 1503.357,728.364 L1503.357,728.364 L1502.893,728.252 L1502.097,728.086 L1501.285,727.949 L1500.46,727.837 L1499.619,727.745 L1498.761,727.673 L1497.889,727.617 L1496.971,727.576 L1495.592,727.542 L1493.75,727.538 L1491.869,727.575 L1489.962,727.645 L1488.044,727.742 L1486.131,727.861 L1484.24,727.997 L1482.391,728.144 L1480.599,728.296 L1478.887,728.448 L1477.275,728.596 L1475.777,728.733 L1475.062,728.798 C1475.062,728.798 1475.062,728.798 1475.062,728.798 C1468.698,729.375 1460.253,735.94 1456.201,743.463 C1452.149,750.986 1454.023,756.617 1460.387,756.04 L1460.387,756.04" fill="#000000"/>
        <g>
          <path d="M1482.281,920.395 L1477.179,920.407 C1463.653,920.437 1452.674,913.221 1452.656,904.29 L1452.631,892.161 C1452.613,883.23 1463.563,875.964 1477.089,875.934 L1482.191,875.922 C1495.717,875.892 1506.696,883.108 1506.714,892.039 L1506.739,904.168 C1506.757,913.1 1495.807,920.365 1482.281,920.395 z" fill="#808080"/>
          <path d="M1482.281,920.395 L1477.179,920.407 C1463.653,920.437 1452.674,913.221 1452.656,904.29 L1452.631,892.161 C1452.613,883.23 1463.563,875.964 1477.089,875.934 L1482.191,875.922 C1495.717,875.892 1506.696,883.108 1506.714,892.039 L1506.739,904.168 C1506.757,913.1 1495.807,920.365 1482.281,920.395 z" fill-opacity="0" stroke="#000000" stroke-width="14.4"/>
        </g>
        <g>
          <g>
            <path d="M1398.479,762.985 L1398.479,847.173" fill="#8080FF"/>
            <path d="M1398.479,762.985 L1398.479,847.173" fill-opacity="0" stroke="#000000" stroke-width="14.4"/>
          </g>
          <g>
            <path d="M1398.479,847.173 C1398.479,854.305 1379.522,860.086 1356.137,860.086" fill="#8080FF"/>
            <path d="M1398.479,847.173 C1398.479,854.305 1379.522,860.086 1356.137,860.086" fill-opacity="0" stroke="#000000" stroke-width="14.4"/>
          </g>
          <g>
            <path d="M1356.137,860.086 C1332.753,860.086 1313.796,854.305 1313.796,847.173" fill="#8080FF"/>
            <path d="M1356.137,860.086 C1332.753,860.086 1313.796,854.305 1313.796,847.173" fill-opacity="0" stroke="#000000" stroke-width="14.4"/>
          </g>
          <g>
            <path d="M1313.795,847.173 L1313.795,760.199" fill="#8080FF"/>
            <path d="M1313.795,847.173 L1313.795,760.199" fill-opacity="0" stroke="#000000" stroke-width="14.4"/>
          </g>
          <g>
            <path d="M1356.137,775.899 C1332.753,775.899 1313.796,770.117 1313.796,762.985" fill="#8080FF"/>
            <path d="M1356.137,775.899 C1332.753,775.899 1313.796,770.117 1313.796,762.985" fill-opacity="0" stroke="#000000" stroke-width="14.4"/>
          </g>
          <g>
            <path d="M1313.796,762.985 C1313.796,755.854 1332.753,750.072 1356.138,750.072" fill="#8080FF"/>
            <path d="M1313.796,762.985 C1313.796,755.854 1332.753,750.072 1356.138,750.072" fill-opacity="0" stroke="#000000" stroke-width="14.4"/>
          </g>
          <g>
            <path d="M1356.138,750.072 C1379.522,750.072 1398.479,755.854 1398.479,762.985" fill="#8080FF"/>
            <path d="M1356.138,750.072 C1379.522,750.072 1398.479,755.854 1398.479,762.985" fill-opacity="0" stroke="#000000" stroke-width="14.4"/>
          </g>
          <g>
            <path d="M1398.479,762.985 C1398.479,770.117 1379.522,775.898 1356.137,775.898" fill="#8080FF"/>
            <path d="M1398.479,762.985 C1398.479,770.117 1379.522,775.898 1356.137,775.898" fill-opacity="0" stroke="#000000" stroke-width="14.4"/>
          </g>
        </g>
      </g>
      <g>
        <g>
          <path d="M176.885,924.604 C223.393,924.604 261.095,871.091 261.095,805.079 C261.095,739.067 223.393,685.554 176.885,685.554 C130.378,685.554 92.675,739.067 92.675,805.079 C92.675,871.091 130.378,924.604 176.885,924.604 z" fill="#FF8080"/>
          <path d="M176.885,924.604 C223.393,924.604 261.095,871.091 261.095,805.079 C261.095,739.067 223.393,685.554 176.885,685.554 C130.378,685.554 92.675,739.067 92.675,805.079 C92.675,871.091 130.378,924.604 176.885,924.604 z" fill-opacity="0" stroke="#000000" stroke-width="14.4"/>
        </g>
        <path d="M200.776,728.79 L200.067,728.726 L198.565,728.588 L196.953,728.441 L195.248,728.289 L193.468,728.138 L191.633,727.992 L189.761,727.858 L187.867,727.74 L185.97,727.643 L184.082,727.574 L182.217,727.538 L180.379,727.542 L178.988,727.576 L178.048,727.618 L177.144,727.675 L176.235,727.752 L175.319,727.85 L174.382,727.977 L173.404,728.14 L172.366,728.352 L171.642,728.525 L171.642,728.525 C171.485,728.564 171.327,728.607 171.168,728.652 L171.168,728.652 L170.854,728.742 L169.256,729.275 L167.033,730.214 L164.419,731.62 L161.423,733.643 L158.239,736.325 L155.243,739.47 L152.789,742.693 L151.012,745.646 L149.834,748.172 L149.095,750.282 L148.651,752.052 L148.404,753.57 L148.287,754.902 L148.263,756.105 L148.306,757.213 L148.402,758.258 L148.54,759.257 L148.715,760.222 L148.922,761.163 L149.157,762.092 L149.419,763.007 L149.845,764.336 L150.494,766.119 L151.229,767.924 L152.026,769.721 L152.877,771.511 L153.771,773.289 L154.696,775.05 L156.113,777.631 L157.552,780.15 L158.502,781.777 L159.424,783.336 L160.311,784.827 L161.153,786.24 L161.745,787.239 L162.118,787.873 L162.472,788.481 L162.806,789.059 L163.117,789.607 L163.406,790.125 L163.668,790.604 L163.899,791.043 L164.101,791.439 L164.269,791.786 L164.399,792.074 L164.487,792.292 L164.53,792.419 L164.521,792.418 L164.465,792.231 L164.422,792.042 L164.573,792.751 L164.786,793.936 L164.921,794.954 L164.998,795.861 L165.022,796.646 L165.005,797.303 L164.957,797.826 L164.893,798.201 L164.832,798.414 L164.794,798.456 L164.806,798.316 L164.896,797.988 L165.088,797.482 L165.4,796.824 L165.832,796.054 L166.368,795.229 L166.964,794.419 L167.577,793.675 L168.145,793.048 L168.625,792.561 L168.904,792.28 L168.978,792.174 L168.699,792.348 L167.88,792.911 L166.546,793.847 L164.681,795.226 L162.723,796.791 L161.068,798.236 L159.494,799.737 L157.827,801.486 L156.133,803.47 L154.498,805.642 L153.017,807.917 L151.762,810.198 L150.768,812.395 L150.033,814.456 L149.528,816.361 L149.217,818.114 L149.062,819.738 L149.036,821.259 L149.116,822.708 L149.288,824.109 L149.543,825.486 L149.876,826.857 L150.285,828.234 L150.77,829.634 L151.194,830.729 L151.502,831.473 L151.821,832.205 L152.161,832.949 L152.521,833.709 L152.902,834.479 L153.304,835.265 L153.726,836.064 L154.171,836.881 L154.638,837.714 L155.129,838.565 L155.641,839.432 L156.177,840.317 L156.737,841.222 L157.321,842.145 L157.931,843.09 L158.563,844.053 L159.222,845.036 L159.907,846.042 L160.617,847.069 L161.355,848.118 L162.119,849.19 L162.911,850.286 L163.73,851.404 L164.154,851.977 L164.154,851.977 C167.015,855.846 174.993,853.732 181.975,847.255 C188.956,840.778 192.297,832.39 189.437,828.521 L189.037,827.98 L188.25,826.907 L187.493,825.861 L186.765,824.839 L186.064,823.843 L185.392,822.871 L184.747,821.925 L184.129,821.002 L183.537,820.104 L182.975,819.232 L182.436,818.381 L181.925,817.556 L181.438,816.753 L180.976,815.973 L180.541,815.218 L180.129,814.486 L179.741,813.776 L179.377,813.088 L179.037,812.426 L178.719,811.784 L178.425,811.169 L178.153,810.574 L177.902,810.003 L177.682,809.478 L177.388,808.734 L177.053,807.796 L176.794,806.963 L176.605,806.244 L176.477,805.646 L176.4,805.183 L176.358,804.872 L176.332,804.733 L176.294,804.789 L176.208,805.064 L176.034,805.571 L175.727,806.313 L175.254,807.262 L174.605,808.361 L173.812,809.514 L172.939,810.62 L172.075,811.587 L171.301,812.364 L170.678,812.931 L170.023,813.474 L169.648,813.739 L170.016,813.446 L171.012,812.745 L172.573,811.661 L174.675,810.133 L177.084,808.226 L179.057,806.504 L180.626,805.003 L182.247,803.312 L183.868,801.449 L185.423,799.46 L186.861,797.391 L188.135,795.305 L189.219,793.254 L190.112,791.273 L190.822,789.382 L191.369,787.586 L191.775,785.873 L192.06,784.227 L192.24,782.633 L192.327,781.072 L192.329,779.525 L192.253,777.979 L192.101,776.423 L191.876,774.841 L191.589,773.283 L191.437,772.566 L191.437,772.566 C191.423,772.502 191.409,772.439 191.393,772.377 L191.393,772.377 L191.272,771.925 L191.083,771.338 L190.881,770.807 L190.665,770.297 L190.432,769.789 L190.181,769.276 L189.912,768.75 L189.623,768.205 L189.317,767.645 L188.995,767.067 L188.654,766.468 L188.296,765.848 L187.924,765.21 L187.538,764.553 L186.935,763.536 L186.095,762.127 L185.221,760.657 L184.323,759.139 L183.419,757.592 L182.057,755.21 L180.721,752.78 L179.875,751.173 L179.074,749.584 L178.33,748.027 L177.655,746.517 L177.061,745.075 L176.549,743.689 L176.228,742.706 L176.055,742.115 L175.911,741.568 L175.795,741.067 L175.707,740.626 L175.645,740.256 L175.607,739.973 L175.585,739.797 L175.566,739.762 L175.53,739.903 L175.439,740.28 L175.233,740.963 L174.813,742.042 L174.039,743.594 L172.756,745.633 L170.885,748.005 L168.567,750.364 L166.158,752.329 L164.036,753.704 L162.399,754.535 L161.258,754.974 L160.848,755.085 L161.171,754.992 L160.697,755.12 L160.49,755.163 L160.55,755.14 L160.75,755.099 L161.066,755.05 L161.474,755.002 L161.955,754.958 L162.502,754.92 L163.07,754.892 L164.038,754.864 L165.498,754.857 L167.073,754.885 L168.729,754.944 L170.442,755.03 L172.188,755.138 L173.946,755.264 L175.695,755.402 L177.413,755.548 L179.085,755.697 L180.691,755.844 L182.209,755.983 L182.924,756.048 C188.636,756.565 197.263,750.881 202.192,743.354 C207.122,735.827 206.488,729.307 200.776,728.79 L200.776,728.79" fill="#000000"/>
        <g>
          <path d="M177.294,920.395 L182.396,920.407 C195.921,920.437 206.901,913.222 206.919,904.29 L206.944,892.161 C206.962,883.23 196.012,875.965 182.486,875.934 L177.384,875.923 C163.858,875.892 152.879,883.108 152.861,892.039 L152.836,904.168 C152.818,913.1 163.768,920.365 177.294,920.395 z" fill="#808080"/>
          <path d="M177.294,920.395 L182.396,920.407 C195.921,920.437 206.901,913.222 206.919,904.29 L206.944,892.161 C206.962,883.23 196.012,875.965 182.486,875.934 L177.384,875.923 C163.858,875.892 152.879,883.108 152.861,892.039 L152.836,904.168 C152.818,913.1 163.768,920.365 177.294,920.395 z" fill-opacity="0" stroke="#000000" stroke-width="14.4"/>
        </g>
        <g>
          <g>
            <path d="M261.095,762.985 L261.095,847.173" fill="#8080FF"/>
            <path d="M261.095,762.985 L261.095,847.173" fill-opacity="0" stroke="#000000" stroke-width="14.4"/>
          </g>
          <g>
            <path d="M261.095,847.173 C261.095,854.305 280.053,860.086 303.437,860.086" fill="#8080FF"/>
            <path d="M261.095,847.173 C261.095,854.305 280.053,860.086 303.437,860.086" fill-opacity="0" stroke="#000000" stroke-width="14.4"/>
          </g>
          <g>
            <path d="M303.437,860.086 C326.822,860.086 345.779,854.305 345.779,847.173" fill="#8080FF"/>
            <path d="M303.437,860.086 C326.822,860.086 345.779,854.305 345.779,847.173" fill-opacity="0" stroke="#000000" stroke-width="14.4"/>
          </g>
          <g>
            <path d="M345.779,847.173 L345.779,760.199" fill="#8080FF"/>
            <path d="M345.779,847.173 L345.779,760.199" fill-opacity="0" stroke="#000000" stroke-width="14.4"/>
          </g>
          <g>
            <path d="M303.437,775.899 C326.822,775.899 345.779,770.117 345.779,762.985" fill="#8080FF"/>
            <path d="M303.437,775.899 C326.822,775.899 345.779,770.117 345.779,762.985" fill-opacity="0" stroke="#000000" stroke-width="14.4"/>
          </g>
          <g>
            <path d="M345.779,762.985 C345.779,755.854 326.822,750.072 303.437,750.072" fill="#8080FF"/>
            <path d="M345.779,762.985 C345.779,755.854 326.822,750.072 303.437,750.072" fill-opacity="0" stroke="#000000" stroke-width="14.4"/>
          </g>
          <g>
            <path d="M303.437,750.072 C280.052,750.072 261.095,755.854 261.095,762.985" fill="#8080FF"/>
            <path d="M303.437,750.072 C280.052,750.072 261.095,755.854 261.095,762.985" fill-opacity="0" stroke="#000000" stroke-width="14.4"/>
          </g>
          <g>
            <path d="M261.095,762.985 C261.095,770.117 280.053,775.898 303.437,775.898" fill="#8080FF"/>
            <path d="M261.095,762.985 C261.095,770.117 280.053,775.898 303.437,775.898" fill-opacity="0" stroke="#000000" stroke-width="14.4"/>
          </g>
        </g>
      </g>
      <g>
        <path d="M200.675,685.554 L479.937,370.55" fill-opacity="0" stroke="#F90000" stroke-width="14.4"/>
        <path d="M488.198,377.873 L499.466,348.52 L471.675,363.226 z" fill="#F90000" fill-opacity="1" stroke="#F90000" stroke-width="14.4" stroke-opacity="1"/>
      </g>
      <g>
        <path d="M233.796,728.754 L910.077,313.43" fill-opacity="0" stroke="#F90000" stroke-width="14.4"/>
        <path d="M915.855,322.837 L935.164,298.023 L904.3,304.022 z" fill="#F90000" fill-opacity="1" stroke="#F90000" stroke-width="14.4" stroke-opacity="1"/>
      </g>
      <g>
        <path d="M1427.725,728.754 L1041.838,367.93" fill-opacity="0" stroke="#F90000" stroke-width="14.4"/>
        <path d="M1049.378,359.866 L1020.334,347.823 L1034.298,375.994 z" fill="#F90000" fill-opacity="1" stroke="#F90000" stroke-width="14.4" stroke-opacity="1"/>
      </g>
      <g>
        <path d="M437.115,184.209 L904.391,236.205" fill-opacity="0" stroke="#FF0000" stroke-width="14.4"/>
        <path d="M903.17,247.177 L933.651,239.461 L905.612,225.233 z" fill="#FF0000" fill-opacity="1" stroke="#FF0000" stroke-width="14.4" stroke-opacity="1"/>
      </g>
      <path d="M1212.178,620.499 L1182.703,590.98 L1212.178,561.458 L1212.178,620.499 z M1120.093,626.105 L1149.623,596.615 L1150.891,597.826 C1157.878,604.474 1168.967,604.474 1175.626,597.826 L1176.895,596.557 L1206.601,626.101 L1120.093,626.101 z M1114.787,561.462 L1144.233,590.984 L1114.729,620.502 L1114.787,561.462 z M1206.532,555.835 L1170.261,592.076 C1166.559,595.8 1159.969,595.71 1156.187,591.95 L1120.137,555.835 L1206.532,555.835 z M1106.787,634.054 L1220.487,634.054 L1220.487,547.792 L1106.787,547.792 L1106.787,634.054 z" fill="#FF0000"/>
      <path d="M302.342,524.928 L278.795,501.346 L302.342,477.762 L302.342,524.928 z M228.779,529.406 L252.369,505.848 L253.382,506.815 C258.964,512.126 267.823,512.126 273.142,506.815 L274.156,505.801 L297.887,529.403 L228.779,529.403 z M224.539,477.765 L248.063,501.349 L224.493,524.93 L224.539,477.765 z M297.832,473.269 L268.857,502.222 C265.899,505.197 260.634,505.125 257.613,502.121 L228.813,473.269 L297.832,473.269 z M218.148,535.756 L308.981,535.756 L308.981,466.844 L218.148,466.844 L218.148,535.756 z" fill="#FB0000"/>
      <path d="M687.822,176.72 L664.275,153.139 L687.822,129.554 L687.822,176.72 z M614.258,181.199 L637.848,157.64 L638.862,158.608 C644.443,163.919 653.302,163.919 658.621,158.608 L659.635,157.594 L683.366,181.196 L614.258,181.196 z M610.019,129.557 L633.542,153.142 L609.972,176.723 L610.019,129.557 z M683.312,125.062 L654.336,154.014 C651.378,156.989 646.114,156.917 643.092,153.913 L614.293,125.062 L683.312,125.062 z M603.628,187.549 L694.46,187.549 L694.46,118.636 L603.628,118.636 L603.628,187.549 z" fill="#FF0000"/>
      <path d="M610.414,471.377 L586.867,447.795 L610.414,424.211 L610.414,471.377 z M536.85,475.855 L560.44,452.297 L561.453,453.264 C567.035,458.575 575.894,458.575 581.213,453.264 L582.227,452.251 L605.958,475.852 L536.85,475.852 z M532.61,424.214 L556.134,447.798 L532.564,471.38 L532.61,424.214 z M605.903,419.718 L576.928,448.671 C573.97,451.646 568.705,451.574 565.684,448.57 L536.884,419.718 L605.903,419.718 z M526.22,482.206 L617.052,482.206 L617.052,413.293 L526.22,413.293 L526.22,482.206 z" fill="#F70000"/>
    </g>
  </g>
  <g id="Layer_2">
    <g>
      <g>
        <g>
          <path d="M828.955,826.488 C783.337,826.488 746.356,788.196 746.356,740.961 C746.356,693.726 783.337,655.435 828.955,655.435 C874.574,655.435 911.555,693.726 911.555,740.961 C911.555,788.196 874.574,826.488 828.955,826.488 z" fill="#0000FF"/>
          <path d="M828.955,826.488 C783.337,826.488 746.356,788.196 746.356,740.961 C746.356,693.726 783.337,655.435 828.955,655.435 C874.574,655.435 911.555,693.726 911.555,740.961 C911.555,788.196 874.574,826.488 828.955,826.488 z" fill-opacity="0" stroke="#000000" stroke-width="14.4"/>
        </g>
        <g>
          <path d="M750.348,718.12 C665.655,602.032 700.52,617.452 710.97,625.464 C781.577,679.596 812.335,655.435 812.335,655.435 C726.5,681.922 750.348,718.12 750.348,718.12 z" fill="#0000FF"/>
          <path d="M750.348,718.12 C665.655,602.032 700.52,617.452 710.97,625.464 C781.577,679.596 812.335,655.435 812.335,655.435 C726.5,681.922 750.348,718.12 750.348,718.12 z" fill-opacity="0" stroke="#000000" stroke-width="14.4"/>
        </g>
        <g>
          <path d="M849.343,659.992 C967.545,578.274 951.244,612.737 942.97,622.98 C887.062,692.188 910.434,723.55 910.434,723.55 C886.135,637.071 849.343,659.992 849.343,659.992 z" fill="#0000FF"/>
          <path d="M849.343,659.992 C967.545,578.274 951.244,612.737 942.97,622.98 C887.062,692.188 910.434,723.55 910.434,723.55 C886.135,637.071 849.343,659.992 849.343,659.992 z" fill-opacity="0" stroke="#000000" stroke-width="14.4"/>
        </g>
        <g>
          <path d="M776.108,703.142 C812.335,708.367 812.997,715.623 815.47,745.29" fill="#0000FF"/>
          <path d="M776.108,703.142 C812.335,708.367 812.997,715.623 815.47,745.29" fill-opacity="0" stroke="#000000" stroke-width="14.4" stroke-linecap="round" stroke-linejoin="round"/>
        </g>
        <g>
          <path d="M868.068,703.142 C849.155,717.072 841.169,723.719 849.258,745.29" fill="#0000FF"/>
          <path d="M868.068,703.142 C849.155,717.072 841.169,723.719 849.258,745.29" fill-opacity="0" stroke="#000000" stroke-width="14.4" stroke-linecap="round" stroke-linejoin="round"/>
        </g>
        <g>
          <path d="M787.952,778.381 C814.901,807.018 856.777,795.082 878.866,768.977" fill="#0000FF"/>
          <path d="M787.952,778.381 C814.901,807.018 856.777,795.082 878.866,768.977" fill-opacity="0" stroke="#000000" stroke-width="14.4" stroke-linecap="round" stroke-linejoin="round"/>
        </g>
        <g>
          <path d="M814.797,749.576 C813.093,750.546 807.364,743.697 802.001,734.277 C796.639,724.858 793.673,716.435 795.377,715.465 C797.081,714.495 802.809,721.345 808.172,730.765 C813.534,740.184 816.5,748.606 814.797,749.576 z" fill="#0000FF"/>
          <path d="M814.797,749.576 C813.093,750.546 807.364,743.697 802.001,734.277 C796.639,724.858 793.673,716.435 795.377,715.465 C797.081,714.495 802.809,721.345 808.172,730.765 C813.534,740.184 816.5,748.606 814.797,749.576 z" fill-opacity="0" stroke="#000000" stroke-width="14.4"/>
        </g>
        <g>
          <path d="M845.312,751.834 C842.606,751.075 842.786,741.991 845.713,731.544 C848.641,721.096 853.209,713.242 855.915,714 C858.621,714.759 858.442,723.843 855.514,734.29 C852.586,744.738 848.019,752.592 845.312,751.834 z" fill="#0000FF"/>
          <path d="M845.312,751.834 C842.606,751.075 842.786,741.991 845.713,731.544 C848.641,721.096 853.209,713.242 855.915,714 C858.621,714.759 858.442,723.843 855.514,734.29 C852.586,744.738 848.019,752.592 845.312,751.834 z" fill-opacity="0" stroke="#000000" stroke-width="14.4"/>
        </g>
      </g>
      <g>
        <path d="M953.188,606.994 L1081.903,449.446" fill-opacity="0" stroke="#0000FF" stroke-width="14.4"/>
        <path d="M1090.453,456.431 L1100.53,426.648 L1073.354,442.461 z" fill="#0000FF" fill-opacity="1" stroke="#0000FF" stroke-width="14.4" stroke-opacity="1"/>
      </g>
      <g>
        <path d="M753.72,782.459 L246.054,897.127" fill-opacity="0" stroke="#0000FF" stroke-width="14.4"/>
        <path d="M243.621,886.358 L217.337,903.613 L248.486,907.895 z" fill="#0000FF" fill-opacity="1" stroke="#0000FF" stroke-width="14.4" stroke-opacity="1"/>
      </g>
      <g>
        <path d="M694.96,615.965 L441.275,411.579" fill-opacity="0" stroke="#0000FF" stroke-width="14.4"/>
        <path d="M448.202,402.982 L418.35,393.109 L434.349,420.176 z" fill="#0000FF" fill-opacity="1" stroke="#0000FF" stroke-width="14.4" stroke-opacity="1"/>
      </g>
      <g>
        <path d="M904.101,787.943 L1413.433,897.527" fill-opacity="0" stroke="#0000FF" stroke-width="14.4"/>
        <path d="M1411.111,908.32 L1442.214,903.719 L1415.755,886.734 z" fill="#0000FF" fill-opacity="1" stroke="#0000FF" stroke-width="14.4" stroke-opacity="1"/>
      </g>
    </g>
  </g>
</svg>
