<?xml version="1.0" encoding="UTF-8"?>
<!DOCTYPE svg PUBLIC "-//W3C//DTD SVG 1.1//EN" "http://www.w3.org/Graphics/SVG/1.1/DTD/svg11.dtd">
<svg version="1.1" xmlns="http://www.w3.org/2000/svg" xmlns:xlink="http://www.w3.org/1999/xlink" x="0" y="0" width="480" height="350" viewBox="0, 0, 480, 350">
  <g id="Layer_1">
    <g>
      <g>
        <g>
          <path d="M424.722,136.127 C408.573,136.127 395.482,117.546 395.482,94.626 C395.482,71.705 408.573,53.124 424.722,53.124 C440.871,53.124 453.962,71.705 453.962,94.626 C453.962,117.546 440.871,136.127 424.722,136.127 z" fill="#FF8080"/>
          <path d="M424.722,136.127 C408.573,136.127 395.482,117.546 395.482,94.626 C395.482,71.705 408.573,53.124 424.722,53.124 C440.871,53.124 453.962,71.705 453.962,94.626 C453.962,117.546 440.871,136.127 424.722,136.127 z" fill-opacity="0" stroke="#000000" stroke-width="5"/>
        </g>
        <path d="M416.978,77.598 L417.224,77.576 L417.753,77.527 L418.599,77.451 L419.791,77.35 L421.003,77.263 L422.183,77.205 L422.998,77.187 L423.49,77.19 L423.951,77.205 L424.357,77.233 L424.699,77.274 L424.961,77.324 L425.012,77.34 L424.885,77.306 L425.1,77.372 L425.245,77.458 L425.264,77.514 L425.256,77.561 L425.236,77.599 L425.213,77.636 L425.192,77.685 L425.169,77.76 L425.14,77.872 L425.097,78.027 L425.035,78.228 L424.947,78.479 L424.834,78.772 L424.691,79.109 L424.406,79.726 L423.953,80.612 L423.449,81.528 L422.898,82.485 L422.326,83.451 L421.899,84.168 L421.612,84.653 L421.329,85.137 L421.053,85.621 L420.779,86.121 L420.507,86.646 L420.232,87.232 L419.953,87.929 L419.764,88.533 L419.764,88.533 C419.742,88.618 419.721,88.703 419.704,88.786 L419.704,88.786 L419.651,89.031 L419.539,89.637 L419.449,90.261 L419.389,90.86 L419.36,91.434 L419.361,91.98 L419.389,92.499 L419.446,92.993 L419.571,93.647 L419.815,94.447 L420.145,95.179 L420.536,95.817 L420.971,96.369 L421.434,96.848 L422.128,97.439 L423.043,98.103 L423.86,98.68 L424.333,99.068 L424.555,99.296 L424.732,99.529 L424.85,99.747 L424.913,99.95 L424.931,100.134 L424.915,100.307 L424.889,100.383 L424.873,100.415 L424.846,100.517 L424.81,100.634 L424.762,100.771 L424.699,100.934 L424.618,101.125 L424.516,101.349 L424.389,101.607 L424.234,101.902 L424.048,102.236 L423.83,102.609 L423.576,103.024 L423.286,103.48 L422.957,103.978 L422.587,104.519 L422.175,105.103 L421.721,105.729 L421.497,106.032 L421.497,106.032 C419.592,108.614 419.506,111.067 421.304,111.512 C423.102,111.957 426.105,110.224 428.009,107.643 C428.009,107.643 428.009,107.643 428.009,107.643 L428.353,107.176 L428.975,106.315 L429.562,105.478 L430.115,104.664 L430.636,103.869 L431.124,103.093 L431.581,102.335 L432.006,101.594 L432.398,100.868 L432.759,100.157 L433.087,99.46 L433.38,98.779 L433.638,98.112 L433.86,97.464 L434.044,96.833 L434.189,96.225 L434.296,95.64 L434.366,95.026 L434.387,94.198 L434.291,93.282 L434.08,92.496 L433.782,91.831 L433.423,91.271 L433.025,90.796 L432.588,90.375 L431.952,89.864 L431.155,89.301 L430.421,88.778 L429.933,88.377 L429.666,88.117 L429.436,87.85 L429.244,87.573 L429.088,87.281 L428.961,86.93 L428.893,86.63 L428.865,86.44 L428.847,86.235 L428.841,86.016 L428.847,85.781 L428.866,85.524 L428.901,85.246 L428.962,84.899 L429.016,84.649 L428.955,84.902 L428.817,85.316 L428.708,85.556 L428.684,85.589 L428.739,85.474 L428.859,85.251 L429.036,84.939 L429.258,84.558 L429.518,84.118 L429.978,83.345 L430.668,82.177 L431.411,80.877 L432.174,79.468 L432.896,78.018 L433.395,76.907 L433.713,76.116 L434.002,75.31 L434.252,74.494 L434.453,73.671 L434.592,72.85 L434.656,72.04 L434.63,71.255 L434.499,70.512 L434.254,69.833 L433.891,69.237 L433.412,68.738 L432.824,68.345 L432.218,68.084 L432.001,68.017 L432.001,68.017 C431.96,68.004 431.917,67.993 431.874,67.983 L431.874,67.983 L431.558,67.912 L431.003,67.82 L430.425,67.758 L429.824,67.721 L429.202,67.703 L428.549,67.702 L427.558,67.726 L426.234,67.793 L424.928,67.887 L423.694,67.992 L422.842,68.069 L422.322,68.117 L422.073,68.139 C422.073,68.139 422.073,68.139 422.073,68.139 C419.864,68.339 416.932,70.619 415.525,73.231 C414.118,75.843 414.768,77.798 416.978,77.598 L416.978,77.598" fill="#000000"/>
        <g>
          <path d="M424.58,134.666 L422.809,134.67 C418.112,134.68 414.3,132.175 414.294,129.074 L414.285,124.862 C414.279,121.761 418.081,119.239 422.777,119.228 L424.549,119.224 C429.245,119.213 433.058,121.719 433.064,124.82 L433.073,129.031 C433.079,132.133 429.277,134.655 424.58,134.666 z" fill="#808080"/>
          <path d="M424.58,134.666 L422.809,134.67 C418.112,134.68 414.3,132.175 414.294,129.074 L414.285,124.862 C414.279,121.761 418.081,119.239 422.777,119.228 L424.549,119.224 C429.245,119.213 433.058,121.719 433.064,124.82 L433.073,129.031 C433.079,132.133 429.277,134.655 424.58,134.666 z" fill-opacity="0" stroke="#000000" stroke-width="5"/>
        </g>
        <g>
          <g>
            <path d="M395.482,80.01 L395.482,109.241" fill="#8080FF"/>
            <path d="M395.482,80.01 L395.482,109.241" fill-opacity="0" stroke="#000000" stroke-width="5"/>
          </g>
          <g>
            <path d="M395.482,109.241 C395.482,111.718 388.9,113.725 380.78,113.725" fill="#8080FF"/>
            <path d="M395.482,109.241 C395.482,111.718 388.9,113.725 380.78,113.725" fill-opacity="0" stroke="#000000" stroke-width="5"/>
          </g>
          <g>
            <path d="M380.78,113.725 C372.661,113.725 366.078,111.718 366.078,109.241" fill="#8080FF"/>
            <path d="M380.78,113.725 C372.661,113.725 366.078,111.718 366.078,109.241" fill-opacity="0" stroke="#000000" stroke-width="5"/>
          </g>
          <g>
            <path d="M366.078,109.241 L366.078,79.042" fill="#8080FF"/>
            <path d="M366.078,109.241 L366.078,79.042" fill-opacity="0" stroke="#000000" stroke-width="5"/>
          </g>
          <g>
            <path d="M380.78,84.493 C372.661,84.493 366.078,82.486 366.078,80.01" fill="#8080FF"/>
            <path d="M380.78,84.493 C372.661,84.493 366.078,82.486 366.078,80.01" fill-opacity="0" stroke="#000000" stroke-width="5"/>
          </g>
          <g>
            <path d="M366.078,80.01 C366.078,77.533 372.661,75.526 380.78,75.526" fill="#8080FF"/>
            <path d="M366.078,80.01 C366.078,77.533 372.661,75.526 380.78,75.526" fill-opacity="0" stroke="#000000" stroke-width="5"/>
          </g>
          <g>
            <path d="M380.78,75.526 C388.9,75.526 395.482,77.533 395.482,80.01" fill="#8080FF"/>
            <path d="M380.78,75.526 C388.9,75.526 395.482,77.533 395.482,80.01" fill-opacity="0" stroke="#000000" stroke-width="5"/>
          </g>
          <g>
            <path d="M395.482,80.01 C395.482,82.486 388.9,84.493 380.78,84.493" fill="#8080FF"/>
            <path d="M395.482,80.01 C395.482,82.486 388.9,84.493 380.78,84.493" fill-opacity="0" stroke="#000000" stroke-width="5"/>
          </g>
        </g>
      </g>
      <path d="M306.305,191.045 L298.129,182.857 L306.305,174.668 L306.305,191.045 z M280.762,192.6 L288.953,184.42 L289.305,184.756 C291.243,186.6 294.319,186.6 296.166,184.756 L296.518,184.404 L304.758,192.599 L280.762,192.599 z M279.29,174.669 L287.458,182.858 L279.274,191.046 L279.29,174.669 z M304.739,173.108 L294.678,183.161 C293.651,184.194 291.823,184.169 290.774,183.126 L280.774,173.108 L304.739,173.108 z M277.071,194.805 L308.61,194.805 L308.61,170.877 L277.071,170.877 L277.071,194.805 z" fill="#000000"/>
      <path d="M251.112,67.796 L242.936,59.608 L251.112,51.419 L251.112,67.796 z M225.569,69.351 L233.76,61.171 L234.112,61.507 C236.05,63.351 239.126,63.351 240.973,61.507 L241.325,61.155 L249.565,69.35 L225.569,69.35 z M224.097,51.42 L232.265,59.609 L224.081,67.797 L224.097,51.42 z M249.546,49.859 L239.485,59.912 C238.458,60.945 236.63,60.92 235.581,59.877 L225.581,49.859 L249.546,49.859 z M221.878,71.556 L253.417,71.556 L253.417,47.628 L221.878,47.628 L221.878,71.556 z" fill="#000000"/>
      <g>
        <g>
          <path d="M274.597,213.635 C281.225,213.635 286.598,219.008 286.598,225.635 L286.597,323.135 C286.598,329.762 281.225,335.135 274.598,335.135 L135.597,335.135 C128.97,335.135 123.597,329.762 123.597,323.135 L123.597,225.635 C123.597,219.008 128.97,213.635 135.597,213.635 L274.597,213.635 z" fill="#000000"/>
          <path d="M274.597,213.635 C281.225,213.635 286.598,219.008 286.598,225.635 L286.597,323.135 C286.598,329.762 281.225,335.135 274.598,335.135 L135.597,335.135 C128.97,335.135 123.597,329.762 123.597,323.135 L123.597,225.635 C123.597,219.008 128.97,213.635 135.597,213.635 L274.597,213.635 z" fill-opacity="0" stroke="#000000" stroke-width="5"/>
        </g>
        <g>
          <path d="M151.848,233.135 L258.348,233.135 C264.975,233.135 270.348,238.508 270.348,245.135 L270.348,303.635 C270.348,310.262 264.975,315.635 258.348,315.635 L151.848,315.635 C145.22,315.635 139.848,310.262 139.848,303.635 L139.848,245.135 C139.848,238.508 145.22,233.135 151.848,233.135 z" fill="#FFFFFF"/>
          <path d="M151.848,233.135 L258.348,233.135 C264.975,233.135 270.348,238.508 270.348,245.135 L270.348,303.635 C270.348,310.262 264.975,315.635 258.348,315.635 L151.848,315.635 C145.22,315.635 139.848,310.262 139.848,303.635 L139.848,245.135 C139.848,238.508 145.22,233.135 151.848,233.135 z" fill-opacity="0" stroke="#000000" stroke-width="5"/>
        </g>
      </g>
      <g>
        <g>
          <path d="M76.447,33.441 L115.947,33.441 C122.574,33.441 127.947,38.814 127.947,45.441 L127.947,151.941 C127.947,158.569 122.574,163.941 115.947,163.941 L76.447,163.941 C69.819,163.941 64.447,158.569 64.447,151.941 L64.447,45.441 C64.447,38.814 69.819,33.441 76.447,33.441 z" fill="#000000"/>
          <path d="M76.447,33.441 L115.947,33.441 C122.574,33.441 127.947,38.814 127.947,45.441 L127.947,151.941 C127.947,158.569 122.574,163.941 115.947,163.941 L76.447,163.941 C69.819,163.941 64.447,158.569 64.447,151.941 L64.447,45.441 C64.447,38.814 69.819,33.441 76.447,33.441 z" fill-opacity="0" stroke="#000000" stroke-width="5"/>
        </g>
        <g>
          <path d="M76.447,48.191 L115.947,48.191 L115.947,149.191 L76.447,149.191 z" fill="#FFFFFF"/>
          <path d="M76.447,48.191 L115.947,48.191 L115.947,149.191 L76.447,149.191 z" fill-opacity="0" stroke="#000000" stroke-width="5"/>
        </g>
      </g>
      <g>
        <path d="M131.216,78.934 L344.942,89.182" fill-opacity="0" stroke="#000000" stroke-width="5.5"/>
        <path d="M344.669,94.875 L360.124,89.91 L345.215,83.488 z" fill="#000000" fill-opacity="1" stroke="#000000" stroke-width="5.5" stroke-opacity="1"/>
      </g>
      <g>
        <path d="M282.269,244.041 L360.921,132.645" fill-opacity="0" stroke="#000000" stroke-width="5.5"/>
        <path d="M365.577,135.933 L369.688,120.228 L356.264,129.357 z" fill="#000000" fill-opacity="1" stroke="#000000" stroke-width="5.5" stroke-opacity="1"/>
      </g>
      <path d="M22.884,154.372 L169.51,25.834" fill-opacity="0" stroke="#FF0000" stroke-width="5.5"/>
      <path d="M22.884,25.834 L169.51,154.372" fill-opacity="0" stroke="#FF0000" stroke-width="5.5"/>
      <g>
        <path d="M109.407,204.051 C102.81,195.009 98.526,180.411 98.526,163.941" fill-opacity="0" stroke="#000000" stroke-width="5.5"/>
        <path d="M106.435,208.916 L122.378,211.976 L112.378,199.187 z" fill="#000000" fill-opacity="1" stroke="#000000" stroke-width="5.5" stroke-opacity="1"/>
      </g>
      <text transform="matrix(1, 0, 0, 1, 239.172, 31.331)">
        <tspan x="-44.733" y="-0.297" font-family="Helvetica" font-size="17" fill="#000000">Buy Toaster</tspan>
      </text>
      <text transform="matrix(1, 0, 0, 1, 268.426, 162.135)">
        <tspan x="-44.733" y="-0.297" font-family="Helvetica" font-size="17" fill="#000000">Buy Toaster</tspan>
      </text>
    </g>
  </g>
</svg>
