<?xml version="1.0" encoding="UTF-8"?>
<!DOCTYPE svg PUBLIC "-//W3C//DTD SVG 1.1//EN" "http://www.w3.org/Graphics/SVG/1.1/DTD/svg11.dtd">
<svg version="1.1" xmlns="http://www.w3.org/2000/svg" xmlns:xlink="http://www.w3.org/1999/xlink" x="0" y="0" width="900" height="320" viewBox="0, 0, 900, 320">
  <g id="Layer_1">
    <g>
      <g>
        <path d="M169.721,24.5 L297.77,24.5 C303.92,24.5 308.905,27.074 308.905,30.25 L308.905,74.811 C308.905,77.986 303.92,80.56 297.77,80.56 L169.721,80.56 C163.572,80.56 158.587,77.986 158.587,74.811 L158.587,30.25 C158.587,27.074 163.572,24.5 169.721,24.5 z" fill="#FFFFFF"/>
        <path d="M169.721,24.5 L297.77,24.5 C303.92,24.5 308.905,27.074 308.905,30.25 L308.905,74.811 C308.905,77.986 303.92,80.56 297.77,80.56 L169.721,80.56 C163.572,80.56 158.587,77.986 158.587,74.811 L158.587,30.25 C158.587,27.074 163.572,24.5 169.721,24.5 z" fill-opacity="0" stroke="#000000" stroke-width="5"/>
      </g>
      <text fill="#000000" transform="matrix(1, 0, -0, 1, 241.6, 47.748)">
        <tspan x="-52.119" y="6.822" font-family="HelveticaNeue-Bold" font-size="18">hello++.json</tspan>
      </text>
    </g>
    <g>
      <g>
        <path d="M206.035,212.611 L180.5,165.556 L206.035,118.5 L257.106,118.5 L282.641,165.556 L257.106,212.611 z" fill="#FFFFFF"/>
        <path d="M206.035,212.611 L180.5,165.556 L206.035,118.5 L257.106,118.5 L282.641,165.556 L257.106,212.611 z" fill-opacity="0" stroke="#000000" stroke-width="5"/>
      </g>
      <text fill="#000000" transform="matrix(1, 0, -0, 1, 232.352, 163.608)">
        <tspan x="-39.141" y="6.822" font-family="HelveticaNeue-Bold" font-size="18">Template</tspan>
      </text>
    </g>
    <g>
      <g>
        <path d="M372.5,22.5 L456.5,22.5 L456.5,130.5 L372.5,130.5 z" fill="#FFFFFF"/>
        <path d="M372.5,22.5 L456.5,22.5 L456.5,130.5 L372.5,130.5 z" fill-opacity="0" stroke="#000000" stroke-width="5"/>
      </g>
      <g>
        <path d="M405.5,34.5 L423.5,34.5 C428.471,34.5 432.5,37.186 432.5,40.5 L432.5,40.5 C432.5,43.814 428.471,46.5 423.5,46.5 L405.5,46.5 C400.529,46.5 396.5,43.814 396.5,40.5 L396.5,40.5 C396.5,37.186 400.529,34.5 405.5,34.5 z" fill="#80FF80"/>
        <path d="M405.5,34.5 L423.5,34.5 C428.471,34.5 432.5,37.186 432.5,40.5 L432.5,40.5 C432.5,43.814 428.471,46.5 423.5,46.5 L405.5,46.5 C400.529,46.5 396.5,43.814 396.5,40.5 L396.5,40.5 C396.5,37.186 400.529,34.5 405.5,34.5 z" fill-opacity="0" stroke="#000000" stroke-width="5"/>
      </g>
    </g>
    <g>
      <g>
        <path d="M372.5,190.5 L456.5,190.5 L456.5,298.5 L372.5,298.5 z" fill="#FFFFFF"/>
        <path d="M372.5,190.5 L456.5,190.5 L456.5,298.5 L372.5,298.5 z" fill-opacity="0" stroke="#000000" stroke-width="5"/>
      </g>
      <g>
        <path d="M405.5,202.5 L423.5,202.5 C428.471,202.5 432.5,205.186 432.5,208.5 L432.5,208.5 C432.5,211.814 428.471,214.5 423.5,214.5 L405.5,214.5 C400.529,214.5 396.5,211.814 396.5,208.5 L396.5,208.5 C396.5,205.186 400.529,202.5 405.5,202.5 z" fill="#FF8080"/>
        <path d="M405.5,202.5 L423.5,202.5 C428.471,202.5 432.5,205.186 432.5,208.5 L432.5,208.5 C432.5,211.814 428.471,214.5 423.5,214.5 L405.5,214.5 C400.529,214.5 396.5,211.814 396.5,208.5 L396.5,208.5 C396.5,205.186 400.529,202.5 405.5,202.5 z" fill-opacity="0" stroke="#000000" stroke-width="5"/>
      </g>
    </g>
    <g>
      <g>
        <g>
          <path d="M564.5,22.5 L648.5,22.5 L648.5,130.5 L564.5,130.5 z" fill="#FFFFFF"/>
          <path d="M564.5,22.5 L648.5,22.5 L648.5,130.5 L564.5,130.5 z" fill-opacity="0" stroke="#000000" stroke-width="5"/>
        </g>
        <g>
          <path d="M597.5,34.5 L615.5,34.5 C620.471,34.5 624.5,37.186 624.5,40.5 L624.5,40.5 C624.5,43.814 620.471,46.5 615.5,46.5 L597.5,46.5 C592.529,46.5 588.5,43.814 588.5,40.5 L588.5,40.5 C588.5,37.186 592.529,34.5 597.5,34.5 z" fill="#80FF80"/>
          <path d="M597.5,34.5 L615.5,34.5 C620.471,34.5 624.5,37.186 624.5,40.5 L624.5,40.5 C624.5,43.814 620.471,46.5 615.5,46.5 L597.5,46.5 C592.529,46.5 588.5,43.814 588.5,40.5 L588.5,40.5 C588.5,37.186 592.529,34.5 597.5,34.5 z" fill-opacity="0" stroke="#000000" stroke-width="5"/>
        </g>
      </g>
      <g>
        <path d="M600.5,46.5 L586.596,67.357" fill-opacity="0" stroke="#000000" stroke-width="5"/>
        <path d="M582.102,64.361 L578.608,79.338 L591.089,70.352 z" fill="#000000" fill-opacity="1" stroke="#000000" stroke-width="5" stroke-opacity="1"/>
      </g>
      <g>
        <path d="M612.5,46.5 L595.259,89.602" fill-opacity="0" stroke="#000000" stroke-width="5"/>
        <path d="M590.246,87.596 L589.911,102.972 L600.273,91.607 z" fill="#000000" fill-opacity="1" stroke="#000000" stroke-width="5" stroke-opacity="1"/>
      </g>
      <g>
        <path d="M612.5,46.5 L620.086,76.843" fill-opacity="0" stroke="#000000" stroke-width="5"/>
        <path d="M614.847,78.153 L623.578,90.813 L625.325,75.534 z" fill="#000000" fill-opacity="1" stroke="#000000" stroke-width="5" stroke-opacity="1"/>
      </g>
      <g>
        <path d="M612.5,46.5 L623.631,57.631" fill-opacity="0" stroke="#000000" stroke-width="5"/>
        <path d="M619.812,61.449 L633.813,67.813 L627.449,53.812 z" fill="#000000" fill-opacity="1" stroke="#000000" stroke-width="5" stroke-opacity="1"/>
      </g>
    </g>
    <g>
      <g>
        <g>
          <path d="M756.5,22.5 L840.5,22.5 L840.5,130.5 L756.5,130.5 z" fill="#FFFFFF"/>
          <path d="M756.5,22.5 L840.5,22.5 L840.5,130.5 L756.5,130.5 z" fill-opacity="0" stroke="#000000" stroke-width="5"/>
        </g>
        <g>
          <path d="M789.5,34.5 L807.5,34.5 C812.471,34.5 816.5,37.186 816.5,40.5 L816.5,40.5 C816.5,43.814 812.471,46.5 807.5,46.5 L789.5,46.5 C784.529,46.5 780.5,43.814 780.5,40.5 L780.5,40.5 C780.5,37.186 784.529,34.5 789.5,34.5 z" fill="#80FF80"/>
          <path d="M789.5,34.5 L807.5,34.5 C812.471,34.5 816.5,37.186 816.5,40.5 L816.5,40.5 C816.5,43.814 812.471,46.5 807.5,46.5 L789.5,46.5 C784.529,46.5 780.5,43.814 780.5,40.5 L780.5,40.5 C780.5,37.186 784.529,34.5 789.5,34.5 z" fill-opacity="0" stroke="#000000" stroke-width="5"/>
        </g>
      </g>
      <g>
        <path d="M732.5,46.5 L775.602,63.741" fill-opacity="0" stroke="#000000" stroke-width="5"/>
        <path d="M773.596,68.754 L788.972,69.089 L777.607,58.727 z" fill="#000000" fill-opacity="1" stroke="#000000" stroke-width="5" stroke-opacity="1"/>
      </g>
      <g>
        <path d="M864.5,46.5 L832.779,62.361" fill-opacity="0" stroke="#000000" stroke-width="5"/>
        <path d="M830.364,57.531 L819.899,68.801 L835.194,67.191 z" fill="#000000" fill-opacity="1" stroke="#000000" stroke-width="5" stroke-opacity="1"/>
      </g>
      <g>
        <path d="M876.5,118.5 L834.347,110.069" fill-opacity="0" stroke="#000000" stroke-width="5"/>
        <path d="M835.406,104.774 L820.226,107.245 L833.288,115.364 z" fill="#000000" fill-opacity="1" stroke="#000000" stroke-width="5" stroke-opacity="1"/>
      </g>
      <g>
        <path d="M732.5,130.5 L765.94,105.42" fill-opacity="0" stroke="#000000" stroke-width="5"/>
        <path d="M769.18,109.74 L777.46,96.78 L762.7,101.1 z" fill="#000000" fill-opacity="1" stroke="#000000" stroke-width="5" stroke-opacity="1"/>
      </g>
    </g>
    <g>
      <g>
        <g>
          <path d="M564.5,190.5 L648.5,190.5 L648.5,298.5 L564.5,298.5 z" fill="#FFFFFF"/>
          <path d="M564.5,190.5 L648.5,190.5 L648.5,298.5 L564.5,298.5 z" fill-opacity="0" stroke="#000000" stroke-width="5"/>
        </g>
        <g>
          <path d="M597.5,202.5 L615.5,202.5 C620.471,202.5 624.5,205.186 624.5,208.5 L624.5,208.5 C624.5,211.814 620.471,214.5 615.5,214.5 L597.5,214.5 C592.529,214.5 588.5,211.814 588.5,208.5 L588.5,208.5 C588.5,205.186 592.529,202.5 597.5,202.5 z" fill="#FF8080"/>
          <path d="M597.5,202.5 L615.5,202.5 C620.471,202.5 624.5,205.186 624.5,208.5 L624.5,208.5 C624.5,211.814 620.471,214.5 615.5,214.5 L597.5,214.5 C592.529,214.5 588.5,211.814 588.5,208.5 L588.5,208.5 C588.5,205.186 592.529,202.5 597.5,202.5 z" fill-opacity="0" stroke="#000000" stroke-width="5"/>
        </g>
      </g>
      <g>
        <path d="M600.5,214.5 L589.369,225.631" fill-opacity="0" stroke="#000000" stroke-width="5"/>
        <path d="M585.551,221.812 L579.187,235.813 L593.188,229.449 z" fill="#000000" fill-opacity="1" stroke="#000000" stroke-width="5" stroke-opacity="1"/>
      </g>
      <g>
        <path d="M612.5,214.5 L595.259,257.602" fill-opacity="0" stroke="#000000" stroke-width="5"/>
        <path d="M590.246,255.596 L589.911,270.972 L600.273,259.607 z" fill="#000000" fill-opacity="1" stroke="#000000" stroke-width="5" stroke-opacity="1"/>
      </g>
      <g>
        <path d="M612.5,214.5 L618.745,233.234" fill-opacity="0" stroke="#000000" stroke-width="5"/>
        <path d="M613.622,234.942 L623.298,246.895 L623.867,231.526 z" fill="#000000" fill-opacity="1" stroke="#000000" stroke-width="5" stroke-opacity="1"/>
      </g>
      <g>
        <path d="M612.5,214.5 L633.357,228.404" fill-opacity="0" stroke="#000000" stroke-width="5"/>
        <path d="M630.361,232.898 L645.338,236.392 L636.352,223.911 z" fill="#000000" fill-opacity="1" stroke="#000000" stroke-width="5" stroke-opacity="1"/>
      </g>
    </g>
    <g>
      <g>
        <g>
          <path d="M756.5,190.5 L840.5,190.5 L840.5,298.5 L756.5,298.5 z" fill="#FFFFFF"/>
          <path d="M756.5,190.5 L840.5,190.5 L840.5,298.5 L756.5,298.5 z" fill-opacity="0" stroke="#000000" stroke-width="5"/>
        </g>
        <g>
          <path d="M789.5,202.5 L807.5,202.5 C812.471,202.5 816.5,205.186 816.5,208.5 L816.5,208.5 C816.5,211.814 812.471,214.5 807.5,214.5 L789.5,214.5 C784.529,214.5 780.5,211.814 780.5,208.5 L780.5,208.5 C780.5,205.186 784.529,202.5 789.5,202.5 z" fill="#FF8080"/>
          <path d="M789.5,202.5 L807.5,202.5 C812.471,202.5 816.5,205.186 816.5,208.5 L816.5,208.5 C816.5,211.814 812.471,214.5 807.5,214.5 L789.5,214.5 C784.529,214.5 780.5,211.814 780.5,208.5 L780.5,208.5 C780.5,205.186 784.529,202.5 789.5,202.5 z" fill-opacity="0" stroke="#000000" stroke-width="5"/>
        </g>
      </g>
      <g>
        <path d="M732.5,214.5 L764.221,230.361" fill-opacity="0" stroke="#000000" stroke-width="5"/>
        <path d="M761.806,235.191 L777.101,236.801 L766.636,225.531 z" fill="#000000" fill-opacity="1" stroke="#000000" stroke-width="5" stroke-opacity="1"/>
      </g>
      <g>
        <path d="M864.5,202.5 L831.06,227.58" fill-opacity="0" stroke="#000000" stroke-width="5"/>
        <path d="M827.82,223.26 L819.54,236.22 L834.3,231.9 z" fill="#000000" fill-opacity="1" stroke="#000000" stroke-width="5" stroke-opacity="1"/>
      </g>
      <g>
        <path d="M732.5,298.5 L765.94,273.42" fill-opacity="0" stroke="#000000" stroke-width="5"/>
        <path d="M769.18,277.74 L777.46,264.78 L762.7,269.1 z" fill="#000000" fill-opacity="1" stroke="#000000" stroke-width="5" stroke-opacity="1"/>
      </g>
      <g>
        <path d="M864.5,298.5 L821.398,281.259" fill-opacity="0" stroke="#000000" stroke-width="5"/>
        <path d="M823.404,276.246 L808.028,275.911 L819.393,286.273 z" fill="#000000" fill-opacity="1" stroke="#000000" stroke-width="5" stroke-opacity="1"/>
      </g>
    </g>
    <g>
      <g>
        <path d="M456.5,238.5 L546.3,238.5" fill-opacity="0" stroke="#000000" stroke-width="5"/>
        <path d="M546.3,243.9 L560.7,238.5 L546.3,233.1 z" fill="#000000" fill-opacity="1" stroke="#000000" stroke-width="5" stroke-opacity="1"/>
      </g>
      <text fill="#000000" transform="matrix(1, 0, -0, 1, 510, 215.523)">
        <tspan x="-31.32" y="6.822" font-family="HelveticaNeue-Bold" font-size="18">Linking</tspan>
      </text>
    </g>
    <g>
      <g>
        <path d="M456.5,70.5 L546.3,70.5" fill-opacity="0" stroke="#000000" stroke-width="5"/>
        <path d="M546.3,75.9 L560.7,70.5 L546.3,65.1 z" fill="#000000" fill-opacity="1" stroke="#000000" stroke-width="5" stroke-opacity="1"/>
      </g>
      <text fill="#000000" transform="matrix(1, 0, -0, 1, 513.541, 43.152)">
        <tspan x="-31.32" y="6.822" font-family="HelveticaNeue-Bold" font-size="18">Linking</tspan>
      </text>
    </g>
    <g>
      <g>
        <path d="M20.5,137.028 L112.5,137.028 C116.918,137.028 120.5,139.691 120.5,142.977 L120.5,189.079 C120.5,192.365 116.918,195.028 112.5,195.028 L20.5,195.028 C16.082,195.028 12.5,192.365 12.5,189.079 L12.5,142.977 C12.5,139.691 16.082,137.028 20.5,137.028 z" fill="#FFFFFF"/>
        <path d="M20.5,137.028 L112.5,137.028 C116.918,137.028 120.5,139.691 120.5,142.977 L120.5,189.079 C120.5,192.365 116.918,195.028 112.5,195.028 L20.5,195.028 C16.082,195.028 12.5,192.365 12.5,189.079 L12.5,142.977 C12.5,139.691 16.082,137.028 20.5,137.028 z" fill-opacity="0" stroke="#000000" stroke-width="5"/>
      </g>
      <text fill="#000000" transform="matrix(1, 0, -0, 1, 67.403, 162.215)">
        <tspan x="-41.319" y="6.822" font-family="HelveticaNeue-Bold" font-size="18">hello.json</tspan>
      </text>
    </g>
    <g>
      <g>
        <path d="M268.424,139.908 L356.564,91.29" fill-opacity="0" stroke="#000000" stroke-width="5"/>
        <path d="M359.172,96.019 L369.173,84.335 L353.955,86.562 z" fill="#000000" fill-opacity="1" stroke="#000000" stroke-width="5" stroke-opacity="1"/>
      </g>
      <text fill="#000000" transform="matrix(1, 0, -0, 1, 305.367, 93.658)">
        <tspan x="-31.32" y="6.822" font-family="HelveticaNeue-Bold" font-size="18">load(...)</tspan>
      </text>
    </g>
    <g>
      <g>
        <path d="M269.542,191.78 L355.927,230.979" fill-opacity="0" stroke="#000000" stroke-width="5"/>
        <path d="M353.695,235.897 L369.04,236.93 L358.158,226.062 z" fill="#000000" fill-opacity="1" stroke="#000000" stroke-width="5" stroke-opacity="1"/>
      </g>
      <text fill="#FF8080" transform="matrix(1, 0, -0, 1, 305.278, 237.764)">
        <tspan x="-31.32" y="6.822" font-family="HelveticaNeue-Bold" font-size="18">load(...)</tspan>
      </text>
    </g>
    <g>
      <path d="M231.571,82.5 L231.571,100.3" fill-opacity="0" stroke="#000000" stroke-width="5"/>
      <path d="M226.171,100.3 L231.571,114.7 L236.971,100.3 z" fill="#000000" fill-opacity="1" stroke="#000000" stroke-width="5" stroke-opacity="1"/>
    </g>
    <g>
      <path d="M120.5,166.5 L162.302,165.842" fill-opacity="0" stroke="#000000" stroke-width="5"/>
      <path d="M162.387,171.241 L176.7,165.615 L162.217,160.443 z" fill="#000000" fill-opacity="1" stroke="#000000" stroke-width="5" stroke-opacity="1"/>
    </g>
    <g>
      <g>
        <path d="M648.5,70.5 L738.3,70.5" fill-opacity="0" stroke="#000000" stroke-width="5"/>
        <path d="M738.3,75.9 L752.7,70.5 L738.3,65.1 z" fill="#000000" fill-opacity="1" stroke="#000000" stroke-width="5" stroke-opacity="1"/>
      </g>
      <text fill="#000000" transform="matrix(1, 0, -0, 1, 699.049, 42.605)">
        <tspan x="-15.849" y="6.822" font-family="HelveticaNeue-Bold" font-size="18">Env</tspan>
      </text>
    </g>
    <g>
      <g>
        <path d="M648.5,238.5 L738.3,238.5" fill-opacity="0" stroke="#000000" stroke-width="5"/>
        <path d="M738.3,243.9 L752.7,238.5 L738.3,233.1 z" fill="#000000" fill-opacity="1" stroke="#000000" stroke-width="5" stroke-opacity="1"/>
      </g>
      <text fill="#000000" transform="matrix(1, 0, -0, 1, 702, 215.523)">
        <tspan x="-15.849" y="6.822" font-family="HelveticaNeue-Bold" font-size="18">Env</tspan>
      </text>
    </g>
  </g>
</svg>
